<svg width="1183" height="1307" viewBox="0 0 1183 1307" fill="none" xmlns="http://www.w3.org/2000/svg">
<path d="M105.852 728.674C142.225 728.674 172.59 741.326 197.261 766.946C221.615 792.566 233.951 823.879 233.951 861.518C233.951 899.157 221.615 930.471 197.261 956.09C172.906 981.71 142.542 994.362 105.852 994.362H0.208984V728.674H105.852ZM105.852 944.387C128.941 944.387 147.602 936.796 162.152 921.298C176.702 906.116 183.66 886.189 183.66 861.518C183.66 836.847 176.385 816.921 162.152 801.738C147.919 786.556 128.941 778.649 105.852 778.649H52.714V944.387H105.852Z" fill="white"/>
<path d="M430.371 970.656C410.761 989.95 387.039 999.755 358.889 999.755C330.738 999.755 307.016 989.95 287.722 970.656C268.428 951.362 258.623 927.64 258.623 899.49C258.623 871.339 268.428 847.617 287.722 828.323C307.016 809.029 330.738 799.224 358.889 799.224C387.039 799.224 410.761 809.029 430.371 828.323C449.981 847.617 459.47 871.339 459.47 899.49C459.47 927.64 449.665 951.362 430.371 970.656ZM322.515 937.129C332.32 946.934 344.339 951.995 359.205 951.995C374.071 951.995 386.09 946.934 395.895 937.129C405.7 927.324 410.761 914.672 410.761 899.49C410.761 884.307 405.7 871.656 395.895 861.851C386.09 852.045 373.754 846.985 359.205 846.985C344.655 846.985 332.32 852.045 322.515 861.851C312.71 871.656 307.965 884.307 307.965 899.49C307.965 914.672 312.71 927.324 322.515 937.129V937.129Z" fill="white"/>
<path d="M619.515 804.597H668.541V994.374H619.515V973.182C607.496 990.895 588.835 999.751 562.899 999.751C542.023 999.751 524.943 992.793 511.342 978.876C497.742 964.959 491.1 945.665 491.1 921.31V804.597H540.125V914.984C540.125 927.636 543.605 937.441 550.247 944.083C557.205 950.725 566.062 954.205 577.448 954.205C590.1 954.205 600.221 950.409 607.812 942.502C615.403 934.594 619.199 922.891 619.199 907.077V804.597H619.515Z" fill="white"/>
<path d="M821.944 851.703H778.928V930.777C778.928 937.419 780.51 942.163 783.989 945.326C787.152 948.489 792.213 950.071 798.539 950.387C804.865 950.703 812.772 950.703 821.944 950.387V994.668C788.417 998.464 764.695 995.301 750.778 985.179C736.861 975.058 730.219 957.029 730.219 930.777V851.703H697.324V804.575H730.219V766.303L779.245 751.437V804.575H822.261V851.703H821.944Z" fill="white"/>
<path d="M1012.36 970.656C992.745 989.95 969.023 999.755 940.873 999.755C912.723 999.755 889.001 989.95 869.707 970.656C850.413 951.362 840.607 927.64 840.607 899.49C840.607 871.339 850.413 847.617 869.707 828.323C889.001 809.029 912.723 799.224 940.873 799.224C969.023 799.224 992.745 809.029 1012.36 828.323C1031.97 847.617 1041.45 871.339 1041.45 899.49C1041.45 927.64 1031.65 951.362 1012.36 970.656ZM904.499 937.129C914.304 946.934 926.323 951.995 941.189 951.995C956.055 951.995 968.074 946.934 977.879 937.129C987.685 927.324 992.745 914.672 992.745 899.49C992.745 884.307 987.685 871.656 977.879 861.851C968.074 852.045 955.739 846.985 941.189 846.985C926.64 846.985 914.304 852.045 904.499 861.851C894.694 871.656 889.949 884.307 889.949 899.49C889.949 914.672 894.694 927.324 904.499 937.129Z" fill="white"/>
<path d="M1124.96 837.172C1129.38 825.153 1136.97 815.98 1147.41 809.971C1157.85 803.961 1169.55 800.798 1182.52 800.798V855.517C1167.66 853.619 1154.37 856.782 1142.35 864.69C1130.33 872.597 1124.64 885.565 1124.64 903.91V994.687H1075.61V804.594H1124.64V837.172H1124.96Z" fill="white"/>
<path d="M489.884 1017.45H545.868V1300.85H503.484L382.027 1127.52V1300.85H326.043V1017.45H368.427L489.884 1190.14V1017.45V1017.45Z" fill="white"/>
<path d="M640.123 1220.83C647.082 1246.13 666.059 1258.78 697.056 1258.78C716.983 1258.78 732.165 1252.14 742.287 1238.54L784.354 1262.89C764.427 1291.68 735.012 1306.23 696.107 1306.23C662.58 1306.23 635.695 1296.1 615.452 1275.86C595.209 1255.62 585.088 1230 585.088 1199.32C585.088 1168.64 595.209 1143.33 615.136 1123.09C635.063 1102.85 660.682 1092.41 691.996 1092.41C721.727 1092.41 746.082 1102.53 765.376 1123.09C784.67 1143.65 794.159 1168.95 794.159 1199.32C794.159 1205.96 793.526 1213.24 792.261 1220.83H639.807H640.123ZM639.174 1180.34H742.287C739.44 1166.42 733.114 1156.3 723.941 1149.66C714.769 1143.02 704.015 1139.54 692.312 1139.54C678.395 1139.54 666.692 1143.02 657.519 1150.29C648.347 1157.57 642.337 1167.37 639.174 1180.34V1180.34Z" fill="white"/>
<path d="M940.92 1148.38H895.057V1232.51C895.057 1239.47 896.955 1244.53 900.434 1248.01C903.913 1251.17 908.974 1253.07 915.933 1253.39C922.575 1253.7 931.115 1253.7 940.92 1253.39V1300.83C905.179 1304.94 879.875 1301.46 865.009 1290.71C850.46 1279.96 842.869 1260.66 842.869 1232.83V1148.69H807.76V1098.4H842.869V1057.6L895.057 1041.79V1098.4H940.92V1148.69V1148.38Z" fill="white"/>
<path d="M72.3259 1017.74C86.5592 1017.74 98.2621 1022.48 107.751 1031.97C117.24 1041.46 121.668 1054.75 121.668 1071.51L121.668 1151.53H88.1407V1075.62C88.1407 1067.08 85.9266 1060.12 81.1822 1055.7C76.4378 1051.27 70.1119 1048.74 62.5208 1048.74C53.9808 1048.74 47.0223 1051.58 41.6453 1056.96C36.2683 1062.34 33.7379 1070.56 33.7379 1081.32L33.7379 1151.85H0.210686L0.210686 1021.54H33.7379V1036.08C41.9616 1024.07 54.9297 1017.74 72.6422 1017.74H72.3259Z" fill="white"/>
<path d="M249.129 1021.53H282.656V1151.85H249.129V1136.35C239.008 1149 224.774 1155.33 206.745 1155.33C188.717 1155.33 174.483 1148.69 162.148 1135.4C149.812 1122.12 143.486 1105.67 143.486 1086.38C143.486 1067.08 149.812 1050.63 162.148 1037.35C174.483 1024.07 189.349 1017.42 206.745 1017.42C225.091 1017.42 239.008 1023.75 249.129 1036.4V1020.9V1021.53ZM187.135 1113.26C193.777 1120.22 202.634 1123.7 213.071 1123.7C223.509 1123.7 232.049 1120.22 239.008 1113.26C245.966 1106.3 249.445 1097.45 249.445 1086.69C249.445 1075.94 245.966 1067.08 239.008 1060.12C232.049 1053.16 223.509 1049.69 213.071 1049.69C202.634 1049.69 194.094 1053.16 187.135 1060.12C180.177 1067.08 177.014 1075.94 177.014 1086.69C177.014 1097.45 180.493 1106.3 187.135 1113.26Z" fill="white"/>
<path d="M659.458 569.818V608.722L602.524 569.818H538.633L651.55 644.463C670.528 657.431 694.883 663.757 694.883 624.853V568.071L659.458 567.572V569.818Z" fill="#004D99"/>
<path d="M522.801 172.047C501.631 159.866 484.467 169.844 484.467 194.317V374.912C484.467 399.409 501.631 409.375 522.801 397.206L680.171 306.68C701.349 294.495 701.349 274.753 680.171 262.571L522.801 172.047Z" fill="white"/>
<path d="M342.529 159.92C342.529 95.7124 394.718 43.5237 458.926 43.5237H484.229V20.7505H455.447C380.801 20.7505 320.389 81.4791 320.389 156.125V278.531H342.529V160.237V159.92Z" fill="#004D99"/>
<path d="M723.669 44.7913C788.193 44.7913 840.381 96.98 840.381 161.504V279.799H861.257V157.392C861.257 82.7467 800.528 22.0181 725.883 22.0181H697.732V44.7913H723.669V44.7913Z" fill="#004D99"/>
<path d="M484.23 17.2586C484.23 7.82566 476.583 0.178711 467.15 0.178711C457.717 0.178711 450.07 7.82566 450.07 17.2586V48.5718C450.07 58.0048 457.717 65.6518 467.15 65.6518C476.583 65.6518 484.23 58.0048 484.23 48.5718V17.2586Z" fill="#0073E2"/>
<path d="M730.308 17.2586C730.308 7.82566 722.661 0.178711 713.228 0.178711C703.795 0.178711 696.148 7.82566 696.148 17.2586V48.5718C696.148 58.0048 703.795 65.6518 713.228 65.6518C722.661 65.6518 730.308 58.0048 730.308 48.5718V17.2586Z" fill="#0073E2"/>
<path d="M452.601 531.873C395.668 531.873 349.489 485.694 349.489 428.761L349.727 284.626C349.727 281.463 346.959 278.205 343.479 278.205H316.594C314.38 278.205 312.799 280.102 312.799 282.316V424.649C312.799 504.672 377.956 569.829 458.295 569.829H602.525L593.352 564.135L543.378 532.189H452.601V531.873Z" fill="white"/>
<path d="M860.302 278.205H838.794C834.999 278.205 831.784 281.512 831.784 285.624L831.52 428.761C831.52 485.694 785.34 531.873 728.407 531.873H677.8C667.679 531.873 659.455 540.097 659.455 550.218V569.829H723.979C804.318 569.829 868.712 504.084 868.712 423.745V287.121C868.712 282.06 865.363 278.205 860.619 278.205H860.302Z" fill="white"/>
<path d="M349.727 277.211C349.727 266.974 341.46 258.676 331.263 258.676C321.065 258.676 312.799 266.974 312.799 277.211V305.014C312.799 315.251 321.065 323.549 331.263 323.549C341.46 323.549 349.727 315.251 349.727 305.014V277.211Z" fill="white"/>
<path d="M850.719 258.676H849.788C839.847 258.676 831.789 266.974 831.789 277.211V305.014C831.789 315.251 839.847 323.549 849.788 323.549H850.719C860.659 323.549 868.717 315.251 868.717 305.014V277.211C868.717 266.974 860.659 258.676 850.719 258.676Z" fill="white"/>
</svg>
