<svg width="1183" height="1307" viewBox="0 0 1183 1307" fill="none" xmlns="http://www.w3.org/2000/svg">
<path d="M105.978 728.674C142.352 728.674 172.717 741.326 197.388 766.946C221.742 792.566 234.078 823.879 234.078 861.518C234.078 899.157 221.742 930.471 197.388 956.09C173.033 981.71 142.669 994.362 105.978 994.362H0.335938V728.674H105.978ZM105.978 944.387C129.068 944.387 147.729 936.796 162.279 921.298C176.829 906.116 183.787 886.189 183.787 861.518C183.787 836.847 176.512 816.921 162.279 801.738C148.046 786.556 129.068 778.649 105.978 778.649H52.8409V944.387H105.978Z" fill="white"/>
<path d="M430.498 970.656C410.888 989.95 387.166 999.755 359.016 999.755C330.865 999.755 307.143 989.95 287.849 970.656C268.555 951.362 258.75 927.64 258.75 899.49C258.75 871.339 268.555 847.617 287.849 828.323C307.143 809.029 330.865 799.224 359.016 799.224C387.166 799.224 410.888 809.029 430.498 828.323C450.108 847.617 459.597 871.339 459.597 899.49C459.597 927.64 449.792 951.362 430.498 970.656ZM322.642 937.129C332.447 946.934 344.466 951.995 359.332 951.995C374.198 951.995 386.217 946.934 396.022 937.129C405.827 927.324 410.888 914.672 410.888 899.49C410.888 884.307 405.827 871.656 396.022 861.851C386.217 852.045 373.881 846.985 359.332 846.985C344.782 846.985 332.447 852.045 322.642 861.851C312.836 871.656 308.092 884.307 308.092 899.49C308.092 914.672 312.836 927.324 322.642 937.129V937.129Z" fill="white"/>
<path d="M619.642 804.597H668.668V994.374H619.642V973.182C607.623 990.895 588.962 999.751 563.026 999.751C542.15 999.751 525.07 992.793 511.469 978.876C497.869 964.959 491.227 945.665 491.227 921.31V804.597H540.252V914.984C540.252 927.636 543.731 937.441 550.374 944.083C557.332 950.725 566.188 954.205 577.575 954.205C590.227 954.205 600.348 950.409 607.939 942.502C615.53 934.594 619.326 922.891 619.326 907.077V804.597H619.642Z" fill="white"/>
<path d="M822.071 851.703H779.055V930.777C779.055 937.419 780.637 942.163 784.116 945.326C787.279 948.489 792.34 950.071 798.666 950.387C804.991 950.703 812.899 950.703 822.071 950.387V994.668C788.544 998.464 764.822 995.301 750.905 985.179C736.988 975.058 730.346 957.029 730.346 930.777V851.703H697.451V804.575H730.346V766.303L779.372 751.437V804.575H822.388V851.703H822.071Z" fill="white"/>
<path d="M1012.48 970.656C992.872 989.95 969.15 999.755 941 999.755C912.85 999.755 889.128 989.95 869.834 970.656C850.54 951.362 840.734 927.64 840.734 899.49C840.734 871.339 850.54 847.617 869.834 828.323C889.128 809.029 912.85 799.224 941 799.224C969.15 799.224 992.872 809.029 1012.48 828.323C1032.09 847.617 1041.58 871.339 1041.58 899.49C1041.58 927.64 1031.78 951.362 1012.48 970.656ZM904.626 937.129C914.431 946.934 926.45 951.995 941.316 951.995C956.182 951.995 968.201 946.934 978.006 937.129C987.812 927.324 992.872 914.672 992.872 899.49C992.872 884.307 987.812 871.656 978.006 861.851C968.201 852.045 955.866 846.985 941.316 846.985C926.767 846.985 914.431 852.045 904.626 861.851C894.821 871.656 890.076 884.307 890.076 899.49C890.076 914.672 894.821 927.324 904.626 937.129Z" fill="white"/>
<path d="M1125.08 837.172C1129.51 825.153 1137.1 815.98 1147.54 809.971C1157.98 803.961 1169.68 800.798 1182.65 800.798V855.517C1167.78 853.619 1154.5 856.782 1142.48 864.69C1130.46 872.597 1124.77 885.565 1124.77 903.91V994.687H1075.74V804.594H1124.77V837.172H1125.08Z" fill="white"/>
<path d="M490.013 1017.45H545.997V1300.85H503.613L382.156 1127.52V1300.85H326.172V1017.45H368.555L490.013 1190.14V1017.45V1017.45Z" fill="white"/>
<path d="M640.252 1220.83C647.211 1246.13 666.188 1258.78 697.185 1258.78C717.112 1258.78 732.294 1252.14 742.415 1238.54L784.483 1262.89C764.556 1291.68 735.141 1306.23 696.236 1306.23C662.709 1306.23 635.824 1296.1 615.581 1275.86C595.338 1255.62 585.217 1230 585.217 1199.32C585.217 1168.64 595.338 1143.33 615.265 1123.09C635.191 1102.85 660.811 1092.41 692.125 1092.41C721.856 1092.41 746.211 1102.53 765.505 1123.09C784.799 1143.65 794.288 1168.95 794.288 1199.32C794.288 1205.96 793.655 1213.24 792.39 1220.83H639.936H640.252ZM639.303 1180.34H742.415C739.569 1166.42 733.243 1156.3 724.07 1149.66C714.898 1143.02 704.144 1139.54 692.441 1139.54C678.524 1139.54 666.821 1143.02 657.648 1150.29C648.476 1157.57 642.466 1167.37 639.303 1180.34V1180.34Z" fill="white"/>
<path d="M941.049 1148.38H895.186V1232.51C895.186 1239.47 897.084 1244.53 900.563 1248.01C904.042 1251.17 909.103 1253.07 916.061 1253.39C922.704 1253.7 931.244 1253.7 941.049 1253.39V1300.83C905.307 1304.94 880.004 1301.46 865.138 1290.71C850.588 1279.96 842.997 1260.66 842.997 1232.83V1148.69H807.889V1098.4H842.997V1057.6L895.186 1041.79V1098.4H941.049V1148.69V1148.38Z" fill="white"/>
<path d="M72.4509 1017.74C86.6842 1017.74 98.3871 1022.48 107.876 1031.97C117.365 1041.46 121.793 1054.75 121.793 1071.51L121.793 1151.53H88.2657V1075.62C88.2657 1067.08 86.0516 1060.12 81.3072 1055.7C76.5628 1051.27 70.2369 1048.74 62.6458 1048.74C54.1058 1048.74 47.1473 1051.58 41.7703 1056.96C36.3933 1062.34 33.8629 1070.56 33.8629 1081.32L33.8629 1151.85H0.335686L0.335686 1021.54H33.8629V1036.08C42.0866 1024.07 55.0547 1017.74 72.7672 1017.74H72.4509Z" fill="white"/>
<path d="M249.254 1021.53H282.781V1151.85H249.254V1136.35C239.133 1149 224.899 1155.33 206.87 1155.33C188.842 1155.33 174.608 1148.69 162.273 1135.4C149.937 1122.12 143.611 1105.67 143.611 1086.38C143.611 1067.08 149.937 1050.63 162.273 1037.35C174.608 1024.07 189.474 1017.42 206.87 1017.42C225.216 1017.42 239.133 1023.75 249.254 1036.4V1020.9V1021.53ZM187.26 1113.26C193.902 1120.22 202.759 1123.7 213.196 1123.7C223.634 1123.7 232.174 1120.22 239.133 1113.26C246.091 1106.3 249.57 1097.45 249.57 1086.69C249.57 1075.94 246.091 1067.08 239.133 1060.12C232.174 1053.16 223.634 1049.68 213.196 1049.68C202.759 1049.68 194.219 1053.16 187.26 1060.12C180.302 1067.08 177.139 1075.94 177.139 1086.69C177.139 1097.45 180.618 1106.3 187.26 1113.26Z" fill="white"/>
<path d="M659.586 569.818V608.722L602.653 569.818H538.762L651.679 644.463C670.657 657.431 695.011 663.757 695.011 624.853V568.071L659.586 567.572V569.818Z" fill="#004D99"/>
<path d="M522.93 172.047C501.76 159.866 484.596 169.844 484.596 194.317V374.912C484.596 399.409 501.76 409.375 522.93 397.206L680.3 306.68C701.478 294.495 701.478 274.753 680.3 262.571L522.93 172.047Z" fill="white"/>
<path d="M342.658 159.92C342.658 95.7124 394.847 43.5237 459.055 43.5237H484.358V20.7505H455.576C380.93 20.7505 320.518 81.4791 320.518 156.125V278.531H342.658V160.237V159.92Z" fill="#004D99"/>
<path d="M723.798 44.7913C788.322 44.7913 840.51 96.98 840.51 161.504V279.799H861.386V157.392C861.386 82.7467 800.657 22.0181 726.012 22.0181H697.861V44.7913H723.798V44.7913Z" fill="#004D99"/>
<path d="M484.359 17.2586C484.359 7.82566 476.712 0.178711 467.279 0.178711C457.846 0.178711 450.199 7.82566 450.199 17.2586V48.5718C450.199 58.0048 457.846 65.6518 467.279 65.6518C476.712 65.6518 484.359 58.0048 484.359 48.5718V17.2586Z" fill="#0073E2"/>
<path d="M730.437 17.2586C730.437 7.82566 722.79 0.178711 713.357 0.178711C703.924 0.178711 696.277 7.82566 696.277 17.2586V48.5718C696.277 58.0048 703.924 65.6518 713.357 65.6518C722.79 65.6518 730.437 58.0048 730.437 48.5718V17.2586Z" fill="#0073E2"/>
<path d="M452.73 531.873C395.797 531.873 349.618 485.694 349.618 428.761L349.856 284.626C349.856 281.463 347.088 278.205 343.608 278.205H316.723C314.509 278.205 312.928 280.102 312.928 282.316V424.649C312.928 504.672 378.084 569.829 458.423 569.829H602.654L593.481 564.135L543.507 532.189H452.73V531.873Z" fill="white"/>
<path d="M860.431 278.205H838.923C835.128 278.205 831.913 281.512 831.913 285.624L831.648 428.761C831.648 485.694 785.469 531.873 728.536 531.873H677.929C667.808 531.873 659.584 540.097 659.584 550.218V569.829H724.108C804.447 569.829 868.841 504.084 868.841 423.745V287.121C868.841 282.06 865.492 278.205 860.748 278.205H860.431Z" fill="white"/>
<path d="M349.856 277.211C349.856 266.974 341.589 258.676 331.392 258.676C321.194 258.676 312.928 266.974 312.928 277.211V305.014C312.928 315.251 321.194 323.549 331.392 323.549C341.589 323.549 349.856 315.251 349.856 305.014V277.211Z" fill="white"/>
<path d="M850.847 258.676H849.916C839.976 258.676 831.918 266.974 831.918 277.211V305.014C831.918 315.251 839.976 323.549 849.916 323.549H850.847C860.788 323.549 868.846 315.251 868.846 305.014V277.211C868.846 266.974 860.788 258.676 850.847 258.676Z" fill="white"/>
</svg>
