<svg width="682" height="753" viewBox="0 0 682 753" fill="none" xmlns="http://www.w3.org/2000/svg">
<path d="M61.4026 419.625C82.3478 419.625 99.8325 426.91 114.039 441.663C128.063 456.415 135.166 474.446 135.166 496.12C135.166 517.794 128.063 535.825 114.039 550.578C100.015 565.331 82.5299 572.616 61.4026 572.616H0.570312V419.625H61.4026ZM61.4026 543.839C74.6982 543.839 85.444 539.468 93.8221 530.543C102.2 521.801 106.207 510.326 106.207 496.12C106.207 481.914 102.018 470.439 93.8221 461.697C85.6262 452.955 74.6982 448.401 61.4026 448.401H30.8043V543.839H61.4026Z" fill="white"/>
<path d="M248.271 558.965C236.979 570.075 223.319 575.721 207.109 575.721C190.899 575.721 177.239 570.075 166.129 558.965C155.019 547.855 149.373 534.195 149.373 517.985C149.373 501.775 155.019 488.115 166.129 477.005C177.239 465.895 190.899 460.249 207.109 460.249C223.319 460.249 236.979 465.895 248.271 477.005C259.563 488.115 265.027 501.775 265.027 517.985C265.027 534.195 259.381 547.855 248.271 558.965ZM186.164 539.659C191.81 545.305 198.731 548.219 207.291 548.219C215.851 548.219 222.772 545.305 228.419 539.659C234.065 534.013 236.979 526.728 236.979 517.985C236.979 509.243 234.065 501.957 228.419 496.311C222.772 490.665 215.669 487.751 207.291 487.751C198.913 487.751 191.81 490.665 186.164 496.311C180.518 501.957 177.786 509.243 177.786 517.985C177.786 526.728 180.518 534.013 186.164 539.659V539.659Z" fill="white"/>
<path d="M357.186 463.343H385.417V572.623H357.186V560.42C350.265 570.619 339.519 575.719 324.584 575.719C312.564 575.719 302.728 571.712 294.897 563.698C287.065 555.684 283.24 544.574 283.24 530.55V463.343H311.471V526.907C311.471 534.193 313.474 539.839 317.299 543.664C321.306 547.488 326.406 549.492 332.962 549.492C340.248 549.492 346.076 547.306 350.447 542.753C354.818 538.2 357.004 531.461 357.004 522.354V463.343H357.186Z" fill="white"/>
<path d="M473.752 490.469H448.982V536.002C448.982 539.827 449.893 542.559 451.896 544.38C453.718 546.201 456.632 547.112 460.275 547.294C463.917 547.476 468.471 547.476 473.752 547.294V572.793C454.446 574.978 440.786 573.157 432.773 567.329C424.759 561.5 420.934 551.119 420.934 536.002V490.469H401.992V463.331H420.934V441.293L449.165 432.733V463.331H473.935V490.469H473.752Z" fill="white"/>
<path d="M583.396 558.965C572.104 570.075 558.444 575.721 542.234 575.721C526.024 575.721 512.364 570.075 501.254 558.965C490.144 547.855 484.498 534.195 484.498 517.985C484.498 501.775 490.144 488.115 501.254 477.005C512.364 465.895 526.024 460.249 542.234 460.249C558.444 460.249 572.104 465.895 583.396 477.005C594.688 488.115 600.152 501.775 600.152 517.985C600.152 534.195 594.506 547.855 583.396 558.965ZM521.289 539.659C526.935 545.305 533.856 548.219 542.416 548.219C550.976 548.219 557.897 545.305 563.544 539.659C569.19 534.013 572.104 526.728 572.104 517.985C572.104 509.243 569.19 501.957 563.544 496.311C557.897 490.665 550.794 487.751 542.416 487.751C534.038 487.751 526.935 490.665 521.289 496.311C515.643 501.957 512.911 509.243 512.911 517.985C512.911 526.728 515.643 534.013 521.289 539.659Z" fill="white"/>
<path d="M648.235 482.1C650.785 475.179 655.156 469.897 661.166 466.437C667.177 462.976 673.916 461.155 681.383 461.155V492.664C672.823 491.571 665.173 493.392 658.252 497.945C651.331 502.499 648.053 509.966 648.053 520.53V572.802H619.822V463.34H648.053V482.1H648.235Z" fill="white"/>
<path d="M282.54 585.909H314.777V749.1H290.372L220.433 649.292V749.1H188.195V585.909H212.601L282.54 685.354V585.909V585.909Z" fill="white"/>
<path d="M369.052 703.023C373.059 717.594 383.987 724.879 401.836 724.879C413.311 724.879 422.053 721.054 427.881 713.222L452.105 727.247C440.63 743.821 423.692 752.199 401.29 752.199C381.984 752.199 366.503 746.37 354.846 734.714C343.19 723.058 337.361 708.305 337.361 690.638C337.361 672.971 343.19 658.4 354.664 646.744C366.138 635.088 380.891 629.077 398.922 629.077C416.043 629.077 430.067 634.905 441.177 646.744C452.287 658.583 457.751 673.153 457.751 690.638C457.751 694.463 457.387 698.652 456.658 703.023H368.87H369.052ZM368.506 679.71H427.881C426.242 671.696 422.599 665.868 417.317 662.043C412.036 658.218 405.843 656.215 399.104 656.215C391.09 656.215 384.352 658.218 379.07 662.407C373.788 666.596 370.327 672.243 368.506 679.71V679.71Z" fill="white"/>
<path d="M542.26 661.303H515.851V709.75C515.851 713.757 516.943 716.671 518.947 718.675C520.95 720.496 523.864 721.589 527.871 721.771C531.696 721.953 536.614 721.953 542.26 721.771V749.091C521.679 751.459 507.108 749.455 498.548 743.263C490.17 737.07 485.799 725.96 485.799 709.932V661.485H465.582V632.526H485.799V609.031L515.851 599.924V632.526H542.26V661.485V661.303Z" fill="white"/>
<path d="M42.0951 586.077C50.2911 586.077 57.03 588.809 62.494 594.273C67.9579 599.737 70.5078 607.387 70.5078 617.04V663.119H51.2018V619.408C51.2018 614.49 49.9268 610.483 47.1948 607.933C44.4629 605.383 40.8202 603.926 36.449 603.926C31.5314 603.926 27.5245 605.566 24.4283 608.662C21.332 611.758 19.875 616.494 19.875 622.686L19.875 663.302H0.568933V588.263H19.875V596.641C24.6104 589.72 32.0779 586.077 42.2773 586.077H42.0951Z" fill="white"/>
<path d="M143.903 588.263H163.209V663.301H143.903V654.377C138.075 661.662 129.879 665.305 119.497 665.305C109.116 665.305 100.92 661.48 93.8165 653.83C86.7133 646.181 83.0707 636.71 83.0707 625.6C83.0707 614.49 86.7133 605.019 93.8165 597.369C100.92 589.72 109.48 585.895 119.497 585.895C130.061 585.895 138.075 589.538 143.903 596.823V587.898V588.263ZM108.205 641.081C112.03 645.088 117.129 647.092 123.14 647.092C129.15 647.092 134.068 645.088 138.075 641.081C142.082 637.074 144.085 631.975 144.085 625.782C144.085 619.59 142.082 614.49 138.075 610.483C134.068 606.476 129.15 604.473 123.14 604.473C117.129 604.473 112.212 606.476 108.205 610.483C104.198 614.49 102.377 619.59 102.377 625.782C102.377 631.975 104.38 637.074 108.205 641.081Z" fill="white"/>
<path d="M301.502 99.1008C289.311 92.0867 279.428 97.8327 279.428 111.925V215.917C279.428 230.023 289.311 235.762 301.502 228.755L392.12 176.627C404.315 169.61 404.315 158.242 392.12 151.227L301.502 99.1008Z" fill="white"/>
<path d="M197.695 92.1184C197.695 55.1455 227.746 25.0936 264.719 25.0936H279.29V11.9801H262.716C219.733 11.9801 184.945 46.9495 184.945 89.9328V160.418H197.695V92.3005V92.1184Z" fill="white"/>
<path d="M417.167 25.8231C454.322 25.8231 484.374 55.875 484.374 93.03V161.148H496.395V90.6623C496.395 47.679 461.425 12.7096 418.442 12.7096H402.232V25.8231H417.167V25.8231Z" fill="white"/>
<path d="M279.287 9.96943C279.287 4.53763 274.884 0.134277 269.452 0.134277C264.021 0.134277 259.617 4.53763 259.617 9.96943V28.0006C259.617 33.4324 264.021 37.8357 269.452 37.8357C274.884 37.8357 279.287 33.4324 279.287 28.0006V9.96943Z" fill="white"/>
<path d="M420.987 9.96943C420.987 4.53763 416.583 0.134277 411.152 0.134277C405.72 0.134277 401.316 4.53763 401.316 9.96943V28.0006C401.316 33.4324 405.72 37.8357 411.152 37.8357C416.583 37.8357 420.987 33.4324 420.987 28.0006V9.96943Z" fill="white"/>
<path d="M261.077 306.3C228.293 306.3 201.702 279.709 201.702 246.925L201.839 163.927C201.839 162.106 200.245 160.23 198.241 160.23H182.76C181.485 160.23 180.574 161.323 180.574 162.598V244.557C180.574 290.637 218.094 328.156 264.355 328.156H347.408L342.126 324.878L313.349 306.482H261.077V306.3Z" fill="white"/>
<path d="M495.846 160.23H483.461C481.275 160.23 479.424 162.134 479.424 164.502L479.271 246.925C479.271 279.709 452.68 306.3 419.896 306.3H390.755C384.927 306.3 380.191 311.036 380.191 316.864V328.156H417.346C463.608 328.156 500.688 290.298 500.688 244.037V165.364C500.688 162.45 498.76 160.23 496.028 160.23H495.846Z" fill="white"/>
<path d="M380.192 328.15V350.552L347.408 328.15H310.617L375.638 371.133C386.566 378.6 400.591 382.243 400.591 359.841V327.144L380.192 326.856V328.15Z" fill="white"/>
<path d="M201.839 159.657C201.839 153.763 197.078 148.984 191.206 148.984C185.334 148.984 180.574 153.763 180.574 159.657V175.667C180.574 181.562 185.334 186.34 191.206 186.34C197.078 186.34 201.839 181.562 201.839 175.667V159.657Z" fill="white"/>
<path d="M490.324 148.984H489.788C484.064 148.984 479.424 153.763 479.424 159.657V175.667C479.424 181.562 484.064 186.34 489.788 186.34H490.324C496.048 186.34 500.688 181.562 500.688 175.667V159.657C500.688 153.763 496.048 148.984 490.324 148.984Z" fill="white"/>
</svg>
