<svg width="682" height="753" viewBox="0 0 682 753" fill="none" xmlns="http://www.w3.org/2000/svg">
<path d="M61.4026 420.072C82.3478 420.072 99.8325 427.357 114.039 442.11C128.063 456.862 135.166 474.893 135.166 496.567C135.166 518.241 128.063 536.272 114.039 551.025C100.015 565.778 82.5299 573.063 61.4026 573.063H0.570312V420.072H61.4026ZM61.4026 544.286C74.6982 544.286 85.444 539.915 93.8221 530.99C102.2 522.248 106.207 510.774 106.207 496.567C106.207 482.361 102.018 470.887 93.8221 462.144C85.6262 453.402 74.6982 448.848 61.4026 448.848H30.8043V544.286H61.4026Z" fill="#002549"/>
<path d="M248.271 559.412C236.979 570.522 223.319 576.168 207.109 576.168C190.899 576.168 177.239 570.522 166.129 559.412C155.019 548.302 149.373 534.642 149.373 518.432C149.373 502.223 155.019 488.563 166.129 477.452C177.239 466.342 190.899 460.696 207.109 460.696C223.319 460.696 236.979 466.342 248.271 477.452C259.563 488.563 265.027 502.223 265.027 518.432C265.027 534.642 259.381 548.302 248.271 559.412ZM186.164 540.106C191.81 545.752 198.731 548.666 207.291 548.666C215.851 548.666 222.772 545.752 228.419 540.106C234.065 534.46 236.979 527.175 236.979 518.432C236.979 509.69 234.065 502.405 228.419 496.759C222.772 491.112 215.669 488.198 207.291 488.198C198.913 488.198 191.81 491.112 186.164 496.759C180.518 502.405 177.786 509.69 177.786 518.432C177.786 527.175 180.518 534.46 186.164 540.106V540.106Z" fill="#002549"/>
<path d="M357.186 463.79H385.417V573.07H357.186V560.867C350.265 571.066 339.519 576.166 324.584 576.166C312.564 576.166 302.728 572.159 294.897 564.145C287.065 556.131 283.24 545.021 283.24 530.997V463.79H311.471V527.355C311.471 534.64 313.474 540.286 317.299 544.111C321.306 547.935 326.406 549.939 332.962 549.939C340.248 549.939 346.076 547.753 350.447 543.2C354.818 538.647 357.004 531.908 357.004 522.801V463.79H357.186Z" fill="#002549"/>
<path d="M473.752 490.916H448.982V536.449C448.982 540.274 449.893 543.006 451.896 544.827C453.718 546.648 456.632 547.559 460.275 547.741C463.917 547.923 468.471 547.923 473.752 547.741V573.24C454.446 575.425 440.786 573.604 432.773 567.776C424.759 561.947 420.934 551.566 420.934 536.449V490.916H401.992V463.778H420.934V441.74L449.165 433.18V463.778H473.935V490.916H473.752Z" fill="#002549"/>
<path d="M583.396 559.412C572.104 570.522 558.444 576.168 542.234 576.168C526.024 576.168 512.364 570.522 501.254 559.412C490.144 548.302 484.498 534.642 484.498 518.432C484.498 502.223 490.144 488.563 501.254 477.452C512.364 466.342 526.024 460.696 542.234 460.696C558.444 460.696 572.104 466.342 583.396 477.452C594.688 488.563 600.152 502.223 600.152 518.432C600.152 534.642 594.506 548.302 583.396 559.412ZM521.289 540.106C526.935 545.752 533.856 548.666 542.416 548.666C550.976 548.666 557.897 545.752 563.544 540.106C569.19 534.46 572.104 527.175 572.104 518.432C572.104 509.69 569.19 502.405 563.544 496.759C557.897 491.112 550.794 488.198 542.416 488.198C534.038 488.198 526.935 491.112 521.289 496.759C515.643 502.405 512.911 509.69 512.911 518.432C512.911 527.175 515.643 534.46 521.289 540.106Z" fill="#002549"/>
<path d="M648.235 482.547C650.785 475.626 655.156 470.344 661.166 466.883C667.177 463.423 673.916 461.602 681.383 461.602V493.11C672.823 492.018 665.173 493.839 658.252 498.392C651.331 502.946 648.053 510.413 648.053 520.977V573.249H619.822V463.787H648.053V482.547H648.235Z" fill="#002549"/>
<path d="M282.54 586.357H314.777V749.548H290.372L220.433 649.739V749.548H188.195V586.357H212.601L282.54 685.801V586.357V586.357Z" fill="#002549"/>
<path d="M369.052 703.47C373.059 718.041 383.987 725.326 401.836 725.326C413.311 725.326 422.053 721.502 427.881 713.67L452.105 727.694C440.63 744.268 423.692 752.646 401.29 752.646C381.984 752.646 366.503 746.818 354.846 735.161C343.19 723.505 337.361 708.752 337.361 691.085C337.361 673.419 343.19 658.848 354.664 647.192C366.138 635.535 380.891 629.525 398.922 629.525C416.043 629.525 430.067 635.353 441.177 647.192C452.287 659.03 457.751 673.601 457.751 691.085C457.751 694.91 457.387 699.099 456.658 703.47H368.87H369.052ZM368.506 680.157H427.881C426.242 672.144 422.599 666.315 417.317 662.491C412.036 658.666 405.843 656.662 399.104 656.662C391.09 656.662 384.352 658.666 379.07 662.855C373.788 667.044 370.327 672.69 368.506 680.157V680.157Z" fill="#002549"/>
<path d="M542.26 661.75H515.851V710.198C515.851 714.205 516.943 717.119 518.947 719.122C520.95 720.944 523.864 722.036 527.871 722.218C531.696 722.401 536.614 722.401 542.26 722.218V749.538C521.679 751.906 507.108 749.903 498.548 743.71C490.17 737.518 485.799 726.408 485.799 710.38V661.933H465.582V632.974H485.799V609.478L515.851 600.372V632.974H542.26V661.933V661.75Z" fill="#002549"/>
<path d="M42.0951 586.525C50.2911 586.525 57.03 589.257 62.494 594.721C67.9579 600.185 70.5078 607.834 70.5078 617.487V663.567H51.2018V619.855C51.2018 614.938 49.9268 610.931 47.1948 608.381C44.4629 605.831 40.8202 604.374 36.449 604.374C31.5314 604.374 27.5245 606.013 24.4283 609.109C21.332 612.206 19.875 616.941 19.875 623.134L19.875 663.749H0.568933V588.711H19.875V597.089C24.6104 590.168 32.0779 586.525 42.2773 586.525H42.0951Z" fill="#002549"/>
<path d="M143.903 588.71H163.209V663.749H143.903V654.824C138.075 662.109 129.879 665.752 119.497 665.752C109.116 665.752 100.92 661.927 93.8165 654.278C86.7133 646.628 83.0707 637.157 83.0707 626.047C83.0707 614.937 86.7133 605.466 93.8165 597.817C100.92 590.167 109.48 586.342 119.497 586.342C130.061 586.342 138.075 589.985 143.903 597.27V588.346V588.71ZM108.205 641.528C112.03 645.535 117.129 647.539 123.14 647.539C129.15 647.539 134.068 645.535 138.075 641.528C142.082 637.522 144.085 632.422 144.085 626.229C144.085 620.037 142.082 614.937 138.075 610.93C134.068 606.923 129.15 604.92 123.14 604.92C117.129 604.92 112.212 606.923 108.205 610.93C104.198 614.937 102.377 620.037 102.377 626.229C102.377 632.422 104.38 637.522 108.205 641.528Z" fill="#002549"/>
<path d="M301.502 99.5477C289.311 92.5336 279.428 98.2796 279.428 112.372V216.364C279.428 230.47 289.311 236.209 301.502 229.201L392.12 177.074C404.315 170.057 404.315 158.689 392.12 151.674L301.502 99.5477Z" fill="#002549"/>
<path d="M197.695 92.5653C197.695 55.5924 227.746 25.5405 264.719 25.5405H279.29V12.427H262.716C219.733 12.427 184.945 47.3964 184.945 90.3797V160.865H197.695V92.7474V92.5653Z" fill="#002549"/>
<path d="M417.167 26.2703C454.322 26.2703 484.374 56.3221 484.374 93.4772V161.595H496.395V91.1094C496.395 48.1262 461.425 13.1567 418.442 13.1567H402.232V26.2703H417.167V26.2703Z" fill="#002549"/>
<path d="M279.287 10.4165C279.287 4.98465 274.884 0.581299 269.452 0.581299C264.021 0.581299 259.617 4.98465 259.617 10.4165V28.4476C259.617 33.8794 264.021 38.2827 269.452 38.2827C274.884 38.2827 279.287 33.8794 279.287 28.4476V10.4165Z" fill="#002549"/>
<path d="M420.987 10.4165C420.987 4.98465 416.583 0.581299 411.152 0.581299C405.72 0.581299 401.316 4.98465 401.316 10.4165V28.4476C401.316 33.8794 405.72 38.2827 411.152 38.2827C416.583 38.2827 420.987 33.8794 420.987 28.4476V10.4165Z" fill="#002549"/>
<path d="M261.077 306.747C228.293 306.747 201.702 280.156 201.702 247.372L201.839 164.374C201.839 162.553 200.245 160.677 198.241 160.677H182.76C181.485 160.677 180.574 161.77 180.574 163.045V245.004C180.574 291.084 218.094 328.603 264.355 328.603H347.408L342.126 325.325L313.349 306.929H261.077V306.747Z" fill="#002549"/>
<path d="M495.846 160.677H483.461C481.275 160.677 479.424 162.581 479.424 164.949L479.271 247.372C479.271 280.156 452.68 306.747 419.896 306.747H390.755C384.927 306.747 380.191 311.483 380.191 317.311V328.603H417.346C463.608 328.603 500.688 290.746 500.688 244.484V165.811C500.688 162.897 498.76 160.677 496.028 160.677H495.846Z" fill="#002549"/>
<path d="M380.192 328.597V350.999L347.408 328.597H310.617L375.638 371.58C386.566 379.047 400.591 382.69 400.591 360.288V327.591L380.192 327.303V328.597Z" fill="#002549"/>
<path d="M201.839 160.105C201.839 154.21 197.078 149.431 191.206 149.431C185.334 149.431 180.574 154.21 180.574 160.105V176.114C180.574 182.009 185.334 186.788 191.206 186.788C197.078 186.788 201.839 182.009 201.839 176.114V160.105Z" fill="#002549"/>
<path d="M490.324 149.431H489.788C484.064 149.431 479.424 154.21 479.424 160.105V176.114C479.424 182.009 484.064 186.788 489.788 186.788H490.324C496.048 186.788 500.688 182.009 500.688 176.114V160.105C500.688 154.21 496.048 149.431 490.324 149.431Z" fill="#002549"/>
</svg>
