<svg width="17" height="17" viewBox="0 0 17 17" fill="none" xmlns="http://www.w3.org/2000/svg">
<path d="M8.51261 0.583313C4.15053 0.583313 0.595947 4.1379 0.595947 8.49998C0.595947 12.8621 4.15053 16.4166 8.51261 16.4166C12.8747 16.4166 16.4293 12.8621 16.4293 8.49998C16.4293 4.1379 12.8747 0.583313 8.51261 0.583313ZM12.2968 6.67915L7.80803 11.1679C7.6972 11.2787 7.54678 11.3421 7.38845 11.3421C7.23011 11.3421 7.0797 11.2787 6.96886 11.1679L4.72845 8.92748C4.49886 8.6979 4.49886 8.3179 4.72845 8.08831C4.95803 7.85873 5.33803 7.85873 5.56761 8.08831L7.38845 9.90915L11.4576 5.83998C11.6872 5.6104 12.0672 5.6104 12.2968 5.83998C12.5264 6.06956 12.5264 6.44165 12.2968 6.67915Z" fill="#979797"/>
</svg>
