<svg width="17" height="17" viewBox="0 0 17 17" fill="none" xmlns="http://www.w3.org/2000/svg">
<path d="M8.51261 0.583374C4.15053 0.583374 0.595947 4.13796 0.595947 8.50004C0.595947 12.8621 4.15053 16.4167 8.51261 16.4167C12.8747 16.4167 16.4293 12.8621 16.4293 8.50004C16.4293 4.13796 12.8747 0.583374 8.51261 0.583374ZM12.2968 6.67921L7.80803 11.168C7.6972 11.2788 7.54678 11.3421 7.38845 11.3421C7.23011 11.3421 7.0797 11.2788 6.96886 11.168L4.72845 8.92754C4.49886 8.69796 4.49886 8.31796 4.72845 8.08837C4.95803 7.85879 5.33803 7.85879 5.56761 8.08837L7.38845 9.90921L11.4576 5.84004C11.6872 5.61046 12.0672 5.61046 12.2968 5.84004C12.5264 6.06962 12.5264 6.44171 12.2968 6.67921Z" fill="#4CD964"/>
</svg>
