<svg width="24" height="24" viewBox="0 0 24 24" fill="none" xmlns="http://www.w3.org/2000/svg">
<mask id="mask0_10_4843" style="mask-type:luminance" maskUnits="userSpaceOnUse" x="0" y="0" width="24" height="24">
<path d="M0 0H24V24H0V0Z" fill="white"/>
</mask>
<g mask="url(#mask0_10_4843)">
<path d="M24 12.0001C24 18.6069 18.6263 23.9662 12 23.9662C5.37044 23.9662 0 18.6069 0 12.0001C0 5.39266 5.37044 0.0339355 11.9993 0.0339355C18.6257 0.0339355 24 5.39266 24 12.0001Z" fill="#FEFFFE"/>
</g>
<path d="M7.02441 8.72327C7.02441 8.1124 7.22581 7.49198 7.6299 6.86327C8.03399 6.23584 8.62508 5.71478 9.40253 5.30074C10.18 4.88925 11.083 4.68286 12.12 4.68286C13.0825 4.68286 13.9286 4.85548 14.6662 5.20009C15.4018 5.54471 15.9706 6.01353 16.3741 6.60593C16.7749 7.1996 16.9756 7.84487 16.9756 8.54046C16.9756 9.08699 16.8612 9.56728 16.633 9.98132C16.4048 10.3928 16.1315 10.7483 15.815 11.0489C15.4992 11.3483 14.9336 11.8534 14.1169 12.5618C13.892 12.7611 13.7128 12.9369 13.5755 13.0879C13.4402 13.2395 13.3408 13.379 13.2734 13.5039C13.2061 13.63 13.1564 13.7561 13.1178 13.8816C13.0825 14.0071 13.0269 14.2281 12.9543 14.5422C12.8288 15.2116 12.4319 15.5486 11.7702 15.5486C11.4243 15.5486 11.134 15.4384 10.8992 15.2199C10.6632 14.9995 10.5455 14.6734 10.5455 14.2428C10.5455 13.7007 10.6331 13.2325 10.8057 12.8363C10.9764 12.4395 11.2052 12.0917 11.4916 11.7929C11.7774 11.4923 12.1605 11.1368 12.6451 10.7234C13.0714 10.3622 13.3774 10.0902 13.5664 9.90616C13.754 9.72334 13.9155 9.51951 14.043 9.29338C14.1758 9.06788 14.2392 8.82328 14.2392 8.55893C14.2392 8.04233 14.0417 7.60854 13.6468 7.25374C13.2499 6.89894 12.7425 6.72122 12.12 6.72122C11.3903 6.72122 10.8515 6.90021 10.5056 7.2582C10.1623 7.61555 9.87136 8.14298 9.63139 8.83857C9.40646 9.56601 8.97686 9.92973 8.34719 9.92973C7.97775 9.92973 7.66128 9.80297 7.40497 9.54944C7.15257 9.2972 7.02441 9.02074 7.02441 8.72327ZM11.8807 19.317C11.4746 19.317 11.1209 19.1896 10.8182 18.9374C10.518 18.6826 10.3676 18.3265 10.3676 17.8685C10.3676 17.4634 10.5115 17.1226 10.8051 16.8449C11.0974 16.5678 11.4537 16.4289 11.8807 16.4289C12.2972 16.4289 12.647 16.5678 12.9334 16.8449C13.2185 17.1226 13.3591 17.4634 13.3591 17.8685C13.3591 18.3208 13.2113 18.6736 12.9125 18.9323C12.6176 19.1902 12.2711 19.317 11.8807 19.317Z" fill="#034F9B"/>
</svg>
