<svg width="28" height="26" viewBox="0 0 28 26" fill="none" xmlns="http://www.w3.org/2000/svg">
<path d="M26.9615 9.07046L22.5295 5.81876V1.94063C22.5295 1.33294 22.0351 0.840848 21.4258 0.840848H19.6324C19.0232 0.840848 18.5288 1.33372 18.5288 1.94063V2.88341L15.1497 0.404216C14.4171 -0.134739 13.2165 -0.134739 12.4831 0.404216L0.672168 9.07046C-0.0612799 9.60863 -0.219061 10.6475 0.320675 11.3802L0.647173 11.8215C1.18535 12.5534 2.22811 12.7119 2.95999 12.1737L12.4831 5.18451C13.2165 4.64634 14.4171 4.64634 15.1497 5.18451L24.6721 12.1737C25.4055 12.7119 26.4467 12.5526 26.9857 11.8215L27.3129 11.3802C27.8519 10.6475 27.6933 9.60863 26.9615 9.07046Z" fill="white"/>
<mask id="mask0_2136_3792" style="mask-type:luminance" maskUnits="userSpaceOnUse" x="2" y="6" width="23" height="20">
<path d="M2.77588 6.18988H24.7715V26H2.77588V6.18988Z" fill="white"/>
</mask>
<g mask="url(#mask0_2136_3792)">
<path d="M23.4277 12.782L15.1474 6.67852C14.4147 6.138 13.2181 6.138 12.4862 6.67852L4.20579 12.782C3.47312 13.3217 2.87402 14.1114 2.87402 14.5395V23.3885C2.87402 24.8249 4.10893 25.9903 5.63285 25.9903H10.6897V18.1622C10.6897 17.5576 11.1864 17.0639 11.7926 17.0639H15.8386C16.4455 17.0639 16.9415 17.5576 16.9415 18.1622V25.9903H21.9991C23.523 25.9903 24.7564 24.8249 24.7564 23.3885V14.5395C24.7579 14.1114 24.1596 13.3217 23.4277 12.782Z" fill="white"/>
</g>
</svg>
