<svg width="28" height="26" viewBox="0 0 28 26" fill="none" xmlns="http://www.w3.org/2000/svg">
<mask id="mask0_2327_4407" style="mask-type:luminance" maskUnits="userSpaceOnUse" x="0" y="0" width="28" height="26">
<path d="M0 0H27.569V26H0V0Z" fill="white"/>
</mask>
<g mask="url(#mask0_2327_4407)">
<path d="M24.8119 6.60679H21.7099V3.84884C21.7099 3.72452 21.7037 3.60107 21.6915 3.47761C21.6792 3.35329 21.6608 3.23071 21.6363 3.10901C21.6127 2.98731 21.582 2.86736 21.5461 2.74829C21.5102 2.63009 21.4682 2.51277 21.4209 2.39808C21.3728 2.28338 21.3202 2.17131 21.2616 2.06187C21.2029 1.95243 21.139 1.84649 21.0698 1.74317C21.0015 1.63986 20.9271 1.54005 20.8483 1.44461C20.7695 1.3483 20.6864 1.25637 20.5988 1.16882C20.5112 1.08039 20.4193 0.997213 20.323 0.918415C20.2276 0.839617 20.1278 0.766071 20.0244 0.696904C19.9211 0.627736 19.8152 0.564697 19.7057 0.506036C19.5963 0.447375 19.4842 0.393967 19.3695 0.346688C19.2548 0.298533 19.1384 0.257383 19.0193 0.220611C18.9003 0.184713 18.7803 0.154945 18.6586 0.13043C18.5369 0.105915 18.4143 0.0875285 18.2909 0.0752711C18.1674 0.0630134 18.044 0.0568848 17.9197 0.0568848H9.64844C9.52499 0.0568848 9.40066 0.0630134 9.27721 0.0752711C9.15376 0.0875285 9.03118 0.105915 8.90948 0.13043C8.78778 0.154945 8.66783 0.184713 8.54876 0.220611C8.42969 0.257383 8.31324 0.298533 8.19854 0.346688C8.08385 0.393967 7.97178 0.447375 7.86234 0.506036C7.7529 0.564697 7.64696 0.627736 7.54364 0.696904C7.44033 0.766071 7.34052 0.839617 7.24508 0.918415C7.14877 0.997213 7.05684 1.08039 6.96929 1.16882C6.88173 1.25637 6.79856 1.3483 6.71976 1.44461C6.64096 1.54005 6.56742 1.63986 6.49825 1.74317C6.42908 1.84649 6.36517 1.95243 6.30651 2.06187C6.24784 2.17131 6.19531 2.28338 6.14803 2.39808C6.09988 2.51277 6.05785 2.63009 6.02196 2.74829C5.98606 2.86736 5.95541 2.98731 5.93178 3.10901C5.90726 3.23071 5.88887 3.35329 5.87662 3.47761C5.86436 3.60107 5.85823 3.72452 5.85823 3.84884V6.60679H2.7562C2.57583 6.60679 2.39635 6.6243 2.21862 6.65932C2.04088 6.69522 1.8684 6.74688 1.70117 6.81692C1.53394 6.88609 1.37547 6.97101 1.22488 7.0717C1.07429 7.17151 0.935075 7.28621 0.807247 7.41404C0.679418 7.54274 0.564723 7.68195 0.464036 7.83254C0.363349 7.98314 0.278421 8.14161 0.209254 8.30884C0.140086 8.47607 0.0875539 8.64855 0.0525323 8.82628C0.0175108 9.00401 0 9.1835 0 9.36474V23.1536C0 23.334 0.0175108 23.5134 0.0525323 23.6912C0.0875539 23.8689 0.140086 24.0414 0.209254 24.2086C0.278421 24.3758 0.363349 24.5352 0.464036 24.6858C0.564723 24.8364 0.679418 24.9756 0.807247 25.1034C0.935075 25.2313 1.07429 25.3459 1.22488 25.4466C1.37547 25.5464 1.53394 25.6322 1.70117 25.7014C1.8684 25.7706 2.04088 25.8231 2.21862 25.8581C2.39635 25.8932 2.57583 25.9107 2.7562 25.9107H24.8119C24.9931 25.9107 25.1717 25.8932 25.3495 25.8581C25.5272 25.8231 25.6997 25.7706 25.8669 25.7014C26.0341 25.6322 26.1926 25.5464 26.3432 25.4466C26.4938 25.3459 26.633 25.2313 26.7608 25.1034C26.8895 24.9756 27.0034 24.8364 27.1041 24.6858C27.2047 24.5352 27.2897 24.3758 27.3588 24.2086C27.428 24.0414 27.4805 23.8689 27.5156 23.6912C27.5506 23.5134 27.569 23.334 27.569 23.1536V9.36474C27.569 9.1835 27.5506 9.00401 27.5156 8.82628C27.4805 8.64855 27.428 8.47607 27.3588 8.30884C27.2897 8.14161 27.2047 7.98314 27.1041 7.83254C27.0034 7.68195 26.8895 7.54274 26.7608 7.41404C26.633 7.28621 26.4938 7.17151 26.3432 7.0717C26.1926 6.97101 26.0341 6.88609 25.8669 6.81692C25.6997 6.74688 25.5272 6.69522 25.3495 6.65932C25.1717 6.6243 24.9931 6.60679 24.8119 6.60679ZM6.54728 23.8426H4.47926V8.67481H6.54728V23.8426ZM17.9197 16.9487C17.9197 17.0397 17.9021 17.1273 17.8671 17.2122C17.8321 17.2962 17.7822 17.3715 17.7174 17.4355C17.6526 17.5002 17.5782 17.5501 17.4941 17.5852C17.4092 17.6202 17.3217 17.6377 17.2306 17.6377H15.1626V19.7057C15.1626 19.7977 15.1451 19.8852 15.11 19.9701C15.075 20.0542 15.0251 20.1286 14.9603 20.1934C14.8964 20.2582 14.8211 20.3081 14.7371 20.3431C14.653 20.3781 14.5646 20.3956 14.4735 20.3956H13.0946C13.0035 20.3956 12.9159 20.3781 12.831 20.3431C12.747 20.3081 12.6725 20.2582 12.6078 20.1934C12.543 20.1286 12.4931 20.0542 12.458 19.9701C12.423 19.8852 12.4055 19.7977 12.4055 19.7057V17.6377H10.3384C10.2464 17.6377 10.1589 17.6202 10.0739 17.5852C9.9899 17.5501 9.91548 17.5002 9.85069 17.4355C9.7859 17.3715 9.73599 17.2962 9.70097 17.2122C9.66595 17.1273 9.64844 17.0397 9.64844 16.9487V15.5697C9.64844 15.4777 9.66595 15.3902 9.70097 15.3053C9.73599 15.2212 9.7859 15.1468 9.85069 15.082C9.91548 15.0172 9.9899 14.9673 10.0739 14.9323C10.1589 14.8973 10.2464 14.8798 10.3384 14.8798H12.4055V12.8117C12.4055 12.7198 12.423 12.6322 12.458 12.5473C12.4931 12.4633 12.543 12.3888 12.6078 12.3241C12.6725 12.2593 12.747 12.2094 12.831 12.1743C12.9159 12.1393 13.0035 12.1218 13.0946 12.1218H14.4735C14.5646 12.1218 14.653 12.1393 14.7371 12.1743C14.8211 12.2094 14.8964 12.2593 14.9603 12.3241C15.0251 12.3888 15.075 12.4633 15.11 12.5473C15.1451 12.6322 15.1626 12.7198 15.1626 12.8117V14.8798H17.2306C17.3217 14.8798 17.4092 14.8973 17.4941 14.9323C17.5782 14.9673 17.6526 15.0172 17.7174 15.082C17.7822 15.1468 17.8321 15.2212 17.8671 15.3053C17.9021 15.3902 17.9197 15.4777 17.9197 15.5697V16.9487ZM19.6427 6.60679H7.92538V3.84884C7.92625 3.7359 7.93676 3.62383 7.95952 3.51264C7.98141 3.40144 8.01381 3.29375 8.05758 3.18956C8.10048 3.0845 8.15389 2.98556 8.21693 2.89188C8.27909 2.79732 8.35089 2.71064 8.43056 2.63009C8.51111 2.55042 8.59779 2.47863 8.69147 2.41646C8.78603 2.35342 8.88497 2.30002 8.99003 2.25711C9.09422 2.21334 9.20191 2.18094 9.31311 2.15818C9.42342 2.13629 9.53549 2.12491 9.64844 2.12491H17.9197C18.0326 2.12491 18.1447 2.13629 18.2559 2.15818C18.3662 2.18094 18.4739 2.21334 18.5789 2.25711C18.6831 2.30002 18.7821 2.35342 18.8766 2.41646C18.9703 2.47863 19.0579 2.55042 19.1375 2.63009C19.2172 2.71064 19.289 2.79732 19.352 2.89188C19.4142 2.98556 19.4676 3.0845 19.5114 3.18956C19.5543 3.29375 19.5867 3.40144 19.6094 3.51264C19.6313 3.62383 19.6427 3.7359 19.6427 3.84884V6.60679ZM23.0888 23.8426H21.0208V8.67481H23.0888V23.8426Z" fill="#FEFFFE"/>
</g>
</svg>
