<svg width="20" height="26" viewBox="0 0 20 26" fill="none" xmlns="http://www.w3.org/2000/svg">
<mask id="mask0_24_11660" style="mask-type:luminance" maskUnits="userSpaceOnUse" x="0" y="0" width="20" height="26">
<path d="M0 0H19.7094V25.9102H0V0Z" fill="white"/>
</mask>
<g mask="url(#mask0_24_11660)">
<path d="M1.26239 11.1746C1.37238 11.1078 1.46115 11.0536 1.5735 10.9845C1.53579 10.9051 1.49808 10.8274 1.46115 10.7504C0.501138 8.7612 -0.00950901 6.67305 0.0659096 4.45527C0.0855498 3.88099 0.16961 3.31771 0.371512 2.77642C0.704611 1.88318 1.33153 1.29947 2.23341 0.996229C2.35439 0.955378 2.46673 0.862675 2.56022 0.769973C3.13058 0.202763 3.82348 0.0134308 4.60281 0.106133C4.84478 0.1352 5.01525 0.306463 5.02625 0.550003C5.04825 1.01273 5.05296 1.47859 5.02547 1.94053C5.00897 2.21393 4.83771 2.36083 4.55882 2.39697C3.91462 2.48103 3.32541 2.31763 2.79983 1.94368C2.66785 1.8494 2.56572 1.84233 2.42196 1.89418C1.69605 2.15893 1.28282 2.68922 1.10841 3.42062C0.904941 4.27458 0.930081 5.14111 1.01964 6.00371C1.18069 7.53644 1.61199 8.99374 2.29233 10.3764C2.3214 10.4346 2.35596 10.4888 2.39603 10.5579C2.49659 10.5108 2.58929 10.4668 2.69928 10.4149C2.74327 10.4888 2.78569 10.5555 2.82497 10.6239C3.28298 11.4425 3.83605 12.1872 4.59731 12.7482C5.50862 13.4191 6.58805 13.4969 7.58734 12.8558C8.40281 12.3318 8.96216 11.591 9.44688 10.7779C9.51759 10.66 9.58437 10.5398 9.65507 10.4165C9.76584 10.466 9.8609 10.5076 9.9921 10.5657C10.1767 10.1392 10.3715 9.72672 10.5357 9.30249C11.1179 7.7949 11.4463 6.23468 11.3881 4.61397C11.3701 4.12217 11.2876 3.62174 11.1595 3.14566C10.989 2.51403 10.5389 2.10865 9.92061 1.8879C9.78391 1.8384 9.68964 1.85254 9.5663 1.94053C9.05644 2.30506 8.48373 2.47239 7.85602 2.4064C7.52057 2.37105 7.35087 2.22964 7.32731 1.89968C7.29667 1.4621 7.29667 1.01901 7.33045 0.582213C7.3548 0.258541 7.54492 0.101419 7.86938 0.0872781C8.64556 0.0542826 9.34475 0.231045 9.86876 0.860319C9.91197 0.912169 9.98267 0.950664 10.0487 0.97109C11.3174 1.35604 11.9765 2.25871 12.191 3.51882C12.4188 4.85829 12.2986 6.18833 12.0213 7.50815C11.7778 8.66379 11.3905 9.76993 10.8602 10.8266C10.8351 10.8761 10.8154 10.9295 10.7903 10.9876C10.8869 11.0458 10.9773 11.0992 11.099 11.1715C10.9435 11.4425 10.8013 11.7143 10.6371 11.9728C9.91903 13.1001 9.04544 14.0696 7.7806 14.5936C7.47029 14.7224 7.30845 14.8623 7.26289 15.2111C7.20554 15.6494 7.01935 16.0556 6.72082 16.3997C6.67761 16.4492 6.64697 16.5293 6.64854 16.5945C6.70275 18.806 7.16783 20.9005 8.43659 22.7592C8.81211 23.3091 9.26855 23.7868 9.82241 24.1654C11.07 25.0186 12.4943 25.0249 13.7465 24.1741C14.4567 23.6925 14.9933 23.0499 15.4324 22.3224C16.156 21.1228 16.5645 19.814 16.7798 18.4384C16.7837 18.4156 16.7766 18.3912 16.7735 18.3566C16.6981 18.3315 16.6219 18.3056 16.5457 18.2804C15.4505 17.912 14.793 16.8121 15.0011 15.6966C15.2101 14.5763 16.2181 13.7797 17.3847 13.8142C18.5168 13.848 19.4705 14.7083 19.608 15.8199C19.7494 16.9583 19.051 18.0031 17.9307 18.3134C17.7696 18.3574 17.6974 18.4171 17.6683 18.5955C17.4177 20.1494 16.9338 21.6216 16.0774 22.9572C15.6783 23.5802 15.2062 24.1403 14.6366 24.6148C12.891 26.0698 10.7455 26.0847 8.9873 24.647C7.92908 23.7829 7.22361 22.6641 6.70275 21.4205C6.07033 19.9114 5.78672 18.3284 5.73016 16.6982C5.72623 16.5804 5.67203 16.4468 5.59896 16.3526C5.27058 15.9338 5.1166 15.4483 5.03882 14.9345C5.01997 14.8135 4.97755 14.7531 4.8597 14.7122C3.95704 14.4003 3.2382 13.8292 2.59636 13.1339C2.05822 12.5518 1.6607 11.8824 1.26239 11.1746ZM18.9198 16.1192C18.9245 15.2276 18.1962 14.5048 17.2959 14.5056C16.4066 14.5064 15.6768 15.2228 15.6728 16.098C15.6689 16.9889 16.3988 17.7124 17.2983 17.7109C18.1931 17.7085 18.9151 16.9991 18.9198 16.1192Z" fill="white"/>
</g>
</svg>
