<svg width="375" height="298" viewBox="0 0 375 298" fill="none" xmlns="http://www.w3.org/2000/svg">
<path d="M105.074 37.1053C105.074 37.1053 70.1811 70.9195 59.8439 109.282C49.5067 147.645 64.4586 187.916 99.6227 210.204C134.787 232.493 181.704 213.139 228.365 219.507C275.025 225.875 318.296 207.724 324.07 160.961C329.844 114.198 296.088 108.138 275.737 62.6512C255.385 17.1646 189.085 -37.8596 105.074 37.1053Z" fill="#1EE0CC"/>
<path opacity="0.7" d="M105.074 37.1053C105.074 37.1053 70.1811 70.9195 59.8439 109.282C49.5067 147.645 64.4586 187.916 99.6227 210.204C134.787 232.493 181.704 213.139 228.365 219.507C275.025 225.875 318.296 207.724 324.07 160.961C329.844 114.198 296.088 108.138 275.737 62.6512C255.385 17.1646 189.085 -37.8596 105.074 37.1053Z" fill="#1EE0CC"/>
<path d="M330.372 126.854C330.372 126.854 330.372 123.772 326.058 119.451C321.744 115.13 318.964 112.672 318.964 112.672C318.964 112.672 316.807 119.759 320.813 124.08C323.756 127.113 326.946 129.896 330.35 132.4L330.372 126.854Z" fill="#6B48FF"/>
<path d="M324.107 146.105C324.107 146.105 324.107 143.024 319.793 138.71C315.479 134.396 312.706 131.923 312.706 131.923C312.706 131.923 310.505 139.018 314.555 143.332C317.496 146.366 320.687 149.149 324.092 151.651L324.107 146.105Z" fill="#6B48FF"/>
<path d="M330.101 132.107C330.101 132.107 330.424 129.04 335.178 125.203C339.932 121.366 342.94 119.209 342.94 119.209C342.94 119.209 344.341 126.487 339.895 130.353C336.643 133.059 333.17 135.488 329.514 137.616L330.101 132.107Z" fill="#6B48FF"/>
<path d="M322.537 154.843C322.537 154.843 323.182 151.827 328.303 148.511C333.424 145.195 336.66 143.376 336.66 143.376C336.66 143.376 337.283 150.764 332.463 154.146C328.942 156.494 325.231 158.545 321.37 160.279L322.537 154.843Z" fill="#6B48FF"/>
<path d="M323.96 179.633C323.96 179.633 323.96 176.544 328.274 172.23C332.588 167.916 335.361 165.451 335.361 165.451C335.361 165.451 337.518 172.539 333.512 176.852C330.572 179.89 327.382 182.676 323.975 185.179L323.96 179.633Z" fill="#6B48FF"/>
<path d="M323.887 185.678C323.887 185.678 324.32 182.626 320.666 177.74C317.012 172.854 314.613 170.022 314.613 170.022C314.613 170.022 311.466 176.735 314.819 181.577C317.304 185.001 320.073 188.211 323.094 191.173L323.887 185.678Z" fill="#6B48FF"/>
<path d="M319.631 203.645C319.631 203.645 319.631 200.564 323.945 196.25C328.259 191.936 331.033 189.471 331.033 189.471C331.033 189.471 333.197 196.558 329.184 200.872C326.243 203.91 323.053 206.696 319.646 209.199L319.631 203.645Z" fill="#6B48FF"/>
<path d="M322.493 219.874C322.493 219.874 321.708 216.888 324.789 211.62C327.87 206.353 329.925 203.264 329.925 203.264C329.925 203.264 333.806 209.573 331.025 214.768C328.94 218.449 326.552 221.951 323.887 225.237L322.493 219.874Z" fill="#6B48FF"/>
<path d="M330.761 126.061C330.545 129.272 330.151 132.468 329.58 135.635C327.878 144.439 323.608 150.133 321.906 158.1C320.204 166.068 325.097 176.317 323.784 186.544C322.471 196.771 318.494 202.457 319.631 209.287C320.769 216.118 326.873 235.259 326.873 235.259" stroke="#092C48" stroke-width="0.75" stroke-linecap="round" stroke-linejoin="round"/>
<path d="M330.057 134.153L334.708 130.581" stroke="#092C48" stroke-width="0.75" stroke-linecap="round" stroke-linejoin="round"/>
<path d="M330.277 130.045L328.325 126.582" stroke="#092C48" stroke-width="0.75" stroke-linecap="round" stroke-linejoin="round"/>
<path d="M322.163 157.733C322.163 157.733 326.058 154.799 330.057 151.864" stroke="#092C48" stroke-width="0.75" stroke-linecap="round" stroke-linejoin="round"/>
<path d="M323.901 151.108C322.004 147.547 319.755 144.185 317.188 141.072" stroke="#092C48" stroke-width="0.75" stroke-linecap="round" stroke-linejoin="round"/>
<path d="M324.107 184.013C326.33 179.916 329.138 176.165 332.441 172.876" stroke="#092C48" stroke-width="0.75" stroke-linecap="round" stroke-linejoin="round"/>
<path d="M323.351 188.341C322.171 185.56 320.76 182.883 319.133 180.337C316.866 176.984 316.535 176.552 316.535 176.552" stroke="#092C48" stroke-width="0.75" stroke-linecap="round" stroke-linejoin="round"/>
<path d="M319.631 209.28C320.616 206.828 321.788 204.457 323.138 202.186C324.486 200.081 326.005 198.091 327.68 196.236" stroke="#092C48" stroke-width="0.75" stroke-linecap="round" stroke-linejoin="round"/>
<path d="M323.916 225.237C323.691 222.899 324.094 220.544 325.083 218.414C326.704 215.274 328.545 211.165 329.301 209.544" stroke="#092C48" stroke-width="0.75" stroke-linecap="round" stroke-linejoin="round"/>
<path d="M302.112 168.034C302.112 168.034 301.774 166.104 304.012 162.898C306.25 159.692 307.724 157.873 307.724 157.873C307.724 157.873 309.844 162.091 307.805 165.209C306.284 167.433 304.581 169.526 302.713 171.467L302.112 168.034Z" fill="#6B48FF"/>
<path d="M308.128 179.435C308.128 179.435 307.798 177.505 310.035 174.299C312.273 171.093 313.74 169.274 313.74 169.274C313.74 169.274 315.868 173.485 313.821 176.61C312.301 178.832 310.598 180.923 308.729 182.861L308.128 179.435Z" fill="#6B48FF"/>
<path d="M302.853 171.299C302.853 171.299 302.317 169.413 298.92 167.52C295.524 165.627 293.396 164.586 293.396 164.586C293.396 164.586 293.315 169.303 296.521 171.24C298.854 172.587 301.296 173.735 303.821 174.673L302.853 171.299Z" fill="#6B48FF"/>
<path d="M310.065 184.732C310.065 184.732 309.331 182.912 305.758 181.394C302.185 179.875 299.962 179.075 299.962 179.075C299.962 179.075 300.373 183.771 303.763 185.37C306.226 186.461 308.775 187.344 311.385 188.011L310.065 184.732Z" fill="#6B48FF"/>
<path d="M311.862 200.432C311.862 200.432 311.532 198.503 308.355 196.265C305.178 194.027 303.168 192.78 303.168 192.78C303.168 192.78 302.589 197.461 305.567 199.735C307.747 201.316 310.054 202.715 312.464 203.917L311.862 200.432Z" fill="#6B48FF"/>
<path d="M312.566 204.218C312.566 204.218 311.957 202.354 313.726 198.891C315.494 195.428 316.66 193.396 316.66 193.396C316.66 193.396 319.36 197.263 317.783 200.659C316.597 203.077 315.21 205.392 313.638 207.578L312.566 204.218Z" fill="#6B48FF"/>
<path d="M317.981 219.786C317.981 219.786 318.208 217.834 321.245 215.384C324.283 212.934 326.22 211.613 326.22 211.613C326.22 211.613 327.071 216.25 324.224 218.685C322.141 220.394 319.918 221.923 317.577 223.256L317.981 219.786Z" fill="#6B48FF"/>
<path d="M317.181 215.002C317.181 215.002 316.844 213.073 313.674 210.835C310.505 208.598 308.487 207.35 308.487 207.35C308.487 207.35 307.908 212.031 310.886 214.298C313.064 215.885 315.371 217.286 317.783 218.487L317.181 215.002Z" fill="#6B48FF"/>
<path d="M317.137 225.516C317.137 225.516 317.306 223.557 314.797 220.586C312.288 217.614 310.666 215.905 310.666 215.905C310.666 215.905 308.92 220.307 311.231 223.241C312.936 225.325 314.813 227.262 316.844 229.03L317.137 225.516Z" fill="#6B48FF"/>
<path d="M301.782 167.586C302.268 169.573 302.861 171.532 303.557 173.455C305.589 178.796 308.876 181.9 310.813 186.713C312.75 191.525 310.813 198.451 312.72 204.753C314.628 211.055 317.768 214.151 317.797 218.553C317.827 222.955 316.088 235.193 316.088 235.193" stroke="#092C48" stroke-width="0.75" stroke-linecap="round" stroke-linejoin="round"/>
<path d="M303.102 172.583L299.793 170.844" stroke="#092C48" stroke-width="0.75" stroke-linecap="round" stroke-linejoin="round"/>
<path d="M302.515 170.022L303.366 167.645" stroke="#092C48" stroke-width="0.75" stroke-linecap="round" stroke-linejoin="round"/>
<path d="M310.615 186.507C310.615 186.507 307.849 185.099 305.024 183.705" stroke="#092C48" stroke-width="0.75" stroke-linecap="round" stroke-linejoin="round"/>
<path d="M308.707 182.303C309.587 179.958 310.662 177.69 311.921 175.524" stroke="#092C48" stroke-width="0.75" stroke-linecap="round" stroke-linejoin="round"/>
<path d="M312.222 203.198C310.381 200.871 308.214 198.823 305.787 197.116" stroke="#092C48" stroke-width="0.75" stroke-linecap="round" stroke-linejoin="round"/>
<path d="M313.19 205.846C313.627 203.973 314.221 202.14 314.965 200.366C316.022 198.018 316.183 197.718 316.183 197.718" stroke="#092C48" stroke-width="0.75" stroke-linecap="round" stroke-linejoin="round"/>
<path d="M317.643 221.899C318.719 220.574 319.91 219.346 321.202 218.231C322.022 217.623 322.792 216.951 323.505 216.22" stroke="#092C48" stroke-width="0.75" stroke-linecap="round" stroke-linejoin="round"/>
<path d="M317.797 218.553C316.913 217.124 315.919 215.766 314.826 214.489C313.752 213.317 312.584 212.235 311.334 211.253" stroke="#092C48" stroke-width="0.75" stroke-linecap="round" stroke-linejoin="round"/>
<path d="M316.844 229.03C316.731 227.54 316.225 226.107 315.376 224.878C314.019 223.087 312.442 220.71 311.767 219.742" stroke="#092C48" stroke-width="0.75" stroke-linecap="round" stroke-linejoin="round"/>
<path d="M310.637 233.608H331.685V244.488C331.685 244.973 331.493 245.437 331.15 245.78C330.808 246.122 330.343 246.315 329.859 246.315H312.464C311.979 246.315 311.514 246.122 311.172 245.78C310.829 245.437 310.637 244.973 310.637 244.488V233.608Z" fill="#092C48" stroke="#092C48" stroke-linecap="round" stroke-linejoin="round"/>
<path d="M62.9545 141.402C62.9545 141.402 62.9545 138.776 59.2862 135.107C55.618 131.439 53.2409 129.341 53.2409 129.341C53.2409 129.341 51.4068 135.371 54.8109 139.04C57.3197 141.621 60.0387 143.989 62.9399 146.12L62.9545 141.402Z" fill="#6B48FF"/>
<path d="M57.6429 157.77C57.6429 157.77 57.6429 155.151 53.9746 151.482C50.3063 147.814 47.9293 145.687 47.9293 145.687C47.9293 145.687 46.0951 151.71 49.4993 155.385C52.0106 157.976 54.7347 160.352 57.6429 162.487V157.77Z" fill="#6B48FF"/>
<path d="M62.7271 145.863C62.7271 145.863 62.9986 143.258 67.041 139.993C71.0835 136.729 73.6439 134.902 73.6439 134.902C73.6439 134.902 74.8325 141.087 71.0541 144.381C68.2957 146.68 65.3509 148.746 62.2502 150.558L62.7271 145.863Z" fill="#6B48FF"/>
<path d="M56.2929 165.202C56.2929 165.202 56.8432 162.634 61.1938 159.817C65.5443 157 68.3029 155.415 68.3029 155.415C68.3029 155.415 68.8311 161.688 64.73 164.564C61.7383 166.564 58.5849 168.312 55.3025 169.787L56.2929 165.202Z" fill="#6B48FF"/>
<path d="M57.5035 186.28C57.5035 186.28 57.5035 183.661 61.1718 179.985C64.8401 176.309 67.1804 174.219 67.1804 174.219C67.1804 174.219 69.0146 180.249 65.6031 183.917C63.1 186.502 60.3832 188.87 57.4815 190.997L57.5035 186.28Z" fill="#6B48FF"/>
<path d="M57.4375 191.423C57.4375 191.423 57.8116 188.833 54.7009 184.673C51.5902 180.513 49.5653 178.107 49.5653 178.107C49.5653 178.107 46.8948 183.815 49.7414 187.938C51.8574 190.849 54.2133 193.578 56.7845 196.096L57.4375 191.423Z" fill="#6B48FF"/>
<path d="M53.8206 206.676C53.8206 206.676 53.8206 204.056 57.4889 200.381C61.1571 196.705 63.5122 194.614 63.5122 194.614C63.5122 194.614 65.3463 200.645 61.9421 204.313C59.4333 206.894 56.7143 209.262 53.8132 211.393L53.8206 206.676Z" fill="#6B48FF"/>
<path d="M56.271 220.52C56.271 220.52 55.6033 217.988 58.2298 213.506C60.8563 209.023 62.6318 206.397 62.6318 206.397C62.6318 206.397 65.9039 211.716 63.5122 216.162C61.7401 219.291 59.7106 222.268 57.4448 225.061L56.271 220.52Z" fill="#6B48FF"/>
<path d="M63.2847 140.727C63.102 143.458 62.7664 146.177 62.2796 148.871C60.8123 156.361 57.2027 161.196 55.7574 167.946C54.3121 174.695 58.4719 183.441 57.3567 192.156C56.2416 200.872 52.8521 205.685 53.8205 211.488C54.7889 217.291 59.9832 233.579 59.9832 233.579" stroke="#092C48" stroke-width="0.75" stroke-linecap="round" stroke-linejoin="round"/>
<path d="M62.6904 147.609L66.6448 144.572" stroke="#092C48" stroke-width="0.75" stroke-linecap="round" stroke-linejoin="round"/>
<path d="M62.8739 144.109L61.2158 141.167" stroke="#092C48" stroke-width="0.75" stroke-linecap="round" stroke-linejoin="round"/>
<path d="M55.9775 167.696C55.9775 167.696 59.2863 165.209 62.6905 162.729" stroke="#092C48" stroke-width="0.75" stroke-linecap="round" stroke-linejoin="round"/>
<path d="M57.4522 162.025C55.8479 158.999 53.9457 156.141 51.7737 153.493" stroke="#092C48" stroke-width="0.75" stroke-linecap="round" stroke-linejoin="round"/>
<path d="M57.6429 190.007C59.5344 186.523 61.9217 183.333 64.73 180.535" stroke="#092C48" stroke-width="0.75" stroke-linecap="round" stroke-linejoin="round"/>
<path d="M56.9826 193.69C55.9802 191.325 54.7826 189.048 53.4023 186.881C51.4655 184.027 51.2014 183.661 51.2014 183.661" stroke="#092C48" stroke-width="0.75" stroke-linecap="round" stroke-linejoin="round"/>
<path d="M53.8206 211.488C54.6603 209.406 55.656 207.39 56.7992 205.457C57.9477 203.67 59.2408 201.979 60.6656 200.403" stroke="#092C48" stroke-width="0.75" stroke-linecap="round" stroke-linejoin="round"/>
<path d="M57.4668 225.061C57.2748 223.073 57.6167 221.069 58.4572 219.258C59.8365 216.587 61.3919 213.095 62.0448 211.716" stroke="#092C48" stroke-width="0.75" stroke-linecap="round" stroke-linejoin="round"/>
<path d="M38.92 176.42C38.92 176.42 38.6412 174.776 40.5414 172.076C42.4415 169.376 43.6961 167.806 43.6961 167.806C43.6961 167.806 45.5009 171.387 43.7621 174.057C42.4703 175.948 41.0224 177.727 39.4335 179.376L38.92 176.42Z" fill="#6B48FF"/>
<path d="M44.0409 186.111C44.0409 186.111 43.7548 184.468 45.6623 181.768C47.5698 179.068 48.817 177.491 48.817 177.491C48.817 177.491 50.6218 181.078 48.8831 183.749C47.5912 185.64 46.1433 187.419 44.5545 189.068L44.0409 186.111Z" fill="#6B48FF"/>
<path d="M39.5509 179.193C39.5509 179.193 39.0961 177.593 36.2128 175.987C33.3295 174.38 31.5174 173.507 31.5174 173.507C31.5174 173.507 31.444 177.513 34.1659 179.171C36.1496 180.32 38.2257 181.301 40.3726 182.105L39.5509 179.193Z" fill="#6B48FF"/>
<path d="M45.6843 190.623C45.6843 190.623 45.0607 189.075 42.016 187.777C38.9713 186.478 37.1005 185.803 37.1005 185.803C37.1005 185.803 37.4527 189.801 40.3359 191.159C42.4291 192.088 44.596 192.841 46.8141 193.411L45.6843 190.623Z" fill="#6B48FF"/>
<path d="M47.2177 203.968C47.2177 203.968 46.9315 202.325 44.2317 200.425C41.5318 198.524 39.8297 197.49 39.8297 197.49C39.8297 197.49 39.3015 201.444 41.862 203.374C43.7167 204.72 45.6798 205.91 47.7312 206.932L47.2177 203.968Z" fill="#6B48FF"/>
<path d="M47.8119 207.189C47.8119 207.189 47.2983 205.604 48.795 202.662C50.2916 199.72 51.3114 197.989 51.3114 197.989C51.3114 197.989 53.6078 201.276 52.2652 204.166C51.2578 206.218 50.0798 208.181 48.7436 210.036L47.8119 207.189Z" fill="#6B48FF"/>
<path d="M52.4193 220.454C52.4193 220.454 52.61 218.795 55.1998 216.741C57.7896 214.687 59.4257 213.535 59.4257 213.535C59.4257 213.535 60.1594 217.475 57.731 219.551C55.9576 221.008 54.0655 222.313 52.0745 223.454L52.4193 220.454Z" fill="#6B48FF"/>
<path d="M51.7736 216.36C51.7736 216.36 51.4875 214.716 48.7877 212.816C46.0878 210.916 44.3857 209.882 44.3857 209.882C44.3857 209.882 43.8868 213.865 46.4253 215.795C48.2792 217.142 50.2424 218.333 52.2945 219.353L51.7736 216.36Z" fill="#6B48FF"/>
<path d="M51.7003 225.296C51.7003 225.296 51.8397 223.638 49.7121 221.107C47.5845 218.575 46.1979 217.13 46.1979 217.13C46.1979 217.13 44.7306 220.85 46.6748 223.366C48.127 225.137 49.7246 226.784 51.4509 228.289L51.7003 225.296Z" fill="#6B48FF"/>
<path d="M38.6412 176.038C39.0562 177.729 39.5607 179.397 40.1526 181.034C41.8767 185.576 44.6792 188.209 46.3226 192.303C47.966 196.397 46.3226 202.31 47.944 207.644C49.5654 212.978 52.2359 215.641 52.2579 219.382C52.2799 223.124 50.7906 233.535 50.7906 233.535" stroke="#092C48" stroke-width="0.75" stroke-linecap="round" stroke-linejoin="round"/>
<path d="M39.7637 180.286L36.9538 178.811" stroke="#092C48" stroke-width="0.75" stroke-linecap="round" stroke-linejoin="round"/>
<path d="M39.2722 178.114L39.9911 176.089" stroke="#092C48" stroke-width="0.75" stroke-linecap="round" stroke-linejoin="round"/>
<path d="M46.1539 192.127C46.1539 192.127 43.8062 190.931 41.3998 189.743" stroke="#092C48" stroke-width="0.75" stroke-linecap="round" stroke-linejoin="round"/>
<path d="M44.5325 188.554C45.284 186.56 46.1993 184.631 47.269 182.788" stroke="#092C48" stroke-width="0.75" stroke-linecap="round" stroke-linejoin="round"/>
<path d="M47.5405 206.323C45.9729 204.357 44.1295 202.627 42.0674 201.188" stroke="#092C48" stroke-width="0.75" stroke-linecap="round" stroke-linejoin="round"/>
<path d="M48.3401 208.561C48.7144 206.969 49.2199 205.411 49.8515 203.902C50.7539 201.907 50.8859 201.643 50.8859 201.643" stroke="#092C48" stroke-width="0.75" stroke-linecap="round" stroke-linejoin="round"/>
<path d="M52.1332 222.222C53.0457 221.09 54.0572 220.041 55.1558 219.089C55.8536 218.572 56.5086 218.001 57.1147 217.379" stroke="#092C48" stroke-width="0.75" stroke-linecap="round" stroke-linejoin="round"/>
<path d="M52.2578 219.383C51.5069 218.167 50.6632 217.012 49.7341 215.927C48.8331 214.929 47.8516 214.006 46.7994 213.168" stroke="#092C48" stroke-width="0.75" stroke-linecap="round" stroke-linejoin="round"/>
<path d="M51.4508 228.289C51.352 227.02 50.9191 225.8 50.1963 224.753C49.0444 223.234 47.6798 221.209 47.1296 220.417" stroke="#092C48" stroke-width="0.75" stroke-linecap="round" stroke-linejoin="round"/>
<path d="M45.0533 233.608H66.1019V244.488C66.102 244.73 66.0538 244.97 65.9601 245.194C65.8665 245.418 65.7293 245.62 65.5566 245.79C65.3838 245.96 65.1789 246.094 64.9539 246.184C64.7289 246.274 64.4881 246.319 64.2458 246.315H46.8801C46.3957 246.315 45.931 246.122 45.5884 245.78C45.2458 245.437 45.0533 244.973 45.0533 244.488V233.608Z" fill="#092C48" stroke="#092C48" stroke-linecap="round" stroke-linejoin="round"/>
<path d="M245.562 97.2651C242.993 100.462 241.25 104.241 240.485 108.27C239.135 115.115 235.811 127.976 236.229 132.437C236.648 136.897 237.697 139.384 241.725 140.111C245.752 140.837 248.049 137.308 248.885 134.3C249.415 132.321 249.829 130.312 250.125 128.284L250.954 111.938C250.954 111.938 249.487 102.115 248.79 100.046C248.093 97.9768 245.562 97.2651 245.562 97.2651Z" fill="#6B48FF" stroke="#092C48" stroke-linecap="round" stroke-linejoin="round"/>
<path d="M299.515 93.9931C299.515 93.9931 300.982 93.6703 302.376 98.7619C303.77 103.853 305.45 111.161 308.201 120.17C310.952 129.179 311.488 132.151 311.275 134.161C311.062 136.171 309.478 138.401 303.939 138.401C298.399 138.401 295.868 136.281 294.401 131.512C292.934 126.744 293.146 112.012 293.044 110.104C292.941 108.197 297.813 93.0393 299.515 93.9931Z" fill="#6B48FF" stroke="#092C48" stroke-linecap="round" stroke-linejoin="round"/>
<path d="M261.673 252.243C261.673 252.243 258.07 256.058 255.95 258.501C253.83 260.944 253.089 262.418 256.581 263.9C260.073 265.382 265.488 263.167 267.08 260.724C268.672 258.281 272.061 255.529 272.061 255.529C272.061 255.529 273.859 253.519 271.526 250.658C269.193 247.797 262.729 251.076 261.673 252.243Z" fill="white" stroke="#092C48" stroke-linecap="round" stroke-linejoin="round"/>
<path d="M283.293 255.427C283.293 255.427 286.896 255.955 288.803 257.628C290.711 259.301 297.394 263.035 301.84 261.23C306.286 259.425 303.432 256.461 300.997 254.341C299.629 253.128 298.136 252.063 296.543 251.164C296.543 251.164 289.441 250.636 286.272 252.221C283.103 253.806 283.293 255.427 283.293 255.427Z" fill="white" stroke="#092C48" stroke-linecap="round" stroke-linejoin="round"/>
<path d="M257.535 206.132C257.535 206.132 259.237 218.854 258.386 222.669C257.535 226.484 255.099 228.714 256.919 232.427C258.265 235.297 259.251 238.323 259.853 241.436C260.066 242.705 258.899 243.021 259.853 244.371C260.548 245.241 261.119 246.204 261.548 247.232C261.548 247.555 260.279 249.352 260.279 249.778C260.279 250.203 260.917 252.852 260.917 252.852C260.917 252.852 264.306 252.118 266.742 253.064C268.507 253.824 270.178 254.784 271.724 255.926C271.724 255.926 273.925 255.075 274.695 253.805C275.11 253.14 275.362 252.386 275.429 251.604C275.531 251.179 276.595 248.949 276.492 247.254C276.39 245.559 275.216 241.957 275.216 239.837C275.216 237.716 276.808 235.383 276.808 231.994C276.808 228.604 275.216 206.873 275.216 206.873L276.683 206.338C276.683 206.338 279.016 219.272 279.016 225.318C279.016 231.363 277.219 238.883 278.385 240.365C279.552 241.847 280.924 243.123 280.924 243.439C280.924 243.754 279.544 246.087 279.867 247.254C280.371 248.786 280.794 250.344 281.137 251.92C281.137 252.558 282.303 254.994 283.257 255.419C284.211 255.845 284.724 254.884 290.359 253.725C295.993 252.565 299.162 252.874 298.627 251.179C298.091 249.484 297.57 247.254 296.932 246.828C296.294 246.403 297.145 246.095 296.932 244.503C296.719 242.911 295.553 241.216 294.496 238.67C293.44 236.124 294.915 233.373 295.34 230.717C295.766 228.061 295.127 224.114 294.071 219.8C293.014 215.486 293.961 204.856 293.961 204.856L294.496 200.725C294.496 200.725 278.275 202.193 268.312 202.097L257.608 201.995C257.608 201.995 256.904 202.743 257.535 206.132Z" fill="#092C48" stroke="#092C48" stroke-linecap="round" stroke-linejoin="round"/>
<path d="M298.664 161.827C298.664 161.827 300.131 181.122 302.053 191.173C303.159 196.846 303.86 202.59 304.151 208.363H296.441C296.118 208.363 296.969 172.641 297.174 169.479C297.454 166.891 297.952 164.331 298.664 161.827Z" fill="#6B48FF" stroke="#092C48" stroke-linecap="round" stroke-linejoin="round"/>
<path d="M266.735 83.3258C266.735 83.3258 257.726 89.3638 253.067 91.4841C248.408 93.6044 245.855 96.3629 245.54 97.3533C245.224 98.3438 250.624 113.567 250.624 113.567C250.624 113.567 250.308 163.918 250.308 172.399C250.308 180.88 247.66 206.419 247.975 206.419C248.291 206.419 256.779 211.936 268.43 212.251C280.08 212.567 283.836 210.872 287.505 210.872C291.173 210.872 298.51 210.872 298.634 209.815C298.759 208.759 298.847 185.326 298.95 174.409C299.052 163.492 299.163 155.752 298.95 153.955C298.737 152.157 295.773 113.354 295.773 113.354C295.773 113.354 297.974 106.891 299.273 101.697C300.571 96.5023 300.542 95.864 298.95 93.5383C297.358 91.2126 285.414 84.8738 283.294 84.0595C280.688 83.1475 277.975 82.5779 275.223 82.3647C273.228 82.2254 266.735 83.3258 266.735 83.3258Z" fill="#6B48FF" stroke="#092C48" stroke-linecap="round" stroke-linejoin="round"/>
<path d="M246.831 126.428C246.831 126.428 248.21 129.605 249.905 130.984C251.6 132.363 255.525 133.002 256.368 135.122C257.212 137.242 256.368 138.827 255.415 141.373C254.461 143.918 254.996 148.159 251.497 148.709C247.997 149.259 246.941 147.975 244.072 145.951C241.204 143.926 239.414 143.618 237.719 140.544C236.024 137.469 235.518 133.207 236.985 130.903" fill="#6B48FF"/>
<path d="M246.831 126.428C246.831 126.428 248.21 129.605 249.905 130.984C251.6 132.363 255.525 133.002 256.368 135.122C257.212 137.242 256.368 138.827 255.415 141.373C254.461 143.918 254.996 148.159 251.497 148.709C247.997 149.259 246.941 147.975 244.072 145.951C241.204 143.926 239.414 143.618 237.719 140.544C236.024 137.469 235.518 133.207 236.985 130.903" stroke="#092C48" stroke-linecap="round" stroke-linejoin="round"/>
<path d="M266.339 79.1514L266.001 88.0579C266.001 88.0579 265.158 89.3272 270.242 89.6426C273.51 89.814 276.786 89.5675 279.992 88.909L279.148 79.2688C279.148 79.2688 273.844 81.4697 270.77 80.4353C269.328 79.8929 267.847 79.4636 266.339 79.1514Z" fill="white" stroke="#092C48" stroke-linecap="round" stroke-linejoin="round"/>
<path d="M264.321 76.9282C264.321 76.9282 263.588 87.1994 263.052 90.2808C262.516 93.3621 262.626 95.2623 263.786 96.0033C264.945 96.7443 271.731 99.4001 275.231 99.1873C278.73 98.9746 284.034 95.7905 284.453 94.8368C284.871 93.883 281.283 78.9238 281.283 78.9238L280.748 79.562C280.748 79.562 281.701 87.4048 281.386 87.6323C281.071 87.8597 268.774 86.994 266.544 86.8986C264.314 86.8032 264.959 86.6858 264.959 86.6858L264.849 77.6766L264.321 76.9282Z" fill="white" stroke="#092C48" stroke-linecap="round" stroke-linejoin="round"/>
<path d="M263.984 89.1509C263.984 89.1509 275.568 90.8603 282.516 89.5177" stroke="#092C48" stroke-width="0.5" stroke-miterlimit="10"/>
<path d="M263.499 91.8362C263.499 91.8362 271.57 95.2477 282.516 92.1957" stroke="#092C48" stroke-width="0.5" stroke-miterlimit="10"/>
<path d="M264.35 95.0055C264.35 95.0055 272.032 99.1507 282.516 94.7561" stroke="#092C48" stroke-width="0.5" stroke-miterlimit="10"/>
<path d="M283.088 66.1142C283.352 62.8568 283.572 59.5113 282.765 57.8459C281.496 55.1974 277.674 52.1234 272.164 52.3361C266.654 52.5489 261.988 54.6692 262.098 61.4481C262.098 61.4481 262.333 63.4657 262.604 65.9381C262.1 67.0178 261.924 68.222 262.098 69.401C262.269 70.5322 262.666 71.6175 263.265 72.5924C263.316 73.2233 263.353 73.7662 263.367 74.1698C263.47 77.031 265.378 80.4205 267.08 81.587C268.782 82.7535 271.951 84.5583 273.969 84.5583C275.986 84.5583 279.581 82.6508 281.305 79.8923C282.64 77.6913 282.773 76.224 282.773 73.6342H282.875C283.179 72.274 283.358 70.889 283.411 69.4964C283.454 68.3596 283.346 67.2222 283.088 66.1142Z" fill="white" stroke="#092C48" stroke-linecap="round" stroke-linejoin="round"/>
<path d="M263.067 66.7526C263.067 66.7526 263.382 69.4011 263.91 69.291C264.439 69.181 265.077 65.3733 265.077 65.3733L263.067 66.7526Z" fill="#092C48" stroke="#092C48" stroke-linecap="round" stroke-linejoin="round"/>
<path d="M281.07 66.4517C281.07 66.4517 281.07 69.423 281.804 69.8485C282.538 70.274 283.073 67.3027 283.073 67.3027C282.472 66.8825 281.79 66.5926 281.07 66.4517Z" fill="#092C48" stroke="#092C48" stroke-linecap="round" stroke-linejoin="round"/>
<path d="M282.765 57.8459C281.496 55.1974 277.674 52.1234 272.164 52.3361C266.654 52.5489 261.988 54.6692 262.098 61.4482C262.098 61.4482 262.333 63.4657 262.604 65.9381C262.27 66.655 262.078 67.4299 262.039 68.2198C264.101 66.5691 267.96 64.2067 272.802 64.6322C276.57 65.0616 280.192 66.3383 283.396 68.3665C283.363 67.6079 283.259 66.854 283.088 66.1142C283.352 62.8568 283.609 59.5333 282.765 57.8459Z" fill="#6B48FF" stroke="#092C48" stroke-linecap="round" stroke-linejoin="round"/>
<path d="M271.423 68.6526L270.785 72.4677C270.785 72.4677 269.618 72.5704 270.051 73.3114C270.484 74.0524 272.699 74.9034 273.763 74.5879C274.827 74.2725 275.884 73.2087 275.774 72.7831C275.741 72.6559 275.675 72.5397 275.582 72.4467C275.489 72.3538 275.373 72.2876 275.245 72.2549L273.866 68.3298" stroke="#092C48" stroke-linecap="round" stroke-linejoin="round"/>
<path d="M270.256 76.5028C272.292 76.942 274.404 76.8689 276.404 76.29" stroke="#092C48" stroke-linecap="round" stroke-linejoin="round"/>
<path d="M269.09 68.4985C269.09 69.0561 268.804 69.5036 268.452 69.5036C268.099 69.5036 267.821 69.0561 267.821 68.4985C267.821 67.9409 268.107 67.4934 268.452 67.4934C268.796 67.4934 269.09 67.9189 269.09 68.4985Z" fill="#092C48"/>
<path d="M277.145 68.4472C277.145 69.0048 276.859 69.4524 276.514 69.4524C276.17 69.4524 275.876 69.0048 275.876 68.4472C275.876 67.8897 276.162 67.4421 276.514 67.4421C276.867 67.4421 277.145 67.919 277.145 68.4472Z" fill="#092C48"/>
<path d="M266.654 66.9653C266.654 66.9653 267.388 65.1605 269.728 65.7988" stroke="#092C48" stroke-linecap="round" stroke-linejoin="round"/>
<path d="M274.497 65.9014C274.497 65.9014 276.698 64.3093 278.312 67.0679" stroke="#092C48" stroke-linecap="round" stroke-linejoin="round"/>
<path d="M254.461 139.678C254.461 139.678 260.932 141.145 262.414 140.844C264.356 140.482 266.135 139.517 267.498 138.086C269.413 136.178 270.997 134.586 270.997 136.178C271.004 136.807 270.885 137.43 270.649 138.012C270.412 138.594 270.062 139.123 269.618 139.568C268.884 140.419 267.498 141.373 267.182 142.752C266.867 144.131 267.292 145.188 268.987 145.826C270.682 146.464 275.979 147.411 275.979 148.761C275.979 150.11 275.553 153.324 273.646 154.38C271.738 155.437 267.08 154.696 267.08 154.696C267.08 154.696 270.895 156.816 270.154 157.352C269.413 157.887 267.182 157.139 266.126 156.185C265.069 155.231 264.659 155.121 261.563 152.898C258.467 150.675 255.84 148.02 254.358 147.176C253.555 146.8 252.813 146.305 252.157 145.709C251.306 144.975 250.991 143.508 251.622 141.791C251.837 141.282 252.155 140.824 252.557 140.445C252.958 140.066 253.434 139.775 253.955 139.59L254.461 139.678Z" fill="white" stroke="#092C48" stroke-linecap="round" stroke-linejoin="round"/>
<path d="M304.812 127.594C304.812 127.594 297.182 129.062 296.441 129.605C295.7 130.148 296.441 132.363 296.441 132.363C296.441 132.363 289.97 135.437 287.534 137.132C285.098 138.827 287.321 142.224 287.431 142.642C287.431 142.642 289.339 148.9 292.516 151.02C295.692 153.14 298.979 152.392 302.163 149.003C305.347 145.613 307.357 140.932 308.839 139.355C310.321 137.778 311.913 136.281 311.385 132.752C310.857 129.223 308.098 128.827 308.098 128.827" fill="#6B48FF"/>
<path d="M304.812 127.594C304.812 127.594 297.182 129.062 296.441 129.605C295.7 130.148 296.441 132.363 296.441 132.363C296.441 132.363 289.97 135.437 287.534 137.132C285.098 138.827 287.321 142.224 287.431 142.642C287.431 142.642 289.339 148.9 292.516 151.02C295.692 153.14 298.979 152.392 302.163 149.003C305.347 145.613 307.357 140.932 308.839 139.355C310.321 137.778 311.913 136.281 311.385 132.752C310.857 129.223 308.098 128.827 308.098 128.827" stroke="#092C48" stroke-linecap="round" stroke-linejoin="round"/>
<path d="M289.229 141.585C289.229 141.585 284.357 142.855 282.978 142.965C281.599 143.075 281.386 143.28 280.542 142.642C279.699 142.004 275.766 139.707 273.939 137.558C272.113 135.408 270.755 135.012 270.968 136.178C271.181 137.345 270.755 138.189 272.032 139.04C273.308 139.891 274.57 142.224 274.57 143.177C274.57 144.131 274.468 144.447 271.819 145.378C269.171 146.31 263.125 147.499 263.749 148.24C264.372 148.981 265.656 149.193 267.036 149.091C268.415 148.988 274.137 148.137 274.556 148.452C274.694 148.594 274.797 148.765 274.857 148.954C274.917 149.142 274.933 149.341 274.902 149.537C274.871 149.732 274.796 149.917 274.681 150.078C274.566 150.239 274.415 150.371 274.24 150.463C273.286 151.101 269.897 151.101 267.879 151.314C265.862 151.526 265.759 152.047 266.61 152.48C267.977 152.99 269.43 153.227 270.887 153.177C272.582 153.177 274.556 153.008 273.712 153.537C272.868 154.065 271.694 154.175 269.574 154.49C267.454 154.806 266.713 153.86 267.036 154.703C267.358 155.547 269.897 155.554 273.074 155.437C275.965 155.289 278.773 154.416 281.239 152.898C283.359 151.622 291.092 149.714 291.628 149.296C292.163 148.878 293 146.428 292.471 143.464C291.943 140.5 289.229 141.585 289.229 141.585Z" fill="white" stroke="#092C48" stroke-linecap="round" stroke-linejoin="round"/>
<path d="M297.607 129.179C299.673 127.47 301.91 125.98 304.283 124.733" stroke="#092C48" stroke-linecap="round" stroke-linejoin="round"/>
<path d="M268.349 149.149C268.349 149.149 274.38 148.46 274.989 148.372C275.597 148.284 276.713 148.973 276.192 149.751C275.671 150.529 275.414 150.352 273.257 150.785C271.116 151.111 268.952 151.255 266.786 151.218" fill="white"/>
<path d="M268.349 149.149C268.349 149.149 274.38 148.46 274.989 148.372C275.597 148.284 276.713 148.973 276.192 149.751C275.671 150.529 275.414 150.352 273.257 150.785C271.116 151.111 268.952 151.255 266.786 151.218" stroke="#092C48" stroke-linecap="round" stroke-linejoin="round"/>
<path d="M269.039 153.287C269.039 153.287 275.759 152.854 275.59 153.375C275.421 153.896 274.988 154.578 272.575 154.754C270.161 154.931 267.439 155.099 265.158 153.977" fill="white"/>
<path d="M269.039 153.287C269.039 153.287 275.759 152.854 275.59 153.375C275.421 153.896 274.988 154.578 272.575 154.754C270.161 154.931 267.439 155.099 265.158 153.977" stroke="#092C48" stroke-linecap="round" stroke-linejoin="round"/>
<path d="M201.821 247.019C201.821 247.019 202.965 248.156 198.402 250.944C193.839 253.732 190.031 255.001 190.031 256.652C190.031 258.303 195.101 259.946 200.302 258.677C205.504 257.408 207.639 257.033 210.574 256.527C213.508 256.021 214.381 253.483 214.381 249.924C214.381 246.366 206.648 245.522 205.761 245.361C204.873 245.2 202.459 245.625 201.821 247.019Z" fill="white" stroke="#092C48" stroke-linecap="round" stroke-linejoin="round"/>
<path d="M213.229 249.932C211.309 252.809 208.958 255.375 206.26 257.54C202.327 260.474 201.821 261.846 203.853 262.609C205.885 263.372 211.711 263.622 215.643 262.103C219.575 260.584 221.476 258.303 222.613 257.283C223.75 256.263 224.388 256.901 224.388 252.844C224.388 248.787 220.074 247.393 216.531 247.65C212.987 247.907 213.229 249.932 213.229 249.932Z" fill="white" stroke="#092C48" stroke-linecap="round" stroke-linejoin="round"/>
<path d="M197.771 167.278C197.771 167.278 198.916 190.351 199.297 197.072C199.679 203.792 202.467 229.015 202.966 234.972C203.464 240.93 203.472 242.705 203.472 242.705C203.472 242.705 201.19 244.356 201.19 244.737C201.19 245.119 200.933 248.662 200.933 248.662C202.617 249.59 204.405 250.314 206.26 250.819C208.297 251.279 210.395 251.407 212.474 251.201C212.474 251.201 216.656 252.595 220.206 253.607C223.757 254.62 225.151 254.113 225.151 254.113C225.151 254.113 226.164 249.044 226.413 247.393C226.663 245.742 230.977 228.252 230.977 220.248C230.977 212.244 229.964 208.583 228.445 203.895C226.927 199.207 230.47 182.465 231.74 176.383C232.467 172.99 233.018 169.561 233.39 166.111C233.39 166.111 222.488 171.716 197.771 167.278Z" fill="#092C48" stroke="#092C48" stroke-linecap="round" stroke-linejoin="round"/>
<path d="M211.967 175.033C211.967 175.033 211.329 191.907 211.329 198.356C211.329 204.804 212.98 212.684 213.736 220.292C214.491 227.9 213.992 240.321 213.105 242.478C212.217 244.635 211.586 245.412 211.711 247.041C211.835 248.67 211.967 250.966 211.967 250.966" stroke="white" stroke-linecap="round" stroke-linejoin="round"/>
<path d="M209.935 76.8842C209.935 76.8842 209.202 74.6025 208.028 75.4902C206.854 76.378 207.654 78.0287 208.666 79.6794C209.678 81.3301 210.816 81.7043 210.948 80.8166C211.08 79.9288 209.935 76.8842 209.935 76.8842Z" fill="white" stroke="#092C48" stroke-linecap="round" stroke-linejoin="round"/>
<path d="M209.935 77.904L208.666 74.2357C208.666 74.2357 203.347 72.0787 204.998 66.7524C206.648 61.4261 219.326 56.6133 222.745 56.6133C226.164 56.6133 232.759 61.1766 233.904 66.503C235.048 71.8293 231.241 76.6421 231.241 76.6421C231.241 76.6421 229.59 81.3301 228.306 81.0807C227.022 80.8313 227.792 77.1483 226.149 74.2357C224.506 71.3231 223.486 69.8338 221.71 70.5674C219.935 71.3011 212.584 73.502 211.953 74.4925C211.322 75.4829 210.192 78.5349 209.935 77.904Z" fill="#092C48" stroke="#092C48" stroke-linecap="round" stroke-linejoin="round"/>
<path d="M235.672 130.133L236.303 133.427L228.445 145.598L230.221 148.386C233.948 145.901 237.354 142.963 240.36 139.641C245.429 134.065 245.936 133.302 245.936 131.021C245.936 128.739 244.168 124.807 244.168 124.807C244.168 124.807 240.617 130.133 235.672 130.133Z" fill="white" stroke="#092C48" stroke-linecap="round" stroke-linejoin="round"/>
<path d="M192.694 122.782C192.694 122.782 190.156 128.864 190.669 130.764C191.183 132.664 199.921 143.823 199.921 143.823L201.439 139.641C201.439 139.641 198.145 132.796 198.145 130.514C198.145 128.233 199.29 123.794 199.29 123.794L192.694 122.782Z" stroke="#092C48" stroke-linecap="round" stroke-linejoin="round"/>
<path d="M215.137 92.6064C215.137 92.6064 204.235 96.7883 202.202 97.4266C200.17 98.0649 198.776 98.439 198.652 99.07C198.527 99.7009 192.445 115.298 191.315 117.455C190.185 119.612 188.652 122.019 188.652 122.019C190.129 122.942 191.652 123.789 193.215 124.557C194.81 125.254 196.465 125.804 198.16 126.201L198.894 134.953L191.41 167.909C191.41 167.909 206.37 172.091 216.355 171.717C222.712 171.5 228.998 170.302 234.99 168.166C236.897 167.527 239.81 166.39 239.81 166.39L230.272 130.514L231.006 125.188L231.512 130.39C231.512 130.39 236.582 131.527 239.494 130.764C242.407 130.001 246.097 127.096 246.097 127.096L236.714 97.8154L219.223 92.9953L215.137 92.6064Z" fill="#6B48FF" stroke="#092C48" stroke-linecap="round" stroke-linejoin="round"/>
<path d="M227.455 95.2256L219.319 92.9879L215.137 92.6064L211.373 94.0738C211.3 96.0693 211.204 99.4661 211.204 103.538C211.204 110.141 211.938 115.966 213.868 114.822C215.797 113.677 224.872 101.388 226.413 97.9475C226.83 97.0682 227.178 96.1582 227.455 95.2256Z" fill="#6B48FF" stroke="#092C48" stroke-linecap="round" stroke-linejoin="round"/>
<path d="M231.109 125.188C230.852 124.939 229.715 114.029 229.715 114.029" stroke="#092C48" stroke-linecap="round" stroke-linejoin="round"/>
<path d="M198.145 126.201C198.145 126.201 197.258 121.894 197.514 120.243C197.771 118.593 199.539 108.835 199.539 108.835" stroke="#092C48" stroke-linecap="round" stroke-linejoin="round"/>
<path d="M202.459 144.461C202.459 144.461 196.627 146.361 196.627 146.743C196.627 147.124 196.495 148.893 196.495 148.893L202.459 146.105V144.461Z" stroke="#092C48" stroke-linecap="round" stroke-linejoin="round"/>
<path d="M217.925 145.349L217.668 146.992L230.345 150.286L230.976 149.024L217.925 145.349Z" stroke="#092C48" stroke-linecap="round" stroke-linejoin="round"/>
<path d="M222.107 120.14C221.933 120.14 221.767 120.072 221.645 119.949C221.522 119.827 221.454 119.661 221.454 119.487C221.454 117.287 222.547 111.975 223.611 106.839C224.454 102.753 225.254 98.8864 225.254 97.6759C225.287 97.0088 225.176 96.3424 224.931 95.7212C224.686 95.1 224.31 94.5383 223.831 94.0736C222.312 92.665 219.612 92.0928 215.812 92.3715C207.881 92.9585 207.301 110.713 207.294 110.882C207.29 111.052 207.22 111.215 207.098 111.334C206.976 111.453 206.812 111.52 206.641 111.52C206.555 111.517 206.471 111.497 206.393 111.462C206.315 111.426 206.244 111.376 206.186 111.313C206.127 111.251 206.081 111.177 206.051 111.097C206.021 111.016 206.007 110.931 206.01 110.845C206.01 110.067 206.634 91.7699 215.738 91.0363C219.92 90.7355 222.95 91.4178 224.74 93.0905C225.35 93.6778 225.83 94.3872 226.147 95.1722C226.464 95.9572 226.612 96.8004 226.582 97.6465C226.582 98.9891 225.812 102.738 224.916 107.074C223.911 111.909 222.782 117.389 222.782 119.458C222.786 119.548 222.771 119.638 222.739 119.722C222.706 119.806 222.657 119.883 222.593 119.947C222.53 120.011 222.454 120.061 222.37 120.095C222.286 120.128 222.197 120.144 222.107 120.14Z" fill="#092C48" stroke="#092C48" stroke-linecap="round" stroke-linejoin="round"/>
<path d="M213.736 88.6815C213.736 88.6815 213.736 92.3497 213.611 93.0834C213.486 93.817 213.611 97.0158 213.611 101.33C213.611 105.644 214.344 108.549 215.386 107.536C216.428 106.524 223.119 97.522 223.5 95.7466C223.724 94.7486 223.852 93.7315 223.882 92.7092L224.388 87.6323C224.388 87.6323 216.531 89.914 213.229 88.9016" fill="white"/>
<path d="M213.736 88.6815C213.736 88.6815 213.736 92.3497 213.611 93.0834C213.486 93.817 213.611 97.0158 213.611 101.33C213.611 105.644 214.344 108.549 215.386 107.536C216.428 106.524 223.119 97.522 223.5 95.7466C223.724 94.7486 223.852 93.7315 223.882 92.7092L224.388 87.6323C224.388 87.6323 216.531 89.914 213.229 88.9016" stroke="#092C48" stroke-linecap="round" stroke-linejoin="round"/>
<path d="M226.795 81.0733C227.455 85.4771 227.625 89.9406 227.301 94.3818C226.795 102.115 225.877 105.739 223.633 106.854C221.388 107.969 224.285 109.231 227.704 109.356C231.123 109.48 236.2 108.974 237.088 98.8351C237.976 88.696 230.624 82.1004 229.986 80.8312C229.823 80.5364 229.578 80.2947 229.282 80.1348C228.985 79.9749 228.649 79.9034 228.313 79.9289C227.977 79.9544 227.655 80.0757 227.386 80.2786C227.117 80.4815 226.912 80.7573 226.795 81.0733Z" fill="#092C48" stroke="#092C48" stroke-linecap="round" stroke-linejoin="round"/>
<path d="M202.078 119.759H202.026C201.937 119.754 201.851 119.73 201.771 119.69C201.692 119.649 201.622 119.593 201.565 119.524C201.508 119.455 201.467 119.375 201.443 119.289C201.419 119.204 201.413 119.114 201.425 119.025C201.425 118.666 202.158 110.177 206.641 110.177C211.124 110.177 211.226 118.343 211.226 118.695C211.226 118.868 211.158 119.034 211.035 119.157C210.913 119.279 210.747 119.348 210.574 119.348C210.4 119.348 210.234 119.279 210.112 119.157C209.989 119.034 209.921 118.868 209.921 118.695C209.921 118.622 209.825 111.491 206.648 111.491C203.919 111.491 202.899 117 202.738 119.128C202.73 119.298 202.658 119.459 202.535 119.576C202.412 119.694 202.248 119.759 202.078 119.759Z" fill="#092C48"/>
<path d="M202.078 118.6C202.078 118.6 202.078 124.939 202.327 126.201C202.577 127.462 205.753 130.133 209.554 131.784" stroke="#092C48" stroke-width="2" stroke-linecap="round" stroke-linejoin="round"/>
<path d="M210.317 117.808C210.317 117.808 210.566 124.146 209.304 126.934C208.042 129.722 204.235 130.867 202.584 131.498" stroke="#092C48" stroke-width="2" stroke-linecap="round" stroke-linejoin="round"/>
<path d="M211.329 132.033C211.306 131.746 211.176 131.479 210.965 131.284C210.753 131.089 210.476 130.98 210.188 130.98C209.901 130.98 209.623 131.089 209.412 131.284C209.201 131.479 209.071 131.746 209.047 132.033C209.035 132.191 209.055 132.349 209.107 132.498C209.158 132.648 209.24 132.785 209.347 132.901C209.454 133.017 209.585 133.11 209.729 133.173C209.874 133.237 210.03 133.269 210.188 133.269C210.346 133.269 210.503 133.237 210.647 133.173C210.792 133.11 210.922 133.017 211.029 132.901C211.136 132.785 211.218 132.648 211.27 132.498C211.322 132.349 211.342 132.191 211.329 132.033Z" fill="white" stroke="#092C48" stroke-linecap="round" stroke-linejoin="round"/>
<path d="M203.472 131.784C203.473 131.557 203.407 131.335 203.282 131.146C203.157 130.957 202.979 130.809 202.77 130.721C202.561 130.633 202.331 130.61 202.108 130.653C201.886 130.696 201.681 130.805 201.521 130.964C201.36 131.124 201.25 131.328 201.205 131.55C201.16 131.773 201.183 132.003 201.269 132.213C201.355 132.422 201.502 132.601 201.691 132.727C201.879 132.854 202.1 132.921 202.327 132.921C202.629 132.921 202.919 132.801 203.134 132.588C203.348 132.375 203.47 132.086 203.472 131.784Z" fill="white" stroke="#092C48" stroke-linecap="round" stroke-linejoin="round"/>
<path d="M225.907 121.894C225.908 121.116 225.679 120.354 225.247 119.707C224.816 119.059 224.202 118.554 223.483 118.255C222.764 117.957 221.973 117.878 221.209 118.03C220.446 118.181 219.744 118.556 219.194 119.106C218.643 119.657 218.269 120.358 218.117 121.121C217.966 121.885 218.044 122.676 218.343 123.395C218.641 124.114 219.147 124.728 219.794 125.159C220.442 125.591 221.203 125.821 221.982 125.819C223.022 125.817 224.019 125.403 224.755 124.667C225.491 123.932 225.905 122.934 225.907 121.894Z" fill="white" stroke="#092C48" stroke-linecap="round" stroke-linejoin="round"/>
<path d="M224.131 121.894C224.131 121.467 224.005 121.05 223.767 120.695C223.53 120.34 223.193 120.064 222.798 119.901C222.404 119.738 221.97 119.695 221.551 119.779C221.132 119.863 220.748 120.069 220.447 120.371C220.145 120.674 219.941 121.059 219.858 121.478C219.776 121.897 219.819 122.331 219.984 122.725C220.148 123.119 220.426 123.455 220.782 123.691C221.137 123.927 221.555 124.052 221.982 124.051C222.553 124.049 223.099 123.821 223.502 123.417C223.905 123.012 224.131 122.465 224.131 121.894Z" fill="white" stroke="#092C48" stroke-linecap="round" stroke-linejoin="round"/>
<path d="M224.131 68.0144C224.131 68.0144 213.105 72.321 211.711 73.0546C211.111 73.4172 210.474 73.7148 209.81 73.9423C209.81 73.9423 210.441 83.5752 210.698 86.1137C210.955 88.6521 215.005 91.0585 218.556 90.9338C222.107 90.8091 225.019 88.9016 225.657 87.7644C226.296 86.6273 228.064 83.2011 228.064 83.2011C228.064 83.2011 232.246 82.4674 232.466 78.7625C232.686 75.0575 231.453 75.8278 230.059 76.6055C228.665 77.3832 227.902 77.8747 227.902 77.8747C228.174 76.5299 227.947 75.1324 227.264 73.9423C226.164 72.0715 224.388 69.7899 224.131 68.0144Z" fill="white" stroke="#092C48" stroke-linecap="round" stroke-linejoin="round"/>
<path d="M215.137 79.8042C215.137 79.8042 216.149 81.3229 217.037 81.1982" stroke="#092C48" stroke-linecap="round" stroke-linejoin="round"/>
<path d="M214.755 82.0859C214.755 82.0859 216.905 84.1182 220.625 82.4674" stroke="#092C48" stroke-linecap="round" stroke-linejoin="round"/>
<path d="M220.206 76.7594C220.206 76.7594 222.803 75.6222 224.263 77.6471" stroke="#092C48" stroke-width="1.5" stroke-linecap="round" stroke-linejoin="round"/>
<path d="M215.137 76.51C215.137 76.51 213.105 75.2407 211.586 76.2532" stroke="#092C48" stroke-width="1.5" stroke-linecap="round" stroke-linejoin="round"/>
<path d="M216.626 76.0331C216.628 76.7418 216.419 77.4351 216.026 78.025C215.633 78.6148 215.074 79.0749 214.419 79.3468C213.765 79.6187 213.044 79.6902 212.349 79.5523C211.654 79.4143 211.015 79.0732 210.514 78.5721C210.013 78.0709 209.672 77.4323 209.534 76.7371C209.396 76.0419 209.468 75.3215 209.74 74.667C210.011 74.0125 210.471 73.4534 211.061 73.0605C211.651 72.6677 212.344 72.4588 213.053 72.4602C214 72.4622 214.908 72.8392 215.577 73.5088C216.247 74.1785 216.624 75.0861 216.626 76.0331Z" stroke="#092C48" stroke-linecap="round" stroke-linejoin="round"/>
<path d="M225.54 77.0382C225.542 77.7466 225.333 78.4396 224.94 79.0293C224.548 79.619 223.989 80.0791 223.335 80.3512C222.681 80.6233 221.961 80.6952 221.266 80.5579C220.571 80.4206 219.932 80.0802 219.431 79.5798C218.929 79.0794 218.588 78.4414 218.449 77.7467C218.31 77.052 218.381 76.3318 218.651 75.6772C218.922 75.0226 219.381 74.463 219.97 74.0692C220.559 73.6755 221.251 73.4653 221.96 73.4653C222.908 73.4673 223.816 73.8441 224.487 74.5135C225.158 75.1829 225.536 76.0906 225.54 77.0382V77.0382Z" stroke="#092C48" stroke-linecap="round" stroke-linejoin="round"/>
<path d="M216.626 76.0332C216.882 75.9465 217.157 75.9301 217.421 75.9856C217.686 76.041 217.931 76.1665 218.13 76.3487" stroke="#092C48" stroke-linecap="round" stroke-linejoin="round"/>
<path d="M225.665 77.6031L229.179 77.1042" stroke="#092C48" stroke-linecap="round" stroke-linejoin="round"/>
<path d="M76.6152 247.944C75.6434 250.008 74.4477 251.959 73.0497 253.761C70.9294 256.366 70.3938 258.222 72.6975 259.836C75.0012 261.45 79.1977 261.201 81.3106 258.596C83.4236 255.992 86.8277 248.809 86.8277 248.809C86.8277 248.809 79.4031 246.579 76.6152 247.944Z" fill="white" stroke="#092C48" stroke-linecap="round" stroke-linejoin="round"/>
<path d="M102.455 249.55C102.455 249.55 106.123 254.385 108.324 256.887C110.525 259.389 114.685 260.599 116.908 260.474C119.131 260.35 122.322 259.609 120.165 255.647C118.008 251.685 113.503 247.841 113.503 247.841C113.503 247.841 108.793 247.841 105.558 247.467C102.323 247.093 102.293 248.809 102.455 249.55Z" fill="white" stroke="#092C48" stroke-linecap="round" stroke-linejoin="round"/>
<path d="M78.6401 158.489C78.6401 158.489 77.1728 175.363 77.6717 187.234C78.1706 199.104 75.9843 222.794 75.2506 228.59C74.517 234.386 75.9183 243.953 75.9843 246.058C76.0503 248.164 76.1237 249.286 76.1237 249.286C76.1237 249.286 77.2095 248.553 81.2079 249.286C83.013 249.672 84.8453 249.917 86.6883 250.02C88.3379 247.229 89.7021 244.28 90.7601 241.216C91.956 237.254 91.281 233.146 91.1856 231.055C91.0903 228.964 90.7455 226.719 90.9802 226.345C91.215 225.971 96.1158 190.542 96.3799 182.736C96.6801 177.444 97.466 172.191 98.7276 167.043C98.7276 167.043 101.068 177.945 101.251 182.157C101.435 186.368 100.833 220.688 101.134 227.643C101.435 234.598 100.899 236.447 100.107 238.179C99.3146 239.91 99.6007 240.776 100.158 242.14C100.716 243.505 102.469 249.572 102.469 249.572C102.469 249.572 111.413 250.071 112.623 249.448C113.834 248.824 114.303 248.215 114.281 247.841C114.259 247.467 118.588 238.546 118.177 234.833C117.766 231.121 117.296 231.737 116.878 225.046C116.46 218.355 119.197 161.952 119.189 159.017C119.182 156.083 118.69 161.739 100.452 158.284C82.213 154.828 79.161 156.134 78.6401 158.489Z" fill="#6B48FF" stroke="#092C48" stroke-linecap="round" stroke-linejoin="round"/>
<path d="M102.983 244.73C102.983 244.73 108.713 239.771 113.489 238.531L102.983 244.73Z" fill="white"/>
<path d="M102.983 244.73C102.983 244.73 108.713 239.771 113.489 238.531" stroke="#092C48" stroke-linecap="round" stroke-linejoin="round"/>
<path d="M79.5865 242.368C79.5865 242.368 86.747 238.897 88.8159 238.032L79.5865 242.368Z" fill="white"/>
<path d="M79.5865 242.368C79.5865 242.368 86.747 238.897 88.8159 238.032" stroke="#092C48" stroke-linecap="round" stroke-linejoin="round"/>
<path d="M91.6038 66.8111C91.6038 66.8111 89.6817 62.4752 88.2584 63.9645C86.8351 65.4538 87.9135 67.4274 89.8724 69.7824C91.8313 72.1374 93.3793 70.6481 92.9684 69.6577C92.5576 68.6673 91.6038 66.8111 91.6038 66.8111Z" fill="white" stroke="#092C48" stroke-linecap="round" stroke-linejoin="round"/>
<path d="M110.209 64.4561C110.209 64.4561 112.132 60.2449 113.702 62.2551C115.272 64.2653 111.897 69.1955 111.068 70.0612C110.239 70.9269 109.703 64.3607 109.703 64.3607L110.209 64.4561Z" fill="white" stroke="#092C48" stroke-linecap="round" stroke-linejoin="round"/>
<path d="M68.479 118.725C68.479 118.725 67.9434 126.406 67.2905 128.387C65.9575 133.055 65.3343 137.898 65.4417 142.752C65.6984 148.57 67.9801 161.211 68.0241 165.048C68.0681 168.885 66.8723 169.758 68.1562 170.748C69.4401 171.739 72.1693 174.717 73.1597 174.717C74.1502 174.717 75.6615 175.209 75.6248 174.468C75.5881 173.727 75.1039 173.844 74.6857 172.854C74.1519 171.41 73.7156 169.932 73.3798 168.43C73.6811 167.336 74.0461 166.26 74.473 165.209C74.473 165.209 75.3534 168.305 75.5221 169.303C75.6908 170.301 77.0701 170.66 76.9894 168.804C76.9087 166.948 76.872 166.199 76.784 164.219C76.6959 162.238 75.1333 160.506 74.473 159.509C73.8127 158.511 73.2918 157.902 73.2698 157.528C73.2478 157.154 75.4047 144.028 75.4707 139.443C75.5368 134.858 75.6028 131.138 75.9329 130.272C76.2631 129.407 77.9065 121.601 77.9065 121.601L68.479 118.725Z" fill="white" stroke="#092C48" stroke-linecap="round" stroke-linejoin="round"/>
<path d="M129.754 119.092C129.754 119.092 130.282 126.817 130.942 128.857C132.259 133.586 132.88 138.482 132.784 143.39C132.527 149.193 130.231 161.629 130.187 165.466C130.143 169.303 131.346 170.271 130.062 171.152C128.778 172.032 126.042 174.761 125.051 174.681C124.061 174.6 122.557 174.952 122.586 174.211C122.615 173.47 123.107 173.639 123.525 172.685C124.067 171.271 124.506 169.819 124.838 168.342C124.535 167.214 124.167 166.105 123.738 165.018C123.738 165.018 122.858 168.041 122.689 169.017C122.52 169.993 121.148 170.242 121.222 168.393C121.295 166.544 121.332 165.803 121.42 163.83C121.508 161.856 123.07 160.257 123.738 159.325C124.406 158.394 124.919 157.814 124.941 157.447C124.963 157.08 122.806 143.757 122.74 139.164C122.674 134.572 122.615 130.852 122.278 129.957C121.94 129.062 120.304 121.109 120.304 121.109L129.754 119.092Z" fill="white" stroke="#092C48" stroke-linecap="round" stroke-linejoin="round"/>
<path d="M95.5729 81.0588C95.5729 81.0588 88.5298 84.4042 84.2746 86.2604C80.0194 88.1165 74.6711 90.3468 74.7371 91.2199C74.8031 92.0929 70.2031 109.429 68.7505 113.024C67.2978 116.619 65.9406 119.466 65.9406 119.466C65.9406 119.466 71.1422 122.943 74.517 123.677C76.692 124.137 78.8997 124.427 81.1199 124.543L77.1068 160.228C77.1068 160.228 85.177 163.448 97.8179 163.573C105.661 163.631 113.501 163.217 121.295 162.333C121.295 162.333 122.483 132.987 122.359 130.118C122.273 128.546 122.329 126.97 122.527 125.408C124.453 125.828 126.454 125.745 128.338 125.166C129.995 124.55 131.619 123.847 133.202 123.061C133.202 123.061 127.047 98.5271 126.034 95.1816C125.022 91.8362 125.491 91.3446 124.611 90.9704C123.731 90.5963 114.002 86.3851 110.826 84.5289C107.649 82.6728 106.424 82.6655 103.643 81.7997C100.863 80.934 97.0035 79.8189 95.5729 81.0588Z" fill="#6B48FF" stroke="#092C48" stroke-linecap="round" stroke-linejoin="round"/>
<path d="M122.542 125.408L120.972 103.406" stroke="#092C48" stroke-linecap="round" stroke-linejoin="round"/>
<path d="M81.4134 136.934L95.1547 136.56C95.1547 136.56 94.5458 153.786 94.1276 155.635C93.7095 157.484 90.9216 158.731 87.3193 158.606C83.7171 158.481 81.5381 156.75 81.1273 155.884" stroke="#092C48" stroke-linecap="round" stroke-linejoin="round"/>
<path d="M80.643 139.164L95.1327 139.04" stroke="#092C48" stroke-linecap="round" stroke-linejoin="round"/>
<path d="M118.793 158.613C117.443 158.988 114.222 158.988 113.518 157.007C112.814 155.026 113.276 137.308 113.276 137.308L120.348 137.55" stroke="#092C48" stroke-linecap="round" stroke-linejoin="round"/>
<path d="M113.217 138.79L119.945 139.781" stroke="#092C48" stroke-linecap="round" stroke-linejoin="round"/>
<path d="M81.1199 124.543C81.1199 124.543 81.6188 107.573 81.4207 103.113" stroke="#092C48" stroke-linecap="round" stroke-linejoin="round"/>
<path d="M93.4747 72.7539C93.4747 72.7539 94.5458 83.0251 94.5898 84.1549C94.6338 85.2848 95.8884 88.3661 97.0769 89.9802C98.2654 91.5942 101.589 96.7958 102.909 95.798C104.23 94.8003 107.95 89.2318 108.309 86.1358C108.669 83.0398 108.845 75.7325 108.845 75.7325C108.845 75.7325 104.025 75.982 100.371 74.7421C96.7174 73.5022 93.4747 72.7539 93.4747 72.7539Z" fill="white" stroke="#092C48" stroke-linecap="round" stroke-linejoin="round"/>
<path d="M88.3391 57.3911L91.0756 66.0702C91.0756 66.0702 92.1027 72.5117 93.9515 75.1089C95.8003 77.706 102.279 81.433 105.22 80.6846C108.162 79.9363 111.633 77.2144 111.501 74.2431C111.369 71.2718 110.767 62.6 110.848 59.2545C110.928 55.9091 110.114 49.0934 108.089 47.2373C106.064 45.3811 99.2852 44.2586 94.4211 46.2468C89.5569 48.235 86.2555 51.94 88.3391 57.3911Z" fill="#092C48" stroke="#092C48" stroke-linecap="round" stroke-linejoin="round"/>
<path d="M91.2297 66.8113C91.2297 66.8113 90.9876 66.936 91.6259 64.4562C92.2641 61.9765 94.1863 60.7366 94.3771 59.5041C94.5678 58.2715 91.956 57.89 92.2421 56.0339C92.5283 54.1777 95.0814 52.8131 100.503 52.1895C105.925 51.5659 109.534 54.794 109.358 56.4007C109.182 58.0074 108.698 58.2642 109.49 59.3793C110.283 60.4945 110.62 62.6001 110.679 63.84C110.738 65.0798 111.413 69.5331 110.239 70.8977C109.065 72.2623 108.184 72.0129 107.018 70.8977C105.851 69.7826 105.419 68.3006 102.821 68.3006C100.224 68.3006 99.3953 69.291 98.9404 70.2815C98.4855 71.2719 98.0453 72.4824 96.5634 72.4824C95.0814 72.4824 94.0249 71.1178 92.9684 69.6285C92.3247 68.7306 91.7437 67.7893 91.2297 66.8113Z" fill="white" stroke="#092C48" stroke-linecap="round" stroke-linejoin="round"/>
<path d="M102.396 60.7366C102.396 60.7366 104.795 67.4275 104.692 67.9264C104.59 68.4253 103.416 69.9073 102.044 69.7825C100.672 69.6578 99.9895 68.0511 99.9895 68.0511" stroke="#092C48" stroke-linecap="round" stroke-linejoin="round"/>
<path d="M103.071 59.8489C103.005 59.6249 102.991 59.389 103.03 59.1589C103.068 58.9287 103.158 58.7102 103.293 58.5197C103.427 58.3292 103.604 58.1716 103.808 58.0588C104.012 57.9459 104.239 57.8807 104.472 57.868C105.239 57.8308 106.005 57.9553 106.72 58.2334C107.435 58.5114 108.084 58.9369 108.625 59.482" stroke="#092C48" stroke-width="2" stroke-linecap="round" stroke-linejoin="round"/>
<path d="M99.4613 59.1152C99.1072 58.8519 98.6992 58.6706 98.2665 58.5844C97.8339 58.4981 97.3874 58.509 96.9595 58.6163C95.4922 58.9905 93.7241 61.2208 93.7461 61.5949" stroke="#092C48" stroke-width="2" stroke-linecap="round" stroke-linejoin="round"/>
<path d="M98.9844 62.7248C98.9844 63.341 98.7276 63.8399 98.3461 63.8399C97.9646 63.8399 97.6125 63.341 97.6125 62.7248C97.6125 62.1085 97.8693 61.6096 98.2434 61.6096C98.6176 61.6096 98.9551 62.1085 98.9844 62.7248Z" fill="#092C48"/>
<path d="M106.152 62.3505C106.152 62.9668 105.895 63.4657 105.521 63.4657C105.147 63.4657 104.788 62.9668 104.788 62.3505C104.788 61.7342 105.044 61.2354 105.419 61.2354C105.793 61.2354 106.123 61.7342 106.152 62.3505Z" fill="#092C48"/>
<path d="M99.7841 72.5116C99.7841 72.5116 102.183 73.6267 105.829 72.0127" stroke="white" stroke-width="2" stroke-linecap="round" stroke-linejoin="round"/>
<path d="M90.9583 83.3257C90.9583 83.3257 94.6265 95.9592 98.5663 104.264C102.506 112.569 105.631 118.387 105.631 118.387C105.631 118.387 111.567 98.439 111.537 91.9755C111.508 85.512 111.471 84.793 111.471 84.793" stroke="#092C48" stroke-linecap="round" stroke-linejoin="round"/>
<path d="M110.026 130.984H102.462L101.912 118.351H109.468L110.026 130.984Z" fill="white" stroke="#092C48" stroke-linecap="round" stroke-linejoin="round"/>
<path d="M165.593 253.395C165.593 253.395 169.555 256.615 172.401 257.481C175.248 258.347 176.737 258.846 176.121 260.21C175.505 261.575 173.516 262.066 167.699 262.191C161.881 262.316 160.758 261.076 158.528 260.452C156.298 259.829 153.202 260.452 152.211 259.22C151.221 257.987 151.587 256.116 151.587 254.136C151.587 252.155 160.142 251.289 162.372 252.03C163.492 252.368 164.571 252.825 165.593 253.395Z" fill="white" stroke="#092C48" stroke-linecap="round" stroke-linejoin="round"/>
<path d="M154.317 255.874C154.317 255.874 158.036 259.836 161.132 261.567C164.228 263.299 165.96 264.546 165.219 265.412C164.478 266.278 162.123 267.393 155.923 266.776C149.724 266.16 148.491 264.788 145.52 262.683C142.549 260.577 141.184 260.826 140.194 259.711C139.203 258.596 139.203 256.116 139.203 256.116L154.317 255.874Z" fill="white" stroke="#092C48" stroke-linecap="round" stroke-linejoin="round"/>
<path d="M172.9 164.189C172.9 164.189 170.699 193.675 169.804 199.001C168.909 204.328 168.065 207.306 168.19 211.019C168.315 214.731 169.43 225.391 167.2 231.715C164.969 238.039 164.999 245.713 165.219 247.944C165.439 250.174 166.209 253.145 166.085 253.644C165.96 254.143 162.372 256.117 159.768 256.615C158.131 256.916 156.472 257.081 154.808 257.107C152.288 257.997 149.669 258.581 147.01 258.846C143.29 259.095 138.206 257.98 138.206 257.98C138.206 257.98 138.206 248.809 137.707 242.859C137.208 236.909 135.506 227.379 137.582 220.189C139.658 213 139.196 209.185 139.049 206.808C138.903 204.43 139.049 193.8 138.925 193.426C138.8 193.051 138.059 162.084 138.059 162.084C138.059 162.084 151.558 164.065 160.604 163.199C169.65 162.333 172.005 162.333 172.005 162.333C172.005 162.333 174.015 160.103 172.9 164.189Z" fill="#092C48" stroke="#092C48" stroke-linecap="round" stroke-linejoin="round"/>
<path d="M155.432 255.376C155.425 253.37 155.179 251.373 154.698 249.426C153.965 246.953 153.825 238.157 154.199 234.562C154.573 230.967 156.4 221.928 156.4 216.844C156.4 211.76 156.899 203.961 156.899 203.961" stroke="white" stroke-linecap="round" stroke-linejoin="round"/>
<path d="M181.073 201.232L166.958 201.107C166.341 201.107 166.341 191.694 166.341 191.694L181.073 201.232Z" fill="white" stroke="#092C48" stroke-linecap="round" stroke-linejoin="round"/>
<path d="M151.221 165.928C151.221 165.928 165.344 166.794 173.274 165.429L170.545 98.7767C170.545 98.7767 168.689 95.6807 163.73 93.9419C158.77 92.2031 152.827 94.6755 150.722 97.0379C148.616 99.4003 150.106 165.679 150.106 165.679L151.221 165.928Z" fill="#6B48FF" stroke="#092C48" stroke-linecap="round" stroke-linejoin="round"/>
<path d="M151.837 93.9418C151.837 93.9418 137.839 101.007 135.733 102.247C133.628 103.487 133.532 107.94 133.532 110.053C133.532 112.166 134.148 205.942 134.148 205.942C139.447 206.288 144.766 205.745 149.885 204.335C154.934 203.014 159.685 200.743 163.884 197.644L161.529 147.22L158.887 102.988C158.887 102.988 157.288 90.721 151.837 93.9418Z" fill="white" stroke="#092C48" stroke-linecap="round" stroke-linejoin="round"/>
<path d="M156.048 89.3564C156.048 89.3564 152.827 89.7306 151.463 91.5574C150.663 92.6352 150.076 93.8552 149.731 95.1523L148.491 106.304L152.703 105.313L150.597 110.266C150.597 110.266 152.703 116.465 155.058 121.667C157.413 126.868 160.883 137.521 160.883 137.521L159.269 104.198C159.269 104.198 159.269 94.5361 158.535 92.4598C157.802 90.3836 157.039 89.3564 156.048 89.3564Z" fill="white" stroke="#092C48" stroke-linecap="round" stroke-linejoin="round"/>
<path d="M164.104 96.1722L166.583 197.145L181.073 201.232L178.968 124.301C178.968 124.301 179.342 104.492 178.102 101.748C176.862 99.0041 165.718 93.4504 164.603 93.5971C163.487 93.7438 164.104 96.1722 164.104 96.1722Z" fill="white" stroke="#092C48" stroke-linecap="round" stroke-linejoin="round"/>
<path d="M164.104 91.0952C165.006 91.3151 165.849 91.7281 166.577 92.3057C167.304 92.8833 167.897 93.6117 168.315 94.4407C169.555 97.1625 172.775 105.592 172.775 105.592L168.689 106.084L173.025 109.18L165.344 138.049L164.478 106.803L163.744 93.9198C163.744 93.9198 162.864 91.8362 164.104 91.0952Z" fill="white" stroke="#092C48" stroke-linecap="round" stroke-linejoin="round"/>
<path d="M155.058 85.1453C155.058 85.1453 155.557 88.7402 154.808 90.721C154.06 92.7019 157.163 98.9013 158.403 102.738C159.643 106.575 160.883 109.679 161.624 109.305C162.365 108.93 164.969 94.4407 164.845 92.5772C164.72 90.7137 165.96 85.1453 165.96 85.1453C165.96 85.1453 159.144 87.1261 155.058 85.1453Z" fill="white" stroke="#092C48" stroke-linecap="round" stroke-linejoin="round"/>
<path d="M146.356 81.3669C150.258 81.3669 153.422 78.0625 153.422 73.9863C153.422 69.9101 150.258 66.6057 146.356 66.6057C142.455 66.6057 139.291 69.9101 139.291 73.9863C139.291 78.0625 142.455 81.3669 146.356 81.3669Z" fill="#092C48" stroke="#092C48" stroke-linecap="round" stroke-linejoin="round"/>
<path d="M149.981 77.4566C149.981 77.4566 148.741 74.2358 147.252 75.4757C145.762 76.7156 147.252 79.4374 148.367 81.0515C149.482 82.6655 151.587 81.9172 151.345 80.3178C151.145 79.2622 150.675 78.2765 149.981 77.4566Z" fill="white" stroke="#092C48" stroke-linecap="round" stroke-linejoin="round"/>
<path d="M169.159 75.4536C169.159 75.4536 169.782 72.3576 170.626 74.4632C170.999 75.288 171.171 76.1897 171.128 77.094C171.085 77.9984 170.827 78.8795 170.376 79.6648C169.643 80.9047 169.76 80.7799 169.511 79.6648C169.316 78.2686 169.198 76.8628 169.159 75.4536Z" fill="white" stroke="#092C48" stroke-linecap="round" stroke-linejoin="round"/>
<path d="M148.242 71.4918C148.242 71.4918 150.597 82.8855 152.086 85.6147C153.576 88.3439 158.528 92.9513 162.989 91.0658C167.449 89.1803 169.929 85.7394 169.929 81.5282C169.929 77.317 170.545 71.9907 169.804 67.398C169.43 65.3068 168.354 63.4057 166.753 62.0091C165.152 60.6124 163.123 59.8037 161 59.7166C157.031 59.5919 150.839 61.8222 149.599 65.7913C148.957 67.6411 148.502 69.5509 148.242 71.4918Z" fill="white" stroke="#092C48" stroke-linecap="round" stroke-linejoin="round"/>
<path d="M148.367 75.7031C148.367 75.7031 155.307 72.9739 159.768 69.6284C164.228 66.283 165.593 63.8106 165.593 63.8106C165.593 63.8106 167.699 69.5037 168.564 71.3672C169.43 73.2307 170.171 75.329 170.171 75.329C170.171 75.329 171.536 72.9739 171.536 67.9924C171.536 63.0109 170.171 59.0711 164.933 56.4667C159.694 53.8622 151.184 55.4762 147.325 59.1959C143.466 62.9155 144.229 68.9828 145.219 71.3379C145.995 72.9721 147.061 74.4513 148.367 75.7031Z" fill="#092C48" stroke="#092C48" stroke-linecap="round" stroke-linejoin="round"/>
<path d="M163.729 71.1177C163.729 71.1177 162.996 71.2424 162.996 73.4727C162.996 75.703 163.729 79.4153 163.612 79.9142C163.495 80.4131 162.145 81.8951 161.264 81.0294" stroke="#092C48" stroke-linecap="round" stroke-linejoin="round"/>
<path d="M158.154 83.2597C158.154 83.2597 161.374 84.6243 165.49 82.1445" stroke="#092C48" stroke-linecap="round" stroke-linejoin="round"/>
<path d="M164.228 70.8536C164.228 70.8536 166.84 69.8559 168.564 71.3525" stroke="#092C48" stroke-linecap="round" stroke-linejoin="round"/>
<path d="M159.892 71.3672C158.759 71.0304 157.561 70.9671 156.398 71.1826C155.235 71.3982 154.139 71.8863 153.202 72.6071" stroke="#092C48" stroke-linecap="round" stroke-linejoin="round"/>
<path d="M158.154 74.9547C158.154 75.6883 157.853 76.3193 157.479 76.3193C157.105 76.3193 156.796 75.7103 156.796 74.9547C156.796 74.199 157.097 73.5974 157.479 73.5974C157.86 73.5974 158.154 74.2063 158.154 74.9547Z" fill="#092C48"/>
<path d="M166.224 74.4632C166.224 75.1969 165.916 75.8278 165.542 75.8278C165.167 75.8278 164.859 75.2189 164.859 74.4632C164.859 73.7076 165.167 73.0986 165.542 73.0986C165.916 73.0986 166.224 73.7076 166.224 74.4632Z" fill="#092C48"/>
<path d="M174.14 124.667L171.939 121.072C171.315 120.082 168.469 120.456 167.104 120.456C166.395 120.53 165.713 120.767 165.111 121.149C164.509 121.531 164.003 122.047 163.634 122.657C163.143 123.647 160.912 125.261 161.778 126.252C162.644 127.242 164.999 126.619 165.373 126.868C165.747 127.118 168.843 129.223 169.958 129.597C170.551 129.815 171.185 129.898 171.814 129.839L174.14 124.667Z" stroke="#092C48" stroke-linecap="round" stroke-linejoin="round"/>
<path d="M177.486 101.007C178.732 101.582 179.847 102.406 180.763 103.428C181.679 104.45 182.376 105.648 182.812 106.949C184.177 111.285 188.755 140.155 187.764 142.899C186.774 145.642 184.301 147.726 179.965 146.244C175.629 144.762 168.961 137.69 168.961 137.69L174.162 124.682L178.249 126.787L177.383 115.144" fill="white"/>
<path d="M177.486 101.007C178.732 101.582 179.847 102.406 180.763 103.428C181.679 104.45 182.376 105.648 182.812 106.949C184.177 111.285 188.755 140.155 187.764 142.899C186.774 145.642 184.301 147.726 179.965 146.244C175.629 144.762 168.961 137.69 168.961 137.69L174.162 124.682L178.249 126.787L177.383 115.144" stroke="#092C48" stroke-linecap="round" stroke-linejoin="round"/>
<path d="M178.227 126.773C178.227 126.773 184.793 130.617 185.416 131.982" stroke="#092C48" stroke-linecap="round" stroke-linejoin="round"/>
<path d="M169.922 109.429H146.012V142.884H169.922V109.429Z" fill="#092C48" stroke="#092C48" stroke-linecap="round" stroke-linejoin="round"/>
<path d="M156.796 132.723C156.796 132.723 161.375 130.243 162.739 128.879C164.104 127.514 164.353 127.411 165.094 127.411C166.918 127.411 168.739 127.286 170.545 127.037C171.279 126.788 170.919 128.504 170.545 128.893C170.171 129.282 167.823 129.766 167.823 129.766C167.823 129.766 171.785 129.392 171.91 130.632C171.999 130.988 171.987 131.361 171.877 131.71C171.767 132.06 171.563 132.372 171.286 132.613L170.919 132.987C170.919 132.987 171.286 135.584 170.919 136.824C170.553 138.064 169.804 138.438 168.19 138.68C166.036 138.818 163.873 138.695 161.749 138.313C160.509 138.064 156.298 138.93 156.298 138.93L156.796 132.723Z" fill="white" stroke="#092C48" stroke-linecap="round" stroke-linejoin="round"/>
<path d="M140.319 100.016C140.319 100.016 132.982 101.623 131.764 102.364C130.546 103.105 126.438 132.598 125.572 137.58C124.706 142.561 133.253 143.529 135.843 144.52C138.433 145.51 157.42 146.97 157.42 146.97L157.669 131.608L144.537 128.262L144.412 107.074" fill="white"/>
<path d="M140.319 100.016C140.319 100.016 132.982 101.623 131.764 102.364C130.546 103.105 126.438 132.598 125.572 137.58C124.706 142.561 133.253 143.529 135.843 144.52C138.433 145.51 157.42 146.97 157.42 146.97L157.669 131.608L144.537 128.262L144.412 107.074" stroke="#092C48" stroke-linecap="round" stroke-linejoin="round"/>
<path d="M144.53 128.262C144.53 128.262 139.944 126.157 136.973 127.272C134.002 128.387 131.522 134.087 131.522 134.087" stroke="#092C48" stroke-linecap="round" stroke-linejoin="round"/>
<path d="M139.445 126.773C139.445 126.773 135.11 126.524 133.004 127.397C131.709 127.944 130.562 128.792 129.659 129.869" stroke="#092C48" stroke-linecap="round" stroke-linejoin="round"/>
<path d="M162.989 108.314H154.566V111.043H162.989V108.314Z" fill="white" stroke="#092C48" stroke-linecap="round" stroke-linejoin="round"/>
</svg>
