<svg width="50" height="50" viewBox="0 0 50 50" fill="none" xmlns="http://www.w3.org/2000/svg">
<g clip-path="url(#clip0_154_5635)">
<path d="M1.56979 29.514C3.3986 35.7643 8.67009 48.5144 17.5778 47.3699C26.512 46.222 23.023 34.7015 31.2016 33.1225C34.8019 32.4273 37.2424 38.6585 40.8507 38.4646C45.4979 38.2149 47.8633 33.6147 49.162 29.7475C51.9156 21.5475 47.792 7.64278 38.1406 5.23457C29.7183 3.13311 28.7332 13.4235 21.4099 10.4346C17.2938 8.75459 17.705 3.7377 12.692 2.72539C-2.47386 -0.337008 -0.863701 21.1971 1.56979 29.514Z" fill="url(#paint0_linear_154_5635)"/>
<g opacity="0.1">
<path opacity="0.1" d="M31.9438 36.7433H30.129C29.8593 36.7433 29.6407 36.9619 29.6407 37.2316C29.6407 37.5013 29.8593 37.7199 30.129 37.7199H31.9438C32.2135 37.7199 32.4321 37.5013 32.4321 37.2316C32.4321 36.9619 32.2134 36.7433 31.9438 36.7433Z" fill="#2626BC"/>
<path opacity="0.1" d="M31.9438 38.5384H26.2228C25.9531 38.5384 25.7345 38.7569 25.7345 39.0267C25.7345 39.2964 25.9531 39.515 26.2228 39.515H31.9438C32.2135 39.515 32.4321 39.2964 32.4321 39.0267C32.4321 38.7569 32.2134 38.5384 31.9438 38.5384Z" fill="#2626BC"/>
<path opacity="0.1" d="M31.9438 40.3333H26.2228C25.9531 40.3333 25.7345 40.5519 25.7345 40.8216C25.7345 41.0913 25.9531 41.3099 26.2228 41.3099H31.9438C32.2135 41.3099 32.4321 41.0913 32.4321 40.8216C32.4321 40.5519 32.2134 40.3333 31.9438 40.3333Z" fill="#2626BC"/>
<path opacity="0.1" d="M44.9 18.1046L34.2655 7.47003C33.8841 7.08868 33.2658 7.08868 32.8844 7.47003L31.5582 8.7962C31.1769 9.17755 31.1769 9.79591 31.5582 10.1773L31.9278 10.5468L17.7265 24.7481C17.6022 24.8724 17.5063 25.022 17.4451 25.1868L13.74 35.1774L10.1506 38.7667C9.67396 39.2434 9.67396 40.0163 10.1506 40.4931L10.3233 40.6657L7.11536 43.8736L6.99232 43.7506C6.70159 43.4599 6.2303 43.4599 5.93958 43.7506L5.3847 44.3055C4.63353 45.0567 4.61536 46.3043 5.3806 47.0411C6.12249 47.7554 7.30306 47.7469 8.03441 47.0155L8.61946 46.4305C8.91019 46.1398 8.91019 45.6685 8.61946 45.3777L8.49642 45.2547L11.7043 42.0468L11.8769 42.2193C12.3535 42.696 13.1265 42.696 13.6033 42.2193L17.1926 38.63L27.1832 34.9248C27.3481 34.8637 27.4977 34.7678 27.622 34.6435L29.9103 32.3552C31.124 34.1968 33.2094 35.413 35.5798 35.413C39.3279 35.413 42.3663 32.3746 42.3663 28.6265C42.3663 26.256 41.1501 24.1705 39.3085 22.9569L41.8232 20.4423L42.1927 20.8118C42.5741 21.1932 43.1924 21.1932 43.5738 20.8118L44.8999 19.4857C45.2814 19.1043 45.2814 18.486 44.9 18.1046ZM28.9141 29.8986L26.0842 32.7285L17.8284 35.7902L21.9599 31.6588C22.3412 31.2775 22.3412 30.6591 21.9599 30.2777C21.5785 29.8964 20.9602 29.8964 20.5788 30.2777L16.7356 34.121L19.6415 26.2857L24.8856 21.0416L26.2073 22.3633L26.1356 22.435C25.9449 22.6257 25.9449 22.9348 26.1356 23.1255L29.2328 26.2228C28.9496 26.9701 28.7934 27.7798 28.7934 28.6264C28.7933 29.0615 28.8359 29.4864 28.9141 29.8986ZM36.852 21.9609C36.4397 21.8826 36.0149 21.8401 35.5798 21.8401C33.8253 21.8401 32.2265 22.506 31.0218 23.5986L28.3421 20.919C28.1514 20.7282 27.8422 20.7282 27.6516 20.919L27.5799 20.9906L26.2582 19.669L33.654 12.2732L40.0968 18.7159L36.852 21.9609Z" fill="#2626BC"/>
</g>
<path d="M26.2578 17.2227L32.6997 23.6646L31.3271 25.0372L24.8852 18.5953L26.2578 17.2227Z" fill="#B3B3FF"/>
<path d="M6.61902 41.9202L12.1723 36.3669L13.5531 37.7477L7.99988 43.301L6.61902 41.9202Z" fill="#B3B3FF"/>
<path d="M9.13336 39.4061L12.1724 36.367L13.5533 37.7479L10.5142 40.7869L9.13336 39.4061Z" fill="#9494FF"/>
<path d="M15.9233 35.2541L21.9599 29.2175C22.3413 28.8361 22.3413 28.2178 21.9599 27.8364C21.5786 27.4551 20.9602 27.4551 20.5789 27.8364L14.5422 33.8731L15.9233 35.2541Z" fill="#6C6CFF"/>
<path d="M15.6549 34.2737C15.7792 34.1493 15.8751 33.9997 15.9362 33.8349L19.6414 23.8444L33.8052 9.68059C34.2818 9.20393 34.2818 8.43098 33.8052 7.95422C33.3285 7.47756 32.5556 7.47756 32.0788 7.95422L17.7265 22.3067C17.6022 22.431 17.5063 22.5806 17.4451 22.7454L13.7399 32.736L10.1506 36.3253C9.67393 36.802 9.67393 37.5749 10.1506 38.0517L11.0138 38.9149L15.6549 34.2737Z" fill="#D9D9FF"/>
<path d="M11.8769 39.7779C12.3535 40.2546 13.1265 40.2546 13.6032 39.7779L17.1926 36.1886L27.1832 32.4834C27.348 32.4223 27.4977 32.3264 27.622 32.2021L41.9743 17.8497C42.451 17.3731 42.451 16.6001 41.9743 16.1233C41.4977 15.6467 40.7247 15.6467 40.2479 16.1233L26.0842 30.2872L16.0936 33.9924C15.9287 34.0535 15.7791 34.1494 15.6548 34.2737L11.0137 38.9149L11.8769 39.7779Z" fill="#B3B3FF"/>
<path d="M32.3756 11.1103L33.8052 9.68069C34.2818 9.20403 34.2818 8.43109 33.8052 7.95433C33.3285 7.47767 32.5556 7.47767 32.0788 7.95433L30.6492 9.38392L32.3756 11.1103Z" fill="#B3B3FF"/>
<path d="M40.5448 19.2794L41.9744 17.8498C42.4511 17.3732 42.4511 16.6002 41.9744 16.1235C41.4977 15.6468 40.7248 15.6468 40.248 16.1235L38.8184 17.553L40.5448 19.2794Z" fill="#9494FF"/>
<path d="M5.93958 41.3091L5.3847 41.864C4.63353 42.6152 4.61536 43.8628 5.3806 44.5996C6.12249 45.3139 7.30296 45.3054 8.03441 44.574L8.61946 43.989C8.91019 43.6983 8.91019 43.227 8.61946 42.9363L6.99232 41.309C6.70159 41.0185 6.2303 41.0185 5.93958 41.3091Z" fill="#6C6CFF"/>
<path d="M29.2445 23.7931L26.1356 20.6842C25.9449 20.4935 25.9449 20.1844 26.1356 19.9937L27.6517 18.4775C27.8424 18.2868 28.1515 18.2868 28.3422 18.4775L31.4511 21.5864C31.6418 21.7772 31.6418 22.0862 31.4511 22.277L29.935 23.7931C29.7443 23.9838 29.4352 23.9838 29.2445 23.7931Z" fill="#FFAB66"/>
<path d="M42.1928 18.3704L31.5582 7.73585C31.1769 7.3545 31.1769 6.73614 31.5582 6.3548L32.8844 5.02863C33.2657 4.64728 33.8841 4.64728 34.2655 5.02863L44.9 15.6632C45.2814 16.0445 45.2814 16.6629 44.9 17.0443L43.5739 18.3704C43.1925 18.7518 42.5742 18.7518 42.1928 18.3704Z" fill="#FFAB66"/>
<path d="M35.5798 32.9716C39.3279 32.9716 42.3663 29.9332 42.3663 26.1851C42.3663 22.437 39.3279 19.3986 35.5798 19.3986C31.8317 19.3986 28.7933 22.437 28.7933 26.1851C28.7933 29.9332 31.8317 32.9716 35.5798 32.9716Z" fill="#FF4D4D"/>
<path d="M38.7377 24.7553H37.0097V23.0273C37.0097 22.4879 36.5724 22.0507 36.0331 22.0507H35.1266C34.5873 22.0507 34.1501 22.4879 34.1501 23.0273V24.7553H32.4221C31.8827 24.7553 31.4455 25.1925 31.4455 25.7319V26.6383C31.4455 27.1777 31.8827 27.6149 32.4221 27.6149H34.1501V29.3429C34.1501 29.8823 34.5873 30.3195 35.1266 30.3195H36.0331C36.5724 30.3195 37.0097 29.8823 37.0097 29.3429V27.6149H38.7377C39.277 27.6149 39.7142 27.1777 39.7142 26.6383V25.7319C39.7142 25.1925 39.277 24.7553 38.7377 24.7553Z" fill="white"/>
<path d="M45.2453 15.3179L34.6107 4.6834C34.334 4.40665 33.9662 4.2543 33.5749 4.2543C33.1837 4.2543 32.8159 4.40665 32.5391 4.6834L31.2131 6.00948C30.9365 6.28614 30.784 6.65401 30.784 7.04522C30.784 7.43643 30.9364 7.8043 31.2131 8.08096L31.2374 8.10528L17.3812 21.9614C17.2084 22.1341 17.0723 22.3464 16.9873 22.5757L13.3192 32.4661L9.80532 35.9801C9.1978 36.5876 9.14604 37.5415 9.64643 38.2106L7.08588 40.7711C6.89955 40.6621 6.68754 40.6028 6.46596 40.6028C6.13676 40.6028 5.82719 40.7311 5.59438 40.9639L5.0395 41.5187C4.57973 41.9783 4.31967 42.6171 4.32573 43.2712C4.33188 43.9158 4.58618 44.5125 5.04194 44.9513C5.50024 45.3927 6.09721 45.6126 6.69379 45.6126C7.306 45.6126 7.91791 45.381 8.37963 44.9191L8.96469 44.3341C9.1976 44.1013 9.32573 43.7917 9.32573 43.4625C9.32573 43.2409 9.26645 43.0288 9.15737 42.8425L11.7178 40.2821C12.0116 40.5026 12.3662 40.6236 12.74 40.6236C13.1964 40.6236 13.6256 40.4459 13.9484 40.1231L17.4622 36.6092L27.3528 32.9412C27.5852 32.855 27.7918 32.7226 27.967 32.5473L29.8521 30.6621C31.1849 32.3634 33.256 33.4598 35.5796 33.4598C39.591 33.4598 42.8544 30.1963 42.8544 26.1851C42.8544 23.8614 41.758 21.7902 40.0569 20.4575L41.8231 18.6913L41.8474 18.7156C42.133 19.0013 42.508 19.1441 42.8831 19.1441C43.2582 19.1441 43.6334 19.0013 43.919 18.7156L45.245 17.3896C45.5217 17.1129 45.6742 16.7449 45.6742 16.3537C45.6742 15.9625 45.522 15.5944 45.2453 15.3179ZM26.2583 17.918L26.8895 18.5492L26.2073 19.2316L25.576 18.6003L26.2583 17.918ZM29.0752 22.9333L26.4809 20.3389L27.9969 18.8228L30.3305 21.1564C29.8285 21.6803 29.4039 22.2784 29.0752 22.9333ZM24.8856 19.2907L25.5733 19.9784C25.5284 20.0916 25.5042 20.2133 25.5042 20.3388C25.5042 20.5997 25.6059 20.8449 25.7904 21.0292L28.6713 23.9102C28.4349 24.6264 28.3051 25.3905 28.3051 26.185C28.3051 26.5611 28.3338 26.9308 28.3892 27.2917L25.8145 29.8664L19.7538 32.1141L22.3051 29.5627C22.5819 29.286 22.7342 28.9182 22.7342 28.5271C22.7342 28.1358 22.5819 27.768 22.3051 27.4913C22.0285 27.2146 21.6606 27.0622 21.2694 27.0622C20.8782 27.0622 20.5103 27.2146 20.2336 27.4913L17.9704 29.7545L20.0622 24.1143L24.8856 19.2907ZM17.1563 31.9493L20.924 28.1817C21.0162 28.0896 21.1388 28.0388 21.2693 28.0388C21.3997 28.0388 21.5224 28.0896 21.6146 28.1817C21.7068 28.2739 21.7576 28.3966 21.7576 28.5271C21.7576 28.6574 21.7068 28.7801 21.6146 28.8723L17.5587 32.9281L16.6711 33.2573L17.1563 31.9493ZM7.8058 41.4321L10.3232 38.9148L10.6685 39.2601C10.6687 39.2603 10.6689 39.2604 10.669 39.2605L11.0138 39.6053L8.49633 42.1227L7.8058 41.4321ZM8.27436 43.6438L7.6893 44.2288C7.15102 44.7669 6.26743 44.7755 5.71938 44.2479C5.45405 43.9924 5.3061 43.6423 5.30239 43.2619C5.29868 42.8684 5.45463 42.4847 5.73002 42.2092L6.28491 41.6543C6.33325 41.606 6.3976 41.5793 6.46596 41.5793C6.53432 41.5793 6.59868 41.6059 6.64702 41.6543L8.27426 43.2815C8.3226 43.3299 8.34926 43.3941 8.34926 43.4625C8.34926 43.5309 8.3227 43.5954 8.27436 43.6438ZM27.2767 31.8569C27.2016 31.932 27.113 31.9888 27.0134 32.0257L17.0228 35.7308C16.9569 35.7553 16.897 35.7937 16.8473 35.8434L13.258 39.4327C13.1196 39.571 12.9356 39.6472 12.74 39.6472C12.5444 39.6472 12.3604 39.571 12.222 39.4327L11.7041 38.9148L16.0001 34.6189C16.0751 34.5438 16.1636 34.487 16.2631 34.4501L26.2538 30.745C26.3198 30.7205 26.3796 30.6821 26.4293 30.6324L28.6536 28.4082C28.8155 28.9116 29.0314 29.3907 29.2936 29.8399L27.2767 31.8569ZM41.8781 26.1852C41.8781 29.658 39.0527 32.4833 35.5798 32.4833C32.107 32.4833 29.2817 29.6579 29.2817 26.1852C29.2817 22.7122 32.1071 19.8869 35.5798 19.8869C39.0527 19.8868 41.8781 22.7122 41.8781 26.1852ZM39.2346 19.899C38.7854 19.6368 38.3063 19.421 37.8029 19.259L40.0969 16.9649L41.1328 18.0009L39.2346 19.899ZM44.5546 16.699L43.2287 18.0252C43.0381 18.2155 42.7284 18.2155 42.538 18.0252L39.1886 14.6757C38.9981 14.485 38.6887 14.485 38.4982 14.6757C38.3075 14.8663 38.3075 15.1755 38.4982 15.3661L39.4065 16.2744L36.6867 18.9942C36.3257 18.9389 35.9561 18.9102 35.5798 18.9102C33.8692 18.9102 32.2958 19.5052 31.0523 20.4971L28.6875 18.1323C28.5031 17.9478 28.258 17.8461 27.997 17.8461C27.8715 17.8461 27.7498 17.8701 27.6366 17.9151L26.9489 17.2274L31.9874 12.1888C32.1782 11.9982 32.1782 11.689 31.9874 11.4983C31.7969 11.3076 31.4875 11.3076 31.297 11.4983L25.9142 16.8812C25.9139 16.8815 25.9135 16.8816 25.9131 16.882C25.9127 16.8824 25.9126 16.8827 25.9122 16.8831L24.5409 18.2545C24.5407 18.2547 24.5405 18.2548 24.5404 18.2549C24.5403 18.255 24.5401 18.2553 24.54 18.2554L19.2963 23.499C19.2465 23.5487 19.2082 23.6086 19.1838 23.6745L15.4785 33.665C15.4414 33.7648 15.3847 33.8533 15.3096 33.9283L11.0137 38.2241L10.4958 37.7064C10.2102 37.4207 10.2102 36.9561 10.4957 36.6705L14.0851 33.0811C14.1349 33.0314 14.1732 32.9715 14.1976 32.9056L17.9028 22.9151C17.9393 22.8168 17.9977 22.7258 18.0716 22.6518L31.9278 8.79581L36.4886 13.3566C36.6791 13.5474 36.9885 13.5474 37.179 13.3566C37.3698 13.166 37.3698 12.8568 37.179 12.6662L31.9035 7.39063C31.8113 7.29844 31.7605 7.17579 31.7605 7.04532C31.7605 6.91495 31.8113 6.79229 31.9036 6.7001L33.2295 5.37393C33.3217 5.28174 33.4444 5.23096 33.5748 5.23096C33.7053 5.23096 33.828 5.28174 33.9202 5.37393L44.5547 16.0085C44.6469 16.1007 44.6978 16.2233 44.6978 16.3537C44.6978 16.4842 44.647 16.6067 44.5546 16.699Z" fill="#0000CC"/>
<path d="M31.9438 34.3019H30.129C29.8593 34.3019 29.6407 34.5204 29.6407 34.7902C29.6407 35.0599 29.8593 35.2785 30.129 35.2785H31.9438C32.2135 35.2785 32.4321 35.0599 32.4321 34.7902C32.4321 34.5204 32.2134 34.3019 31.9438 34.3019Z" fill="#0000CC"/>
<path d="M31.9438 36.097H26.2228C25.9531 36.097 25.7345 36.3155 25.7345 36.5853C25.7345 36.855 25.9531 37.0735 26.2228 37.0735H31.9438C32.2135 37.0735 32.4321 36.855 32.4321 36.5853C32.4321 36.3155 32.2134 36.097 31.9438 36.097Z" fill="#0000CC"/>
<path d="M31.9438 37.8919H26.2228C25.9531 37.8919 25.7345 38.1105 25.7345 38.3802C25.7345 38.6499 25.9531 38.8685 26.2228 38.8685H31.9438C32.2135 38.8685 32.4321 38.6499 32.4321 38.3802C32.4321 38.1105 32.2134 37.8919 31.9438 37.8919Z" fill="#0000CC"/>
<path d="M10.0914 31.1245C9.82169 31.1245 9.60314 30.906 9.60314 30.6362C9.60314 30.2952 9.3257 30.0178 8.98468 30.0178C8.71495 30.0178 8.4964 29.7992 8.4964 29.5295C8.4964 29.2598 8.71495 29.0412 8.98468 29.0412C9.3257 29.0412 9.60314 28.7638 9.60314 28.4228C9.60314 28.153 9.82169 27.9345 10.0914 27.9345C10.3611 27.9345 10.5797 28.153 10.5797 28.4228C10.5797 28.7638 10.8572 29.0412 11.1983 29.0412C11.468 29.0412 11.6865 29.2598 11.6865 29.5295C11.6865 29.7992 11.468 30.0178 11.1983 30.0178C10.8572 30.0178 10.5797 30.2952 10.5797 30.6362C10.5797 30.9059 10.3611 31.1245 10.0914 31.1245Z" fill="#FF9D33"/>
<path d="M45.1861 24.184C44.9164 24.184 44.6978 23.9654 44.6978 23.6957C44.6978 23.3547 44.4203 23.0773 44.0793 23.0773C43.8096 23.0773 43.591 22.8587 43.591 22.589C43.591 22.3193 43.8096 22.1007 44.0793 22.1007C44.4203 22.1007 44.6978 21.8232 44.6978 21.4821C44.6978 21.2124 44.9164 20.9939 45.1861 20.9939C45.4558 20.9939 45.6744 21.2124 45.6744 21.4821C45.6744 21.8232 45.9518 22.1007 46.2929 22.1007C46.5626 22.1007 46.7811 22.3193 46.7811 22.589C46.7811 22.8587 46.5626 23.0773 46.2929 23.0773C45.9518 23.0773 45.6744 23.3547 45.6744 23.6957C45.6744 23.9654 45.4558 24.184 45.1861 24.184Z" fill="#FF4D4D"/>
<path d="M11.7169 23.3044C11.4471 23.3044 11.2286 23.0858 11.2286 22.8161V22.8015C11.2286 22.5317 11.4471 22.3132 11.7169 22.3132C11.9866 22.3132 12.2051 22.5317 12.2051 22.8015V22.8161C12.2051 23.0858 11.9866 23.3044 11.7169 23.3044Z" fill="#6C6CFF"/>
<path d="M11.7169 26.0178C11.4471 26.0178 11.2286 25.7993 11.2286 25.5295V25.5149C11.2286 25.2452 11.4471 25.0266 11.7169 25.0266C11.9866 25.0266 12.2051 25.2452 12.2051 25.5149V25.5295C12.2051 25.7992 11.9866 26.0178 11.7169 26.0178Z" fill="#6C6CFF"/>
<path d="M10.5479 23.9792C10.4657 23.9792 10.3825 23.9584 10.3061 23.9148L10.2934 23.9075C10.0593 23.7737 9.97793 23.4755 10.1117 23.2414C10.2454 23.0073 10.5436 22.9259 10.7778 23.0598L10.7905 23.067C11.0246 23.2008 11.106 23.499 10.9722 23.7331C10.8821 23.8907 10.7174 23.9792 10.5479 23.9792Z" fill="#6C6CFF"/>
<path d="M12.8976 25.3359C12.8145 25.3359 12.7304 25.3147 12.6535 25.27L12.6408 25.2627C12.4074 25.1276 12.3277 24.8289 12.4628 24.5955C12.598 24.362 12.8969 24.2825 13.13 24.4176L13.1427 24.4249C13.3761 24.5601 13.4558 24.8587 13.3207 25.0921C13.2302 25.2486 13.0662 25.3359 12.8976 25.3359Z" fill="#6C6CFF"/>
<path d="M10.5362 25.3359C10.3675 25.3359 10.2037 25.2485 10.1132 25.0921C9.978 24.8587 10.0578 24.5601 10.2911 24.4249L10.3038 24.4176C10.5372 24.2822 10.8359 24.3622 10.971 24.5955C11.1061 24.8289 11.0263 25.1276 10.793 25.2627L10.7803 25.27C10.7034 25.3147 10.6191 25.3359 10.5362 25.3359Z" fill="#6C6CFF"/>
<path d="M12.8859 23.9792C12.7164 23.9792 12.5516 23.8908 12.4615 23.733C12.3277 23.499 12.4091 23.2007 12.6431 23.0669L12.6558 23.0597C12.89 22.9259 13.1883 23.0074 13.322 23.2413C13.4557 23.4754 13.3744 23.7737 13.1403 23.9074L13.1276 23.9147C13.0513 23.9584 12.9681 23.9792 12.8859 23.9792Z" fill="#6C6CFF"/>
<path d="M26.1845 5.9337C25.9148 5.9337 25.6962 5.71515 25.6962 5.44542V5.43077C25.6962 5.16104 25.9148 4.94249 26.1845 4.94249C26.4542 4.94249 26.6728 5.16104 26.6728 5.43077V5.44542C26.6728 5.71505 26.4542 5.9337 26.1845 5.9337Z" fill="#FF9D33"/>
<path d="M26.1845 8.64699C25.9148 8.64699 25.6962 8.42843 25.6962 8.15871V8.14406C25.6962 7.87433 25.9148 7.65578 26.1845 7.65578C26.4542 7.65578 26.6728 7.87433 26.6728 8.14406V8.15871C26.6728 8.42834 26.4542 8.64699 26.1845 8.64699Z" fill="#FF9D33"/>
<path d="M25.0154 6.60839C24.9332 6.60839 24.85 6.58759 24.7736 6.54394L24.7609 6.53671C24.5268 6.40293 24.4455 6.10468 24.5792 5.8706C24.7129 5.63642 25.0112 5.55508 25.2454 5.68896L25.258 5.69619C25.4921 5.82998 25.5735 6.12822 25.4397 6.3623C25.3496 6.51992 25.185 6.60839 25.0154 6.60839Z" fill="#FF9D33"/>
<path d="M27.3653 7.96504C27.2828 7.96504 27.1992 7.94405 27.1225 7.9L27.1097 7.89268C26.8758 7.7583 26.7953 7.45987 26.9297 7.22608C27.0641 6.99219 27.3625 6.91162 27.5962 7.046L27.609 7.05332C27.8429 7.1877 27.9235 7.48614 27.7891 7.71993C27.6988 7.87715 27.5343 7.96504 27.3653 7.96504Z" fill="#FF9D33"/>
<path d="M25.0037 7.96507C24.8351 7.96507 24.6712 7.87767 24.5807 7.72132C24.4455 7.48792 24.5253 7.18929 24.7586 7.05413L24.7713 7.0468C25.0047 6.91145 25.3034 6.99143 25.4385 7.22473C25.5737 7.45813 25.4939 7.75677 25.2606 7.89192L25.2479 7.89925C25.1709 7.94397 25.0867 7.96507 25.0037 7.96507Z" fill="#FF9D33"/>
<path d="M27.3536 6.60842C27.1835 6.60842 27.0182 6.51945 26.9284 6.36096C26.7954 6.12639 26.8776 5.82834 27.1123 5.69533L27.1251 5.6881C27.3598 5.55519 27.6577 5.63732 27.7907 5.87199C27.9237 6.10666 27.8415 6.40461 27.6068 6.53762L27.594 6.54484C27.5178 6.58791 27.4352 6.60842 27.3536 6.60842Z" fill="#FF9D33"/>
<path d="M36.7611 36.8587C36.4914 36.8587 36.2728 36.6401 36.2728 36.3704V36.3559C36.2728 36.0861 36.4914 35.8676 36.7611 35.8676C37.0308 35.8676 37.2494 36.0861 37.2494 36.3559V36.3704C37.2494 36.6401 37.0307 36.8587 36.7611 36.8587Z" fill="#FF4D4D"/>
<path d="M36.7611 39.5721C36.4914 39.5721 36.2728 39.3536 36.2728 39.0838V39.0693C36.2728 38.7995 36.4914 38.581 36.7611 38.581C37.0308 38.581 37.2494 38.7995 37.2494 39.0693V39.0838C37.2494 39.3535 37.0307 39.5721 36.7611 39.5721Z" fill="#FF4D4D"/>
<path d="M35.5921 37.5336C35.509 37.5336 35.4249 37.5124 35.3479 37.4678L35.3352 37.4605C35.1018 37.3253 35.0221 37.0267 35.1573 36.7933C35.2925 36.5597 35.5914 36.4802 35.8245 36.6153L35.8372 36.6227C36.0706 36.7578 36.1503 37.0565 36.0151 37.2899C35.9246 37.4462 35.7606 37.5336 35.5921 37.5336Z" fill="#FF4D4D"/>
<path d="M37.9419 38.8901C37.8594 38.8901 37.7758 38.8691 37.6991 38.8251L37.6863 38.8178C37.4524 38.6834 37.3719 38.385 37.5062 38.1512C37.6406 37.9174 37.9391 37.8366 38.1729 37.9711L38.1857 37.9784C38.4195 38.1128 38.5001 38.4112 38.3657 38.645C38.2754 38.8023 38.111 38.8901 37.9419 38.8901Z" fill="#FF4D4D"/>
<path d="M35.5803 38.8902C35.4117 38.8902 35.2478 38.8028 35.1573 38.6464C35.0221 38.413 35.1019 38.1144 35.3352 37.9793L35.3479 37.9719C35.5813 37.8366 35.88 37.9166 36.0151 38.1499C36.1503 38.3833 36.0705 38.6819 35.8372 38.817L35.8245 38.8244C35.7475 38.869 35.6632 38.8902 35.5803 38.8902Z" fill="#FF4D4D"/>
<path d="M37.9301 37.5336C37.7609 37.5336 37.5966 37.4457 37.5062 37.2885C37.3719 37.0546 37.4524 36.7563 37.6863 36.6219L37.6991 36.6146C37.9331 36.4802 38.2314 36.5609 38.3657 36.7947C38.5001 37.0285 38.4195 37.3269 38.1857 37.4613L38.1729 37.4686C38.0962 37.5126 38.0126 37.5336 37.9301 37.5336Z" fill="#FF4D4D"/>
</g>
<defs>
<linearGradient id="paint0_linear_154_5635" x1="6.69655" y1="41.9825" x2="38.5748" y2="3.9915" gradientUnits="userSpaceOnUse">
<stop stop-color="#FFF3EE" stop-opacity="0"/>
<stop offset="0.2938" stop-color="#FFEADE" stop-opacity="0.373"/>
<stop offset="0.7874" stop-color="#FFD6BB"/>
</linearGradient>
<clipPath id="clip0_154_5635">
<rect width="50" height="50" fill="white"/>
</clipPath>
</defs>
</svg>
