<svg width="296" height="230" viewBox="0 0 296 230" fill="none" xmlns="http://www.w3.org/2000/svg">
<g clip-path="url(#clip0_96_1729)">
<path d="M68.6245 222.682C68.6245 222.682 99.5365 238.737 134.821 221.813C170.106 204.888 181.556 172.096 199.897 147.431C209.493 134.551 225.194 127.338 237.166 116.48C275.458 81.7814 261.638 23.7441 226.611 7.84376C196.285 -5.93784 161.251 -0.998365 117.839 22.3338C74.4269 45.6659 43.135 60.7226 20.3567 107.219C-2.42157 153.716 30.2164 200.187 68.6245 222.682Z" fill="#0D3F67"/>
<path opacity="0.7" d="M68.6245 222.682C68.6245 222.682 99.5365 238.737 134.821 221.813C170.106 204.888 181.556 172.096 199.897 147.431C209.493 134.551 225.194 127.338 237.166 116.48C275.458 81.7814 261.638 23.7441 226.611 7.84376C196.285 -5.93784 161.251 -0.998365 117.839 22.3338C74.4269 45.6659 43.135 60.7226 20.3567 107.219C-2.42157 153.716 30.2164 200.187 68.6245 222.682Z" fill="#0D3F67"/>
<path d="M215.222 202.448C215.222 202.448 213.096 193.348 214.681 185.266C216.265 177.184 220.052 182.58 224.341 177.209C228.63 171.838 226.492 161.637 231.322 157.342C236.152 153.046 243.139 153.581 244.749 145.524C246.359 137.468 247.434 131.028 250.654 132.104C253.874 133.179 247.969 142.839 247.969 148.751C247.969 154.663 251.189 158.411 249.044 164.323C246.9 170.235 237.768 168.084 237.768 175.065C237.768 182.046 241.529 189.02 238.303 193.857C235.076 198.693 226.492 199.762 225.423 202.448C224.353 205.133 221.662 209.963 218.983 209.963C216.303 209.963 215.222 202.448 215.222 202.448Z" fill="#B6C5D1"/>
<path d="M213.47 202.544C214.011 200.934 212.936 186.972 208.106 184.287C203.276 181.601 197.898 182.677 195.226 177.847C192.553 173.017 192.54 170.866 189.861 170.331C187.182 169.797 174.283 167.646 175.899 170.331C177.516 173.017 187.176 168.721 187.176 174.086C187.176 179.45 186.1 188.048 189.32 190.186C192.54 192.324 201.138 191.796 200.597 196.626C200.056 201.456 198.452 203.066 201.138 204.676C203.823 206.286 211.339 213.273 212.414 207.896L213.47 202.544Z" fill="#B6C5D1"/>
<path d="M219.446 214.381C219.446 214.381 216.948 206.569 223.826 192.182C230.704 177.795 235.707 166.854 238.837 161.225" stroke="#092C48" stroke-width="1.23197" stroke-miterlimit="10"/>
<path d="M213.818 215.637C213.818 215.637 212.885 211.882 209.755 201.565C206.625 191.249 202.877 188.428 197.557 184.989C192.238 181.55 191.929 175.921 190.995 174.356" stroke="#092C48" stroke-width="1.23197" stroke-miterlimit="10"/>
<path d="M226.956 210.008C226.956 210.008 227.6 204.38 232.585 202.815C237.569 201.25 242.277 201.875 243.217 198.436C244.157 194.997 244.151 191.558 246.34 189.677C248.53 187.797 251.344 186.863 251.66 187.803C251.975 188.743 248.53 189.368 248.53 192.491C248.53 195.615 253.218 203.439 246.34 206.569C239.463 209.699 233.834 206.878 231.335 209.068C228.837 211.258 227.265 212.823 227.265 212.823L226.956 210.008Z" fill="#B6C5D1"/>
<path d="M226.331 215.637C226.331 215.637 228.553 207.516 233.834 205.629C239.114 203.742 245.091 207.819 247.59 204.064C250.088 200.31 248.234 196.562 247.905 194.056" stroke="#092C48" stroke-width="1.23197" stroke-miterlimit="10"/>
<path d="M210.456 214.881H210.456H229.84C230.123 214.881 230.394 214.993 230.593 215.193C230.793 215.392 230.905 215.663 230.905 215.946C230.905 216.228 230.793 216.499 230.593 216.699C230.394 216.898 230.123 217.011 229.84 217.011H229.692H229.348L229.225 217.332L227.712 221.293C227.712 221.293 227.712 221.293 227.712 221.293C227.631 221.505 227.487 221.687 227.3 221.816C227.113 221.945 226.892 222.014 226.665 222.015C226.665 222.015 226.665 222.015 226.665 222.015H213.638C213.638 222.015 213.638 222.015 213.638 222.015C213.411 222.014 213.189 221.945 213.002 221.816C212.816 221.687 212.672 221.505 212.591 221.293C212.591 221.293 212.591 221.293 212.591 221.293L211.084 217.333L210.962 217.011H210.617H210.456H210.456C210.317 217.011 210.179 216.983 210.05 216.93C209.921 216.876 209.804 216.798 209.706 216.699C209.608 216.6 209.53 216.483 209.477 216.354C209.424 216.225 209.397 216.087 209.397 215.948L209.397 215.944C209.397 215.804 209.424 215.666 209.477 215.537C209.53 215.408 209.608 215.291 209.706 215.192C209.804 215.094 209.921 215.015 210.05 214.962C210.179 214.908 210.317 214.881 210.456 214.881Z" fill="#0D3F67" stroke="#0D3F67"/>
<path d="M67.5464 82.2151C78.5992 79.6369 85.4692 68.5869 82.891 57.5341C80.3129 46.4814 69.2628 39.6113 58.2101 42.1895C47.1573 44.7677 40.2873 55.8177 42.8654 66.8705C45.4436 77.9232 56.4936 84.7933 67.5464 82.2151Z" stroke="#B6C5D1" stroke-width="1.23197" stroke-linecap="round" stroke-linejoin="round"/>
<path d="M65.6035 79.0031C74.8876 77.506 81.2002 68.7663 79.7031 59.4822C78.2061 50.1982 69.4663 43.8856 60.1823 45.3826C50.8983 46.8797 44.5857 55.6195 46.0827 64.9035C47.5797 74.1875 56.3195 80.5001 65.6035 79.0031Z" stroke="#B6C5D1" stroke-width="1.23197" stroke-linecap="round" stroke-linejoin="round"/>
<path d="M52.0225 62.1975H62.8867V77.866" stroke="#B6C5D1" stroke-width="1.23197" stroke-linecap="round" stroke-linejoin="round"/>
<path d="M157.566 219.069C157.566 218.388 157.768 217.722 158.147 217.155C158.526 216.588 159.064 216.147 159.693 215.886C160.323 215.625 161.016 215.557 161.684 215.69C162.352 215.823 162.966 216.151 163.448 216.633C163.93 217.115 164.258 217.729 164.391 218.397C164.524 219.065 164.456 219.758 164.195 220.388C163.934 221.017 163.493 221.555 162.926 221.934C162.359 222.313 161.693 222.515 161.012 222.515C160.559 222.515 160.111 222.427 159.692 222.254C159.274 222.081 158.894 221.827 158.574 221.507C158.254 221.187 158 220.807 157.827 220.389C157.654 219.97 157.566 219.522 157.566 219.069Z" fill="#092C48" stroke="#092C48" stroke-width="1.23197" stroke-linecap="round" stroke-linejoin="round"/>
<path d="M159.286 219.069C159.285 218.728 159.385 218.393 159.574 218.109C159.763 217.824 160.032 217.602 160.347 217.47C160.662 217.339 161.01 217.303 161.345 217.369C161.68 217.435 161.988 217.599 162.23 217.84C162.472 218.081 162.637 218.389 162.704 218.724C162.771 219.059 162.738 219.406 162.607 219.722C162.477 220.038 162.256 220.307 161.972 220.497C161.688 220.687 161.354 220.789 161.012 220.789C160.555 220.789 160.117 220.608 159.794 220.286C159.47 219.963 159.288 219.526 159.286 219.069Z" fill="white" stroke="#092C48" stroke-width="1.23197" stroke-linecap="round" stroke-linejoin="round"/>
<path d="M120.659 219.069C120.659 218.388 120.861 217.722 121.24 217.155C121.618 216.588 122.157 216.147 122.786 215.886C123.416 215.625 124.108 215.557 124.777 215.69C125.445 215.823 126.059 216.151 126.541 216.633C127.023 217.115 127.351 217.729 127.484 218.397C127.617 219.065 127.548 219.758 127.288 220.388C127.027 221.017 126.585 221.555 126.019 221.934C125.452 222.313 124.786 222.515 124.105 222.515C123.652 222.515 123.204 222.425 122.786 222.252C122.368 222.079 121.988 221.825 121.668 221.505C121.348 221.186 121.095 220.806 120.921 220.388C120.748 219.97 120.659 219.522 120.659 219.069Z" fill="#092C48" stroke="#092C48" stroke-width="1.23197" stroke-linecap="round" stroke-linejoin="round"/>
<path d="M122.385 219.069C122.384 218.727 122.484 218.393 122.673 218.108C122.862 217.823 123.132 217.601 123.447 217.47C123.763 217.338 124.11 217.303 124.446 217.37C124.781 217.436 125.089 217.601 125.331 217.842C125.573 218.084 125.737 218.392 125.804 218.728C125.87 219.063 125.835 219.411 125.704 219.726C125.573 220.042 125.35 220.311 125.066 220.501C124.781 220.69 124.446 220.79 124.104 220.789C123.649 220.787 123.212 220.605 122.89 220.283C122.568 219.961 122.386 219.525 122.385 219.069Z" fill="white" stroke="#092C48" stroke-width="1.23197" stroke-linecap="round" stroke-linejoin="round"/>
<path d="M108.604 219.069C108.604 218.388 108.806 217.722 109.184 217.155C109.563 216.588 110.101 216.147 110.73 215.886C111.36 215.625 112.053 215.557 112.721 215.69C113.389 215.823 114.003 216.151 114.485 216.633C114.967 217.115 115.295 217.729 115.428 218.397C115.561 219.065 115.493 219.758 115.232 220.388C114.971 221.017 114.53 221.555 113.963 221.934C113.397 222.313 112.73 222.515 112.049 222.515C111.596 222.515 111.148 222.427 110.729 222.254C110.311 222.081 109.931 221.827 109.611 221.507C109.291 221.187 109.037 220.807 108.864 220.389C108.691 219.97 108.603 219.522 108.604 219.069Z" fill="#092C48" stroke="#092C48" stroke-width="1.23197" stroke-linecap="round" stroke-linejoin="round"/>
<path d="M110.323 219.069C110.322 218.728 110.422 218.393 110.611 218.109C110.8 217.824 111.069 217.602 111.384 217.47C111.699 217.339 112.047 217.303 112.382 217.369C112.717 217.435 113.025 217.599 113.267 217.84C113.509 218.081 113.674 218.389 113.741 218.724C113.809 219.059 113.775 219.406 113.644 219.722C113.514 220.038 113.293 220.307 113.009 220.497C112.725 220.687 112.391 220.789 112.049 220.789C111.593 220.789 111.155 220.608 110.831 220.286C110.508 219.963 110.325 219.526 110.323 219.069Z" fill="white" stroke="#092C48" stroke-width="1.23197" stroke-linecap="round" stroke-linejoin="round"/>
<path d="M136.733 215.128H129.45V177.84H136.714V215.128H136.733Z" fill="#092C48" stroke="#092C48" stroke-width="1.23197" stroke-linecap="round" stroke-linejoin="round"/>
<path d="M127.512 215.128H138.679V188.782H127.512V215.128Z" fill="#092C48" stroke="#092C48" stroke-width="1.23197" stroke-linecap="round" stroke-linejoin="round"/>
<path d="M149.884 171.587H140.559V151.533H149.903V171.555L149.884 171.587Z" fill="#092C48" stroke="#092C48" stroke-width="1.23197" stroke-linecap="round" stroke-linejoin="round"/>
<path d="M126.764 151.488H163.253C164.106 151.487 164.95 151.316 165.736 150.984C166.522 150.652 167.233 150.167 167.829 149.556C168.424 148.945 168.891 148.221 169.202 147.427C169.514 146.633 169.663 145.785 169.642 144.932L168.766 109.312C168.724 107.644 168.032 106.059 166.837 104.894C165.642 103.729 164.039 103.078 162.371 103.078H132.245C130.716 103.078 129.238 103.624 128.078 104.619C126.918 105.613 126.153 106.99 125.92 108.501L120.446 144.12C120.306 145.032 120.365 145.962 120.618 146.848C120.871 147.735 121.312 148.556 121.912 149.256C122.513 149.955 123.257 150.517 124.094 150.902C124.932 151.288 125.842 151.487 126.764 151.488Z" fill="#DAD2FF" stroke="#092C48" stroke-width="1.23197" stroke-linecap="round" stroke-linejoin="round"/>
<path d="M138.685 179.122L154.694 189.664" stroke="#092C48" stroke-width="1.23197" stroke-linecap="round" stroke-linejoin="round"/>
<path d="M155.3 188.067L158.031 189.903C158.25 190.052 158.433 190.248 158.568 190.476C158.702 190.705 158.784 190.961 158.808 191.225C158.832 191.489 158.797 191.755 158.706 192.004C158.615 192.253 158.47 192.479 158.282 192.665L158.089 192.846C157.774 193.154 157.357 193.335 156.917 193.354C156.477 193.373 156.046 193.229 155.706 192.949L153.22 190.881C153.032 190.728 152.878 190.537 152.768 190.321C152.658 190.105 152.594 189.868 152.58 189.626C152.566 189.384 152.603 189.141 152.687 188.914C152.772 188.687 152.903 188.48 153.072 188.305C153.357 188.012 153.736 187.827 154.143 187.783C154.55 187.74 154.959 187.84 155.3 188.067Z" fill="#092C48" stroke="#092C48" stroke-width="1.23197" stroke-linecap="round" stroke-linejoin="round"/>
<path d="M103.419 180.944H162.764C164.283 180.944 165.739 180.341 166.812 179.268C167.886 178.194 168.489 176.738 168.489 175.219C168.489 173.701 167.886 172.245 166.812 171.171C165.739 170.097 164.283 169.494 162.764 169.494H103.419C101.901 169.494 100.445 170.097 99.3712 171.171C98.2975 172.245 97.6943 173.701 97.6943 175.219C97.6943 176.738 98.2975 178.194 99.3712 179.268C100.445 180.341 101.901 180.944 103.419 180.944Z" fill="#DAD2FF" stroke="#092C48" stroke-width="1.23197" stroke-linecap="round" stroke-linejoin="round"/>
<path d="M97.7328 174.524C97.9458 173.118 98.6605 171.837 99.7449 170.917C100.829 169.997 102.21 169.501 103.632 169.52H134.415C135.845 169.495 137.235 169.992 138.326 170.918C139.416 171.844 140.132 173.134 140.34 174.55C140.44 175.356 140.368 176.174 140.128 176.95C139.888 177.726 139.486 178.443 138.949 179.052C138.411 179.661 137.75 180.148 137.009 180.482C136.269 180.817 135.466 180.989 134.653 180.99H103.419C102.604 180.99 101.799 180.816 101.056 180.481C100.314 180.145 99.6514 179.655 99.1133 179.043C98.5751 178.431 98.1736 177.712 97.9356 176.932C97.6975 176.153 97.6284 175.332 97.7328 174.524Z" fill="#DAD2FF" stroke="#092C48" stroke-width="1.23197" stroke-linecap="round" stroke-linejoin="round"/>
<path d="M107.496 217.208H164.477C164.476 216.381 164.146 215.588 163.56 215.004C162.975 214.419 162.181 214.091 161.354 214.091H110.613C109.786 214.091 108.994 214.42 108.409 215.004C107.824 215.589 107.496 216.382 107.496 217.208Z" fill="#092C48" stroke="#092C48" stroke-width="1.23197" stroke-linecap="round" stroke-linejoin="round"/>
<path d="M117.639 217.208H136.186V214.091H120.73C119.903 214.091 119.109 214.419 118.524 215.004C117.938 215.588 117.608 216.381 117.606 217.208H117.639Z" fill="#092C48" stroke="#092C48" stroke-width="1.23197" stroke-linecap="round" stroke-linejoin="round"/>
<path d="M113.659 145.55L109.55 152.319C109.55 152.319 95.1827 153.761 86.9717 155.603C78.7607 157.445 77.1185 166.487 76.7063 168.335C76.2491 170.396 73.7053 213.473 74.5232 213.679C75.3411 213.885 81.5041 214.497 81.5041 214.497C81.5041 214.497 91.8983 172.637 94.9766 172.025C98.0549 171.413 143.624 172.437 150.399 168.741C157.174 165.044 158.816 154.373 154.907 146.986C150.998 139.6 113.659 145.55 113.659 145.55Z" fill="#092C48" stroke="#092C48" stroke-width="1.23197" stroke-linecap="round" stroke-linejoin="round"/>
<path d="M141.576 153.761C141.576 153.761 122.481 153.761 113.24 154.579C103.999 155.397 98.2541 162.378 98.6663 168.541C99.0785 174.704 106.542 215.115 106.542 215.115L113.723 214.471L117.587 171.169C117.587 171.169 124.027 175.342 149.008 168.927" fill="#092C48"/>
<path d="M141.576 153.761C141.576 153.761 122.481 153.761 113.24 154.579C103.999 155.397 98.2541 162.378 98.6663 168.541C99.0785 174.704 106.542 215.115 106.542 215.115L113.723 214.471L117.587 171.169C117.587 171.169 124.027 175.342 149.008 168.927" stroke="#092C48" stroke-width="1.23197" stroke-linecap="round" stroke-linejoin="round"/>
<path d="M186.528 87.8672C185.884 87.455 183.862 92.7938 183.862 92.7938C182.562 92.7241 181.259 92.7241 179.959 92.7938C177.705 92.9999 175.857 96.0782 175.857 98.1325C175.857 100.187 166.409 116.602 166.409 116.602C166.409 116.602 158.198 103.078 155.326 100.799C152.454 98.5189 141.802 96.4903 141.802 96.4903C137.443 95.8074 133.004 95.8074 128.645 96.4903C128.645 96.4903 117.974 98.5383 115.121 100.799C112.268 103.059 104.031 116.602 104.031 116.602C104.031 116.602 94.5904 100.18 94.5904 98.1325C94.5904 96.0846 92.7421 92.9805 90.4881 92.7938C89.1882 92.7241 87.8854 92.7241 86.5855 92.7938C86.5855 92.7938 84.5311 87.455 83.9193 87.8672C83.3075 88.2793 84.325 94.8481 84.9433 96.2843C85.5615 97.7204 90.6942 98.7443 90.6942 98.7443C90.6942 98.7443 97.0569 122.965 99.1048 126.25C101.153 129.534 103.42 133.643 108.958 131.176C114.496 128.71 121.484 120.711 121.484 120.711L133.198 120.892H134.08H134.821L148.989 120.711C148.989 120.711 155.97 128.716 161.508 131.176C167.047 133.636 169.314 129.534 171.362 126.25C173.41 122.965 179.753 98.7443 179.753 98.7443C179.753 98.7443 184.905 97.7204 185.504 96.2843C186.103 94.8481 187.146 88.2793 186.528 87.8672Z" fill="#B6C5D1" stroke="#092C48" stroke-width="1.23197" stroke-linecap="round" stroke-linejoin="round"/>
<path d="M169.732 110.697C167.922 113.981 166.409 116.603 166.409 116.603C166.409 116.603 158.198 103.079 155.325 100.799C152.453 98.519 141.801 96.4904 141.801 96.4904C137.442 95.8075 133.003 95.8075 128.644 96.4904C128.644 96.4904 117.973 98.5384 115.12 100.799C112.267 103.059 104.031 116.603 104.031 116.603C104.031 116.603 102.395 113.763 100.489 110.291L94.8408 113.73C96.4895 119.391 98.2089 124.82 99.1041 126.25C101.158 129.534 103.419 133.643 108.957 131.176C114.496 128.71 121.483 120.711 121.483 120.711L133.197 120.892H134.08H134.82L148.988 120.711C148.988 120.711 155.969 128.716 161.508 131.176C167.046 133.636 169.313 129.534 171.361 126.25C172.263 124.814 173.988 119.365 175.644 113.685L169.732 110.697Z" fill="white"/>
<path d="M164.811 120.402C164.702 119.056 164.599 117.781 165.146 116.963C165.401 116.58 165.681 116.215 165.984 115.868L165.172 114.58C164.695 115.065 164.264 115.594 163.884 116.158C163.053 117.407 163.176 118.998 163.304 120.544C163.408 121.89 163.511 123.158 162.963 123.983C162.493 124.685 162.036 124.627 160.78 124.369C159.589 124.026 158.326 124.026 157.135 124.369C156.615 124.559 156.15 124.873 155.78 125.284C155.409 125.695 155.145 126.19 155.01 126.726C155.415 127.08 155.834 127.435 156.259 127.776C156.433 126.855 156.819 126.037 157.605 125.779C158.549 125.522 159.546 125.533 160.484 125.812C161.733 126.069 163.156 126.366 164.2 124.794C165.043 123.538 164.914 121.941 164.811 120.402Z" fill="#DAD2FF"/>
<path d="M148.963 120.711L149.453 121.259C149.894 121.076 150.315 120.847 150.708 120.576C151.16 120.477 151.628 120.477 152.08 120.576C153.611 120.779 155.168 120.676 156.659 120.273C159.151 119.558 159.235 116.854 159.325 114.477C159.37 113.151 159.415 111.772 159.873 110.942C160.088 110.534 160.438 110.213 160.863 110.034C161.288 109.856 161.762 109.831 162.204 109.963C161.875 109.454 161.56 108.945 161.193 108.437C160.637 108.482 160.103 108.671 159.643 108.985C159.182 109.299 158.811 109.727 158.565 110.227C157.921 111.367 157.889 112.925 157.838 114.426C157.754 116.918 157.599 118.457 156.253 118.844C154.938 119.199 153.565 119.286 152.215 119.101C151.243 119.017 150.406 118.94 149.775 119.442C148.803 119.969 147.783 120.4 146.729 120.731L148.963 120.711Z" fill="#DAD2FF"/>
<path d="M113.659 124.363C112.468 124.02 111.204 124.02 110.014 124.363C108.758 124.62 108.301 124.678 107.831 123.976C107.283 123.152 107.386 121.883 107.496 120.538C107.618 118.992 107.74 117.401 106.91 116.152C106.481 115.489 105.978 114.877 105.409 114.329L104.598 115.617C104.997 116.032 105.357 116.482 105.673 116.963C106.221 117.781 106.117 119.056 106.008 120.402C105.886 121.941 105.757 123.539 106.594 124.788C107.637 126.359 109.061 126.076 110.31 125.805C111.248 125.527 112.245 125.515 113.189 125.773C113.535 125.925 113.835 126.163 114.061 126.466C114.287 126.768 114.43 127.124 114.477 127.499C114.895 127.158 115.301 126.81 115.7 126.456C115.542 125.974 115.276 125.535 114.923 125.172C114.569 124.809 114.136 124.533 113.659 124.363Z" fill="#DAD2FF"/>
<path d="M118.592 119.082C117.24 119.267 115.865 119.18 114.547 118.824C113.201 118.438 113.047 116.892 112.963 114.407C112.911 112.906 112.86 111.348 112.235 110.208C111.958 109.65 111.527 109.183 110.993 108.863C110.459 108.542 109.844 108.381 109.221 108.398C108.848 108.958 108.481 109.519 108.12 110.072C108.874 109.815 110.213 109.602 110.928 110.922C111.385 111.753 111.43 113.131 111.475 114.458C111.559 116.841 111.656 119.546 114.142 120.254C115.633 120.657 117.189 120.76 118.72 120.557C119.172 120.458 119.64 120.458 120.092 120.557C120.396 120.773 120.722 120.956 121.065 121.104L121.444 120.686L124.111 120.724C123.042 120.382 122.009 119.937 121.026 119.398C120.375 118.921 119.558 118.998 118.592 119.082Z" fill="#DAD2FF"/>
<g opacity="0.5">
<path opacity="0.5" d="M164.811 120.402C164.702 119.056 164.599 117.781 165.146 116.963C165.401 116.58 165.681 116.215 165.984 115.868L165.172 114.58C164.695 115.065 164.264 115.594 163.884 116.158C163.053 117.407 163.176 118.998 163.304 120.544C163.408 121.89 163.511 123.158 162.963 123.983C162.493 124.685 162.036 124.627 160.78 124.369C159.589 124.026 158.326 124.026 157.135 124.369C156.615 124.559 156.15 124.873 155.78 125.284C155.409 125.695 155.145 126.19 155.01 126.726C155.415 127.08 155.834 127.435 156.259 127.776C156.433 126.855 156.819 126.037 157.605 125.779C158.549 125.522 159.546 125.533 160.484 125.812C161.733 126.069 163.156 126.366 164.2 124.794C165.043 123.538 164.914 121.941 164.811 120.402Z" fill="white"/>
<path opacity="0.5" d="M148.963 120.711L149.453 121.259C149.894 121.076 150.315 120.847 150.708 120.576C151.16 120.477 151.628 120.477 152.08 120.576C153.611 120.779 155.168 120.676 156.659 120.273C159.151 119.558 159.235 116.854 159.325 114.477C159.37 113.151 159.415 111.772 159.873 110.942C160.088 110.534 160.438 110.213 160.863 110.034C161.288 109.856 161.762 109.831 162.204 109.963C161.875 109.454 161.56 108.945 161.193 108.437C160.637 108.482 160.103 108.671 159.643 108.985C159.182 109.299 158.811 109.727 158.565 110.227C157.921 111.367 157.889 112.925 157.838 114.426C157.754 116.918 157.599 118.457 156.253 118.844C154.938 119.199 153.565 119.286 152.215 119.101C151.243 119.017 150.406 118.94 149.775 119.442C148.803 119.969 147.783 120.4 146.729 120.731L148.963 120.711Z" fill="white"/>
<path opacity="0.5" d="M113.659 124.363C112.468 124.02 111.204 124.02 110.014 124.363C108.758 124.62 108.301 124.678 107.831 123.976C107.283 123.152 107.386 121.883 107.496 120.538C107.618 118.992 107.74 117.401 106.91 116.152C106.481 115.489 105.978 114.877 105.409 114.329L104.598 115.617C104.997 116.032 105.357 116.482 105.673 116.963C106.221 117.781 106.117 119.056 106.008 120.402C105.886 121.941 105.757 123.539 106.594 124.788C107.637 126.359 109.061 126.076 110.31 125.805C111.248 125.527 112.245 125.515 113.189 125.773C113.535 125.925 113.835 126.163 114.061 126.466C114.287 126.768 114.43 127.124 114.477 127.499C114.895 127.158 115.301 126.81 115.7 126.456C115.542 125.974 115.276 125.535 114.923 125.172C114.569 124.809 114.136 124.533 113.659 124.363Z" fill="white"/>
<path opacity="0.5" d="M118.592 119.082C117.24 119.267 115.865 119.18 114.547 118.824C113.201 118.438 113.047 116.892 112.963 114.407C112.911 112.906 112.86 111.348 112.235 110.208C111.958 109.65 111.527 109.183 110.993 108.863C110.459 108.542 109.844 108.381 109.221 108.398C108.848 108.958 108.481 109.519 108.12 110.072C108.874 109.815 110.213 109.602 110.928 110.922C111.385 111.753 111.43 113.131 111.475 114.458C111.559 116.841 111.656 119.546 114.142 120.254C115.633 120.657 117.189 120.76 118.72 120.557C119.172 120.458 119.64 120.458 120.092 120.557C120.396 120.773 120.722 120.956 121.065 121.104L121.444 120.686L124.111 120.724C123.042 120.382 122.009 119.937 121.026 119.398C120.375 118.921 119.558 118.998 118.592 119.082Z" fill="white"/>
</g>
<path d="M169.732 110.697C167.922 113.981 166.409 116.603 166.409 116.603C166.409 116.603 158.198 103.079 155.325 100.799C152.453 98.519 141.801 96.4904 141.801 96.4904C137.442 95.8075 133.003 95.8075 128.644 96.4904C128.644 96.4904 117.973 98.5384 115.12 100.799C112.267 103.059 104.031 116.603 104.031 116.603C104.031 116.603 102.395 113.763 100.489 110.291L94.8408 113.73C96.4895 119.391 98.2089 124.82 99.1041 126.25C101.158 129.534 103.419 133.643 108.957 131.176C114.496 128.71 121.483 120.711 121.483 120.711L133.197 120.892H134.08H134.82L148.988 120.711C148.988 120.711 155.969 128.716 161.508 131.176C167.046 133.636 169.313 129.534 171.361 126.25C172.263 124.814 173.988 119.365 175.644 113.685L169.732 110.697Z" stroke="#092C48" stroke-width="1.23197" stroke-linecap="round" stroke-linejoin="round"/>
<path d="M117.555 110.858C117.555 110.858 114.889 116.602 115.507 120.299C115.799 121.789 116.003 123.294 116.119 124.807C116.119 124.807 112.255 135.485 111.611 139.381C111.331 141.001 111.51 142.666 112.127 144.19C112.743 145.714 113.774 147.035 115.102 148.004C117.362 149.646 148.152 150.058 152.872 148.828C157.593 147.598 157.181 143.077 156.975 138.975C156.768 134.873 155.152 126.05 155.152 126.05C155.152 126.05 155.796 113.524 153.104 110.446" fill="white"/>
<path d="M141.119 119.108C140.025 119.056 138.993 118.583 138.241 117.787C135.439 115.211 133.572 114.786 131.588 116.229L130.68 116.925C128.626 118.496 126.681 119.977 123.641 118.103C122.946 117.678 122.314 117.221 121.761 116.815C119.719 115.334 118.83 114.78 117.369 115.978C116.28 116.867 115.437 117.395 114.471 117.266C113.24 117.118 112.378 115.978 110.664 113.685L110.549 113.531C110.3 113.139 109.97 112.806 109.581 112.553C109.192 112.301 108.753 112.136 108.295 112.069C107.32 112.087 106.388 112.474 105.686 113.151C105.618 113.22 105.536 113.275 105.446 113.312C105.356 113.35 105.259 113.369 105.161 113.369C105.064 113.369 104.967 113.35 104.877 113.312C104.787 113.275 104.705 113.22 104.637 113.151C104.567 113.082 104.511 113.001 104.473 112.911C104.435 112.82 104.416 112.724 104.416 112.626C104.416 112.528 104.435 112.431 104.473 112.341C104.511 112.251 104.567 112.169 104.637 112.101C105.642 111.12 106.993 110.577 108.398 110.588C109.072 110.661 109.722 110.883 110.3 111.239C110.878 111.594 111.37 112.073 111.74 112.642L111.849 112.79C113.176 114.555 114.045 115.72 114.651 115.791C114.992 115.83 115.533 115.54 116.428 114.812C118.83 112.842 120.679 114.168 122.636 115.598C123.197 116.004 123.776 116.422 124.42 116.821C126.591 118.161 127.788 117.247 129.778 115.733C130.081 115.495 130.422 115.257 130.732 115.018C134.029 112.616 136.895 114.51 139.265 116.68C141.036 118.303 142.156 117.588 144.507 115.817C144.957 115.482 145.428 115.121 145.936 114.774L146.168 114.613C149.201 112.507 149.536 112.681 153.639 114.954L154.74 115.559C156.163 116.345 157.039 116.847 157.445 116.802C157.85 116.757 158.147 116.358 158.926 115.476C159.241 115.108 159.621 114.683 160.079 114.188C163.408 110.626 164.496 110.864 167.163 112.082L167.382 112.178C167.561 112.264 167.699 112.417 167.765 112.604C167.832 112.791 167.821 112.997 167.736 113.176C167.65 113.356 167.497 113.494 167.31 113.56C167.123 113.627 166.917 113.616 166.738 113.531L166.525 113.434C164.31 112.423 163.91 112.243 161.141 115.205C160.697 115.682 160.33 116.1 160.014 116.461C157.876 118.889 157.438 118.76 153.993 116.86L152.898 116.255C149.266 114.258 149.266 114.258 146.993 115.836L146.754 115.997C146.265 116.338 145.814 116.68 145.376 117.008C143.972 118.077 142.613 119.108 141.119 119.108ZM145.383 124.157C145.82 123.828 146.271 123.48 146.761 123.146L146.999 122.985C149.272 121.4 149.272 121.407 152.904 123.403L153.999 124.009C157.432 125.908 157.863 126.037 160.021 123.609C160.336 123.249 160.703 122.83 161.148 122.353C163.917 119.385 164.316 119.571 166.531 120.582L166.744 120.679C166.833 120.72 166.929 120.743 167.026 120.747C167.124 120.75 167.221 120.735 167.313 120.701C167.405 120.667 167.489 120.615 167.56 120.548C167.631 120.481 167.689 120.401 167.729 120.312C167.81 120.132 167.817 119.928 167.748 119.744C167.68 119.559 167.541 119.409 167.362 119.327L167.143 119.23C164.484 118.013 163.389 117.775 160.059 121.336C159.602 121.832 159.222 122.257 158.906 122.624C158.127 123.506 157.741 123.912 157.425 123.951C157.11 123.989 156.137 123.493 154.72 122.708L153.619 122.102C149.517 119.842 149.182 119.655 146.149 121.761L145.917 121.922C145.408 122.27 144.938 122.624 144.487 122.965C142.137 124.736 141.016 125.451 139.245 123.828C136.875 121.658 134.009 119.758 130.712 122.16C130.377 122.405 130.068 122.643 129.759 122.882C127.769 124.395 126.571 125.309 124.401 123.97C123.757 123.571 123.177 123.152 122.617 122.746C120.685 121.329 118.811 119.99 116.409 121.961C115.514 122.688 114.992 122.985 114.632 122.939C114.026 122.869 113.157 121.703 111.83 119.938L111.721 119.784C111.349 119.217 110.857 118.739 110.279 118.385C109.701 118.031 109.052 117.81 108.378 117.736C106.974 117.725 105.622 118.269 104.617 119.249C104.547 119.318 104.492 119.399 104.454 119.49C104.416 119.58 104.396 119.676 104.396 119.774C104.396 119.872 104.416 119.969 104.454 120.059C104.492 120.149 104.547 120.231 104.617 120.299C104.686 120.368 104.768 120.423 104.858 120.46C104.948 120.498 105.045 120.517 105.142 120.517C105.24 120.517 105.336 120.498 105.426 120.46C105.516 120.423 105.598 120.368 105.667 120.299C106.369 119.622 107.3 119.236 108.275 119.217C108.735 119.281 109.175 119.445 109.565 119.697C109.954 119.95 110.284 120.285 110.529 120.679L110.645 120.834C112.358 123.12 113.221 124.266 114.451 124.414C115.391 124.53 116.261 124.002 117.349 123.126C118.811 121.928 119.7 122.482 121.741 123.963C122.295 124.369 122.926 124.826 123.622 125.251C126.661 127.125 128.606 125.644 130.661 124.073L131.588 123.377C133.572 121.935 135.452 122.373 138.241 124.936C138.998 125.721 140.029 126.182 141.119 126.224C142.613 126.237 143.972 125.213 145.383 124.157Z" fill="#DAD2FF"/>
<path opacity="0.5" d="M141.119 119.108C140.025 119.056 138.993 118.583 138.241 117.787C135.439 115.211 133.572 114.786 131.588 116.229L130.68 116.925C128.626 118.496 126.681 119.977 123.641 118.103C122.946 117.678 122.314 117.221 121.761 116.815C119.719 115.334 118.83 114.78 117.369 115.978C116.28 116.867 115.437 117.395 114.471 117.266C113.24 117.118 112.378 115.978 110.664 113.685L110.549 113.531C110.3 113.139 109.97 112.806 109.581 112.553C109.192 112.301 108.753 112.136 108.295 112.069C107.32 112.087 106.388 112.474 105.686 113.151C105.618 113.22 105.536 113.275 105.446 113.312C105.356 113.35 105.259 113.369 105.161 113.369C105.064 113.369 104.967 113.35 104.877 113.312C104.787 113.275 104.705 113.22 104.637 113.151C104.567 113.082 104.511 113.001 104.473 112.911C104.435 112.82 104.416 112.724 104.416 112.626C104.416 112.528 104.435 112.431 104.473 112.341C104.511 112.251 104.567 112.169 104.637 112.101C105.642 111.12 106.993 110.577 108.398 110.588C109.072 110.661 109.722 110.883 110.3 111.239C110.878 111.594 111.37 112.073 111.74 112.642L111.849 112.79C113.176 114.555 114.045 115.72 114.651 115.791C114.992 115.83 115.533 115.54 116.428 114.812C118.83 112.842 120.679 114.168 122.636 115.598C123.197 116.004 123.776 116.422 124.42 116.821C126.591 118.161 127.788 117.247 129.778 115.733C130.081 115.495 130.422 115.257 130.732 115.018C134.029 112.616 136.895 114.51 139.265 116.68C141.036 118.303 142.156 117.588 144.507 115.817C144.957 115.482 145.428 115.121 145.936 114.774L146.168 114.613C149.201 112.507 149.536 112.681 153.639 114.954L154.74 115.559C156.163 116.345 157.039 116.847 157.445 116.802C157.85 116.757 158.147 116.358 158.926 115.476C159.241 115.108 159.621 114.683 160.079 114.188C163.408 110.626 164.496 110.864 167.163 112.082L167.382 112.178C167.561 112.264 167.699 112.417 167.765 112.604C167.832 112.791 167.821 112.997 167.736 113.176C167.65 113.356 167.497 113.494 167.31 113.56C167.123 113.627 166.917 113.616 166.738 113.531L166.525 113.434C164.31 112.423 163.91 112.243 161.141 115.205C160.697 115.682 160.33 116.1 160.014 116.461C157.876 118.889 157.438 118.76 153.993 116.86L152.898 116.255C149.266 114.258 149.266 114.258 146.993 115.836L146.754 115.997C146.265 116.338 145.814 116.68 145.376 117.008C143.972 118.077 142.613 119.108 141.119 119.108ZM145.383 124.157C145.82 123.828 146.271 123.48 146.761 123.146L146.999 122.985C149.272 121.4 149.272 121.407 152.904 123.403L153.999 124.009C157.432 125.908 157.863 126.037 160.021 123.609C160.336 123.249 160.703 122.83 161.148 122.353C163.917 119.385 164.316 119.571 166.531 120.582L166.744 120.679C166.833 120.72 166.929 120.743 167.026 120.747C167.124 120.75 167.221 120.735 167.313 120.701C167.405 120.667 167.489 120.615 167.56 120.548C167.631 120.481 167.689 120.401 167.729 120.312C167.81 120.132 167.817 119.928 167.748 119.744C167.68 119.559 167.541 119.409 167.362 119.327L167.143 119.23C164.484 118.013 163.389 117.775 160.059 121.336C159.602 121.832 159.222 122.257 158.906 122.624C158.127 123.506 157.741 123.912 157.425 123.951C157.11 123.989 156.137 123.493 154.72 122.708L153.619 122.102C149.517 119.842 149.182 119.655 146.149 121.761L145.917 121.922C145.408 122.27 144.938 122.624 144.487 122.965C142.137 124.736 141.016 125.451 139.245 123.828C136.875 121.658 134.009 119.758 130.712 122.16C130.377 122.405 130.068 122.643 129.759 122.882C127.769 124.395 126.571 125.309 124.401 123.97C123.757 123.571 123.177 123.152 122.617 122.746C120.685 121.329 118.811 119.99 116.409 121.961C115.514 122.688 114.992 122.985 114.632 122.939C114.026 122.869 113.157 121.703 111.83 119.938L111.721 119.784C111.349 119.217 110.857 118.739 110.279 118.385C109.701 118.031 109.052 117.81 108.378 117.736C106.974 117.725 105.622 118.269 104.617 119.249C104.547 119.318 104.492 119.399 104.454 119.49C104.416 119.58 104.396 119.676 104.396 119.774C104.396 119.872 104.416 119.969 104.454 120.059C104.492 120.149 104.547 120.231 104.617 120.299C104.686 120.368 104.768 120.423 104.858 120.46C104.948 120.498 105.045 120.517 105.142 120.517C105.24 120.517 105.336 120.498 105.426 120.46C105.516 120.423 105.598 120.368 105.667 120.299C106.369 119.622 107.3 119.236 108.275 119.217C108.735 119.281 109.175 119.445 109.565 119.697C109.954 119.95 110.284 120.285 110.529 120.679L110.645 120.834C112.358 123.12 113.221 124.266 114.451 124.414C115.391 124.53 116.261 124.002 117.349 123.126C118.811 121.928 119.7 122.482 121.741 123.963C122.295 124.369 122.926 124.826 123.622 125.251C126.661 127.125 128.606 125.644 130.661 124.073L131.588 123.377C133.572 121.935 135.452 122.373 138.241 124.936C138.998 125.721 140.029 126.182 141.119 126.224C142.613 126.237 143.972 125.213 145.383 124.157Z" fill="white"/>
<path d="M117.555 110.858C117.555 110.858 114.889 116.602 115.507 120.299C115.799 121.789 116.003 123.294 116.119 124.807C116.119 124.807 112.255 135.485 111.611 139.381C111.331 141.001 111.51 142.666 112.127 144.19C112.743 145.714 113.774 147.035 115.102 148.004C117.362 149.646 148.152 150.058 152.872 148.828C157.593 147.598 157.181 143.077 156.975 138.975C156.768 134.873 155.152 126.05 155.152 126.05C155.152 126.05 155.796 113.524 153.104 110.446" stroke="#092C48" stroke-width="1.23197" stroke-linecap="round" stroke-linejoin="round"/>
<path d="M128.625 96.4905L127.749 96.6643C127.666 97.0452 127.62 97.4336 127.614 97.8235C127.614 101.733 131.8 104.908 136.959 104.908C142.117 104.908 146.297 101.733 146.297 97.8235C146.297 97.7076 146.297 97.6046 146.297 97.4887C143.804 96.8447 141.789 96.4905 141.789 96.4905C137.428 95.8069 132.986 95.8069 128.625 96.4905Z" fill="#DAD2FF" stroke="#092C48" stroke-width="1.23197" stroke-linecap="round" stroke-linejoin="round"/>
<path d="M130.68 92.5877C130.68 92.5877 130.036 97.5143 130.68 99.1565C131.324 100.799 135.188 103.877 139.097 102.647C140.373 102.246 141.493 101.458 142.301 100.391C143.109 99.3251 143.565 98.0336 143.605 96.6964V90.9519L130.879 91.3641L130.68 92.5877Z" fill="#B6C5D1" stroke="#092C48" stroke-width="1.23197" stroke-linecap="round" stroke-linejoin="round"/>
<path d="M137.261 90.5333C145.31 90.5333 151.835 84.1469 151.835 76.2687C151.835 68.3906 145.31 62.0042 137.261 62.0042C129.212 62.0042 122.688 68.3906 122.688 76.2687C122.688 84.1469 129.212 90.5333 137.261 90.5333Z" fill="#092C48" stroke="#092C48" stroke-width="1.23197" stroke-linecap="round" stroke-linejoin="round"/>
<path d="M128.026 81.0923C128.026 81.0923 126.796 78.2201 125.972 80.8862C125.148 83.5524 127.002 86.8432 128.232 87.0429C129.462 87.2425 128.026 81.0923 128.026 81.0923Z" fill="#B6C5D1" stroke="#092C48" stroke-width="1.23197" stroke-linecap="round" stroke-linejoin="round"/>
<path d="M145.768 81.0923C145.768 81.0923 146.998 78.2201 147.823 80.8862C148.647 83.5524 146.792 86.8432 145.562 87.0429C144.332 87.2425 145.768 81.0923 145.768 81.0923Z" fill="#B6C5D1" stroke="#092C48" stroke-width="1.23197" stroke-linecap="round" stroke-linejoin="round"/>
<path d="M143.328 71.5032C142.777 71.0839 142.145 70.7833 141.472 70.6203C140.8 70.4574 140.1 70.4357 139.419 70.5565C138.168 70.8013 136.892 70.8921 135.619 70.827C133.571 70.6273 131.929 69.803 130.287 71.471C128.645 73.1389 127.82 80.7059 127.82 84.6086C127.82 88.5112 130.68 94.0238 132.747 95.46C134.814 96.8961 140.546 96.6964 141.982 95.46C143.418 94.2235 145.678 89.7155 146.091 86.0189C146.503 82.3224 145.678 75.1418 144.861 73.2935C144.499 72.5836 143.973 71.9699 143.328 71.5032Z" fill="#B6C5D1" stroke="#092C48" stroke-width="1.23197" stroke-linecap="round" stroke-linejoin="round"/>
<path d="M134.196 81.7042C134.619 81.7042 134.962 81.142 134.962 80.4484C134.962 79.7549 134.619 79.1926 134.196 79.1926C133.773 79.1926 133.43 79.7549 133.43 80.4484C133.43 81.142 133.773 81.7042 134.196 81.7042Z" fill="#092C48"/>
<path d="M141.016 80.4484C141.016 81.144 140.675 81.7042 140.25 81.7042C139.825 81.7042 139.483 81.144 139.483 80.4484C139.483 79.7529 139.831 79.1926 140.25 79.1926C140.668 79.1926 141.016 79.7593 141.016 80.4484Z" fill="#092C48"/>
<path d="M138.164 87.5517C138.164 88.2408 137.822 88.8011 137.397 88.8011C136.972 88.8011 136.631 88.2408 136.631 87.5517C136.631 86.8626 136.979 86.2959 137.397 86.2959C137.816 86.2959 138.164 86.8562 138.164 87.5517Z" fill="#092C48"/>
<path d="M135.864 81.981C134.576 83.9967 137.023 85.2911 138.653 84.0675C139.767 83.2303 138.653 81.981 138.653 81.981" fill="#B6C5D1"/>
<path d="M135.864 81.981C134.576 83.9967 137.023 85.2911 138.653 84.0675C139.767 83.2303 138.653 81.981 138.653 81.981" stroke="#092C48" stroke-width="1.23197" stroke-linecap="round" stroke-linejoin="round"/>
<path d="M131.549 77.6662C131.549 77.6662 133.635 75.7342 135.728 76.6873" stroke="#092C48" stroke-width="1.23197" stroke-linecap="round" stroke-linejoin="round"/>
<path d="M139.206 76.829C139.206 76.829 141.138 75.5732 142.967 77.9431" stroke="#092C48" stroke-width="1.23197" stroke-linecap="round" stroke-linejoin="round"/>
<path d="M74.523 213.679C74.523 213.679 62.1904 216.094 62.1904 217.35C62.1904 218.606 77.904 222.173 79.5784 222.379C81.2528 222.585 81.5104 214.497 81.5104 214.497L74.523 213.679Z" fill="white" stroke="#092C48" stroke-width="1.23197" stroke-linecap="round" stroke-linejoin="round"/>
<path d="M80.6088 221.175L63.0147 216.667C62.4995 216.906 62.1904 217.137 62.1904 217.311C62.1904 218.599 77.904 222.135 79.5784 222.341C80.0099 222.431 80.3448 221.935 80.6088 221.175Z" fill="#DAD2FF" stroke="#092C48" stroke-width="1.23197" stroke-linecap="round" stroke-linejoin="round"/>
<path d="M106.549 215.115C106.549 215.115 94.036 220.492 94.8732 221.755C95.7104 223.017 112.055 222.399 113.73 222.173C115.404 221.948 113.73 214.497 113.73 214.497L106.549 215.115Z" fill="white" stroke="#092C48" stroke-width="1.23197" stroke-linecap="round" stroke-linejoin="round"/>
<path d="M95.2594 220.963C94.8923 221.291 94.7249 221.568 94.8473 221.755C95.6845 223.011 112.029 222.399 113.704 222.173C114.109 222.122 114.315 221.645 114.399 220.963H95.2594Z" fill="#DAD2FF" stroke="#092C48" stroke-width="1.23197" stroke-linecap="round" stroke-linejoin="round"/>
<path d="M55.3839 132.625H102.608V130.719H55.3839V132.625Z" fill="white" stroke="#092C48" stroke-width="1.23197" stroke-linecap="round" stroke-linejoin="round"/>
<path d="M42.0655 132.625H89.29V130.719H42.0655V132.625Z" fill="white" stroke="#092C48" stroke-width="1.23197" stroke-linecap="round" stroke-linejoin="round"/>
<path d="M47.327 127.332H86.7076L82.4636 97.2698H43.083L47.327 127.332Z" fill="white" stroke="#092C48" stroke-width="1.23197" stroke-linecap="round" stroke-linejoin="round"/>
<path d="M45.6981 127.332H85.0787L80.8347 97.2698H41.4541L45.6981 127.332Z" fill="#092C48" stroke="#092C48" stroke-width="1.23197" stroke-linecap="round" stroke-linejoin="round"/>
<path d="M57.7667 113.357L53.8125 132.625H63.9748L67.929 113.357H57.7667ZM64.6575 119.076C64.6388 119.154 64.5943 119.224 64.5313 119.274C64.4683 119.324 64.3903 119.352 64.3097 119.353L58.5523 119.288C58.4981 119.288 58.4447 119.275 58.396 119.251C58.3474 119.227 58.3048 119.193 58.2714 119.15C58.2379 119.107 58.2146 119.057 58.203 119.004C58.1915 118.951 58.192 118.897 58.2046 118.844L58.7262 116.686C58.7452 116.607 58.7905 116.536 58.8549 116.486C58.9192 116.436 58.9987 116.409 59.0804 116.409L64.8378 116.467C64.8912 116.468 64.9438 116.48 64.9917 116.504C65.0396 116.528 65.0815 116.562 65.1143 116.604C65.1471 116.646 65.17 116.695 65.1812 116.747C65.1924 116.799 65.1917 116.853 65.1791 116.905L64.6575 119.076Z" fill="white" stroke="#092C48" stroke-width="1.23197" stroke-linecap="round" stroke-linejoin="round"/>
<path d="M135.188 143.586L133.14 220.679C133.129 221.17 132.925 221.637 132.574 221.98C132.223 222.323 131.751 222.515 131.26 222.515C130.767 222.51 130.296 222.312 129.947 221.965C129.598 221.617 129.399 221.146 129.392 220.654L128.388 143.586H135.188Z" fill="white" stroke="#092C48" stroke-width="1.23197" stroke-linecap="round" stroke-linejoin="round"/>
<path d="M110.291 143.586L108.249 220.679C108.237 221.171 108.033 221.639 107.68 221.982C107.328 222.325 106.854 222.517 106.362 222.515C105.867 222.515 105.391 222.319 105.039 221.971C104.687 221.622 104.487 221.149 104.482 220.654L103.471 143.586H110.291Z" fill="white" stroke="#092C48" stroke-width="1.23197" stroke-linecap="round" stroke-linejoin="round"/>
<path d="M48.7116 143.586L46.6701 220.679C46.6583 221.171 46.4541 221.639 46.1013 221.982C45.7485 222.325 45.2753 222.517 44.7832 222.515C44.2878 222.515 43.8124 222.319 43.4602 221.971C43.1081 221.622 42.9078 221.149 42.9027 220.654L41.8916 143.586H48.7116Z" fill="white" stroke="#092C48" stroke-width="1.23197" stroke-linecap="round" stroke-linejoin="round"/>
<path d="M23.776 143.586L21.7603 220.679C21.7487 221.165 21.5499 221.627 21.2054 221.969C20.8609 222.311 20.3975 222.507 19.912 222.515C19.6626 222.521 19.4145 222.477 19.182 222.387C18.9496 222.296 18.7374 222.16 18.5577 221.987C18.378 221.814 18.2344 221.607 18.1353 221.378C18.0361 221.149 17.9834 220.903 17.98 220.654L16.9883 143.586H23.776Z" fill="white" stroke="#092C48" stroke-width="1.23197" stroke-linecap="round" stroke-linejoin="round"/>
<path d="M14.7146 144.398L137.622 144.398V135.169H14.7146V144.398Z" fill="white" stroke="#092C48" stroke-width="1.23197" stroke-linecap="round" stroke-linejoin="round"/>
<path d="M103.29 144.398H137.622V135.169H103.29V144.398Z" fill="white" stroke="#092C48" stroke-width="1.23197" stroke-linecap="round" stroke-linejoin="round"/>
<path d="M14.7146 139.78L137.622 139.78V135.169L14.7146 135.169V139.78Z" fill="#092C48" stroke="#092C48" stroke-width="1.23197" stroke-linecap="round" stroke-linejoin="round"/>
<path d="M12.8084 137.075L139.528 137.075V131.994L12.8084 131.994V137.075Z" fill="#DAD2FF" stroke="#092C48" stroke-width="1.23197" stroke-linecap="round" stroke-linejoin="round"/>
<path d="M12.8085 137.075H101.011V131.994H12.8085V137.075Z" fill="#DAD2FF" stroke="#092C48" stroke-width="1.23197" stroke-linecap="round" stroke-linejoin="round"/>
<path d="M289.601 222.515H294.901" stroke="#0D3F67" stroke-width="1.23197" stroke-linecap="round" stroke-linejoin="round"/>
<path d="M1.23633 222.515H280.977" stroke="#0D3F67" stroke-width="1.23197" stroke-linecap="round" stroke-linejoin="round"/>
</g>
<defs>
<clipPath id="clip0_96_1729">
<rect width="296" height="230" fill="white"/>
</clipPath>
</defs>
</svg>
