<svg width="259" height="259" viewBox="0 0 259 259" fill="none" xmlns="http://www.w3.org/2000/svg">
<g clip-path="url(#clip0_97_1846)">
<path d="M0.860798 139.804C0.860798 139.804 0.543996 186.532 38.2432 218.634C75.9424 250.736 129.779 254.314 173.312 258.366C216.846 262.418 251.337 238.52 257.845 201.217C264.353 163.913 231.445 152.099 214.991 109.054C198.537 66.0091 200.715 52.0435 163.445 24.8911C126.175 -2.26134 65.62 12.3115 32.4946 56.4061C-0.630803 100.501 0.860798 139.804 0.860798 139.804Z" fill="#0D3F67"/>
<path opacity="0.7" d="M0.860798 139.804C0.860798 139.804 0.543996 186.532 38.2432 218.634C75.9424 250.736 129.779 254.314 173.312 258.366C216.846 262.418 251.337 238.52 257.845 201.217C264.353 163.913 231.445 152.099 214.991 109.054C198.537 66.0091 200.715 52.0435 163.445 24.8911C126.175 -2.26134 65.62 12.3115 32.4946 56.4061C-0.630803 100.501 0.860798 139.804 0.860798 139.804Z" fill="#0D3F67"/>
<path d="M223.789 134.062C222.007 133.147 220.537 131.725 219.564 129.975C218.59 128.225 218.158 126.226 218.321 124.23C218.484 122.234 219.235 120.331 220.48 118.762C221.724 117.194 223.406 116.029 225.313 115.416C227.219 114.803 229.264 114.769 231.19 115.319C233.116 115.868 234.835 116.976 236.131 118.503C237.427 120.03 238.241 121.907 238.47 123.896C238.699 125.885 238.333 127.898 237.418 129.679C236.811 130.862 235.978 131.914 234.964 132.775C233.951 133.636 232.778 134.288 231.512 134.695C230.246 135.102 228.912 135.256 227.587 135.147C226.262 135.038 224.971 134.67 223.789 134.062Z" fill="#092C48"/>
<path d="M233.511 119.621L238.421 126.511C238.618 125.172 238.542 123.807 238.197 122.498L233.511 119.621Z" fill="#DAD2FF"/>
<path d="M223.215 116.38L234.884 132.841C235.853 132.036 236.661 131.055 237.266 129.95L227.478 114.981C225.97 115.122 224.513 115.601 223.215 116.38Z" fill="#DAD2FF"/>
<path d="M228.039 135.164L222.971 127.904L225.611 134.781C226.402 135.006 227.217 135.134 228.039 135.164Z" fill="#DAD2FF"/>
<path d="M232.158 134.451L220.568 118.657C220.456 118.796 220.35 118.948 220.245 119.093L228.64 135.177C229.846 135.145 231.037 134.899 232.158 134.451Z" fill="#DAD2FF"/>
<path d="M134.762 245.325C131.824 246.664 128.554 247.103 125.367 246.584C122.18 246.066 119.218 244.615 116.856 242.413C114.494 240.212 112.837 237.36 112.096 234.217C111.354 231.074 111.561 227.782 112.69 224.757C113.82 221.732 115.82 219.11 118.44 217.222C121.059 215.334 124.18 214.264 127.406 214.15C130.633 214.035 133.822 214.879 136.569 216.576C139.316 218.273 141.498 220.746 142.84 223.683C143.732 225.634 144.231 227.742 144.308 229.886C144.385 232.031 144.038 234.169 143.288 236.179C142.537 238.189 141.398 240.031 139.935 241.6C138.472 243.17 136.714 244.435 134.762 245.325Z" fill="#092C48"/>
<path d="M142.695 237.53L131.554 220.04L144.206 232.197C144.239 231.861 144.266 231.537 144.279 231.181L129.29 214.192C128.009 214.086 126.719 214.135 125.449 214.338L128.459 219.123L123.482 214.767L127.442 221.934L119.436 216.562C119.238 216.687 119.04 216.813 118.849 216.945L133.706 233.445L121.918 224.475L126.109 231.075L120.004 226.851L135.989 244.711C137.935 243.624 139.636 242.148 140.985 240.375L137.732 234.943L141.771 239.246C142.114 238.694 142.423 238.121 142.695 237.53Z" fill="#DAD2FF"/>
<path d="M132.788 246.077L120.017 231.346L125.693 240.111L111.701 229.142C111.357 233.319 112.633 237.469 115.265 240.731C117.897 243.993 121.683 246.118 125.838 246.665L120.796 242.183L128.624 246.803C130.037 246.739 131.436 246.495 132.788 246.077Z" fill="#DAD2FF"/>
<path d="M134.055 215.334L141.216 223.65L139.764 220.476L142.081 222.258C140.254 219.118 137.429 216.681 134.055 215.334Z" fill="#DAD2FF"/>
<path d="M117.404 228.198L113.536 222.852C112.741 224.365 112.185 225.993 111.886 227.676L117.404 228.198Z" fill="#DAD2FF"/>
<path d="M152.232 219.618C151.044 217.017 145.777 216.654 138.781 218.245C139.225 218.635 139.646 219.052 140.042 219.492C145.269 218.291 148.998 218.397 149.77 220.073C151.13 223.05 142.649 229.848 130.821 235.253C118.994 240.659 108.315 242.639 106.949 239.662C106.25 238.131 108.17 235.583 111.807 232.732C111.723 232.152 111.673 231.568 111.655 230.983C106.58 234.943 103.88 238.797 104.996 241.226C106.877 245.345 118.981 243.866 132.056 237.88C145.13 231.894 154.113 223.736 152.232 219.618Z" fill="#092C48"/>
<path d="M50.4004 91.1155C59.3053 91.1155 66.5242 83.8966 66.5242 74.9917C66.5242 66.0868 59.3053 58.8679 50.4004 58.8679C41.4955 58.8679 34.2766 66.0868 34.2766 74.9917C34.2766 83.8966 41.4955 91.1155 50.4004 91.1155Z" fill="#DAD2FF"/>
<path d="M54.202 63.0656C55.2842 62.0733 56.5332 61.2801 57.8914 60.7226C56.5825 60.0308 55.1828 59.5264 53.7334 59.2244C52.2392 60.2208 50.8187 61.3237 49.483 62.5244C43.7146 67.7648 45.2854 67.2434 36.9034 70.385C36.13 70.6707 35.3854 71.0286 34.6792 71.4542C34.4143 72.6081 34.2793 73.788 34.2766 74.972C34.2783 77.0063 34.6657 79.0219 35.4184 80.912C38.4148 80.0012 42.4012 78.5228 44.2426 76.6814C47.3842 73.553 47.9122 68.834 54.202 63.0656Z" fill="#092C48"/>
<path d="M38.6854 86.0599C39.9057 87.3551 41.3304 88.441 42.9028 89.2741C45.9058 87.1753 47.305 84.9445 51.5818 83.0041C55.3372 81.2947 61.5346 80.9185 65.4022 80.8723C66.1378 79.0035 66.5162 77.0133 66.5176 75.0049C66.5176 74.7277 66.5176 74.4571 66.478 74.1799C61.9098 74.5355 57.4193 75.5653 53.1526 77.2357C47.0542 79.6579 44.0974 83.9809 38.6854 86.0599Z" fill="#092C48"/>
<path d="M54.7234 69.3553C57.5746 70.7809 61.9834 70.0153 65.3824 69.0649C64.7301 67.4244 63.8138 65.9017 62.6698 64.5571C58.129 65.4085 50.7766 67.3819 54.7234 69.3553Z" fill="#092C48"/>
<path d="M177.276 49.081C176.749 48.2397 176.577 47.2238 176.797 46.2557C177.017 45.2876 177.612 44.4463 178.452 43.916L184.566 40.0449C184.983 39.7805 185.449 39.6011 185.936 39.5171C186.422 39.433 186.921 39.446 187.403 39.5552C187.885 39.6644 188.341 39.8677 188.744 40.1534C189.147 40.4392 189.49 40.8017 189.752 41.2203C190.017 41.6377 190.196 42.1032 190.28 42.5901C190.364 43.0771 190.351 43.5758 190.242 44.0577C190.133 44.5396 189.929 44.9952 189.644 45.3983C189.358 45.8015 188.995 46.1442 188.577 46.4068L182.474 50.2563C182.056 50.521 181.589 50.7006 181.101 50.7848C180.614 50.869 180.114 50.8561 179.631 50.7469C179.148 50.6377 178.692 50.4344 178.288 50.1485C177.884 49.8627 177.54 49.4999 177.276 49.081Z" fill="white" stroke="#092C48" stroke-width="1.19148" stroke-linecap="round" stroke-linejoin="round"/>
<path d="M173.955 75.4991C171.064 71.3733 167.469 67.7889 163.334 64.9103C157.921 61.6785 152.319 58.7763 146.556 56.2193L143.073 36.8102C146.409 33.6085 149.402 30.0669 152.001 26.243C155.15 21.1643 154.158 17.7569 152.142 14.2417C150.125 10.7265 147.332 13.0016 146.912 14.6083C146.603 16.3 146.415 18.0116 146.351 19.7301C146.351 19.7301 144.475 6.79071 143.386 3.84699C142.297 0.903272 138.145 3.73916 138.512 4.7204C138.512 4.7204 137.261 1.04345 134.684 1.00032C132.107 0.957187 131.374 5.31346 131.374 5.31346C131.374 5.31346 128.064 3.7823 126.209 5.70164C124.354 7.62099 125.238 12.4301 125.238 12.4301C125.238 12.4301 122.284 13.5084 121.831 17.703C121.378 21.8975 121.745 29.2406 122.909 31.257C123.508 32.2139 124.031 33.2162 124.473 34.2547C123.006 51.766 123.06 50.6122 122.629 57.5995C122.327 62.5165 125.551 73.9463 130.177 78.7016C134.803 83.4568 151.354 91.8567 151.354 91.8567C151.354 91.8567 168.639 87.4034 173.955 75.4991Z" fill="white"/>
<path d="M151.419 91.878C151.419 91.878 168.672 87.4031 173.955 75.4988C173.955 75.4988 173.61 74.992 172.996 74.1833L168.51 70.4417C162.141 70.9758 155.813 71.9158 149.565 73.256C140.097 75.4126 132.732 70.7975 129.929 60.3166C127.125 49.8356 124.537 34.3191 124.537 34.3191C123.071 51.8305 123.125 50.6767 122.694 57.664C122.392 62.581 125.616 74.0108 130.242 78.766C134.867 83.5213 151.419 91.878 151.419 91.878Z" fill="#DAD2FF"/>
<path opacity="0.5" d="M151.419 91.878C151.419 91.878 168.672 87.4031 173.955 75.4988C173.955 75.4988 173.61 74.992 172.996 74.1833L168.51 70.4417C162.141 70.9758 155.813 71.9158 149.565 73.256C140.097 75.4126 132.732 70.7975 129.929 60.3166C127.125 49.8356 124.537 34.3191 124.537 34.3191C123.071 51.8305 123.125 50.6767 122.694 57.664C122.392 62.581 125.616 74.0108 130.242 78.766C134.867 83.5213 151.419 91.878 151.419 91.878Z" fill="white"/>
<path d="M173.955 75.4991C171.064 71.3733 167.469 67.7889 163.334 64.9103C157.921 61.6785 152.319 58.7763 146.556 56.2193L143.073 36.8102C146.409 33.6085 149.402 30.0669 152.001 26.243C155.15 21.1643 154.158 17.7569 152.142 14.2417C150.125 10.7265 147.332 13.0016 146.912 14.6083C146.603 16.3 146.415 18.0116 146.351 19.7301C146.351 19.7301 144.475 6.79071 143.386 3.84699C142.297 0.903272 138.145 3.73916 138.512 4.7204C138.512 4.7204 137.261 1.04345 134.684 1.00032C132.107 0.957187 131.374 5.31346 131.374 5.31346C131.374 5.31346 128.064 3.7823 126.209 5.70164C124.354 7.62099 125.238 12.4301 125.238 12.4301C125.238 12.4301 122.284 13.5084 121.831 17.703C121.378 21.8975 121.745 29.2406 122.909 31.257C123.508 32.2139 124.031 33.2162 124.473 34.2546C123.006 51.766 123.06 50.6122 122.629 57.5995C122.327 62.5165 125.551 73.9463 130.177 78.7016C134.803 83.4568 151.354 91.8567 151.354 91.8567C151.354 91.8567 168.639 87.4033 173.955 75.4991Z" stroke="#092C48" stroke-width="1.19148" stroke-linecap="round" stroke-linejoin="round"/>
<path d="M145.208 48.6821L143.052 36.8209C146.388 33.6193 149.38 30.0776 151.98 26.2537C155.129 21.175 154.137 17.7676 152.12 14.2524C150.104 10.7372 147.311 13.0124 146.89 14.619C146.581 16.3107 146.394 18.0224 146.33 19.7409C146.33 19.7409 144.453 6.80145 143.364 3.85773C142.275 0.914014 138.124 3.74991 138.491 4.73115C138.491 4.73115 137.24 1.05419 134.663 1.01106C132.086 0.967929 131.352 5.3242 131.352 5.3242C131.352 5.3242 128.042 3.79304 126.187 5.71239C124.333 7.63174 125.217 12.4409 125.217 12.4409C125.217 12.4409 122.262 13.5192 121.809 17.7137C121.357 21.9082 121.723 29.2514 122.888 31.2678C123.486 32.2247 124.009 33.227 124.451 34.2654C123.804 42.0075 123.448 46.1265 123.222 48.8654L145.208 48.6821Z" fill="white" stroke="#092C48" stroke-width="1.19148" stroke-linecap="round" stroke-linejoin="round"/>
<path d="M127.999 75.7688C128.397 76.4188 128.833 77.0453 129.303 77.645C133.854 73.8387 144.098 64.7056 148.713 56.8665C147.419 56.4567 146.556 56.2195 146.556 56.2195C146.556 56.2195 137.024 68.7168 127.999 75.7688Z" fill="white" stroke="#092C48" stroke-width="1.19148" stroke-linecap="round" stroke-linejoin="round"/>
<path d="M146.351 19.7085C146.351 19.7085 136.161 19.3311 135.083 27.9251" stroke="#092C48" stroke-width="1.19148" stroke-linecap="round" stroke-linejoin="round"/>
<path d="M138.512 4.69873L138.857 15.5355" stroke="#092C48" stroke-width="1.19148" stroke-linecap="round" stroke-linejoin="round"/>
<path d="M131.374 5.33496L132.075 15.1366" stroke="#092C48" stroke-width="1.19148" stroke-linecap="round" stroke-linejoin="round"/>
<path d="M125.238 12.4514L126.338 18.5653" stroke="#092C48" stroke-width="1.19148" stroke-linecap="round" stroke-linejoin="round"/>
<path d="M140.906 15.0291C140.906 15.0291 129.401 16.9592 124.969 20.7224" stroke="#092C48" stroke-width="1.19148" stroke-linecap="round" stroke-linejoin="round"/>
<path d="M138.199 82.9932C141.952 79.7583 141.661 73.2886 137.531 68.4471C133.552 63.7889 127.46 62.4195 123.664 65.2123C124.947 70.1724 127.298 75.7363 130.209 78.7016C132.333 80.6362 134.649 82.3488 137.121 83.8127C137.508 83.578 137.87 83.3033 138.199 82.9932Z" fill="#DAD2FF"/>
<path d="M138.199 82.9932C141.952 79.7583 141.661 73.2886 137.531 68.4471C133.552 63.7889 127.46 62.4195 123.664 65.2123C124.947 70.1724 127.298 75.7363 130.209 78.7016C132.333 80.6362 134.649 82.3488 137.121 83.8127C137.508 83.578 137.87 83.3033 138.199 82.9932V82.9932Z" stroke="#092C48" stroke-width="1.19148" stroke-linecap="round" stroke-linejoin="round"/>
<path d="M130.878 95.5984C130.878 95.5984 126.058 96.1051 124.537 97.4099C123.017 98.7146 111.447 108.613 109.571 114.479C107.695 120.345 114.822 137.9 122.607 144.671C130.393 151.443 140.119 158.613 148.378 157.136C156.638 155.659 166.127 142.935 167.108 139.474C168.089 136.013 135.773 96.3424 135.773 96.3424C135.773 96.3424 133.476 94.0348 130.878 95.5984Z" fill="white"/>
<path d="M130.878 95.5984C130.878 95.5984 129.929 95.6954 128.721 95.9218L129.799 97.7441C129.799 97.7441 128.807 107.966 135.816 119.547C142.825 131.128 155.107 138.482 154.751 142.687C154.395 146.892 155.829 152.51 145.284 151.809C134.738 151.109 123.545 133.22 119.685 124.453C117.68 119.892 115.954 112.97 113.981 107.61C112.078 109.606 110.558 111.935 109.495 114.479C107.619 120.345 114.747 137.9 122.532 144.671C130.317 151.443 140.043 158.613 148.303 157.136C156.563 155.659 166.051 142.935 167.033 139.474C168.014 136.013 135.698 96.3424 135.698 96.3424C135.698 96.3424 133.476 94.0348 130.878 95.5984Z" fill="#DAD2FF"/>
<path opacity="0.5" d="M130.878 95.5984C130.878 95.5984 129.929 95.6954 128.721 95.9218L129.799 97.7441C129.799 97.7441 128.807 107.966 135.816 119.547C142.825 131.128 155.107 138.482 154.751 142.687C154.395 146.892 155.829 152.51 145.284 151.809C134.738 151.109 123.545 133.22 119.685 124.453C117.68 119.892 115.954 112.97 113.981 107.61C112.078 109.606 110.558 111.935 109.495 114.479C107.619 120.345 114.747 137.9 122.532 144.671C130.317 151.443 140.043 158.613 148.303 157.136C156.563 155.659 166.051 142.935 167.033 139.474C168.014 136.013 135.698 96.3424 135.698 96.3424C135.698 96.3424 133.476 94.0348 130.878 95.5984Z" fill="white"/>
<path d="M130.878 95.5984C130.878 95.5984 126.058 96.1051 124.537 97.4099C123.017 98.7146 111.447 108.613 109.571 114.479C107.695 120.345 114.822 137.9 122.607 144.671C130.393 151.443 140.119 158.613 148.378 157.136C156.638 155.659 166.127 142.935 167.108 139.474C168.089 136.012 135.773 96.3424 135.773 96.3424C135.773 96.3424 133.476 94.0348 130.878 95.5984Z" stroke="#092C48" stroke-width="1.19148" stroke-linecap="round" stroke-linejoin="round"/>
<path d="M172.047 72.0809C172.047 72.0809 166.936 70.3557 159.323 73.5905C151.71 76.8254 132.668 88.0072 129.875 97.7441C128.031 104.138 148.206 133.996 160.811 138.913C164.197 140.229 167.281 141.663 174.214 136.012C181.147 130.362 195.683 114.673 199.489 107.761C203.295 100.85 197.333 95.6954 195.338 92.6654C193.343 89.6354 177.395 69.795 172.047 72.0809Z" fill="white"/>
<path d="M199.532 107.664L186.388 111.848C186.388 111.848 172.715 128.022 167.809 132.195C162.903 136.368 147.462 126.232 142.2 121.315L140.647 119.871C146.933 128.411 154.751 136.562 160.811 138.935C164.197 140.25 167.281 141.684 174.214 136.034C181.148 130.384 195.683 114.695 199.489 107.783C199.51 107.746 199.524 107.706 199.532 107.664Z" fill="#DAD2FF"/>
<path d="M192.707 106.22L199.78 107.136C202.918 100.537 197.311 95.5984 195.338 92.6439C193.365 89.6894 177.395 69.7951 172.047 72.081C171.067 71.8059 170.056 71.6573 169.038 71.6389C162.569 76.5128 163.302 82.1091 169.211 92.191C175.12 102.273 192.707 106.22 192.707 106.22Z" fill="#DAD2FF"/>
<g opacity="0.5">
<path opacity="0.5" d="M199.532 107.664L186.388 111.848C186.388 111.848 172.715 128.022 167.809 132.195C162.903 136.368 147.462 126.232 142.2 121.315L140.647 119.871C146.933 128.411 154.751 136.562 160.811 138.935C164.197 140.25 167.281 141.684 174.214 136.034C181.148 130.384 195.683 114.695 199.489 107.783C199.51 107.746 199.524 107.706 199.532 107.664Z" fill="white"/>
<path opacity="0.5" d="M192.707 106.22L199.78 107.136C202.918 100.537 197.311 95.5984 195.338 92.6439C193.365 89.6894 177.395 69.7951 172.047 72.081C171.067 71.8059 170.056 71.6573 169.038 71.6389C162.569 76.5128 163.302 82.1091 169.211 92.191C175.12 102.273 192.707 106.22 192.707 106.22Z" fill="white"/>
</g>
<path d="M172.047 72.0809C172.047 72.0809 166.936 70.3557 159.323 73.5905C151.71 76.8254 132.668 88.0072 129.875 97.7441C128.031 104.138 148.206 133.996 160.811 138.913C164.197 140.229 167.281 141.663 174.214 136.012C181.147 130.362 195.683 114.673 199.489 107.761C203.295 100.85 197.333 95.6954 195.338 92.6654C193.343 89.6354 177.395 69.795 172.047 72.0809Z" stroke="#092C48" stroke-width="1.19148" stroke-linecap="round" stroke-linejoin="round"/>
<path d="M177.785 101.647L164.713 83.7143C162.647 80.8798 158.674 80.257 155.84 82.3232L142.038 92.3843C139.203 94.4504 138.58 98.4232 140.647 101.258L153.718 119.19C155.785 122.025 159.757 122.648 162.592 120.581L176.394 110.52C179.229 108.454 179.851 104.481 177.785 101.647Z" fill="white" stroke="#092C48" stroke-width="1.19148" stroke-linecap="round" stroke-linejoin="round"/>
<path d="M164.51 90.347C164.51 91.0401 164.304 91.7176 163.919 92.2939C163.534 92.8702 162.987 93.3194 162.346 93.5846C161.706 93.8499 161.001 93.9193 160.321 93.7841C159.642 93.6488 159.017 93.3151 158.527 92.825C158.037 92.3349 157.703 91.7104 157.568 91.0306C157.433 90.3509 157.502 89.6462 157.767 89.0059C158.033 88.3655 158.482 87.8182 159.058 87.4331C159.634 87.0481 160.312 86.8425 161.005 86.8425C161.935 86.8425 162.826 87.2117 163.483 87.869C164.14 88.5262 164.51 89.4175 164.51 90.347Z" fill="#DAD2FF" stroke="#092C48" stroke-width="1.19148" stroke-linecap="round" stroke-linejoin="round"/>
<path d="M154.999 98.3479C155.001 99.0419 154.797 99.721 154.413 100.299C154.029 100.877 153.481 101.328 152.841 101.594C152.2 101.861 151.494 101.931 150.814 101.796C150.133 101.661 149.507 101.327 149.017 100.837C148.526 100.346 148.192 99.7205 148.057 99.0397C147.922 98.3589 147.992 97.6534 148.259 97.0126C148.526 96.3718 148.976 95.8246 149.554 95.4404C150.132 95.0561 150.811 94.8521 151.505 94.8543C152.432 94.8543 153.321 95.2223 153.976 95.8775C154.631 96.5327 154.999 97.4213 154.999 98.3479Z" fill="#DAD2FF" stroke="#092C48" stroke-width="1.19148" stroke-linecap="round" stroke-linejoin="round"/>
<path d="M203.251 99.2004C218.405 94.7975 227.122 78.943 222.719 63.7884C218.316 48.6337 202.461 39.9176 187.307 44.3204C172.152 48.7233 163.436 64.5778 167.839 79.7325C172.242 94.8871 188.096 103.603 203.251 99.2004Z" fill="white"/>
<path d="M216.99 53.1785C215.998 52.017 214.916 50.9354 213.755 49.9436C215.435 55.836 215.175 62.1128 213.013 67.8459C210.85 73.5789 206.9 78.4638 201.746 81.7782C196.593 85.0926 190.509 86.6605 184.396 86.2502C178.282 85.8398 172.463 83.4729 167.798 79.4994C168.957 83.6122 171.023 87.4127 173.845 90.621C176.667 93.8293 180.173 96.3636 184.104 98.0372C188.035 99.7108 192.292 100.481 196.561 100.291C200.829 100.102 205.001 98.9568 208.768 96.941C212.536 94.9252 215.803 92.0898 218.329 88.6438C220.855 85.1978 222.576 81.229 223.365 77.0297C224.154 72.8304 223.991 68.5076 222.887 64.3797C221.784 60.2518 219.769 56.4241 216.99 53.1785Z" fill="#DAD2FF"/>
<path opacity="0.5" d="M216.99 53.1785C215.998 52.017 214.916 50.9354 213.755 49.9436C215.435 55.836 215.175 62.1128 213.013 67.8459C210.85 73.5789 206.9 78.4638 201.746 81.7782C196.593 85.0926 190.509 86.6605 184.396 86.2502C178.282 85.8398 172.463 83.4729 167.798 79.4994C168.957 83.6122 171.023 87.4127 173.845 90.621C176.667 93.8293 180.173 96.3636 184.104 98.0372C188.035 99.7108 192.292 100.481 196.561 100.291C200.829 100.102 205.001 98.9568 208.768 96.941C212.536 94.9252 215.803 92.0898 218.329 88.6438C220.855 85.1978 222.576 81.229 223.365 77.0297C224.154 72.8304 223.991 68.5076 222.887 64.3797C221.784 60.2518 219.769 56.4241 216.99 53.1785Z" fill="white"/>
<path d="M203.251 99.2004C218.405 94.7975 227.122 78.943 222.719 63.7884C218.316 48.6337 202.461 39.9176 187.307 44.3204C172.152 48.7233 163.436 64.5778 167.839 79.7325C172.242 94.8871 188.096 103.603 203.251 99.2004Z" stroke="#092C48" stroke-width="1.19148" stroke-linecap="round" stroke-linejoin="round"/>
<path d="M220.645 91.501L228.969 84.3843" stroke="#092C48" stroke-width="1.19148" stroke-linecap="round" stroke-linejoin="round"/>
<path d="M231.18 85.2793C231.623 84.9004 231.898 84.3609 231.943 83.7795C231.989 83.1981 231.801 82.6225 231.423 82.1792C231.044 81.736 230.504 81.4614 229.923 81.4159C229.341 81.3704 228.766 81.5577 228.322 81.9366C228.103 82.1243 227.923 82.3533 227.792 82.6106C227.661 82.8679 227.582 83.1485 227.559 83.4364C227.514 84.0178 227.701 84.5934 228.08 85.0367C228.459 85.48 228.998 85.7545 229.58 85.8C230.161 85.8455 230.737 85.6582 231.18 85.2793Z" fill="#092C48"/>
<path d="M210.445 100.127C210.124 99.7523 209.881 99.3177 209.729 98.8485C209.576 98.3793 209.518 97.8847 209.557 97.393C209.596 96.9012 209.732 96.422 209.956 95.9827C210.181 95.5434 210.489 95.1527 210.865 94.833L216.343 90.1316C217.103 89.4867 218.088 89.1689 219.082 89.2476C220.076 89.3264 220.999 89.7954 221.648 90.5522C221.969 90.9266 222.213 91.3606 222.366 91.8294C222.519 92.2982 222.579 92.7926 222.541 93.2843C222.502 93.776 222.368 94.2554 222.144 94.6951C221.921 95.1347 221.613 95.526 221.238 95.8465L215.75 100.548C214.99 101.196 214.005 101.515 213.01 101.436C212.015 101.357 211.092 100.887 210.445 100.127Z" fill="white" stroke="#092C48" stroke-width="1.19148" stroke-linecap="round" stroke-linejoin="round"/>
<path d="M201.506 104.839C201.506 104.839 190.41 101.841 186.043 110.177C181.676 118.512 186.604 139.29 186.604 139.29C186.604 139.29 178.495 152.467 176.435 153.901C174.376 155.335 168.575 154.71 162.86 157.621C157.145 160.533 159.032 163.519 160.552 164.522C162.073 165.525 166.731 162.527 168.1 162.635C169.47 162.743 169.319 165.212 163.927 170.809C158.536 176.405 156.067 176.545 157.609 179.133C158.027 179.873 158.671 180.46 159.448 180.808C160.224 181.155 161.091 181.245 161.922 181.063C161.732 181.704 161.78 182.392 162.057 183.001C162.335 183.609 162.823 184.097 163.431 184.373C165.653 185.452 166.601 184.621 166.601 184.621C166.601 184.621 166.386 187.436 168.445 188.298C170.061 188.774 171.779 188.774 173.395 188.298C173.395 188.298 175.346 190.584 177.32 190.207C179.293 189.83 183.789 184.33 187.348 179.651C190.906 174.971 204.6 158.333 209.992 148.132C215.383 137.932 212.828 127.645 211.728 121.358C210.628 115.072 205.646 106.219 201.506 104.839Z" fill="white"/>
<path d="M211.728 121.391C210.649 115.104 205.646 106.219 201.506 104.839L201.247 104.774C205.04 113.873 206.561 123.758 205.678 133.575C204.277 151.453 187.876 165.557 182.884 170.744C178.883 174.906 173.847 180.74 166.591 185.053C166.563 185.711 166.721 186.363 167.047 186.935C167.374 187.507 167.854 187.976 168.435 188.288C170.05 188.763 171.768 188.763 173.384 188.288C173.384 188.288 175.336 190.574 177.309 190.196C179.282 189.819 183.779 184.32 187.337 179.64C190.895 174.96 204.589 158.322 209.981 148.121C215.372 137.921 212.828 127.677 211.728 121.391Z" fill="#DAD2FF"/>
<path opacity="0.5" d="M211.728 121.391C210.649 115.104 205.646 106.219 201.506 104.839L201.247 104.774C205.04 113.873 206.561 123.758 205.678 133.575C204.277 151.453 187.876 165.557 182.884 170.744C178.883 174.906 173.847 180.74 166.591 185.053C166.563 185.711 166.721 186.363 167.047 186.935C167.374 187.507 167.854 187.976 168.435 188.288C170.05 188.763 171.768 188.763 173.384 188.288C173.384 188.288 175.336 190.574 177.309 190.196C179.282 189.819 183.779 184.32 187.337 179.64C190.895 174.96 204.589 158.322 209.981 148.121C215.372 137.921 212.828 127.677 211.728 121.391Z" fill="white"/>
<path d="M201.506 104.839C201.506 104.839 190.41 101.841 186.043 110.177C181.676 118.512 186.604 139.29 186.604 139.29C186.604 139.29 178.495 152.467 176.435 153.901C174.376 155.335 168.575 154.71 162.86 157.621C157.145 160.533 159.032 163.519 160.552 164.522C162.073 165.525 166.731 162.527 168.1 162.635C169.47 162.743 169.319 165.212 163.927 170.809C158.536 176.405 156.067 176.545 157.609 179.133C158.027 179.873 158.671 180.46 159.448 180.808C160.224 181.155 161.091 181.245 161.922 181.063C161.732 181.704 161.78 182.392 162.057 183.001C162.335 183.609 162.823 184.097 163.431 184.373C165.653 185.452 166.601 184.621 166.601 184.621C166.601 184.621 166.386 187.436 168.445 188.298C170.061 188.774 171.779 188.774 173.395 188.298C173.395 188.298 175.346 190.584 177.32 190.207C179.293 189.83 183.789 184.33 187.348 179.651C190.906 174.971 204.6 158.333 209.992 148.132C215.383 137.932 212.828 127.645 211.728 121.358C210.628 115.072 205.646 106.219 201.506 104.839Z" stroke="#092C48" stroke-width="1.19148" stroke-linecap="round" stroke-linejoin="round"/>
<path d="M177.309 190.239C179.282 189.862 183.779 184.363 187.337 179.683C189.353 177.041 194.615 170.561 199.78 163.584C196.319 151.723 186.075 148.175 181.514 147.194C179.455 150.278 177.341 153.232 176.435 153.869C174.376 155.303 168.575 154.677 162.86 157.589C157.145 160.5 159.032 163.487 160.552 164.49C162.073 165.493 166.731 162.495 168.1 162.603C169.47 162.711 169.319 165.18 163.927 170.776C158.536 176.373 156.067 176.545 157.609 179.133C158.027 179.873 158.671 180.46 159.448 180.808C160.224 181.155 161.091 181.245 161.922 181.063C161.732 181.704 161.78 182.392 162.057 183.001C162.335 183.609 162.823 184.097 163.431 184.373C165.653 185.452 166.601 184.621 166.601 184.621C166.601 184.621 166.386 187.436 168.445 188.298C170.061 188.774 171.779 188.774 173.395 188.298C173.395 188.298 175.336 190.617 177.309 190.239Z" stroke="#092C48" stroke-width="1.19148" stroke-linecap="round" stroke-linejoin="round"/>
<path d="M161.922 181.063C166.029 178.932 169.689 176.033 172.705 172.523" stroke="#092C48" stroke-width="1.19148" stroke-linecap="round" stroke-linejoin="round"/>
<path d="M166.591 184.622C170.907 182.524 174.751 179.571 177.891 175.941" stroke="#092C48" stroke-width="1.19148" stroke-linecap="round" stroke-linejoin="round"/>
<path d="M173.384 188.331C173.384 188.331 179.595 183.683 182.549 179.845" stroke="#092C48" stroke-width="1.19148" stroke-linecap="round" stroke-linejoin="round"/>
<path d="M212.224 142.515C212.45 141.695 212.623 140.876 212.774 140.067C203.738 134.039 192.351 136.013 186.28 137.77C186.474 138.708 186.604 139.258 186.604 139.258L185.666 140.768C200.179 137.263 208.18 139.884 212.224 142.515Z" fill="white" stroke="#092C48" stroke-width="1.19148" stroke-linecap="round" stroke-linejoin="round"/>
<path d="M205.926 148.025C206.729 148.961 207.684 149.756 208.752 150.375C209.194 149.61 209.614 148.877 209.992 148.219C212.74 142.803 213.835 136.698 213.14 130.664C210.852 130.765 208.662 131.626 206.918 133.112C204.819 134.964 203.537 137.571 203.351 140.364C203.165 143.157 204.091 145.911 205.926 148.025Z" fill="#DAD2FF" stroke="#092C48" stroke-width="1.19148" stroke-linecap="round" stroke-linejoin="round"/>
<path d="M103.759 108.71C103.759 108.71 108.245 121.65 114.013 122.609C119.782 123.569 127.805 113.778 129.433 106.435C131.061 99.0919 125.335 93.1829 117.054 85.8074C108.773 78.432 96.901 74.1404 86.8622 79.7367C76.8234 85.333 61.9862 101.302 61.9862 101.302C61.9862 101.302 52.7021 93.1398 47.7744 97.3559C42.8466 101.572 49.2732 114.468 53.8128 119.784C58.3523 125.1 66.6336 132.896 74.5805 131.042C82.5275 129.187 88.8247 114.274 93.9897 109.886C99.1547 105.497 102.616 107.384 103.759 108.71Z" fill="white"/>
<path d="M116.634 111.848C107.867 107.643 110.326 97.1187 101.538 94.3152C92.7496 91.5116 93.4721 97.4746 86.4416 108.7C79.4112 119.924 66.4502 119.213 57.6838 116.409C54.9046 115.51 52.173 114.47 49.4996 113.293C50.6981 115.637 52.144 117.845 53.8127 119.881C58.3523 125.197 66.6012 132.918 74.5374 131.063C82.4736 129.209 88.7815 114.296 93.9465 109.907C99.1115 105.519 102.638 107.406 103.77 108.732C103.77 108.732 108.255 121.671 114.024 122.631C119.793 123.591 127.815 113.8 129.444 106.457C129.714 105.254 129.783 104.016 129.649 102.791L129.239 102.704C129.239 102.704 125.368 116.043 116.634 111.848Z" fill="#DAD2FF"/>
<path opacity="0.5" d="M116.634 111.848C107.867 107.643 110.326 97.1187 101.538 94.3152C92.7496 91.5116 93.4721 97.4746 86.4416 108.7C79.4112 119.924 66.4502 119.213 57.6838 116.409C54.9046 115.51 52.173 114.47 49.4996 113.293C50.6981 115.637 52.144 117.845 53.8127 119.881C58.3523 125.197 66.6012 132.918 74.5374 131.063C82.4736 129.209 88.7815 114.296 93.9465 109.907C99.1115 105.519 102.638 107.406 103.77 108.732C103.77 108.732 108.255 121.671 114.024 122.631C119.793 123.591 127.815 113.8 129.444 106.457C129.714 105.254 129.783 104.016 129.649 102.791L129.239 102.704C129.239 102.704 125.368 116.043 116.634 111.848Z" fill="white"/>
<path d="M103.759 108.71C103.759 108.71 108.245 121.65 114.013 122.609C119.782 123.569 127.805 113.778 129.433 106.435C131.061 99.0919 125.335 93.1829 117.054 85.8074C108.773 78.432 96.901 74.1404 86.8622 79.7367C76.8234 85.333 61.9862 101.302 61.9862 101.302C61.9862 101.302 52.7021 93.1398 47.7744 97.3559C42.8466 101.572 49.2732 114.468 53.8128 119.784C58.3523 125.1 66.6336 132.896 74.5805 131.042C82.5275 129.187 88.8247 114.274 93.9897 109.886C99.1547 105.497 102.616 107.384 103.759 108.71Z" stroke="#092C48" stroke-width="1.19148" stroke-linecap="round" stroke-linejoin="round"/>
<path d="M75.4755 88.3198C68.3157 94.5954 62.0185 101.378 62.0185 101.378C62.0185 101.378 52.7345 93.2152 47.8067 97.4313C42.879 101.647 49.3055 114.544 53.8451 119.86C58.3847 125.176 66.6336 132.896 74.5805 131.041C81.7403 129.37 87.5199 117.024 92.3938 111.471C85.6242 104.647 79.9208 96.8423 75.4755 88.3198V88.3198Z" stroke="#092C48" stroke-width="1.19148" stroke-linecap="round" stroke-linejoin="round"/>
<path d="M99.381 77.3429C98.5005 77.2407 97.6149 77.1867 96.7285 77.1812C99.3625 87.0206 99.9642 97.2935 98.4968 107.373C99.3587 107.143 100.261 107.106 101.139 107.265C101.732 99.6203 102.174 86.9504 99.381 77.3429Z" stroke="#092C48" stroke-width="1.19148" stroke-linecap="round" stroke-linejoin="round"/>
<path d="M105.43 94.1428C104.002 95.356 102.246 96.1186 100.385 96.3342C98.5231 96.5499 96.6394 96.2088 94.9716 95.3542C93.3038 94.4996 91.9268 93.1697 91.0146 91.5327C90.1024 89.8958 89.696 88.0251 89.8466 86.1572C89.9972 84.2892 90.6982 82.5079 91.861 81.0382C93.0237 79.5686 94.596 78.4766 96.3792 77.9003C98.1623 77.3239 100.076 77.2892 101.879 77.8003C103.682 78.3114 105.293 79.3456 106.509 80.772C107.317 81.7203 107.93 82.8187 108.313 84.0042C108.696 85.1897 108.842 86.4391 108.742 87.6809C108.641 88.9228 108.297 90.1327 107.729 91.2415C107.161 92.3503 106.38 93.3362 105.43 94.1428Z" fill="#DAD2FF" stroke="#092C48" stroke-width="1.19148" stroke-linecap="round" stroke-linejoin="round"/>
<path d="M74.5805 131.042C76.4687 130.509 78.1952 129.516 79.6053 128.152C74.5266 128.993 65.1455 128.712 56.6163 118.447C48.3135 108.484 48.1733 100.731 48.9928 96.655C48.5698 96.8498 48.1745 97.1 47.8175 97.399C42.8789 101.615 49.3163 114.511 53.8559 119.827C58.3955 125.143 66.6335 132.896 74.5805 131.042Z" stroke="#092C48" stroke-width="1.19148" stroke-linecap="round" stroke-linejoin="round"/>
<path d="M129.713 154.537C129.713 154.537 142.836 158.397 146.966 154.278C151.096 150.159 151.71 137.64 142.782 132.335C136.312 128.518 129.616 128.022 118.801 130.438C107.986 132.853 97.6019 140.067 96.3403 151.453C95.0787 162.84 99.4673 184.255 99.4673 184.255C99.4673 184.255 87.4444 187.069 88.0051 193.539C88.5658 200.008 102.81 202.262 109.765 201.647C116.72 201.033 127.815 198.812 130.91 191.274C134.005 183.737 125.519 169.946 124.936 163.239C124.354 156.532 127.977 154.688 129.713 154.537Z" fill="white"/>
<path d="M129.713 154.538C129.713 154.538 142.836 158.398 146.966 154.279C149.662 151.594 150.837 145.372 148.885 139.884C148.885 139.884 149.963 145.502 142.221 146.903C134.479 148.305 121.885 145.502 116.278 152.511C110.671 159.519 118.725 173.904 119.426 183.371C120.127 192.838 118.003 195.955 108.536 197.033C99.0684 198.111 90.6038 191.318 88.6521 195.437C91.5527 200.43 103.565 202.176 109.787 201.626C116.752 201.012 127.837 198.791 130.932 191.253C134.026 183.716 125.54 169.925 124.958 163.218C124.376 156.511 127.977 154.689 129.713 154.538Z" fill="#DAD2FF"/>
<path opacity="0.5" d="M129.713 154.538C129.713 154.538 142.836 158.398 146.966 154.279C149.662 151.594 150.837 145.372 148.885 139.884C148.885 139.884 149.963 145.502 142.221 146.903C134.479 148.305 121.885 145.502 116.278 152.511C110.671 159.519 118.725 173.904 119.426 183.371C120.127 192.838 118.003 195.955 108.536 197.033C99.0684 198.111 90.6038 191.318 88.6521 195.437C91.5527 200.43 103.565 202.176 109.787 201.626C116.752 201.012 127.837 198.791 130.932 191.253C134.026 183.716 125.54 169.925 124.958 163.218C124.376 156.511 127.977 154.689 129.713 154.538Z" fill="white"/>
<path d="M129.713 154.537C129.713 154.537 142.836 158.397 146.966 154.278C151.096 150.159 151.71 137.64 142.782 132.335C136.312 128.518 129.616 128.022 118.801 130.438C107.986 132.853 97.6019 140.067 96.3403 151.453C95.0787 162.84 99.4673 184.255 99.4673 184.255C99.4673 184.255 87.4444 187.069 88.0051 193.539C88.5658 200.008 102.81 202.262 109.765 201.647C116.72 201.033 127.815 198.812 130.91 191.274C134.005 183.737 125.519 169.946 124.936 163.239C124.354 156.532 127.977 154.688 129.713 154.537Z" stroke="#092C48" stroke-width="1.19148" stroke-linecap="round" stroke-linejoin="round"/>
<path d="M96.6854 165.762C97.6343 175.24 99.489 184.298 99.489 184.298C99.489 184.298 87.4661 187.112 88.0268 193.582C88.5875 200.052 102.832 202.305 109.787 201.691C116.742 201.076 127.837 198.855 130.932 191.318C133.725 184.514 127.115 172.642 125.346 165.439C115.863 166.988 106.201 167.097 96.6854 165.762V165.762Z" stroke="#092C48" stroke-width="1.19148" stroke-linecap="round" stroke-linejoin="round"/>
<path d="M101.624 139.948C101.032 140.603 100.478 141.291 99.9633 142.008C109.483 145.587 118.18 151.055 125.529 158.085C125.848 157.269 126.341 156.533 126.974 155.928C121.141 150.914 111.08 143.194 101.624 139.948Z" stroke="#092C48" stroke-width="1.19148" stroke-linecap="round" stroke-linejoin="round"/>
<path d="M112.222 154.62C117.221 153.048 119.999 147.721 118.427 142.722C116.854 137.723 111.527 134.945 106.528 136.517C101.529 138.089 98.7508 143.417 100.323 148.416C101.896 153.415 107.223 156.193 112.222 154.62Z" fill="#DAD2FF" stroke="#092C48" stroke-width="1.19148" stroke-linecap="round" stroke-linejoin="round"/>
<path d="M130.932 191.275C131.598 189.429 131.791 187.445 131.492 185.506C129.228 190.132 123.556 197.604 110.272 198.596C97.3324 199.567 90.9381 195.178 88.113 192.127C88.0187 192.584 87.9896 193.052 88.0268 193.518C88.5983 199.987 102.832 202.241 109.787 201.626C116.742 201.012 127.837 198.812 130.932 191.275Z" stroke="#092C48" stroke-width="1.19148" stroke-linecap="round" stroke-linejoin="round"/>
<path d="M204.913 59.7237C202.065 55.9832 199.482 52.0487 197.182 47.9488C192.355 47.3015 187.445 48.1159 183.086 50.2869C178.726 52.4578 175.118 55.8856 172.726 60.1277C170.334 64.3698 169.269 69.2315 169.667 74.0851C170.066 78.9387 171.91 83.5614 174.962 87.3564C178.014 91.1514 182.134 93.9445 186.789 95.375C191.444 96.8055 196.421 96.8079 201.077 95.3817C205.734 93.9556 209.856 91.1664 212.911 87.3743C215.967 83.5822 217.816 78.9612 218.219 74.108C213.316 69.7677 208.859 64.949 204.913 59.7237Z" fill="#092C48" stroke="#092C48" stroke-width="1.19148" stroke-linecap="round" stroke-linejoin="round"/>
<path d="M207.274 81.8393C206.15 82.9362 204.723 83.6698 203.176 83.9446C201.63 84.2194 200.037 84.0228 198.604 83.3804C197.171 82.7379 195.964 81.6793 195.141 80.3421C194.317 79.0048 193.915 77.4508 193.986 75.8819C194.057 74.3131 194.599 72.8019 195.54 71.5448C196.481 70.2877 197.779 69.3428 199.265 68.8329C200.75 68.3229 202.354 68.2715 203.869 68.6854C205.384 69.0992 206.74 69.9592 207.76 71.1535C208.431 71.886 208.952 72.744 209.291 73.6781C209.63 74.6123 209.782 75.6043 209.737 76.5971C209.692 77.59 209.451 78.5642 209.028 79.4638C208.606 80.3633 208.01 81.1706 207.274 81.8393Z" fill="white"/>
<path d="M199.263 63.7781C198.915 64.0852 198.484 64.2815 198.025 64.3421C197.565 64.4027 197.098 64.3247 196.683 64.1181C196.268 63.9116 195.924 63.5859 195.695 63.1827C195.466 62.7795 195.363 62.3172 195.398 61.8549C195.433 61.3927 195.606 60.9515 195.894 60.5879C196.181 60.2243 196.571 59.9548 197.013 59.814C197.454 59.6731 197.928 59.6673 198.373 59.7972C198.818 59.9271 199.214 60.1869 199.511 60.5433C199.901 61.0078 200.093 61.6066 200.047 62.2113C200 62.8161 199.719 63.3785 199.263 63.7781Z" fill="white"/>
</g>
<defs>
<clipPath id="clip0_97_1846">
<rect width="259" height="259" fill="white"/>
</clipPath>
</defs>
</svg>
