<svg width="264" height="242" viewBox="0 0 264 242" fill="none" xmlns="http://www.w3.org/2000/svg">
<g clip-path="url(#clip0_96_2017)">
<path d="M7.76323 124.922C7.76323 124.922 9.18263 169.014 45.9783 198.369C82.774 227.723 133.752 229.849 175.023 232.64C216.294 235.43 247.968 212.068 252.8 176.776C257.632 141.484 226.043 131.095 208.931 90.8871C191.82 50.6788 193.342 37.4693 157.138 12.7416C120.935 -11.9862 64.2674 3.16818 34.5748 45.5327C4.88215 87.8973 7.76323 124.922 7.76323 124.922Z" fill="#0D3F67"/>
<path opacity="0.7" d="M7.76323 124.922C7.76323 124.922 9.18263 169.014 45.9783 198.369C82.774 227.723 133.752 229.849 175.023 232.64C216.294 235.43 247.968 212.068 252.8 176.776C257.632 141.484 226.043 131.095 208.931 90.8871C191.82 50.6788 193.342 37.4693 157.138 12.7416C120.935 -11.9862 64.2674 3.16818 34.5748 45.5327C4.88215 87.8973 7.76323 124.922 7.76323 124.922Z" fill="#0D3F67"/>
<path d="M187.261 214.955C211.345 214.955 230.869 209.163 230.869 202.018C230.869 194.872 211.345 189.08 187.261 189.08C163.176 189.08 143.652 194.872 143.652 202.018C143.652 209.163 163.176 214.955 187.261 214.955Z" fill="#092C48" stroke="#0D3F67" stroke-width="1.193" stroke-linecap="round" stroke-linejoin="round"/>
<path d="M187.26 195.029C207.887 195.029 225.161 199.257 229.697 204.989C230.413 204.16 230.826 203.112 230.869 202.017C230.869 194.866 211.341 189.073 187.26 189.073C163.178 189.073 143.645 194.866 143.645 202.017C143.688 203.112 144.101 204.16 144.817 204.989C149.353 199.281 166.627 195.029 187.26 195.029Z" fill="#092C48" stroke="#0D3F67" stroke-width="1.193" stroke-linecap="round" stroke-linejoin="round"/>
<path d="M181.305 213.33C166.736 212.672 155.743 209.706 155.743 206.082C155.751 205.687 155.875 205.302 156.1 204.977" fill="#092C48"/>
<path d="M181.305 213.33C166.736 212.672 155.743 209.706 155.743 206.082C155.751 205.687 155.875 205.302 156.1 204.977" stroke="#0D3F67" stroke-width="1.193" stroke-linecap="round" stroke-linejoin="round"/>
<path d="M215.11 202.555C217.605 203.612 219.03 204.82 219.03 206.106C219.03 210.171 204.861 213.463 187.387 213.463H186.632" fill="#092C48"/>
<path d="M215.11 202.555C217.605 203.612 219.03 204.82 219.03 206.106C219.03 210.171 204.861 213.463 187.387 213.463H186.632" stroke="#0D3F67" stroke-width="1.193" stroke-linecap="round" stroke-linejoin="round"/>
<path d="M160.001 202.416C165.48 200.223 175.705 198.744 187.387 198.744C194.034 198.692 200.672 199.236 207.222 200.368" fill="#092C48"/>
<path d="M160.001 202.416C165.48 200.223 175.705 198.744 187.387 198.744C194.034 198.692 200.672 199.236 207.222 200.368" stroke="#0D3F67" stroke-width="1.193" stroke-linecap="round" stroke-linejoin="round"/>
<path d="M180.888 208.631C177.197 208.118 174.727 207.181 174.727 206.106C174.727 204.482 180.398 203.165 187.411 203.165C194.423 203.165 200.065 204.482 200.065 206.106C200.065 207.501 195.897 208.667 190.304 208.969" fill="#092C48"/>
<path d="M180.888 208.631C177.197 208.118 174.727 207.181 174.727 206.106C174.727 204.482 180.398 203.165 187.411 203.165C194.423 203.165 200.065 204.482 200.065 206.106C200.065 207.501 195.897 208.667 190.304 208.969" stroke="#0D3F67" stroke-width="1.193" stroke-linecap="round" stroke-linejoin="round"/>
<path d="M12.118 150.007C31.138 144.601 71.159 133.934 93.2473 133.131C122.94 132.08 173.072 153.631 204.371 157.406C235.671 161.181 256.702 160.106 256.702 160.106" stroke="#B6C5D1" stroke-width="1.193" stroke-linecap="round" stroke-linejoin="round"/>
<path d="M1.53601 153.093C1.53601 153.093 3.17889 152.592 6.05997 151.752" stroke="#B6C5D1" stroke-width="1.193" stroke-linecap="round" stroke-linejoin="round"/>
<path d="M248.252 119.469C237.288 117.06 226.072 115.999 214.851 116.31C191.645 117.089 166.531 120.157 135.479 124.162C104.427 128.166 60.2086 106.042 30.1414 114.25C0.0743174 122.458 2.35744 124.929 2.35744 124.929" stroke="#B6C5D1" stroke-width="1.193" stroke-linecap="round" stroke-linejoin="round"/>
<path d="M256.805 121.691C256.805 121.691 255.633 121.305 253.513 120.743" stroke="#B6C5D1" stroke-width="1.193" stroke-linecap="round" stroke-linejoin="round"/>
<path d="M201.128 64.6434C200.794 63.2859 200.014 62.0796 198.914 61.2172C197.813 60.3549 196.456 59.8862 195.058 59.8862C193.66 59.8862 192.302 60.3549 191.202 61.2172C190.101 62.0796 189.322 63.2859 188.987 64.6434H201.128Z" stroke="#B6C5D1" stroke-width="1.193" stroke-linecap="round" stroke-linejoin="round"/>
<path d="M262.464 64.6435C262.097 63.0964 261.263 61.6999 260.074 60.644C258.885 59.5881 257.4 58.9241 255.82 58.7424C256.317 56.1186 256.227 53.4174 255.558 50.8321C254.889 48.2469 253.657 45.8415 251.95 43.788C250.243 41.7345 248.103 40.0838 245.683 38.9539C243.264 37.824 240.624 37.2428 237.954 37.2521C233.689 37.2522 229.561 38.7523 226.292 41.4897C223.022 44.2271 220.819 48.0274 220.069 52.2252C218.355 50.8842 216.297 50.0524 214.132 49.8247C211.968 49.5969 209.782 49.9825 207.826 50.9373C205.87 51.8921 204.221 53.3778 203.069 55.2246C201.917 57.0714 201.307 59.205 201.309 61.3819C201.313 62.4902 201.473 63.5924 201.786 64.6555L262.464 64.6435Z" stroke="#B6C5D1" stroke-width="1.193" stroke-linecap="round" stroke-linejoin="round"/>
<path d="M93.0843 79.2241C92.9181 78.5315 92.5235 77.915 91.9641 77.474C91.4048 77.033 90.7132 76.7932 90.0009 76.7932C89.2886 76.7932 88.5971 77.033 88.0377 77.474C87.4783 77.915 87.0837 78.5315 86.9175 79.2241H93.0843Z" stroke="#B6C5D1" stroke-width="1.193" stroke-linecap="round" stroke-linejoin="round"/>
<path d="M124.221 79.224C124.037 78.4343 123.614 77.7204 123.01 77.1799C122.406 76.6394 121.649 76.2986 120.844 76.204C121.135 74.9855 121.174 73.7206 120.96 72.4863C120.745 71.2521 120.282 70.0745 119.598 69.0253C118.913 67.9761 118.022 67.0774 116.979 66.3838C115.936 65.6903 114.762 65.2165 113.53 64.9914C112.298 64.7663 111.033 64.7946 109.812 65.0746C108.591 65.3545 107.439 65.8803 106.428 66.6197C105.417 67.3592 104.567 68.2969 103.93 69.3756C103.294 70.4544 102.883 71.6515 102.724 72.8941C101.854 72.2138 100.81 71.7918 99.711 71.6762C98.6123 71.5606 97.5033 71.756 96.5103 72.2403C95.5174 72.7245 94.6805 73.4779 94.095 74.4148C93.5095 75.3516 93.1991 76.4341 93.1991 77.5388C93.2018 78.103 93.2832 78.6641 93.4407 79.2059L124.221 79.224Z" stroke="#B6C5D1" stroke-width="1.193" stroke-linecap="round" stroke-linejoin="round"/>
<path d="M121.086 88.9727C120.982 88.5352 120.733 88.1456 120.38 87.8669C120.027 87.5881 119.591 87.4365 119.141 87.4365C118.691 87.4365 118.255 87.5881 117.902 87.8669C117.549 88.1456 117.3 88.5352 117.196 88.9727H121.086Z" stroke="#B6C5D1" stroke-width="1.193" stroke-linecap="round" stroke-linejoin="round"/>
<path d="M140.74 88.9727C140.622 88.4763 140.355 88.0284 139.973 87.69C139.591 87.3516 139.115 87.1393 138.608 87.0821C138.673 86.7296 138.706 86.3717 138.704 86.0131C138.686 84.5724 138.135 83.1896 137.157 82.1319C136.178 81.0743 134.842 80.4169 133.408 80.2869C131.973 80.157 130.54 80.5636 129.388 81.4283C128.236 82.2929 127.445 83.5542 127.168 84.9681C126.618 84.5392 125.959 84.2733 125.266 84.2007C124.572 84.1282 123.872 84.2521 123.246 84.5581C122.619 84.8641 122.091 85.34 121.722 85.9315C121.353 86.523 121.158 87.2063 121.158 87.9036C121.159 88.2593 121.21 88.6131 121.309 88.9545L140.74 88.9727Z" stroke="#B6C5D1" stroke-width="1.193" stroke-linecap="round" stroke-linejoin="round"/>
<path d="M79.2406 158.553C79.028 158.556 78.8188 158.5 78.6366 158.39C78.3724 158.227 78.1811 157.969 78.1024 157.669C78.0236 157.368 78.0635 157.049 78.2138 156.778C78.5097 156.258 153.188 74.8208 187.357 44.9591C187.476 44.8634 187.627 44.8163 187.779 44.8276C187.932 44.8388 188.074 44.9074 188.178 45.0195C188.277 45.1394 188.326 45.2931 188.315 45.4484C188.304 45.6037 188.233 45.7486 188.118 45.853C154.118 75.5879 80.5452 157.448 80.2492 157.961C80.1486 158.141 80.0022 158.29 79.825 158.394C79.6477 158.498 79.4461 158.553 79.2406 158.553Z" fill="#B6C5D1"/>
<path d="M83.3659 142.348C83.3659 142.348 87.0684 138.398 89.2911 138.398C91.5138 138.398 95.7116 142.1 95.464 144.076C95.2164 146.051 91.5138 144.323 91.5138 144.323C91.5138 144.323 88.0529 149.016 84.598 148.273C81.1432 147.53 83.3659 142.348 83.3659 142.348Z" fill="#DAD2FF" stroke="#0D3F67" stroke-width="1.193" stroke-linecap="round" stroke-linejoin="round"/>
<path d="M91.5321 144.311C91.5321 144.311 93.7971 145.881 93.9964 146.987C94.1957 148.092 91.4837 151.215 88.4698 151.915C85.4558 152.616 83.8432 150.907 84.7492 149.3C85.6552 147.693 89.2489 144.456 91.5321 144.311Z" fill="#DAD2FF" stroke="#0D3F67" stroke-width="1.193" stroke-linecap="round" stroke-linejoin="round"/>
<path d="M184.548 130.002V48.2871C184.548 48.2871 182.899 54.2003 182.899 54.6291" stroke="#B6C5D1" stroke-width="1.193" stroke-linecap="round" stroke-linejoin="round"/>
<path d="M218.626 134.309H155.967V184.513H218.626V134.309Z" fill="#DAD2FF" stroke="#0D3F67" stroke-width="1.193" stroke-linecap="round" stroke-linejoin="round"/>
<path d="M185.442 134.097V131.222C185.442 131.032 185.366 130.849 185.231 130.714C185.097 130.579 184.914 130.504 184.723 130.504C184.533 130.504 184.35 130.579 184.215 130.714C184.08 130.849 184.004 131.032 184.004 131.222V134.097H185.442Z" fill="#092C48"/>
<path d="M191.192 127.103V127.248C191.134 127.138 191.047 127.046 190.94 126.981C190.834 126.916 190.712 126.881 190.588 126.88C190.396 126.88 190.211 126.956 190.075 127.092C189.94 127.228 189.863 127.412 189.863 127.604V135.281C189.863 135.868 189.63 136.431 189.216 136.847C188.802 137.262 188.239 137.496 187.653 137.498C187.349 137.498 187.048 137.435 186.771 137.311C186.61 137.55 186.541 137.838 186.574 138.123C186.607 138.409 186.741 138.673 186.952 138.869C187.183 138.913 187.417 138.935 187.653 138.935C188.132 138.935 188.608 138.841 189.051 138.657C189.494 138.474 189.897 138.205 190.236 137.865C190.576 137.526 190.845 137.123 191.029 136.68C191.212 136.236 191.307 135.761 191.307 135.281V131.724H192.962L191.192 127.103Z" fill="#092C48"/>
<path d="M184.608 47.52C184.608 47.52 185.889 42.9719 184.753 43.3947C183.618 43.8175 184.608 47.52 184.608 47.52Z" stroke="#0D3F67" stroke-width="1.193" stroke-linecap="round" stroke-linejoin="round"/>
<path d="M184.608 47.5199C184.608 47.5199 179.776 45.8106 180.205 47.3749C180.634 48.9393 184.608 47.5199 184.608 47.5199Z" stroke="#0D3F67" stroke-width="1.193" stroke-linecap="round" stroke-linejoin="round"/>
<path d="M80.4124 87.1606C80.4124 87.1606 74.4509 83.8204 62.7574 85.4935C51.064 87.1666 48.8352 96.8064 50.7439 106.827C52.6525 116.847 63.7118 125.333 65.3848 124.621C67.0579 123.908 64.9077 101.475 68.725 97.1809C72.5422 92.8865 84.9484 93.6052 85.637 90.2651C86.3255 86.925 80.4124 87.1606 80.4124 87.1606Z" fill="#0D3F67" stroke="#0D3F67" stroke-width="1.193" stroke-linecap="round" stroke-linejoin="round"/>
<path d="M59.6288 93.1098L60.8368 101.004C60.8368 101.004 53.3472 121.45 54.5612 124.288C55.7753 127.127 67.1063 128.13 67.1063 128.13C67.1063 128.13 85.5283 130.359 90.9945 128.13C96.4607 125.901 93.6279 119.426 93.0179 117.608C92.4079 115.79 88.9711 101.209 88.9711 101.209C88.9711 101.209 90.1791 97.7667 90.1791 95.9486C90.1791 94.1306 89.9737 89.063 89.1644 87.849C88.355 86.6349 74.1852 85.2155 67.9096 86.2303C61.6341 87.245 58.8194 88.8637 59.6288 93.1098Z" fill="#B6C5D1" stroke="#0D3F67" stroke-width="1.193" stroke-linecap="round" stroke-linejoin="round"/>
<path d="M62.8722 102.224C62.8722 102.224 62.6668 119.831 63.6815 123.274C64.6962 126.716 68.743 130.763 77.2413 129.749C85.7396 128.734 86.555 120.64 86.555 120.64L85.951 101.82L62.8722 102.224Z" fill="white" stroke="#0D3F67" stroke-width="1.193" stroke-linecap="round" stroke-linejoin="round"/>
<path d="M77.4467 114.872C77.4479 115.173 77.3597 115.468 77.1932 115.719C77.0266 115.97 76.7893 116.166 76.5113 116.283C76.2333 116.399 75.9271 116.43 75.6314 116.372C75.3358 116.314 75.064 116.169 74.8505 115.956C74.6371 115.744 74.4915 115.473 74.4323 115.177C74.3731 114.882 74.4028 114.575 74.5179 114.297C74.6329 114.019 74.828 113.78 75.0784 113.613C75.3288 113.445 75.6234 113.356 75.9247 113.356C76.1243 113.355 76.322 113.394 76.5067 113.47C76.6913 113.545 76.8591 113.657 77.0006 113.798C77.142 113.939 77.2542 114.106 77.3308 114.29C77.4073 114.475 77.4467 114.672 77.4467 114.872Z" stroke="#0D3F67" stroke-width="1.193" stroke-miterlimit="10"/>
<path d="M77.2414 121.25C77.2413 121.451 77.1817 121.648 77.0699 121.815C76.9581 121.982 76.7993 122.112 76.6135 122.188C76.4278 122.265 76.2234 122.285 76.0264 122.245C75.8294 122.205 75.6486 122.108 75.507 121.966C75.3653 121.823 75.2692 121.642 75.2307 121.445C75.1922 121.247 75.2132 121.043 75.2909 120.858C75.3686 120.673 75.4996 120.514 75.6673 120.404C75.835 120.293 76.0317 120.234 76.2327 120.236C76.3656 120.236 76.4973 120.262 76.6201 120.313C76.7429 120.364 76.8543 120.439 76.9481 120.533C77.0418 120.627 77.116 120.739 77.1663 120.862C77.2166 120.986 77.2421 121.117 77.2414 121.25Z" fill="#0D3F67"/>
<path d="M71.1289 108.379C71.7752 109.08 71.9987 109.919 71.6363 110.263C71.2739 110.608 70.4283 110.318 69.7941 109.623C69.1599 108.929 68.9183 108.089 69.2867 107.745C69.6551 107.4 70.4826 107.684 71.1289 108.379Z" fill="#0D3F67"/>
<path d="M79.3493 108.379C78.7031 109.08 78.4735 109.919 78.842 110.263C79.2104 110.608 80.05 110.318 80.654 109.623C81.258 108.929 81.5298 108.089 81.1614 107.745C80.7929 107.4 79.9956 107.684 79.3493 108.379Z" fill="#0D3F67"/>
<path d="M66.8042 105.993C67.2576 105.324 67.9093 104.814 68.6677 104.534C69.4261 104.255 70.253 104.22 71.0322 104.435" stroke="#0D3F67" stroke-width="1.193" stroke-linecap="round" stroke-linejoin="round"/>
<path d="M79.0292 104.659C79.0292 104.659 81.9163 103.771 82.8102 106.217" stroke="#0D3F67" stroke-width="1.193" stroke-linecap="round" stroke-linejoin="round"/>
<path d="M88.7777 217.618C88.7777 217.618 91.9608 215.71 93.7245 214.961C93.8897 214.885 94.0591 214.818 94.2319 214.762C95.7902 214.242 100.205 214.502 104.355 211.905C108.504 209.307 106.433 206.191 103.316 205.412C100.199 204.632 96.8291 203.6 96.8291 203.6L96.0499 191.393C96.0499 191.393 86.7 193.99 83.5833 195.289C80.4667 196.587 82.2847 215.021 82.5445 216.58C82.8042 218.138 82.8042 219.177 88.7777 217.618Z" fill="#0D3F67" stroke="#0D3F67" stroke-width="1.193" stroke-linecap="round" stroke-linejoin="round"/>
<path d="M99.1665 211.905C93.7305 212.944 93.7305 213.982 87.7388 215.021C85.9838 215.372 84.1941 215.518 82.4055 215.456C82.4659 216.012 82.5142 216.404 82.5444 216.58C82.8042 218.138 82.8042 219.177 88.7777 217.619C88.7777 217.619 91.9608 215.71 93.7245 214.961C93.8897 214.885 94.0591 214.818 94.2318 214.762C95.7902 214.242 100.205 214.502 104.355 211.905C105.69 211.077 106.372 210.189 106.596 209.344C104.237 210.508 101.741 211.368 99.1665 211.905Z" fill="white" stroke="#0D3F67" stroke-width="1.193" stroke-linecap="round" stroke-linejoin="round"/>
<path d="M101.329 205.255C101.329 205.255 101.13 219.424 100.725 222.456C100.32 225.489 100.924 229.342 105.557 229.342C110.19 229.342 119.322 226.322 122.56 225.718C125.797 225.114 131.064 223.689 133.287 218.633C135.509 213.578 121.956 214.176 121.956 214.176L122.765 203.853C122.765 203.853 108.819 206.668 101.329 205.255Z" fill="#092C48" stroke="#092C48" stroke-width="1.193" stroke-linecap="round" stroke-linejoin="round"/>
<path d="M133.311 218.615C133.559 218.124 133.619 217.559 133.48 217.027C132.092 218.91 130.211 220.374 128.044 221.255C123.212 223.278 114.073 225.483 107.194 226.521C104.047 226.981 102.054 226.467 100.803 225.779C101.25 227.742 102.561 229.354 105.575 229.354C110.232 229.354 119.34 226.334 122.578 225.73C125.815 225.126 131.088 223.671 133.311 218.615Z" fill="white" stroke="#0D3F67" stroke-width="1.193" stroke-linecap="round" stroke-linejoin="round"/>
<path d="M121.98 214.158C121.98 214.158 122.988 217.6 120.168 219.829" stroke="#0D3F67" stroke-width="1.193" stroke-linecap="round" stroke-linejoin="round"/>
<path d="M99.9155 197.765C99.9155 197.765 99.6014 203.92 99.9457 205.152C101.238 209.827 101.649 208.734 111.367 208.528C121.086 208.323 125.012 204.445 126.026 202.017C127.041 199.589 126.026 194.322 125.622 192.498C125.217 190.674 121.998 190.082 120.76 190.275C119.521 190.469 100.519 195.742 99.9155 197.765Z" fill="#B6C5D1" stroke="#0D3F67" stroke-width="1.193" stroke-linecap="round" stroke-linejoin="round"/>
<path d="M33.1132 213.149V226.751C33.1177 227.283 33.2674 227.804 33.5463 228.258C33.8252 228.711 34.2226 229.08 34.6956 229.324L56.5604 240.613C56.9495 240.815 57.3792 240.927 57.8175 240.939C58.2558 240.952 58.6912 240.865 59.0912 240.685L91.3025 228.406C91.8165 228.175 92.2529 227.801 92.5593 227.329C92.8658 226.856 93.0292 226.305 93.03 225.742V209.301L56.186 220.433L33.1132 213.149Z" fill="#DAD2FF"/>
<path opacity="0.18" d="M57.8107 219.944L56.192 220.433L33.1132 213.149V226.751C33.1177 227.283 33.2674 227.804 33.5463 228.258C33.8252 228.711 34.2226 229.08 34.6956 229.324L56.5604 240.613C56.9471 240.815 57.3746 240.927 57.8107 240.939V219.944Z" fill="#072034"/>
<path d="M33.1132 213.149V226.751C33.1177 227.283 33.2674 227.804 33.5463 228.258C33.8252 228.711 34.2226 229.08 34.6956 229.324L56.5604 240.613C56.9495 240.815 57.3792 240.927 57.8175 240.939C58.2558 240.952 58.6912 240.865 59.0912 240.685L91.3025 228.406C91.8165 228.175 92.2529 227.801 92.5593 227.329C92.8658 226.856 93.0292 226.305 93.03 225.742V209.301L56.186 220.433L33.1132 213.149Z" stroke="#0D3F67" stroke-width="1.193" stroke-linecap="round" stroke-linejoin="round"/>
<path d="M66.768 190.185L31.434 201.54C31.1579 201.629 30.9171 201.803 30.7466 202.037C30.5761 202.272 30.4847 202.555 30.4857 202.845V212.919C30.4911 213.173 30.5667 213.42 30.7043 213.634C30.8419 213.847 31.0359 214.018 31.2649 214.127L55.896 225.851C56.0619 225.93 56.242 225.976 56.4256 225.984C56.6093 225.992 56.7927 225.963 56.9651 225.899L93.948 212.062C94.2096 211.965 94.4353 211.79 94.5951 211.561C94.7548 211.332 94.8409 211.06 94.8419 210.781L94.9084 201.329C94.9063 201.016 94.7983 200.713 94.602 200.469C94.4056 200.226 94.1325 200.056 93.8272 199.988L67.4686 190.149C67.2357 190.102 66.9949 190.115 66.768 190.185Z" fill="white"/>
<path d="M55.8538 225.845C56.0196 225.924 56.1997 225.969 56.3834 225.978C56.567 225.986 56.7505 225.957 56.9228 225.893L93.948 212.062C94.2096 211.965 94.4354 211.79 94.5951 211.561C94.7548 211.332 94.841 211.06 94.8419 210.781L94.9084 201.329C94.9093 201.007 94.7934 200.696 94.5822 200.453L56.3792 214.562L55.8538 225.845Z" fill="#DAD2FF"/>
<path opacity="0.5" d="M55.8538 225.845C56.0196 225.924 56.1997 225.969 56.3834 225.978C56.567 225.986 56.7505 225.957 56.9228 225.893L93.948 212.062C94.2096 211.965 94.4354 211.79 94.5951 211.561C94.7548 211.332 94.841 211.06 94.8419 210.781L94.9084 201.329C94.9093 201.007 94.7934 200.696 94.5822 200.453L56.3792 214.562L55.8538 225.845Z" fill="white"/>
<path d="M30.4857 202.814V212.889C30.4911 213.143 30.5667 213.39 30.7043 213.603C30.8419 213.817 31.0359 213.988 31.2649 214.097L55.896 225.851C56.0604 225.93 56.2391 225.975 56.4215 225.984V214.562L30.528 202.579C30.5046 202.655 30.4904 202.734 30.4857 202.814Z" fill="#DAD2FF"/>
<path d="M66.768 190.185L31.434 201.54C31.1579 201.629 30.9171 201.803 30.7466 202.037C30.5761 202.272 30.4847 202.555 30.4857 202.845V212.919C30.4911 213.173 30.5667 213.42 30.7043 213.634C30.8419 213.847 31.0359 214.018 31.2649 214.127L55.896 225.851C56.0619 225.93 56.242 225.976 56.4256 225.984C56.6093 225.992 56.7927 225.963 56.9651 225.899L93.948 212.062C94.2096 211.965 94.4353 211.79 94.5951 211.561C94.7548 211.332 94.8409 211.06 94.8419 210.781L94.9084 201.329C94.9063 201.016 94.7983 200.713 94.602 200.469C94.4056 200.226 94.1325 200.056 93.8272 199.988L67.4686 190.149C67.2357 190.102 66.9949 190.115 66.768 190.185V190.185Z" stroke="#0D3F67" stroke-width="1.193" stroke-linecap="round" stroke-linejoin="round"/>
<path d="M115.299 171.654C115.299 171.654 119.95 173.877 122.384 178.334C124.818 182.792 122.988 191.284 121.569 193.918C120.15 196.551 110.643 197.765 107.405 197.765C104.168 197.765 103.558 197.36 103.558 197.36C103.558 197.36 93.2353 199.384 86.7544 200.598C80.2735 201.812 81.9224 186.633 83.9216 179.748C85.9209 172.862 97.2821 169.425 101.939 169.425C106.596 169.425 115.299 171.654 115.299 171.654Z" fill="#092C48" stroke="#092C48" stroke-width="1.193" stroke-linecap="round" stroke-linejoin="round"/>
<path d="M103.558 197.36C103.558 197.36 112.261 194.34 115.903 186.633" stroke="#0D3F67" stroke-width="1.193" stroke-linecap="round" stroke-linejoin="round"/>
<path d="M111.857 192.903C114.661 191.727 117.207 190.009 119.346 187.847" stroke="#0D3F67" stroke-width="1.193" stroke-linecap="round" stroke-linejoin="round"/>
<path d="M91.4112 178.334C91.4112 178.334 93.8272 191.085 92.6192 196.346C91.4112 201.607 84.3202 202.422 82.7015 201.812C81.0828 201.202 81.8922 188.657 81.8922 182.381C81.8922 176.106 88.1738 176.51 91.4112 178.334Z" fill="#B6C5D1" stroke="#0D3F67" stroke-width="1.193" stroke-linecap="round" stroke-linejoin="round"/>
<path d="M39.7933 144.323C39.7933 144.323 38.38 152.616 39.3887 156.675C39.9025 158.935 40.8659 161.07 42.2214 162.95C42.2214 162.95 37.1599 170.44 38.1746 176.71C39.1893 182.979 41.7986 183.794 41.7986 183.794C41.7986 183.794 39.5759 195.337 43.6106 199.384C47.6453 203.43 56.5664 207.882 66.4841 206.064C76.4018 204.246 83.082 203.835 85.1054 200.392C87.1288 196.95 85.9148 181.771 85.9148 181.771C85.9148 181.771 85.5101 164.974 85.1054 154.645C84.7007 144.317 83.2934 136.024 78.4252 131.977C73.5569 127.93 52.1089 134.206 45.634 138.452C39.1591 142.698 39.7933 144.323 39.7933 144.323Z" fill="#DAD2FF"/>
<path opacity="0.3" d="M41.2369 144.323C41.2369 144.323 39.8175 152.622 40.8323 156.675C41.3431 158.936 42.3068 161.071 43.665 162.95C43.665 162.95 38.6035 170.44 39.6182 176.71C40.6329 182.979 43.2422 183.794 43.2422 183.794C43.2422 183.794 41.0135 195.337 45.0542 199.384C49.095 203.43 58.0342 207.882 67.976 206.064C77.9179 204.246 84.58 203.835 86.6034 200.392C88.6268 196.95 87.4127 181.771 87.4127 181.771C87.4127 181.771 87.0081 164.974 86.6034 154.645C86.1987 144.317 84.7914 136.024 79.9231 131.977C75.0549 127.93 53.6069 134.206 47.132 138.452C40.6571 142.698 41.2369 144.323 41.2369 144.323Z" fill="#072034"/>
<path d="M39.7933 144.323C39.7933 144.323 38.38 152.616 39.3887 156.675C39.9025 158.935 40.8659 161.07 42.2214 162.95C42.2214 162.95 37.1599 170.44 38.1746 176.71C39.1893 182.979 41.7986 183.794 41.7986 183.794C41.7986 183.794 39.5759 195.337 43.6106 199.384C47.6453 203.43 56.5664 207.882 66.4841 206.064C76.4018 204.246 83.082 203.835 85.1054 200.392C87.1288 196.95 85.9148 181.771 85.9148 181.771C85.9148 181.771 85.5101 164.974 85.1054 154.645C84.7007 144.317 83.2934 136.024 78.4252 131.977C73.5569 127.93 52.1089 134.206 45.634 138.452C39.1591 142.698 39.7933 144.323 39.7933 144.323Z" stroke="#0D3F67" stroke-width="1.193" stroke-linecap="round" stroke-linejoin="round"/>
<path d="M42.2214 162.95C45.3552 165.088 48.9404 166.473 52.6975 166.997C56.4546 167.521 60.2819 167.169 63.8809 165.97" stroke="#0D3F67" stroke-width="1.193" stroke-linecap="round" stroke-linejoin="round"/>
<path d="M41.8168 183.794C41.8168 183.794 52.1391 193.918 69.1478 184.199" stroke="#0D3F67" stroke-width="1.193" stroke-linecap="round" stroke-linejoin="round"/>
<path d="M82.0975 134.405C82.0975 134.405 78.2561 128.534 72.9892 125.297C67.7223 122.06 54.1685 119.632 48.7023 118.617C43.2361 117.602 37.3653 118.013 35.7465 124.053C34.1278 130.093 34.3271 140.246 35.9459 144.698C37.5646 149.149 44.2448 151.782 49.5117 148.75C54.7786 145.718 69.3471 133.97 74.4086 133.366C79.4701 132.762 81.6928 136.634 82.0975 134.405Z" fill="#B6C5D1"/>
<path opacity="0.3" d="M70.8691 133.288C73.9556 132.002 66.2365 134.315 65.7231 133.542C65.2097 132.769 71.1228 128.915 72.4093 128.402C73.6958 127.888 64.9499 129.688 65.2096 128.402C65.4694 127.115 73.6959 126.855 68.0364 125.569C62.3769 124.282 43.8764 120.936 40.2524 119.65C39.9752 119.56 39.7127 119.429 39.4732 119.263C38.5361 119.747 37.7166 120.43 37.0726 121.265C36.4287 122.1 35.976 123.066 35.7465 124.095C34.1278 130.165 34.3271 140.288 35.9459 144.74C37.3592 148.618 42.5899 151.112 47.4219 149.693C49.6506 147.881 51.7102 145.501 55.1953 143.308C62.1232 138.923 67.7827 134.55 70.8691 133.288Z" fill="#072034"/>
<path d="M82.0975 134.405C82.0975 134.405 78.2561 128.534 72.9892 125.297C67.7223 122.06 54.1685 119.632 48.7023 118.617C43.2361 117.602 37.3653 118.013 35.7465 124.053C34.1278 130.093 34.3271 140.246 35.9459 144.698C37.5646 149.149 44.2448 151.782 49.5117 148.75C54.7786 145.718 69.3471 133.97 74.4086 133.366C79.4701 132.762 81.6928 136.634 82.0975 134.405Z" stroke="#0D3F67" stroke-width="1.193" stroke-linecap="round" stroke-linejoin="round"/>
<path d="M103.962 161.936C103.962 161.936 108.619 162.54 111.651 163.748C114.683 164.956 116.713 172.451 115.499 173.46C114.285 174.469 111.875 173.261 111.875 173.261C109.971 173.931 108.004 174.404 106.004 174.674C103.558 174.892 100.924 163.355 103.962 161.936Z" fill="#DAD2FF" stroke="#0D3F67" stroke-width="1.193" stroke-linecap="round" stroke-linejoin="round"/>
<path d="M88.5784 161.326C88.5784 161.326 89.3878 161.326 93.8393 159.302C98.2908 157.279 101.939 157.279 104.772 161.718C107.604 166.158 108.818 171.642 107.188 174.879C105.557 178.117 99.4988 180.346 96.2553 180.346C93.0118 180.346 92.6313 176.118 92.6313 176.118C92.6313 176.118 92.2266 169.437 90.2153 167.009C88.204 164.581 87.7691 161.936 88.5784 161.326Z" fill="#B6C5D1" stroke="#0D3F67" stroke-width="1.193" stroke-linecap="round" stroke-linejoin="round"/>
<path d="M73.5992 134.405C78.0507 132.787 83.7223 133.801 85.7457 139.467C87.7691 145.132 89.5871 161.73 89.5871 161.73C89.5871 161.73 94.6486 162.334 96.672 164.569C98.6954 166.804 99.692 172.463 99.3055 175.296C98.9189 178.129 91.8159 183.39 83.7223 183.595C75.6287 183.8 69.7518 179.971 66.919 169.625C64.0862 159.278 65.2097 143.556 65.2097 143.556C65.2097 143.556 66.2365 138.923 67.7827 137.89" fill="#DAD2FF"/>
<path opacity="0.3" d="M99.3054 175.296C99.7101 172.463 98.7014 166.792 96.672 164.569C96.5935 164.479 96.4968 164.394 96.4123 164.309C96.6549 166.129 96.8 167.959 96.8472 169.794C97.2518 181.674 80.6479 179.687 77.3017 171.08C75.4897 166.448 74.9824 146.123 69.5826 144.583C66.466 143.695 65.4029 146.135 65.0647 148.364C64.956 154.192 65.1493 163.174 66.919 169.625C69.7517 179.953 75.6226 183.795 83.7223 183.595C91.8219 183.396 98.9008 178.129 99.3054 175.296Z" fill="#072034"/>
<path d="M73.5992 134.405C78.0507 132.787 83.7223 133.801 85.7457 139.467C87.7691 145.132 89.5871 161.73 89.5871 161.73C89.5871 161.73 94.6486 162.334 96.672 164.569C98.6954 166.804 99.692 172.463 99.3055 175.296C98.9189 178.129 91.8159 183.39 83.7223 183.595C75.6287 183.8 69.7518 179.971 66.919 169.625C64.0862 159.278 65.2097 143.556 65.2097 143.556C65.2097 143.556 66.2365 138.923 67.7827 137.89" stroke="#0D3F67" stroke-width="1.193" stroke-linecap="round" stroke-linejoin="round"/>
<path d="M89.5871 161.73C89.5871 161.73 91.1696 169.105 83.0398 173.152" stroke="#0D3F67" stroke-width="1.193" stroke-linecap="round" stroke-linejoin="round"/>
</g>
<defs>
<clipPath id="clip0_96_2017">
<rect width="264" height="242" fill="white"/>
</clipPath>
</defs>
</svg>
