<svg width="50" height="50" viewBox="0 0 50 50" fill="none" xmlns="http://www.w3.org/2000/svg">
<g clip-path="url(#clip0_154_4764)">
<path d="M0.478081 31.6659C2.18199 48.5479 29.0344 47.9884 41.5722 44.9731C49.6259 43.0361 50.1265 39.1652 49.981 30.9105C49.8873 25.5896 50.3172 11.5037 46.8556 7.07031C41.5384 0.26045 36.7748 4.53145 30.19 6.7544C21.7439 9.60567 18.4528 4.51494 10.4169 4.66651C-1.3644 4.88897 -0.401314 22.9528 0.478081 31.6659Z" fill="url(#paint0_linear_154_4764)"/>
<g opacity="0.1">
<path opacity="0.1" d="M40.7112 25.8343C37.4192 23.5141 30.518 16.9492 23.8112 16.9492C21.9492 16.9492 20.0724 17.4556 18.2619 18.236C18.4817 17.5682 18.6022 16.8553 18.6022 16.1138C18.6022 12.3657 15.5638 9.32726 11.8157 9.32726C8.06755 9.32726 5.02917 12.3656 5.02917 16.1138C5.02917 19.5266 7.54861 22.3501 10.8289 22.828C9.25828 24.0207 7.9156 25.1256 6.91013 25.8343C6.35535 26.2253 6.35535 27.0443 6.91013 27.4354C10.2021 29.7556 17.1033 36.3204 23.8101 36.3204C24.6445 36.3204 25.4819 36.2187 26.315 36.0363V41.6493C26.315 42.1887 26.7522 42.6259 27.2916 42.6259H38.3716C38.9109 42.6259 39.3481 42.1887 39.3481 41.6493V35.4159C39.3481 34.8766 38.9109 34.4394 38.3716 34.4394H30.6274C34.8275 32.3161 38.5483 28.9598 40.7111 27.4354C41.266 27.0443 41.266 26.2253 40.7112 25.8343Z" fill="#2626BC"/>
<path opacity="0.1" d="M24.0158 38.5474H22.201C21.9314 38.5474 21.7128 38.7659 21.7128 39.0357C21.7128 39.3054 21.9314 39.5239 22.201 39.5239H24.0158C24.2854 39.5239 24.5041 39.3054 24.5041 39.0357C24.5041 38.7659 24.2854 38.5474 24.0158 38.5474Z" fill="#2626BC"/>
<path opacity="0.1" d="M24.0158 40.3424H18.2948C18.0252 40.3424 17.8065 40.561 17.8065 40.8307C17.8065 41.1004 18.0252 41.319 18.2948 41.319H24.0158C24.2854 41.319 24.5041 41.1004 24.5041 40.8307C24.5041 40.561 24.2854 40.3424 24.0158 40.3424Z" fill="#2626BC"/>
<path opacity="0.1" d="M24.0158 42.1375H18.2948C18.0252 42.1375 17.8065 42.3561 17.8065 42.6258C17.8065 42.8955 18.0252 43.1141 18.2948 43.1141H24.0158C24.2854 43.1141 24.5041 42.8955 24.5041 42.6258C24.5041 42.3561 24.2854 42.1375 24.0158 42.1375Z" fill="#2626BC"/>
</g>
<path d="M11.8158 20.4589C15.5639 20.4589 18.6023 17.4205 18.6023 13.6724C18.6023 9.92428 15.5639 6.88585 11.8158 6.88585C8.06773 6.88585 5.0293 9.92428 5.0293 13.6724C5.0293 17.4205 8.06773 20.4589 11.8158 20.4589Z" fill="#FF4D4D"/>
<path d="M14.9737 12.2426H13.2457V10.5146C13.2457 9.9752 12.8085 9.53799 12.2691 9.53799H11.3627C10.8233 9.53799 10.3861 9.9752 10.3861 10.5146V12.2426H8.6579C8.11854 12.2426 7.68134 12.6798 7.68134 13.2191V14.1256C7.68134 14.6649 8.11854 15.1022 8.6579 15.1022H10.3859V16.8302C10.3859 17.3695 10.8231 17.8067 11.3625 17.8067H12.2689C12.8083 17.8067 13.2455 17.3695 13.2455 16.8302V15.1022H14.9735C15.5129 15.1022 15.9501 14.6649 15.9501 14.1256V13.2191C15.9503 12.6799 15.513 12.2426 14.9737 12.2426Z" fill="white"/>
<path d="M23.8112 14.5078C17.1036 14.5078 10.2022 21.0727 6.91023 23.3929C6.35544 23.7839 6.35544 24.6028 6.91023 24.9939C10.2022 27.3142 17.1034 33.879 23.8102 33.879C30.5178 33.879 37.4192 27.3142 40.7112 24.9939C41.266 24.6029 41.266 23.784 40.7112 23.3929C37.4192 21.0727 30.518 14.5078 23.8112 14.5078Z" fill="white"/>
<path d="M23.8107 31.4782C27.8341 31.4782 31.0956 28.2167 31.0956 24.1934C31.0956 20.17 27.8341 16.9085 23.8107 16.9085C19.7874 16.9085 16.5259 20.17 16.5259 24.1934C16.5259 28.2167 19.7874 31.4782 23.8107 31.4782Z" fill="#4D4DFF"/>
<path d="M23.8108 28.4549C26.1644 28.4549 28.0723 26.5469 28.0723 24.1934C28.0723 21.8398 26.1644 19.9318 23.8108 19.9318C21.4572 19.9318 19.5493 21.8398 19.5493 24.1934C19.5493 26.5469 21.4572 28.4549 23.8108 28.4549Z" fill="#2C27FF"/>
<path d="M26.4428 23.4402C27.4805 23.4402 28.3217 22.599 28.3217 21.5613C28.3217 20.5236 27.4805 19.6824 26.4428 19.6824C25.4051 19.6824 24.5639 20.5236 24.5639 21.5613C24.5639 22.599 25.4051 23.4402 26.4428 23.4402Z" fill="#6C6CFF"/>
<path d="M27.8124 23.3236C28.3698 23.3236 28.8216 22.8718 28.8216 22.3144C28.8216 21.7571 28.3698 21.3053 27.8124 21.3053C27.255 21.3053 26.8032 21.7571 26.8032 22.3144C26.8032 22.8718 27.255 23.3236 27.8124 23.3236Z" fill="#9494FF"/>
<path d="M38.3718 40.1844H27.2917C26.7524 40.1844 26.3152 39.7472 26.3152 39.2078V32.9744C26.3152 32.4351 26.7524 31.9979 27.2917 31.9979H38.3717C38.9111 31.9979 39.3483 32.4351 39.3483 32.9744V39.2078C39.3484 39.7472 38.9111 40.1844 38.3718 40.1844Z" fill="#FF9D33"/>
<path d="M36.4991 34.6317H34.6844C34.4147 34.6317 34.1961 34.4131 34.1961 34.1435C34.1961 33.8738 34.4147 33.6552 34.6844 33.6552H36.4991C36.7689 33.6552 36.9874 33.8738 36.9874 34.1435C36.9874 34.4131 36.7688 34.6317 36.4991 34.6317Z" fill="white"/>
<path d="M36.4991 36.4268H30.7781C30.5084 36.4268 30.2899 36.2081 30.2899 35.9385C30.2899 35.6689 30.5084 35.4502 30.7781 35.4502H36.4991C36.7689 35.4502 36.9874 35.6689 36.9874 35.9385C36.9874 36.2081 36.7688 36.4268 36.4991 36.4268Z" fill="white"/>
<path d="M36.4991 38.2219H30.7781C30.5084 38.2219 30.2899 38.0032 30.2899 37.7336C30.2899 37.464 30.5084 37.2453 30.7781 37.2453H36.4991C36.7689 37.2453 36.9874 37.464 36.9874 37.7336C36.9874 38.0032 36.7688 38.2219 36.4991 38.2219Z" fill="white"/>
<path d="M40.9926 22.9938C40.4061 22.5805 39.7035 22.0304 38.89 21.3935C35.1394 18.4571 29.4714 14.0195 23.8113 14.0195C22.1838 14.0195 20.5557 14.3868 18.9727 14.9794C19.0506 14.55 19.0907 14.113 19.0907 13.6725C19.0907 9.66114 15.8273 6.39766 11.8159 6.39766C7.80449 6.39766 4.54102 9.66114 4.54102 13.6725C4.54102 16.1651 5.7958 18.4568 7.89756 19.8027C7.9791 19.8549 8.07031 19.8799 8.16035 19.8799C8.32129 19.8799 8.47881 19.8004 8.57197 19.6548C8.71738 19.4277 8.65127 19.1257 8.42412 18.9803C6.6041 17.8148 5.51758 15.8306 5.51758 13.6724C5.51758 10.1994 8.34297 7.37412 11.8158 7.37412C15.2887 7.37412 18.1141 10.1995 18.1141 13.6724C18.1141 14.2719 18.0291 14.8634 17.8637 15.4328C14.3663 16.9824 11.15 19.4999 8.73125 21.3936C7.91777 22.0304 7.21533 22.5804 6.629 22.9937C6.23887 23.2686 6.00596 23.7171 6.00596 24.1933C6.00596 24.6694 6.23887 25.118 6.629 25.3929C7.21533 25.8062 7.91787 26.3562 8.73125 26.9931C12.4819 29.9295 18.1501 34.3672 23.8103 34.3672C24.4834 34.3672 25.1567 34.3036 25.8269 34.1879V39.2077C25.8269 40.0154 26.484 40.6726 27.2917 40.6726H32.5009C32.7706 40.6726 32.9892 40.454 32.9892 40.1843C32.9892 39.9146 32.7706 39.696 32.5009 39.696H27.2917C27.0225 39.696 26.8034 39.477 26.8034 39.2077V32.9743C26.8034 32.7051 27.0225 32.486 27.2917 32.486H38.3718C38.641 32.486 38.8601 32.7051 38.8601 32.9743V39.2077C38.8601 39.477 38.641 39.696 38.3718 39.696H35.3427C35.0729 39.696 34.8544 39.9146 34.8544 40.1843C34.8544 40.454 35.0729 40.6726 35.3427 40.6726H38.3718C39.1795 40.6726 39.8366 40.0154 39.8366 39.2077V32.9743C39.8366 32.1666 39.1795 31.5095 38.3718 31.5095H32.532C34.9414 30.083 37.1278 28.3729 38.8902 26.9931C39.7036 26.3563 40.4062 25.8063 40.9925 25.3929C41.3827 25.118 41.6157 24.6694 41.6157 24.1933C41.6157 23.7171 41.3827 23.2687 40.9926 22.9938ZM40.4299 24.5948C39.8234 25.0223 39.112 25.5793 38.2881 26.2243C36.1852 27.8707 33.4612 30.0004 30.511 31.5097H27.2917C26.484 31.5097 25.8269 32.1668 25.8269 32.9745V33.1965C25.1545 33.3218 24.4809 33.3908 23.8103 33.3908C18.4869 33.3908 12.9784 29.0781 9.3333 26.2243C8.50947 25.5794 7.79805 25.0223 7.1916 24.5948C7.05869 24.5012 6.98252 24.3549 6.98252 24.1935C6.98252 24.032 7.05869 23.8857 7.1916 23.7921C7.79805 23.3647 8.50947 22.8077 9.3333 22.1627C12.9785 19.3089 18.4872 14.9962 23.8113 14.9962C29.1346 14.9962 34.643 19.3088 38.2881 22.1625C39.112 22.8075 39.8235 23.3647 40.4301 23.7921C40.5629 23.8857 40.6393 24.032 40.6393 24.1935C40.6393 24.3549 40.5628 24.5012 40.4299 24.5948Z" fill="#0000CC"/>
<path d="M24.0157 36.106H22.201C21.9314 36.106 21.7128 36.3245 21.7128 36.5943C21.7128 36.864 21.9314 37.0825 22.201 37.0825H24.0158C24.2854 37.0825 24.5041 36.864 24.5041 36.5943C24.5041 36.3245 24.2854 36.106 24.0157 36.106Z" fill="#0000CC"/>
<path d="M24.0157 37.901H18.2948C18.0252 37.901 17.8065 38.1195 17.8065 38.3893C17.8065 38.659 18.0252 38.8775 18.2948 38.8775H24.0158C24.2854 38.8775 24.5041 38.659 24.5041 38.3893C24.5041 38.1195 24.2854 37.901 24.0157 37.901Z" fill="#0000CC"/>
<path d="M24.0157 39.6961H18.2948C18.0252 39.6961 17.8065 39.9147 17.8065 40.1844C17.8065 40.4541 18.0252 40.6727 18.2948 40.6727H24.0158C24.2854 40.6727 24.5041 40.4541 24.5041 40.1844C24.5041 39.9147 24.2854 39.6961 24.0157 39.6961Z" fill="#0000CC"/>
<path d="M9.54058 35.2502C9.27095 35.2502 9.05229 35.0317 9.05229 34.7619C9.05229 34.4209 8.77485 34.1435 8.43384 34.1435C8.16421 34.1435 7.94556 33.9249 7.94556 33.6552C7.94556 33.3855 8.16421 33.1669 8.43384 33.1669C8.77485 33.1669 9.05229 32.8894 9.05229 32.5484C9.05229 32.2786 9.27095 32.0601 9.54058 32.0601C9.81021 32.0601 10.0289 32.2786 10.0289 32.5484C10.0289 32.8894 10.3063 33.1669 10.6473 33.1669C10.9169 33.1669 11.1356 33.3855 11.1356 33.6552C11.1356 33.9249 10.9169 34.1435 10.6473 34.1435C10.3063 34.1435 10.0289 34.4209 10.0289 34.7619C10.0289 35.0317 9.81021 35.2502 9.54058 35.2502Z" fill="#FF4D4D"/>
<path d="M43.8637 31.7091C43.594 31.7091 43.3754 31.4905 43.3754 31.2208C43.3754 30.8798 43.098 30.6024 42.757 30.6024C42.4872 30.6024 42.2687 30.3838 42.2687 30.1141C42.2687 29.8444 42.4872 29.6258 42.757 29.6258C43.098 29.6258 43.3754 29.3484 43.3754 29.0073C43.3754 28.7376 43.594 28.5191 43.8637 28.5191C44.1334 28.5191 44.352 28.7376 44.352 29.0073C44.352 29.3484 44.6295 29.6258 44.9705 29.6258C45.2403 29.6258 45.4588 29.8444 45.4588 30.1141C45.4588 30.3838 45.2403 30.6024 44.9705 30.6024C44.6295 30.6024 44.352 30.8798 44.352 31.2208C44.352 31.4905 44.1334 31.7091 43.8637 31.7091Z" fill="#FF4D4D"/>
<path d="M29.4285 13.0135C29.1588 13.0135 28.9402 12.7949 28.9402 12.5252C28.9402 12.1842 28.6628 11.9067 28.3218 11.9067C28.0521 11.9067 27.8335 11.6882 27.8335 11.4185C27.8335 11.1487 28.0521 10.9302 28.3218 10.9302C28.6628 10.9302 28.9402 10.6526 28.9402 10.3116C28.9402 10.0419 29.1588 9.82335 29.4285 9.82335C29.6982 9.82335 29.9168 10.0419 29.9168 10.3116C29.9168 10.6526 30.1943 10.9302 30.5354 10.9302C30.8051 10.9302 31.0236 11.1487 31.0236 11.4185C31.0236 11.6882 30.8051 11.9067 30.5354 11.9067C30.1943 11.9067 29.9168 12.1842 29.9168 12.5252C29.9168 12.7949 29.6981 13.0135 29.4285 13.0135Z" fill="#6C6CFF"/>
<path d="M11.8159 36.7433C11.5462 36.7433 11.3276 36.5247 11.3276 36.255V36.2403C11.3276 35.9706 11.5462 35.7521 11.8159 35.7521C12.0855 35.7521 12.3041 35.9706 12.3041 36.2403V36.255C12.3041 36.5247 12.0855 36.7433 11.8159 36.7433Z" fill="#FF9D33"/>
<path d="M11.8159 39.4566C11.5462 39.4566 11.3276 39.238 11.3276 38.9683V38.9536C11.3276 38.6839 11.5462 38.4653 11.8159 38.4653C12.0855 38.4653 12.3041 38.6839 12.3041 38.9536V38.9683C12.3041 39.238 12.0855 39.4566 11.8159 39.4566Z" fill="#FF9D33"/>
<path d="M10.6469 37.418C10.565 37.418 10.4821 37.3974 10.4058 37.354L10.3931 37.3468C10.1588 37.2134 10.0769 36.9151 10.2103 36.6809C10.3438 36.4465 10.6421 36.365 10.8762 36.4981L10.8889 36.5053C11.1233 36.6387 11.2051 36.9369 11.0717 37.1712C10.9817 37.3293 10.8167 37.418 10.6469 37.418Z" fill="#FF9D33"/>
<path d="M12.9967 38.7747C12.9137 38.7747 12.8296 38.7535 12.7525 38.7089L12.7398 38.7016C12.5064 38.5664 12.4268 38.2678 12.5619 38.0344C12.697 37.8009 12.9955 37.7211 13.2292 37.8564L13.2419 37.8638C13.4753 37.9989 13.555 38.2976 13.4198 38.531C13.3292 38.6873 13.1652 38.7747 12.9967 38.7747Z" fill="#FF9D33"/>
<path d="M10.6351 38.7747C10.4662 38.7747 10.3021 38.6871 10.2116 38.5303C10.0769 38.2967 10.1571 37.9981 10.3907 37.8634L10.4033 37.8561C10.6368 37.7212 10.9355 37.8015 11.0702 38.0351C11.205 38.2686 11.1248 38.5672 10.8912 38.7019L10.8785 38.7093C10.8017 38.7536 10.7178 38.7747 10.6351 38.7747Z" fill="#FF9D33"/>
<path d="M12.9848 37.418C12.8153 37.418 12.6505 37.3296 12.5604 37.1718C12.4266 36.9377 12.5079 36.6395 12.7421 36.5057L12.7548 36.4984C12.9888 36.3647 13.2872 36.4459 13.421 36.6801C13.5548 36.9142 13.4735 37.2124 13.2393 37.3462L13.2266 37.3534C13.1502 37.3972 13.067 37.418 12.9848 37.418Z" fill="#FF9D33"/>
<path d="M24.0157 8.67695C23.7461 8.67695 23.5274 8.45839 23.5274 8.18867V8.17412C23.5274 7.90439 23.7461 7.68584 24.0157 7.68584C24.2853 7.68584 24.504 7.90439 24.504 8.17412V8.18867C24.504 8.4583 24.2854 8.67695 24.0157 8.67695Z" fill="#FF4D4D"/>
<path d="M24.0157 11.3902C23.7461 11.3902 23.5274 11.1717 23.5274 10.902V10.8874C23.5274 10.6177 23.7461 10.3991 24.0157 10.3991C24.2853 10.3991 24.504 10.6177 24.504 10.8874V10.902C24.504 11.1716 24.2854 11.3902 24.0157 11.3902Z" fill="#FF4D4D"/>
<path d="M22.8468 9.35175C22.7638 9.35175 22.6797 9.33056 22.6026 9.28593L22.5899 9.27861C22.3565 9.14345 22.2768 8.84482 22.412 8.61142C22.5471 8.37793 22.8457 8.29824 23.0793 8.43349L23.092 8.44082C23.3254 8.57597 23.4051 8.8746 23.2699 9.108C23.1793 9.26435 23.0153 9.35175 22.8468 9.35175Z" fill="#FF4D4D"/>
<path d="M25.1966 10.7083C25.1135 10.7083 25.0295 10.6871 24.9524 10.6425L24.9397 10.6352C24.7063 10.5 24.6266 10.2014 24.7618 9.96796C24.897 9.73446 25.1958 9.65487 25.429 9.79003L25.4417 9.79736C25.6751 9.93251 25.7548 10.2311 25.6196 10.4645C25.5291 10.621 25.365 10.7083 25.1966 10.7083Z" fill="#FF4D4D"/>
<path d="M22.8351 10.7083C22.6665 10.7083 22.5025 10.6209 22.412 10.4645C22.2768 10.2311 22.3565 9.93252 22.5899 9.79736L22.6026 9.79004C22.8362 9.65468 23.1348 9.73457 23.2699 9.96797C23.4051 10.2014 23.3254 10.5 23.092 10.6352L23.0793 10.6425C23.0021 10.6872 22.9181 10.7083 22.8351 10.7083Z" fill="#FF4D4D"/>
<path d="M25.1848 9.35176C25.0163 9.35176 24.8523 9.26435 24.7618 9.10801C24.6266 8.87461 24.7063 8.57598 24.9397 8.44082L24.9524 8.43349C25.1861 8.29824 25.4846 8.37812 25.6197 8.61142C25.7549 8.84482 25.6751 9.14346 25.4418 9.27861L25.4291 9.28594C25.3519 9.33057 25.2678 9.35176 25.1848 9.35176Z" fill="#FF4D4D"/>
</g>
<defs>
<linearGradient id="paint0_linear_154_4764" x1="9.42613" y1="44.3066" x2="43.4262" y2="3.78673" gradientUnits="userSpaceOnUse">
<stop stop-color="#FFF3EE" stop-opacity="0"/>
<stop offset="0.2938" stop-color="#FFEADE" stop-opacity="0.373"/>
<stop offset="0.7874" stop-color="#FFD6BB"/>
</linearGradient>
<clipPath id="clip0_154_4764">
<rect width="50" height="50" fill="white"/>
</clipPath>
</defs>
</svg>
