<svg width="260" height="231" viewBox="0 0 260 231" fill="none" xmlns="http://www.w3.org/2000/svg">
<g clip-path="url(#clip0_121_2514)">
<path d="M195.532 11.7366C195.532 11.7366 157.981 -9.46178 114.989 6.46668C71.9965 22.3951 44.6768 64.0608 21.6588 97.2747C-1.35905 130.489 2.27085 168.874 29.3864 190.817C56.5019 212.759 80.9823 191.594 123.158 197.667C165.333 203.741 175.617 211.738 214.432 193.946C253.248 176.153 268.946 120.99 248.432 74.548C227.917 28.1065 195.532 11.7366 195.532 11.7366Z" fill="#1EE0CC"/>
<path opacity="0.7" d="M195.532 11.7366C195.532 11.7366 157.981 -9.46178 114.989 6.46668C71.9965 22.3951 44.6768 64.0608 21.6588 97.2747C-1.35905 130.489 2.27085 168.874 29.3864 190.817C56.5019 212.759 80.9823 191.594 123.158 197.667C165.333 203.741 175.617 211.738 214.432 193.946C253.248 176.153 268.946 120.99 248.432 74.548C227.917 28.1065 195.532 11.7366 195.532 11.7366Z" fill="#1EE0CC"/>
<path d="M11.8623 205.5H259.216" stroke="#092C48" stroke-linecap="round" stroke-linejoin="round"/>
<path d="M40.3746 169.829C38.7059 171.754 37.5822 174.089 37.1202 176.594L30.5851 180.277V162.945L30.7432 163.149L41.152 155.534C42.4695 155.738 47.5158 156.311 52.1207 153.835C57.4634 150.956 61.3437 141.094 61.3437 141.094C61.3437 141.094 48.6028 139.658 44.2878 145.001C41.9261 147.774 40.667 151.319 40.7501 154.961L30.5851 162.359V149.573C32.4866 148.689 34.1673 147.392 35.5051 145.778C36.8429 144.163 37.8042 142.271 38.3192 140.238C40.1704 133.045 30.3018 118.868 30.3018 118.868C30.3018 118.868 20.0314 133.46 22.0868 140.857C23.826 147.122 28.5033 149.105 29.8999 149.566V177.293L22.5677 171.193C22.739 169.73 22.8707 165.158 18.7994 160.58C13.8651 155.034 0.71582 155.442 0.71582 155.442C0.71582 155.442 6.26278 166.542 10.9797 170.237C15.1102 173.472 20.8087 172.154 22.179 171.766L29.8868 178.188V186.62H18.4437L23.1145 215.849H37.1334L41.8107 186.64H30.6114V181.067L37.7856 177.042C39.5314 177.523 44.4129 178.524 49.031 176.219C54.7822 173.34 59.5123 167.174 59.5123 167.174C59.5123 167.174 45.7173 163.663 40.3746 169.829Z" fill="#6B48FF"/>
<path opacity="0.5" d="M40.3746 169.829C38.7059 171.754 37.5822 174.089 37.1202 176.594L30.5851 180.277V162.945L30.7432 163.149L41.152 155.534C42.4695 155.738 47.5158 156.311 52.1207 153.835C57.4634 150.956 61.3437 141.094 61.3437 141.094C61.3437 141.094 48.6028 139.658 44.2878 145.001C41.9261 147.774 40.667 151.319 40.7501 154.961L30.5851 162.359V149.573C32.4866 148.689 34.1673 147.392 35.5051 145.778C36.8429 144.163 37.8042 142.271 38.3192 140.238C40.1704 133.045 30.3018 118.868 30.3018 118.868C30.3018 118.868 20.0314 133.46 22.0868 140.857C23.826 147.122 28.5033 149.105 29.8999 149.566V177.293L22.5677 171.193C22.739 169.73 22.8707 165.158 18.7994 160.58C13.8651 155.034 0.71582 155.442 0.71582 155.442C0.71582 155.442 6.26278 166.542 10.9797 170.237C15.1102 173.472 20.8087 172.154 22.179 171.766L29.8868 178.188V186.62H18.4437L23.1145 215.849H37.1334L41.8107 186.64H30.6114V181.067L37.7856 177.042C39.5314 177.523 44.4129 178.524 49.031 176.219C54.7822 173.34 59.5123 167.174 59.5123 167.174C59.5123 167.174 45.7173 163.663 40.3746 169.829Z" fill="white"/>
<path d="M196.427 230.763C209.045 230.763 219.274 229.754 219.274 228.51C219.274 227.266 209.045 226.257 196.427 226.257C183.809 226.257 173.581 227.266 173.581 228.51C173.581 229.754 183.809 230.763 196.427 230.763Z" fill="#092C48"/>
<path d="M196.098 56.8738C196.098 56.8738 200.116 56.8738 201.026 59.7854C201.935 62.6971 199.392 66.5507 196.098 67.4203C192.804 68.2898 189.892 65.2859 190.083 62.3875C190.274 59.489 194.266 56.7947 196.098 56.8738Z" fill="#092C48" stroke="#092C48" stroke-linecap="round" stroke-linejoin="round"/>
<path d="M219.728 189.624C219.728 189.624 220.907 189.176 221.092 187.378C221.276 185.579 218.977 181.383 218.984 179.117C218.99 176.851 218.826 172.872 218.325 172.141C217.824 171.41 214.873 171.561 213.015 173.07C211.157 174.578 216.052 177.8 217.376 181.449C218.701 185.099 217.864 185.579 218.378 187.22C218.627 188.118 219.091 188.943 219.728 189.624Z" fill="white" stroke="#092C48" stroke-linecap="round" stroke-linejoin="round"/>
<path d="M163.923 146.549C163.923 146.549 165.135 159.249 165.794 160.791C166.453 162.332 171.545 163.301 173.62 164.085C175.695 164.869 197.62 171.845 202.027 174.447C206.434 177.049 212.877 182.576 215.677 185.125C218.477 187.674 218.971 190.678 219.755 189.624C220.539 188.57 219.485 184.493 218.688 182.259C217.89 180.026 216.988 178.913 216.81 177.306C216.632 175.698 216.191 173.393 214.544 172.885C212.897 172.378 210.196 174.368 210.196 174.368C210.196 174.368 208.299 174.065 204.774 170.87C201.25 167.675 194.55 163.261 191.915 161.292C189.279 159.322 181.275 157.827 178.831 157.339C177.393 157.07 175.993 156.628 174.661 156.022L176.183 148.808C176.183 148.808 165.794 147.412 163.923 146.549Z" fill="white" stroke="#092C48" stroke-linecap="round" stroke-linejoin="round"/>
<path d="M216.783 177.306C216.612 175.705 216.164 173.393 214.517 172.885C213.358 172.53 211.691 173.399 210.795 173.953C212.477 175.561 213.925 177.397 215.097 179.407C216.843 182.477 216.856 184.374 216.566 186.06C218.575 188.34 219.036 190.546 219.728 189.624C220.512 188.57 219.458 184.493 218.661 182.259C217.864 180.026 216.961 178.913 216.783 177.306Z" fill="#6B48FF" stroke="#092C48" stroke-linecap="round" stroke-linejoin="round"/>
<path d="M181.071 217.542C181.649 217.953 182.319 218.216 183.022 218.306C183.725 218.397 184.44 218.313 185.103 218.062C187.231 217.147 189.899 213.227 190.801 212.18C191.704 211.132 195.999 208.971 196.526 207.101C197.053 205.23 194.023 202.766 194.023 202.766C193.079 204.535 191.843 206.132 190.367 207.489C187.995 209.63 188.344 210.684 185.604 213.128C182.863 215.572 181.071 217.542 181.071 217.542Z" fill="white" stroke="#092C48" stroke-linecap="round" stroke-linejoin="round"/>
<path d="M182.296 151.872C182.296 151.872 182.171 160.35 182.856 164.48C183.541 168.61 186.15 196.007 185.491 202.028C184.832 208.049 182.784 214.116 181.446 216.382C180.109 218.649 183.383 217.318 185.34 216.224C187.296 215.131 190.267 209.525 190.906 208.669C191.545 207.812 194.075 207.707 194.385 204.604C194.694 201.501 190.9 201.468 191.144 197.246C191.387 193.023 194.918 180.119 193.627 174.611C192.336 169.104 190.834 162.141 191.078 159.763C191.322 157.385 192.297 151.397 192.297 151.397L182.296 151.872Z" fill="white" stroke="#092C48" stroke-linecap="round" stroke-linejoin="round"/>
<path d="M191.967 200.355C190.856 203.217 189.412 205.939 187.665 208.464C185.86 210.882 184.497 210.855 183.772 210.552C183.213 212.577 182.438 214.536 181.46 216.395C180.142 218.661 183.396 217.331 185.353 216.237C187.31 215.144 190.281 209.538 190.92 208.681C191.559 207.825 194.089 207.72 194.398 204.617C194.609 202.549 193.002 201.837 191.967 200.355Z" fill="#6B48FF" stroke="#092C48" stroke-linecap="round" stroke-linejoin="round"/>
<path d="M228.411 127.682C227.752 125.838 227.094 123.387 224.254 121.8C221.415 120.212 220.229 119.369 220.229 119.369C220.229 119.369 212.772 103.862 210.947 100.845C209.122 97.828 207.765 95.8913 207.765 95.8913C207.765 95.8913 202.745 82.196 202.145 79.8772C201.546 77.5584 201.968 75.8193 199.214 74.8246C196.46 73.8299 190.248 73.0855 188.015 72.743C186.269 72.3752 184.573 71.8025 182.962 71.0368C182.962 71.0368 177.929 70.2924 176.203 69.7589C171.985 68.1619 167.852 66.3525 163.817 64.3374C161.459 63.0199 158.547 60.0028 158.547 60.0028C158.547 60.0028 152.045 45.6817 150.497 42.2167C149.219 39.3446 147.993 36.8018 147.598 35.9982C147.271 35.1025 147.001 34.1873 146.788 33.2578C146.735 31.5516 146.933 29.7005 146.788 28.6466C146.643 27.5926 146.452 27.1314 146.3 25.8996C146.149 24.6677 144.983 25.4385 145.167 26.8152L145.049 27.6123L143.586 21.3081C143.586 21.3081 142.657 20.6494 142.512 21.3608L143.211 26.0247L142.947 26.1038L141.926 20.353C141.926 20.353 141.775 19.7535 140.938 19.8523C140.938 19.8523 140.49 19.9841 140.556 21.1698L141.485 26.532L140.951 26.5979L140.101 20.768C140.101 20.768 139.739 20.353 139.442 20.6955C139.196 21.1793 139.129 21.7345 139.251 22.2633C139.324 22.8694 139.831 27.0524 139.831 27.0524L138.988 23.9102C138.988 23.9102 138.191 23.0867 138.329 24.615C138.59 26.5275 139.032 28.4111 139.647 30.2407C140.208 31.6228 141.07 32.8627 142.17 33.8704C143.013 34.4633 143.428 34.7202 143.487 35.0232C143.487 35.0957 143.777 36.0377 144.225 37.4606H144.278C145.154 40.1351 151.966 60.991 153.198 64.2254C154.515 67.6838 170.478 79.9958 170.478 79.9958C170.478 79.9958 167.454 87.5318 168.567 91.8005C169.377 94.6378 170.675 97.3126 172.401 99.7054C172.401 99.7054 169.832 102.769 165.471 114.086C161.11 125.403 162.052 148.9 162.052 148.9C167.4 151.88 173.379 153.546 179.497 153.762C189.563 154.072 193.43 153.393 193.43 153.393C193.43 153.393 197.989 127.254 196.111 117.676C194.985 111.922 193.374 106.274 191.295 100.792L196.322 88.7175C196.322 88.7175 204.827 103.21 208.061 108.796C211.296 114.382 219.261 122.63 219.261 122.63C219.261 122.63 219.399 124.784 220.361 125.831C221.042 126.532 221.821 127.131 222.673 127.61C222.673 127.61 220.987 131.358 222.014 131.562C223.042 131.767 223.819 127.827 223.819 127.827C223.819 127.827 223.062 131.78 223.872 131.991C224.682 132.201 225.545 128.361 225.545 128.361C225.545 128.361 224.702 131.958 225.644 132.05C226.586 132.142 226.995 128.15 226.995 128.15C226.995 128.15 227.607 131.444 228.233 131.128C228.859 130.811 229.037 129.553 228.411 127.682Z" fill="white" stroke="#092C48" stroke-linecap="round" stroke-linejoin="round"/>
<path d="M145.068 27.5728C145.136 27.919 145.088 28.2778 144.932 28.5942C144.776 28.9107 144.521 29.1674 144.205 29.325C143.079 29.9245 143.771 31.3013 144.719 32.4672" stroke="#092C48" stroke-linecap="round" stroke-linejoin="round"/>
<path d="M221.85 123.914C222.279 124.538 222.789 125.103 223.365 125.594C224.028 125.878 224.734 126.054 225.453 126.114C225.453 126.114 226.02 129.54 227.146 129.039C228.273 128.539 226.758 125.331 226.231 124.507C226 124.092 225.666 123.742 225.262 123.493" fill="white"/>
<path d="M221.85 123.914C222.279 124.538 222.789 125.103 223.365 125.594C224.028 125.878 224.734 126.054 225.453 126.114C225.453 126.114 226.02 129.54 227.146 129.039C228.273 128.539 226.758 125.331 226.231 124.507C226 124.092 225.666 123.742 225.262 123.493" stroke="#092C48" stroke-linecap="round" stroke-linejoin="round"/>
<path d="M179.437 153.709C189.504 154.019 193.371 153.34 193.371 153.34C193.371 153.34 197.93 127.201 196.052 117.623C195.933 117.011 195.808 116.405 195.676 115.812C185.595 117.883 175.151 117.35 165.333 114.264C161.071 125.66 161.993 148.848 161.993 148.848C167.34 151.827 173.32 153.494 179.437 153.709Z" fill="#092C48" stroke="#092C48" stroke-linecap="round" stroke-linejoin="round"/>
<path d="M173.739 123.473C173.739 123.473 177.797 130.587 182.369 134.138" stroke="white" stroke-linecap="round" stroke-linejoin="round"/>
<path d="M181.084 137.201C181.585 137.557 182.092 137.893 182.626 138.202" stroke="white" stroke-linecap="round" stroke-linejoin="round"/>
<path d="M174.246 130.073C175.724 132.194 177.449 134.131 179.385 135.844" stroke="white" stroke-linecap="round" stroke-linejoin="round"/>
<path d="M212.179 103.105C211.665 102.116 211.23 101.326 210.947 100.845C209.116 97.8083 207.765 95.8913 207.765 95.8913C207.765 95.8913 202.745 82.196 202.146 79.8772C201.546 77.5585 201.968 75.8194 199.214 74.8247C196.46 73.83 190.248 73.0856 188.015 72.743C186.269 72.3753 184.573 71.8026 182.962 71.0369C182.962 71.0369 177.929 70.2925 176.203 69.7589C171.985 68.162 167.852 66.3525 163.818 64.3374C161.459 63.02 158.547 60.0029 158.547 60.0029C158.547 60.0029 156.755 56.0504 154.832 51.8081C153.029 52.3053 151.267 52.9395 149.562 53.7053C151.162 58.5273 152.625 62.8684 153.132 64.2057C154.45 67.6641 170.412 79.9761 170.412 79.9761C170.412 79.9761 167.388 87.5121 168.502 91.7808C169.312 94.6181 170.609 97.2929 172.336 99.6857C172.336 99.6857 169.766 102.749 165.405 114.066C164.996 115.157 164.646 116.27 164.358 117.399C170.84 120.245 182.145 123.328 196.335 119.777C196.263 119.007 196.17 118.295 196.045 117.656C194.919 111.903 193.308 106.255 191.23 100.773L196.256 88.6978C196.256 88.6978 203.121 100.417 206.863 106.827C208.714 105.703 210.49 104.46 212.179 103.105Z" fill="#6B48FF" stroke="#092C48" stroke-linecap="round" stroke-linejoin="round"/>
<path d="M167.138 70.4243L170.419 79.9761L163.837 67.3743" stroke="#092C48" stroke-linecap="round" stroke-linejoin="round"/>
<path d="M196.263 88.6648L193.542 87.176" stroke="#092C48" stroke-linecap="round" stroke-linejoin="round"/>
<path d="M199.629 76.511C199.629 76.511 196.842 77.0182 195.063 81.3396" stroke="#092C48" stroke-linecap="round" stroke-linejoin="round"/>
<path d="M178.561 96.0625C178.561 96.0625 181.855 100.377 186.941 100.377" stroke="#092C48" stroke-linecap="round" stroke-linejoin="round"/>
<path d="M194.444 73.7179C191.934 73.2766 189.312 72.9406 188.021 72.743C186.275 72.3752 184.579 71.8025 182.968 71.0368C182.968 71.0368 177.935 70.2924 176.209 69.7588C176.031 69.6996 175.761 69.6073 175.445 69.4888C175.28 72.4268 175.155 79.1921 177.013 84.0931C179.444 90.5159 182.118 91.8466 182.118 91.8466C182.118 91.8466 190.254 82.3475 192.659 77.6045C193.509 75.8654 194.075 74.6138 194.444 73.7179Z" fill="#092C48" stroke="#092C48" stroke-linecap="round" stroke-linejoin="round"/>
<path d="M185.175 43.6264C185.175 43.6264 180.761 44.0546 178.363 47.5789C175.965 51.1032 175.195 54.3903 174.378 58.1188C173.561 61.8473 174.51 65.4177 175.807 65.5494L180.28 66.004C180.28 66.004 180.28 75.76 180.544 79.1394C180.807 82.5187 181.862 84.9495 182.843 83.7506C183.825 82.5517 187.059 73.8694 187.059 73.8694L187.586 65.7668C187.586 65.7668 189.958 63.9685 193.463 60.9712C196.967 57.9739 197.975 52.4075 195.406 47.625C192.837 42.8425 185.175 43.6264 185.175 43.6264Z" fill="white" stroke="#092C48" stroke-linecap="round" stroke-linejoin="round"/>
<path d="M187.784 59.8315C187.784 59.8315 188.588 60.1609 188.647 59.5812C188.706 59.0015 190.472 58.0199 191.164 59.4231" stroke="#092C48" stroke-linecap="round" stroke-linejoin="round"/>
<path d="M188.647 59.5813C188.647 59.5813 190.696 59.9568 189.497 61.0898" stroke="#092C48" stroke-linecap="round" stroke-linejoin="round"/>
<path d="M178.344 52.2888C178.133 52.9476 177.685 53.3889 177.389 53.2835C177.092 53.1781 176.987 52.5721 177.197 51.9133C177.408 51.2546 177.856 50.8132 178.159 50.9186C178.462 51.024 178.555 51.6367 178.344 52.2888Z" fill="#092C48"/>
<path d="M182.54 54.4561C182.322 55.1149 181.881 55.5562 181.578 55.4508C181.275 55.3454 181.183 54.7328 181.394 54.0806C181.604 53.4285 182.052 52.9805 182.349 53.0859C182.645 53.1913 182.751 53.7974 182.54 54.4561Z" fill="#092C48"/>
<path d="M176.947 56.8079C176.947 56.8079 176.947 57.4995 178.073 57.6115" stroke="#092C48" stroke-linecap="round" stroke-linejoin="round"/>
<path d="M176.644 59.792C176.644 59.792 179.839 60.6352 181.453 59.1333" stroke="#092C48" stroke-linecap="round" stroke-linejoin="round"/>
<path d="M182.56 50.82C183.377 50.7597 184.185 51.024 184.809 51.5554C185.433 52.0868 185.822 52.8426 185.893 53.6591" stroke="#092C48" stroke-linecap="round" stroke-linejoin="round"/>
<path d="M177.889 49.2258C177.889 49.2258 178.91 47.6909 179.866 50.1151" stroke="#092C48" stroke-linecap="round" stroke-linejoin="round"/>
<path d="M178.495 60.2399C178.495 60.2399 179.911 62.4533 180.57 61.9197C181.229 61.3861 180.709 59.6931 180.709 59.6931C179.986 59.9338 179.246 60.1167 178.495 60.2399Z" fill="#092C48" stroke="#092C48" stroke-linecap="round" stroke-linejoin="round"/>
<path d="M195.136 60.9712C198.647 57.9739 199.089 52.7039 196.453 47.9609C193.034 41.7951 185.168 43.6264 185.168 43.6264C184.338 43.737 183.524 43.9471 182.744 44.2522C184.391 44.4893 188.047 45.3918 189.582 48.8634C191.598 53.4351 188.634 58.2308 188.634 58.2308C188.634 58.2308 192.455 56.439 192.323 59.1925C192.255 60.1798 191.82 61.1058 191.103 61.7876C190.386 62.4694 189.439 62.8574 188.449 62.8749C187.671 62.754 186.911 62.5326 186.19 62.2162C186.171 62.8609 186.292 63.502 186.545 64.0955C186.797 64.6891 187.175 65.221 187.652 65.6548C188.054 65.365 191.961 63.6786 195.136 60.9712Z" fill="#092C48" stroke="#092C48" stroke-linecap="round" stroke-linejoin="round"/>
<path d="M181.861 44.6672C181.861 44.6672 183.838 45.7278 185.564 50.5959C187.29 55.464 190.729 54.9634 192.711 54.5484C194.694 54.1334 196.157 54.0214 196.157 54.0214C194.635 52.6115 193.574 50.7746 193.113 48.7514C192.316 45.3325 187.02 37.3881 181.861 44.6672Z" fill="#092C48" stroke="#092C48" stroke-linecap="round" stroke-linejoin="round"/>
<path d="M95.3037 45.8927C95.3037 45.8927 96.6212 43.9165 94.2891 42.7505C91.7235 41.5795 88.8426 41.2896 86.0951 41.9258C83.3475 42.562 80.8874 44.0887 79.0976 46.2682C73.5045 52.7239 78.0172 58.9556 80.929 62.0781C83.8408 65.2005 88.057 66.6103 88.057 67.1702C87.7491 68.2869 87.3819 69.3863 86.9569 70.4639L96.7925 70.8987C96.7925 70.8987 97.9915 67.2295 99.0653 66.0042C100.139 64.7789 102.083 66.663 103.538 63.5603C104.994 60.4576 103.209 56.3536 103.209 56.3536C103.209 56.3536 104.138 52.8359 102.82 52.7041C101.503 52.5724 100.528 50.9519 99.5924 48.9559C98.6569 46.9599 95.3037 45.8927 95.3037 45.8927Z" fill="white" stroke="#092C48" stroke-linecap="round" stroke-linejoin="round"/>
<path d="M99.6453 49.9636C99.6453 49.9636 98.3278 47.9018 98.1499 50.7212" stroke="#092C48" stroke-linecap="round" stroke-linejoin="round"/>
<path d="M103.664 58.277C103.664 58.277 103.374 59.1597 101.859 58.0925" stroke="#092C48" stroke-linecap="round" stroke-linejoin="round"/>
<path d="M100.746 52.434C101.068 53.0532 101.174 53.6329 100.976 53.7515C100.778 53.87 100.357 53.4353 100.034 52.8226C99.7112 52.21 99.6058 51.6237 99.8035 51.5051C100.001 51.3866 100.423 51.8213 100.746 52.434Z" fill="#092C48"/>
<path d="M93.0638 60.9122C92.8741 60.8794 92.693 60.8084 92.5316 60.7033C92.3703 60.5982 92.232 60.4613 92.1254 60.301C92.0187 60.1407 91.9458 59.9604 91.9112 59.771C91.8766 59.5815 91.881 59.3871 91.9241 59.1994C92.214 58.1915 94.5197 58.6131 94.5197 58.6131C94.5197 58.6131 93.5118 59.2719 94.5856 59.845C95.6594 60.4181 96.2523 59.1862 96.2523 59.1862" stroke="#092C48" stroke-linecap="round" stroke-linejoin="round"/>
<path d="M94.3023 42.7373C91.7367 41.5664 88.8558 41.2764 86.1083 41.9126C83.3607 42.5489 80.9005 44.0755 79.1108 46.255C73.5177 52.7107 78.0304 58.9424 80.9422 62.0649C83.2479 64.555 86.3772 65.9383 87.53 66.6761C88.6352 66.6591 89.7302 66.4611 90.7713 66.0898C92.3543 65.5234 93.7621 64.5539 94.8557 63.277C94.8557 63.277 91.015 63.6459 90.6066 60.1875C90.1981 56.7291 93.7753 57.0914 95.2773 57.2429C96.7794 57.3944 95.8241 55.5894 95.1127 55.1349C94.4012 54.6804 95.1522 52.8622 95.554 50.8135C95.9559 48.7648 93.5777 49.8518 93.2417 49.2457C92.9057 48.6397 95.3037 45.8927 95.3037 45.8927C95.3037 45.8927 96.6542 43.9165 94.3023 42.7373Z" fill="#092C48" stroke="#092C48" stroke-linecap="round" stroke-linejoin="round"/>
<path d="M99.4676 70.4244C96.6268 69.5221 93.6868 68.969 90.7123 68.7775C85.8044 68.4679 83.2944 70.6813 83.2944 70.6813C83.2944 70.6813 86.8914 70.8591 92.7348 71.2609C98.5782 71.6628 99.4676 70.4244 99.4676 70.4244Z" fill="#6B48FF" stroke="#092C48" stroke-linecap="round" stroke-linejoin="round"/>
<path d="M122.512 53.0137C122.512 53.0137 131.939 38.7782 131.965 36.6702C131.992 34.5622 131.201 31.0841 131.306 29.7666C131.412 28.4491 131.689 27.9089 131.84 26.4004C131.992 24.8919 133.421 25.8009 133.25 27.4939L133.415 28.4623L135.048 20.7154C135.048 20.7154 136.168 19.8854 136.366 20.7549L135.49 25.959L135.957 26.0315L137.084 19.5428C137.084 19.5428 137.249 18.8051 138.276 18.8841C138.276 18.8841 138.83 19.029 138.777 20.4387L137.894 26.5387L138.362 26.7495L139.383 20.0303C139.383 20.0303 139.811 19.5099 140.147 19.9183C140.465 20.5014 140.564 21.1793 140.424 21.8287C140.352 22.5797 139.831 27.7047 139.831 27.7047L140.786 23.8445C140.786 23.8445 141.742 22.8102 141.643 24.6876C141.37 27.033 140.883 29.3483 140.187 31.6045C139.772 32.8758 138.21 35.3593 137.189 36.1037C136.168 36.8481 135.668 37.1709 135.628 37.5464C135.589 37.9218 130.358 56.2218 127.281 60.3323C127.281 60.3323 126.181 56.3799 123.691 55.8265C121.201 55.2732 121.603 55.9912 121.603 55.9912L122.512 53.0137Z" fill="white" stroke="#092C48" stroke-linecap="round" stroke-linejoin="round"/>
<path d="M118.934 58.3495C118.934 58.3495 118.77 56.2415 120.199 55.2468C121.629 54.2521 121.405 52.7106 122.762 52.4669C124.119 52.2232 127.854 54.6935 128.204 56.8212C128.553 58.949 127.993 58.8897 127.821 60.5827C127.65 62.2756 125.338 64.5351 123.362 63.356C121.385 62.1768 118.934 58.3495 118.934 58.3495Z" fill="#6B48FF" stroke="#092C48" stroke-linecap="round" stroke-linejoin="round"/>
<path d="M56.0798 94.3433C56.0798 94.3433 52.6475 106.991 51.4683 114.158C50.2891 121.325 49.3602 123.664 48.5894 125.581C47.8186 127.498 46.9425 129.132 47.1665 131.154C47.3904 133.176 49.8938 132.432 51.0401 132.406C52.1864 132.379 53.9585 131.839 54.1166 130.284C54.2747 128.73 54.5844 128.479 54.3011 127.024C54.0178 125.568 52.9835 124.316 53.0955 123.466C53.2075 122.617 59.5648 107.558 60.8296 103.539C62.0945 99.521 62.9246 97.0375 62.9246 97.0375C62.9246 97.0375 57.3644 95.7596 56.0798 94.3433Z" fill="white" stroke="#092C48" stroke-linecap="round" stroke-linejoin="round"/>
<path d="M74.111 113.743C71.3243 122.893 71.7789 118.355 71.3243 122.893C70.8698 127.432 69.091 137.807 69.091 137.807L62.1606 165.244C62.1606 165.244 53.5437 171.937 49.1826 178.373C44.8214 184.809 33.3125 198.656 33.3125 198.656C33.3125 198.656 35.8488 199.09 36.7843 199.973C37.7198 200.856 39.8872 203.082 39.8872 203.082C41.358 202.023 42.6673 200.756 43.774 199.321C48.089 193.761 54.6044 189.025 59.6441 184.104C64.6838 179.183 70.7973 174.17 74.8554 168.294C76.9108 164.935 87.3196 138.42 87.3196 138.42L89.4672 138.354C89.4672 138.354 100.205 155.014 101.701 157.168C103.196 159.322 107.92 167.655 107.92 167.655C107.92 167.655 99.8365 174.117 97.7152 179.513C95.5939 184.908 85.0468 204.367 84.3814 205.296C83.9434 205.967 83.6267 206.709 83.4459 207.489C83.4459 207.489 87.3328 208.596 89.2959 208.939C90.4201 209.117 91.4973 209.518 92.4647 210.118C92.4647 210.118 93.0181 208.886 93.5978 207.377C94.1673 206.089 94.5915 204.741 94.8627 203.359C94.9681 202.371 105.621 191.739 111.504 181.621C117.386 171.502 120.219 168.933 120.582 166.825C120.944 164.717 115.66 149.184 113.17 141.358C110.68 133.532 104.02 124.573 103.809 123.835C103.598 123.098 102.946 115.463 102.946 115.463C102.946 115.463 98.6309 115.739 89.6319 115.68C84.3995 115.657 79.1886 115.007 74.111 113.743Z" fill="#092C48" stroke="#092C48" stroke-linecap="round" stroke-linejoin="round"/>
<path d="M80.4814 135.634L87.3196 138.374" stroke="white" stroke-linecap="round" stroke-linejoin="round"/>
<path d="M106.457 86.4384C106.457 86.4384 105.89 92.0509 113.196 96.7544C120.502 101.458 122.828 109.738 122.828 109.738L120.884 114.56L116.53 112.004C116.53 112.004 117.188 102.966 112.577 99.1983C107.965 95.4303 105.778 93.3553 104.388 88.8626C102.998 84.37 100.1 77.8682 100.1 77.8682C100.1 77.8682 105.462 81.9787 106.457 86.4384Z" fill="#092C48" stroke="#092C48" stroke-linecap="round" stroke-linejoin="round"/>
<path d="M86.9239 70.4769C83.8427 70.2692 80.7749 69.8954 77.7339 69.3571C74.0118 68.5995 70.7706 70.5494 70.2831 73.5335C69.7956 76.5176 57.2918 91.0232 57.1996 91.9784C57.1074 92.9336 61.7452 95.8584 63.8863 95.3182C66.0273 94.7781 74.5058 86.1419 74.5058 86.1419C74.5058 86.1419 74.7562 106.115 74.0776 109.079C73.3991 112.044 72.2462 114.027 73.801 115.509C75.3557 116.991 87.2072 118.203 93.3207 117.874C99.4342 117.544 102.985 116.2 103.202 114.132C103.42 112.064 103.743 106.965 104.026 104.145C104.309 101.326 107.32 83.2039 107.32 83.2039C107.32 83.2039 115.989 72.664 120.001 68.7115C124.013 64.759 125.522 63.0002 125.753 60.7473C125.983 58.4944 123.012 55.9121 121.036 56.6565C119.059 57.4008 113.651 63.9027 110.62 65.6681C107.59 67.4335 103.176 67.9474 101.312 69.4691C99.4474 70.9908 97.3195 71.3399 93.7489 70.9776C90.1783 70.6153 86.9239 70.4769 86.9239 70.4769Z" fill="#6B48FF" stroke="#092C48" stroke-linecap="round" stroke-linejoin="round"/>
<path d="M72.0421 76.8142L74.5125 86.1223L69.3345 78.9024" stroke="#092C48" stroke-linecap="round" stroke-linejoin="round"/>
<path d="M107.287 83.1843L102.899 89.3238" stroke="#092C48" stroke-linecap="round" stroke-linejoin="round"/>
<path d="M98.8216 98.1377L98.1035 99.3366" stroke="#092C48" stroke-linecap="round" stroke-linejoin="round"/>
<path d="M104.362 88.8625L100.179 95.865" stroke="#092C48" stroke-linecap="round" stroke-linejoin="round"/>
<path d="M85.3696 93.4739C87.8071 99.2511 91.6281 107.452 94.9813 110.799" stroke="#092C48" stroke-linecap="round" stroke-linejoin="round"/>
<path d="M82.8857 87.2422C82.8857 87.2422 83.3008 88.3752 84.0123 90.167" stroke="#092C48" stroke-linecap="round" stroke-linejoin="round"/>
<path d="M84.7632 98.7109C84.7632 98.7109 89.5591 107.275 92.0559 110.568" stroke="#092C48" stroke-linecap="round" stroke-linejoin="round"/>
<path d="M57.8389 91.0891C58.873 92.0459 60.0457 92.841 61.3173 93.4474C63.096 94.1984 66.0803 92.927 65.9288 94.3433C65.8279 95.3462 65.3966 96.2871 64.7025 97.0181C64.0084 97.7491 63.0911 98.2287 62.0947 98.3814C59.3212 98.9545 56.1656 96.4908 55.2828 95.0877C54.4001 93.6845 55.0391 89.0931 57.8389 91.0891Z" fill="#6B48FF" stroke="#092C48" stroke-linecap="round" stroke-linejoin="round"/>
<path d="M51.8243 127.623C51.8243 127.623 48.0627 129.527 49.5713 130.107C51.0799 130.686 53.524 130.37 53.9324 129.408" fill="white"/>
<path d="M51.8243 127.623C51.8243 127.623 48.0627 129.527 49.5713 130.107C51.0799 130.686 53.524 130.37 53.9324 129.408" stroke="#092C48" stroke-linecap="round" stroke-linejoin="round"/>
<path d="M49.5843 130.107L48.1284 130.39" stroke="#092C48" stroke-linecap="round" stroke-linejoin="round"/>
<path d="M92.4644 210.039C92.4644 210.039 96.0943 215.836 98.7228 217.944C101.351 220.052 101.753 219.92 101.668 220.823C101.582 221.725 99.3223 222.265 95.4816 221.877C91.6409 221.488 88.4326 218.708 84.8752 216.791C81.3177 214.874 80.3493 214.261 81.0608 212.397C81.7699 210.704 82.5659 209.048 83.4456 207.437C83.4456 207.437 88.5248 207.285 92.4644 210.039Z" fill="white" stroke="#092C48" stroke-linecap="round" stroke-linejoin="round"/>
<path d="M81.061 212.371C81.061 212.371 83.795 213.352 89.2629 217.232C94.7308 221.112 98.5583 221.633 101.668 220.796" fill="white"/>
<path d="M81.061 212.371C81.061 212.371 83.795 213.352 89.2629 217.232C94.7308 221.112 98.5583 221.633 101.668 220.796" stroke="#092C48" stroke-linecap="round" stroke-linejoin="round"/>
<path d="M39.887 203.056C39.887 203.056 39.9331 207.786 40.6578 210.401C41.3824 213.016 43.1941 215.546 42.364 216.106C41.534 216.666 40.6841 216.83 39.0701 215.961C37.4561 215.091 35.4205 213.326 33.3189 210.836C31.7003 209.114 30.4614 207.072 29.6824 204.841C28.6811 202.279 29.2279 200.829 30.9078 200.105C31.789 199.76 32.6063 199.27 33.3255 198.656C33.3255 198.656 38.2071 198.399 39.887 203.056Z" fill="white" stroke="#092C48" stroke-linecap="round" stroke-linejoin="round"/>
<path d="M29.8472 201.356C32.0451 203.22 33.8387 205.513 35.1174 208.095C37.5352 212.707 40.0781 215.263 42.3641 216.126" fill="white"/>
<path d="M29.8472 201.356C32.0451 203.22 33.8387 205.513 35.1174 208.095C37.5352 212.707 40.0781 215.263 42.3641 216.126" stroke="#092C48" stroke-linecap="round" stroke-linejoin="round"/>
<path d="M78.538 230.763C91.1559 230.763 101.385 229.754 101.385 228.51C101.385 227.266 91.1559 226.257 78.538 226.257C65.9202 226.257 55.6914 227.266 55.6914 228.51C55.6914 229.754 65.9202 230.763 78.538 230.763Z" fill="#092C48"/>
<path d="M138.711 9.97778V15.9526" stroke="#092C48" stroke-linecap="round" stroke-linejoin="round"/>
<path d="M144.443 16.9079L147.552 13.0806" stroke="#092C48" stroke-linecap="round" stroke-linejoin="round"/>
<path d="M129.627 14.9973L132.493 17.382" stroke="#092C48" stroke-linecap="round" stroke-linejoin="round"/>
<path d="M126.28 22.8826H131.3" stroke="#092C48" stroke-linecap="round" stroke-linejoin="round"/>
<path d="M146.597 22.6455H150.425" stroke="#092C48" stroke-linecap="round" stroke-linejoin="round"/>
</g>
<defs>
<clipPath id="clip0_121_2514">
<rect width="260" height="231" fill="white"/>
</clipPath>
</defs>
</svg>
