<svg width="50" height="50" viewBox="0 0 50 50" fill="none" xmlns="http://www.w3.org/2000/svg">
<g clip-path="url(#clip0_154_5778)">
<path d="M44.1209 4.29327C28.4416 -5.26426 4.03203 3.45235 1.1918 10.343C-2.60781 19.5611 3.7873 21.1367 4.97529 28.69C5.92851 34.7507 -0.02295 40.5548 3.37432 45.9051C7.07383 51.7315 19.3377 50.2685 23.9991 47.5112C32.5319 42.4641 28.2285 36.5726 32.269 29.2203C36.1174 22.2177 43.621 25.0577 47.9879 19.4557C52.1383 14.1314 49.3853 7.50235 44.1209 4.29327Z" fill="url(#paint0_linear_154_5778)"/>
<path opacity="0.1" d="M46.8185 38.5394C45.4743 32.539 41.3447 17.1709 34.3074 17.1709H31.6291C30.1751 17.1709 28.9964 18.3496 28.9964 19.8036V23.9769C27.3362 23.7295 26.0586 22.2946 26.0586 20.5667V8.95761C26.0586 8.92109 26.0567 8.88495 26.0531 8.84941C25.9989 8.31562 25.5481 7.89902 25 7.89902C24.4519 7.89902 24.0011 8.31562 23.9469 8.84941C23.9433 8.88495 23.9414 8.92109 23.9414 8.95761V20.5667C23.9414 22.2946 22.6638 23.7295 21.0036 23.9769V19.8036C21.0036 18.3496 19.8249 17.1709 18.3709 17.1709H15.6926C8.65528 17.1709 4.52569 32.539 3.18155 38.5394C2.85284 40.0067 3.21485 41.5439 4.16065 42.7131C5.09669 43.8702 6.50538 44.5425 7.99376 44.5425C15.1789 44.5425 21.0036 38.7178 21.0036 31.5326V26.1079C22.645 25.9578 24.0818 25.0923 25 23.8264C25.9182 25.0923 27.355 25.9578 28.9964 26.1079V31.5326C28.9964 38.7178 34.8211 44.5425 42.0063 44.5425C43.4945 44.5425 44.9032 43.8701 45.8394 42.7131C46.7852 41.5438 47.1472 40.0067 46.8185 38.5394Z" fill="#2626BC"/>
<path d="M21.0036 17.3622V29.0912C21.0036 36.2764 15.1789 42.1011 7.99376 42.1011C6.50548 42.1011 5.09678 41.4287 4.16065 40.2717C3.21485 39.1025 2.85284 37.5654 3.18155 36.098C4.52569 30.0976 8.65528 14.7295 15.6926 14.7295H18.3709C19.8249 14.7295 21.0036 15.9082 21.0036 17.3622Z" fill="#FF6C6C"/>
<path d="M25 5.45761C24.4153 5.45761 23.9414 5.93163 23.9414 6.5162V18.1253C23.9414 20.0267 22.3945 21.5736 20.4931 21.5736H17.9692C17.3846 21.5736 16.9106 22.0476 16.9106 22.6322C16.9106 23.2169 17.3847 23.6908 17.9692 23.6908H20.4931C23.5619 23.6908 26.0587 21.1941 26.0587 18.1252V6.5162C26.0586 5.93154 25.5847 5.45761 25 5.45761Z" fill="#6C6CFF"/>
<path d="M19.0475 19.7309C18.4143 20.5839 18.0795 21.5947 18.0795 22.654C18.0795 23.7132 18.4143 24.724 19.0476 25.5772H15.9487V19.731H19.0475V19.7309Z" fill="#FF6C6C"/>
<path d="M28.9965 17.3622V29.0912C28.9965 36.2764 34.8212 42.1011 42.0063 42.1011C43.4946 42.1011 44.9033 41.4287 45.8394 40.2717C46.7852 39.1025 47.1473 37.5654 46.8185 36.098C45.4744 30.0976 41.3448 14.7295 34.3075 14.7295H31.6292C30.1752 14.7295 28.9965 15.9082 28.9965 17.3622Z" fill="#FF6C6C"/>
<path d="M25 5.45761C25.5847 5.45761 26.0586 5.93163 26.0586 6.5162V18.1253C26.0586 20.0267 27.6055 21.5736 29.507 21.5736H32.0308C32.6155 21.5736 33.0894 22.0476 33.0894 22.6322C33.0894 23.2169 32.6154 23.6908 32.0308 23.6908H29.507C26.4381 23.6908 23.9413 21.1941 23.9413 18.1252V6.5162C23.9414 5.93154 24.4154 5.45761 25 5.45761Z" fill="#9494FF"/>
<path d="M30.9526 19.7309C31.5858 20.5839 31.9205 21.5947 31.9205 22.654C31.9205 23.7132 31.5858 24.724 30.9525 25.5772H34.0514V19.731H30.9526V19.7309Z" fill="#FF6C6C"/>
<path d="M47.2949 35.9912C46.6557 33.1374 45.2662 27.65 43.1427 22.9621C40.5215 17.1753 37.5489 14.2412 34.3075 14.2412H31.6291C29.9082 14.2412 28.5081 15.6413 28.5081 17.3622V20.9115C27.366 20.5008 26.5469 19.4071 26.5469 18.1254V6.5162C26.5469 5.66327 25.853 4.96933 25 4.96933C24.1471 4.96933 23.4531 5.66318 23.4531 6.5162V18.1254C23.4531 19.4071 22.634 20.5009 21.4919 20.9115V17.3622C21.4919 15.6413 20.0918 14.2412 18.3709 14.2412H15.6926C12.4512 14.2412 9.47864 17.1753 6.85735 22.9621C4.73391 27.65 3.34436 33.1374 2.7051 35.9912C2.34192 37.6125 2.73401 39.2846 3.78108 40.5787C4.81477 41.8565 6.35032 42.5894 7.99378 42.5894C15.4366 42.5894 21.4919 36.5341 21.4919 29.0912V24.0964C21.9998 24.0119 22.4941 23.8633 22.969 23.6496C23.215 23.5391 23.3246 23.25 23.214 23.0041C23.1033 22.7581 22.8143 22.6482 22.5684 22.7591C21.9138 23.0535 21.2156 23.2027 20.493 23.2027H18.6017C18.5793 23.022 18.5677 22.8389 18.5677 22.6541C18.5677 22.4545 18.5817 22.2569 18.6078 22.062H20.4931C21.8956 22.062 23.1284 21.3241 23.8258 20.2168C24.5676 22.2253 26.3459 23.7348 28.5081 24.0954V29.0913C28.5081 36.5342 34.5633 42.5894 42.0063 42.5894C43.6498 42.5894 45.1853 41.8566 46.219 40.5788C47.2659 39.2845 47.6581 37.6124 47.2949 35.9912ZM18.8553 21.0853C18.9986 20.7099 19.194 20.3526 19.4395 20.0219C19.6002 19.8054 19.555 19.4995 19.3385 19.3388C19.1219 19.178 18.8161 19.2233 18.6554 19.4397C17.9592 20.3775 17.5912 21.489 17.5912 22.6539C17.5912 23.8188 17.9593 24.9303 18.6555 25.8681C18.7513 25.9971 18.8987 26.0653 19.048 26.0653C19.1491 26.0653 19.2512 26.0341 19.3387 25.9691C19.5552 25.8084 19.6004 25.5025 19.4397 25.286C19.1847 24.9426 18.9838 24.5706 18.8393 24.1792H20.4932C20.5006 24.1792 20.508 24.1786 20.5155 24.1786V29.0912C20.5155 35.9956 14.8983 41.6128 7.99387 41.6128C6.64651 41.6128 5.38782 41.0121 4.54036 39.9646C3.68206 38.9036 3.36047 37.5333 3.65813 36.2047C4.28918 33.3875 5.6596 27.9734 7.747 23.365C10.1958 17.959 12.8692 15.2178 15.6927 15.2178H18.371C19.5534 15.2178 20.5155 16.1798 20.5155 17.3622V21.0848C20.508 21.0849 20.5006 21.0853 20.4932 21.0853H18.8553ZM24.4297 18.1254V6.5162C24.4297 6.20175 24.6856 5.94589 25 5.94589C25.3145 5.94589 25.5703 6.20175 25.5703 6.5162V18.1254C25.5703 20.2961 27.3363 22.062 29.507 22.062H31.3922C31.4183 22.2569 31.4324 22.4545 31.4324 22.6541C31.4324 22.8389 31.4207 23.022 31.3984 23.2027H29.5071C26.7074 23.2026 24.4297 20.9249 24.4297 18.1254ZM45.4598 39.9644C44.6123 41.012 43.3536 41.6127 42.0063 41.6127C35.1019 41.6127 29.4847 35.9955 29.4847 29.0911V24.1785C29.4921 24.1785 29.4995 24.1791 29.507 24.1791H31.1609C31.0162 24.5705 30.8155 24.9425 30.5605 25.2859C30.3997 25.5024 30.4449 25.8083 30.6615 25.969C30.749 26.034 30.8509 26.0652 30.9522 26.0652C31.1014 26.0652 31.2489 25.9971 31.3447 25.868C32.0409 24.9301 32.4089 23.8187 32.4089 22.6538C32.4089 21.4889 32.0409 20.3773 31.3448 19.4396C31.184 19.2232 30.8782 19.1779 30.6616 19.3387C30.4451 19.4994 30.3999 19.8053 30.5607 20.0218C30.8062 20.3525 31.0016 20.7097 31.1449 21.0852H29.5071C29.4996 21.0852 29.4922 21.0848 29.4848 21.0847V17.3621C29.4848 16.1797 30.4468 15.2177 31.6292 15.2177H34.3075C37.1311 15.2177 39.8044 17.9588 42.2533 23.3649C44.3407 27.9732 45.7111 33.3874 46.3421 36.2046C46.6396 37.5332 46.318 38.9035 45.4598 39.9644Z" fill="#0000CC"/>
<path d="M15.0686 35.6229C16.4959 35.6229 17.6529 34.4658 17.6529 33.0385C17.6529 31.6112 16.4959 30.4542 15.0686 30.4542C13.6413 30.4542 12.4842 31.6112 12.4842 33.0385C12.4842 34.4658 13.6413 35.6229 15.0686 35.6229Z" fill="#FF4D4D"/>
<path d="M13.0177 37.4504C14.027 37.4504 14.8451 36.6322 14.8451 35.6229C14.8451 34.6137 14.027 33.7955 13.0177 33.7955C12.0084 33.7955 11.1902 34.6137 11.1902 35.6229C11.1902 36.6322 12.0084 37.4504 13.0177 37.4504Z" fill="#FFB3B3"/>
<path d="M34.9315 35.6229C36.3588 35.6229 37.5159 34.4658 37.5159 33.0385C37.5159 31.6112 36.3588 30.4542 34.9315 30.4542C33.5042 30.4542 32.3471 31.6112 32.3471 33.0385C32.3471 34.4658 33.5042 35.6229 34.9315 35.6229Z" fill="#FF4D4D"/>
<path d="M36.9824 37.4504C37.9917 37.4504 38.8098 36.6322 38.8098 35.6229C38.8098 34.6137 37.9917 33.7955 36.9824 33.7955C35.9731 33.7955 35.155 34.6137 35.155 35.6229C35.155 36.6322 35.9731 37.4504 36.9824 37.4504Z" fill="#FFB3B3"/>
<path d="M28.9964 40.906C28.7268 40.906 28.5082 40.6874 28.5082 40.4177C28.5082 40.0767 28.2307 39.7992 27.8897 39.7992C27.6201 39.7992 27.4014 39.5806 27.4014 39.3109C27.4014 39.0411 27.6201 38.8226 27.8897 38.8226C28.2307 38.8226 28.5082 38.5451 28.5082 38.2041C28.5082 37.9344 28.7268 37.7159 28.9964 37.7159C29.2661 37.7159 29.4847 37.9344 29.4847 38.2041C29.4847 38.5451 29.7622 38.8226 30.1032 38.8226C30.3728 38.8226 30.5915 39.0411 30.5915 39.3109C30.5915 39.5806 30.3728 39.7992 30.1032 39.7992C29.7622 39.7992 29.4847 40.0767 29.4847 40.4177C29.4847 40.6874 29.2662 40.906 28.9964 40.906Z" fill="#FF9D33"/>
<path d="M38.8099 13.6709C38.5403 13.6709 38.3216 13.4524 38.3216 13.1826C38.3216 12.8416 38.0442 12.5641 37.7032 12.5641C37.4336 12.5641 37.2149 12.3455 37.2149 12.0758C37.2149 11.8061 37.4336 11.5875 37.7032 11.5875C38.0442 11.5875 38.3216 11.3101 38.3216 10.9691C38.3216 10.6993 38.5403 10.4808 38.8099 10.4808C39.0796 10.4808 39.2982 10.6993 39.2982 10.9691C39.2982 11.3101 39.5756 11.5875 39.9167 11.5875C40.1863 11.5875 40.4049 11.8061 40.4049 12.0758C40.4049 12.3455 40.1863 12.5641 39.9167 12.5641C39.5756 12.5641 39.2982 12.8416 39.2982 13.1826C39.2982 13.4524 39.0796 13.6709 38.8099 13.6709Z" fill="#6C6CFF"/>
<path d="M12.0333 10.5458C11.7636 10.5458 11.545 10.3272 11.545 10.0575C11.545 9.71649 11.2675 9.43895 10.9265 9.43895C10.6569 9.43895 10.4382 9.2204 10.4382 8.95067C10.4382 8.68094 10.6569 8.46239 10.9265 8.46239C11.2675 8.46239 11.545 8.18495 11.545 7.84393C11.545 7.57421 11.7636 7.35565 12.0333 7.35565C12.3029 7.35565 12.5215 7.57421 12.5215 7.84393C12.5215 8.18495 12.799 8.46239 13.14 8.46239C13.4096 8.46239 13.6283 8.68094 13.6283 8.95067C13.6283 9.2204 13.4096 9.43895 13.14 9.43895C12.799 9.43895 12.5215 9.71649 12.5215 10.0575C12.5215 10.3272 12.3029 10.5458 12.0333 10.5458Z" fill="#FF4D4D"/>
<path d="M8.76379 11.7031C8.49417 11.7031 8.27551 11.4846 8.27551 11.2148V11.2002C8.27551 10.9305 8.49417 10.7119 8.76379 10.7119C9.03342 10.7119 9.25208 10.9305 9.25208 11.2002V11.2148C9.25208 11.4846 9.03342 11.7031 8.76379 11.7031Z" fill="#FF9D33"/>
<path d="M8.76379 14.4164C8.49417 14.4164 8.27551 14.1979 8.27551 13.9281V13.9135C8.27551 13.6438 8.49417 13.4252 8.76379 13.4252C9.03342 13.4252 9.25208 13.6438 9.25208 13.9135V13.9281C9.25208 14.1979 9.03342 14.4164 8.76379 14.4164Z" fill="#FF9D33"/>
<path d="M7.59485 12.3778C7.51185 12.3778 7.42776 12.3566 7.35071 12.312L7.33792 12.3047C7.10452 12.1695 7.02483 11.8709 7.15999 11.6375C7.29505 11.4041 7.59368 11.3243 7.82728 11.4596L7.83997 11.4669C8.07337 11.602 8.15306 11.9007 8.0179 12.1341C7.92737 12.2904 7.76341 12.3778 7.59485 12.3778Z" fill="#FF9D33"/>
<path d="M9.94467 13.7345C9.86273 13.7345 9.77982 13.7139 9.70355 13.6705L9.69086 13.6633C9.45648 13.5299 9.37465 13.2316 9.50804 12.9974C9.64154 12.763 9.93978 12.6813 10.174 12.8145L10.1867 12.8218C10.421 12.9552 10.5029 13.2534 10.3695 13.4877C10.2794 13.6457 10.1144 13.7345 9.94467 13.7345Z" fill="#FF9D33"/>
<path d="M7.583 13.7345C7.41347 13.7345 7.24873 13.6461 7.15859 13.4883C7.0248 13.2542 7.10615 12.956 7.34033 12.8222L7.35302 12.815C7.58701 12.6812 7.88544 12.7624 8.01923 12.9966C8.15302 13.2307 8.07167 13.5289 7.83749 13.6627L7.8248 13.6699C7.74843 13.7137 7.66513 13.7345 7.583 13.7345Z" fill="#FF9D33"/>
<path d="M9.93281 12.3778C9.76397 12.3778 9.59981 12.2902 9.50938 12.1334C9.37461 11.8998 9.45479 11.6013 9.68838 11.4665L9.70108 11.4592C9.93457 11.3242 10.2333 11.4045 10.368 11.6382C10.5027 11.8718 10.4226 12.1703 10.189 12.3051L10.1763 12.3124C10.0994 12.3568 10.0155 12.3778 9.93281 12.3778Z" fill="#FF9D33"/>
<path d="M25.8545 35.3127C25.5849 35.3127 25.3662 35.0941 25.3662 34.8244V34.8097C25.3662 34.54 25.5849 34.3214 25.8545 34.3214C26.1241 34.3214 26.3428 34.54 26.3428 34.8097V34.8244C26.3428 35.094 26.1241 35.3127 25.8545 35.3127Z" fill="#6C6CFF"/>
<path d="M25.8545 38.0259C25.5849 38.0259 25.3662 37.8074 25.3662 37.5377V37.523C25.3662 37.2533 25.5849 37.0347 25.8545 37.0347C26.1241 37.0347 26.3428 37.2533 26.3428 37.523V37.5377C26.3428 37.8073 26.1241 38.0259 25.8545 38.0259Z" fill="#6C6CFF"/>
<path d="M24.6854 35.9873C24.6024 35.9873 24.5184 35.9661 24.4413 35.9215L24.4286 35.9142C24.1952 35.779 24.1155 35.4804 24.2507 35.247C24.3857 35.0135 24.6844 34.9338 24.918 35.0691L24.9307 35.0764C25.1641 35.2116 25.2437 35.5102 25.1086 35.7436C25.0181 35.8999 24.854 35.9873 24.6854 35.9873Z" fill="#6C6CFF"/>
<path d="M27.0352 37.344C26.9522 37.344 26.8682 37.3228 26.7911 37.2781L26.7784 37.2708C26.545 37.1357 26.4653 36.837 26.6005 36.6036C26.7355 36.3701 27.0342 36.2903 27.2678 36.4257L27.2805 36.433C27.5138 36.5682 27.5935 36.8668 27.4584 37.1002C27.3678 37.2567 27.2038 37.344 27.0352 37.344Z" fill="#6C6CFF"/>
<path d="M24.6737 37.344C24.5052 37.344 24.3412 37.2566 24.2507 37.1003C24.1155 36.8669 24.1952 36.5682 24.4286 36.4331L24.4413 36.4258C24.6748 36.2904 24.9734 36.3703 25.1086 36.6037C25.2437 36.8371 25.1641 37.1357 24.9307 37.2709L24.918 37.2782C24.8409 37.3229 24.7567 37.344 24.6737 37.344Z" fill="#6C6CFF"/>
<path d="M27.0235 35.9873C26.855 35.9873 26.691 35.8999 26.6005 35.7436C26.4653 35.5102 26.545 35.2116 26.7784 35.0764L26.7911 35.0691C27.0246 34.9338 27.3232 35.0136 27.4584 35.247C27.5935 35.4804 27.5138 35.779 27.2805 35.9142L27.2678 35.9215C27.1906 35.9661 27.1065 35.9873 27.0235 35.9873Z" fill="#6C6CFF"/>
</g>
<defs>
<linearGradient id="paint0_linear_154_5778" x1="-1.2469e-06" y1="25" x2="50" y2="25" gradientUnits="userSpaceOnUse">
<stop stop-color="#FFD9D9" stop-opacity="0"/>
<stop offset="0.9981" stop-color="#FFB3B3"/>
</linearGradient>
<clipPath id="clip0_154_5778">
<rect width="50" height="50" fill="white"/>
</clipPath>
</defs>
</svg>
