<svg width="313" height="283" viewBox="0 0 313 283" fill="none" xmlns="http://www.w3.org/2000/svg">
<path d="M74.0738 37.1055C74.0738 37.1055 39.1811 70.9197 28.8439 109.283C18.5067 147.645 33.4586 187.916 68.6227 210.204C103.787 232.493 150.704 213.139 197.365 219.507C244.025 225.875 287.296 207.725 293.07 160.961C298.844 114.198 265.088 108.138 244.737 62.6514C224.385 17.1647 158.085 -37.8595 74.0738 37.1055Z" fill="#1EE0CC"/>
<path opacity="0.7" d="M74.0738 37.1055C74.0738 37.1055 39.1811 70.9197 28.8439 109.283C18.5067 147.645 33.4586 187.916 68.6227 210.204C103.787 232.493 150.704 213.139 197.365 219.507C244.025 225.875 287.296 207.725 293.07 160.961C298.844 114.198 265.088 108.138 244.737 62.6514C224.385 17.1647 158.085 -37.8595 74.0738 37.1055Z" fill="#1EE0CC"/>
<path d="M299.372 126.854C299.372 126.854 299.372 123.772 295.058 119.451C290.744 115.13 287.964 112.672 287.964 112.672C287.964 112.672 285.807 119.759 289.813 124.08C292.756 127.113 295.946 129.896 299.35 132.4L299.372 126.854Z" fill="#6B48FF"/>
<path d="M293.107 146.105C293.107 146.105 293.107 143.023 288.793 138.709C284.479 134.396 281.706 131.923 281.706 131.923C281.706 131.923 279.505 139.018 283.555 143.331C286.496 146.366 289.687 149.149 293.092 151.651L293.107 146.105Z" fill="#6B48FF"/>
<path d="M299.101 132.107C299.101 132.107 299.424 129.04 304.178 125.203C308.932 121.366 311.94 119.209 311.94 119.209C311.94 119.209 313.341 126.487 308.895 130.353C305.643 133.059 302.17 135.488 298.514 137.616L299.101 132.107Z" fill="#6B48FF"/>
<path d="M291.537 154.843C291.537 154.843 292.182 151.827 297.303 148.511C302.424 145.195 305.66 143.375 305.66 143.375C305.66 143.375 306.283 150.763 301.463 154.146C297.942 156.494 294.231 158.545 290.37 160.279L291.537 154.843Z" fill="#6B48FF"/>
<path d="M292.96 179.633C292.96 179.633 292.96 176.544 297.274 172.23C301.588 167.916 304.361 165.451 304.361 165.451C304.361 165.451 306.518 172.538 302.512 176.852C299.572 179.89 296.382 182.675 292.975 185.179L292.96 179.633Z" fill="#6B48FF"/>
<path d="M292.887 185.678C292.887 185.678 293.32 182.626 289.666 177.74C286.012 172.854 283.613 170.022 283.613 170.022C283.613 170.022 280.466 176.735 283.819 181.577C286.304 185.001 289.073 188.211 292.094 191.173L292.887 185.678Z" fill="#6B48FF"/>
<path d="M288.631 203.645C288.631 203.645 288.631 200.564 292.945 196.25C297.259 191.936 300.033 189.471 300.033 189.471C300.033 189.471 302.197 196.558 298.184 200.872C295.243 203.91 292.053 206.695 288.646 209.199L288.631 203.645Z" fill="#6B48FF"/>
<path d="M291.493 219.874C291.493 219.874 290.708 216.888 293.789 211.62C296.87 206.353 298.925 203.264 298.925 203.264C298.925 203.264 302.806 209.573 300.025 214.768C297.94 218.449 295.552 221.951 292.887 225.237L291.493 219.874Z" fill="#6B48FF"/>
<path d="M299.761 126.061C299.545 129.272 299.151 132.468 298.58 135.635C296.878 144.439 292.608 150.133 290.906 158.1C289.204 166.068 294.097 176.317 292.784 186.544C291.471 196.771 287.494 202.457 288.631 209.287C289.769 216.118 295.873 235.259 295.873 235.259" stroke="#092C48" stroke-width="0.75" stroke-linecap="round" stroke-linejoin="round"/>
<path d="M299.057 134.153L303.708 130.581" stroke="#092C48" stroke-width="0.75" stroke-linecap="round" stroke-linejoin="round"/>
<path d="M299.277 130.045L297.325 126.582" stroke="#092C48" stroke-width="0.75" stroke-linecap="round" stroke-linejoin="round"/>
<path d="M291.163 157.733C291.163 157.733 295.058 154.799 299.057 151.864" stroke="#092C48" stroke-width="0.75" stroke-linecap="round" stroke-linejoin="round"/>
<path d="M292.901 151.108C291.004 147.547 288.755 144.185 286.188 141.072" stroke="#092C48" stroke-width="0.75" stroke-linecap="round" stroke-linejoin="round"/>
<path d="M293.107 184.013C295.33 179.916 298.138 176.164 301.441 172.876" stroke="#092C48" stroke-width="0.75" stroke-linecap="round" stroke-linejoin="round"/>
<path d="M292.351 188.341C291.171 185.56 289.76 182.883 288.133 180.337C285.866 176.984 285.535 176.551 285.535 176.551" stroke="#092C48" stroke-width="0.75" stroke-linecap="round" stroke-linejoin="round"/>
<path d="M288.631 209.28C289.616 206.828 290.788 204.456 292.138 202.185C293.486 200.081 295.005 198.091 296.68 196.235" stroke="#092C48" stroke-width="0.75" stroke-linecap="round" stroke-linejoin="round"/>
<path d="M292.916 225.237C292.691 222.899 293.094 220.544 294.083 218.414C295.704 215.274 297.545 211.165 298.301 209.544" stroke="#092C48" stroke-width="0.75" stroke-linecap="round" stroke-linejoin="round"/>
<path d="M271.112 168.034C271.112 168.034 270.774 166.104 273.012 162.898C275.25 159.692 276.724 157.873 276.724 157.873C276.724 157.873 278.844 162.091 276.805 165.209C275.284 167.433 273.581 169.526 271.713 171.467L271.112 168.034Z" fill="#6B48FF"/>
<path d="M277.128 179.435C277.128 179.435 276.798 177.505 279.035 174.299C281.273 171.093 282.74 169.274 282.74 169.274C282.74 169.274 284.868 173.485 282.821 176.61C281.301 178.832 279.598 180.923 277.729 182.861L277.128 179.435Z" fill="#6B48FF"/>
<path d="M271.853 171.298C271.853 171.298 271.317 169.413 267.92 167.52C264.524 165.627 262.396 164.585 262.396 164.585C262.396 164.585 262.315 169.303 265.521 171.24C267.854 172.587 270.296 173.735 272.821 174.673L271.853 171.298Z" fill="#6B48FF"/>
<path d="M279.065 184.732C279.065 184.732 278.331 182.912 274.758 181.394C271.185 179.875 268.962 179.075 268.962 179.075C268.962 179.075 269.373 183.771 272.763 185.37C275.226 186.461 277.775 187.344 280.385 188.011L279.065 184.732Z" fill="#6B48FF"/>
<path d="M280.862 200.432C280.862 200.432 280.532 198.502 277.355 196.265C274.178 194.027 272.168 192.78 272.168 192.78C272.168 192.78 271.589 197.461 274.567 199.735C276.747 201.316 279.054 202.715 281.464 203.917L280.862 200.432Z" fill="#6B48FF"/>
<path d="M281.566 204.218C281.566 204.218 280.957 202.354 282.726 198.891C284.494 195.428 285.66 193.396 285.66 193.396C285.66 193.396 288.36 197.262 286.783 200.659C285.597 203.077 284.21 205.391 282.638 207.578L281.566 204.218Z" fill="#6B48FF"/>
<path d="M286.981 219.786C286.981 219.786 287.208 217.834 290.245 215.384C293.283 212.933 295.22 211.613 295.22 211.613C295.22 211.613 296.071 216.25 293.224 218.685C291.141 220.393 288.918 221.922 286.577 223.256L286.981 219.786Z" fill="#6B48FF"/>
<path d="M286.181 215.002C286.181 215.002 285.844 213.073 282.674 210.835C279.505 208.598 277.487 207.35 277.487 207.35C277.487 207.35 276.908 212.031 279.886 214.298C282.064 215.885 284.371 217.286 286.783 218.487L286.181 215.002Z" fill="#6B48FF"/>
<path d="M286.137 225.516C286.137 225.516 286.306 223.557 283.797 220.585C281.288 217.614 279.666 215.905 279.666 215.905C279.666 215.905 277.92 220.307 280.231 223.241C281.936 225.325 283.813 227.262 285.844 229.03L286.137 225.516Z" fill="#6B48FF"/>
<path d="M270.782 167.586C271.268 169.573 271.861 171.532 272.557 173.455C274.589 178.796 277.876 181.9 279.813 186.713C281.75 191.525 279.813 198.451 281.72 204.753C283.628 211.055 286.768 214.151 286.797 218.553C286.827 222.955 285.088 235.193 285.088 235.193" stroke="#092C48" stroke-width="0.75" stroke-linecap="round" stroke-linejoin="round"/>
<path d="M272.102 172.582L268.793 170.844" stroke="#092C48" stroke-width="0.75" stroke-linecap="round" stroke-linejoin="round"/>
<path d="M271.515 170.022L272.366 167.645" stroke="#092C48" stroke-width="0.75" stroke-linecap="round" stroke-linejoin="round"/>
<path d="M279.615 186.507C279.615 186.507 276.849 185.099 274.024 183.705" stroke="#092C48" stroke-width="0.75" stroke-linecap="round" stroke-linejoin="round"/>
<path d="M277.707 182.303C278.587 179.958 279.662 177.69 280.921 175.524" stroke="#092C48" stroke-width="0.75" stroke-linecap="round" stroke-linejoin="round"/>
<path d="M281.222 203.198C279.381 200.871 277.214 198.823 274.787 197.116" stroke="#092C48" stroke-width="0.75" stroke-linecap="round" stroke-linejoin="round"/>
<path d="M282.19 205.846C282.627 203.973 283.221 202.14 283.965 200.366C285.022 198.018 285.183 197.717 285.183 197.717" stroke="#092C48" stroke-width="0.75" stroke-linecap="round" stroke-linejoin="round"/>
<path d="M286.643 221.899C287.719 220.574 288.91 219.346 290.202 218.23C291.022 217.623 291.792 216.951 292.505 216.22" stroke="#092C48" stroke-width="0.75" stroke-linecap="round" stroke-linejoin="round"/>
<path d="M286.797 218.553C285.913 217.124 284.919 215.766 283.826 214.489C282.752 213.317 281.584 212.235 280.334 211.253" stroke="#092C48" stroke-width="0.75" stroke-linecap="round" stroke-linejoin="round"/>
<path d="M285.844 229.03C285.731 227.54 285.225 226.107 284.376 224.877C283.019 223.087 281.442 220.71 280.767 219.742" stroke="#092C48" stroke-width="0.75" stroke-linecap="round" stroke-linejoin="round"/>
<path d="M279.637 233.608H300.685V244.488C300.685 244.973 300.493 245.437 300.15 245.78C299.808 246.122 299.343 246.315 298.859 246.315H281.464C280.979 246.315 280.514 246.122 280.172 245.78C279.829 245.437 279.637 244.973 279.637 244.488V233.608Z" fill="#092C48" stroke="#092C48" stroke-linecap="round" stroke-linejoin="round"/>
<path d="M31.9545 141.402C31.9545 141.402 31.9545 138.776 28.2862 135.107C24.618 131.439 22.2409 129.341 22.2409 129.341C22.2409 129.341 20.4068 135.371 23.8109 139.04C26.3197 141.621 29.0387 143.989 31.9399 146.119L31.9545 141.402Z" fill="#6B48FF"/>
<path d="M26.6429 157.77C26.6429 157.77 26.6429 155.151 22.9746 151.482C19.3063 147.814 16.9293 145.687 16.9293 145.687C16.9293 145.687 15.0951 151.71 18.4993 155.385C21.0106 157.976 23.7347 160.352 26.6429 162.487V157.77Z" fill="#6B48FF"/>
<path d="M31.7271 145.863C31.7271 145.863 31.9986 143.258 36.041 139.993C40.0835 136.729 42.6439 134.902 42.6439 134.902C42.6439 134.902 43.8325 141.086 40.0541 144.381C37.2957 146.68 34.3509 148.746 31.2502 150.558L31.7271 145.863Z" fill="#6B48FF"/>
<path d="M25.2929 165.202C25.2929 165.202 25.8432 162.634 30.1938 159.817C34.5443 156.999 37.3029 155.415 37.3029 155.415C37.3029 155.415 37.8311 161.688 33.73 164.563C30.7383 166.564 27.5849 168.311 24.3025 169.787L25.2929 165.202Z" fill="#6B48FF"/>
<path d="M26.5035 186.28C26.5035 186.28 26.5035 183.661 30.1718 179.985C33.8401 176.309 36.1804 174.218 36.1804 174.218C36.1804 174.218 38.0146 180.249 34.6031 183.917C32.1 186.502 29.3832 188.87 26.4815 190.997L26.5035 186.28Z" fill="#6B48FF"/>
<path d="M26.4375 191.423C26.4375 191.423 26.8116 188.833 23.7009 184.673C20.5902 180.513 18.5653 178.107 18.5653 178.107C18.5653 178.107 15.8948 183.815 18.7414 187.938C20.8574 190.849 23.2133 193.578 25.7845 196.096L26.4375 191.423Z" fill="#6B48FF"/>
<path d="M22.8206 206.675C22.8206 206.675 22.8206 204.056 26.4889 200.381C30.1571 196.705 32.5122 194.614 32.5122 194.614C32.5122 194.614 34.3463 200.645 30.9421 204.313C28.4333 206.894 25.7143 209.262 22.8132 211.393L22.8206 206.675Z" fill="#6B48FF"/>
<path d="M25.271 220.519C25.271 220.519 24.6033 217.988 27.2298 213.506C29.8563 209.023 31.6318 206.397 31.6318 206.397C31.6318 206.397 34.9039 211.716 32.5122 216.162C30.7401 219.291 28.7106 222.268 26.4448 225.061L25.271 220.519Z" fill="#6B48FF"/>
<path d="M32.2847 140.727C32.102 143.458 31.7664 146.177 31.2796 148.871C29.8123 156.361 26.2027 161.196 24.7574 167.946C23.3121 174.695 27.4719 183.441 26.3567 192.156C25.2416 200.872 21.8521 205.685 22.8205 211.488C23.7889 217.291 28.9832 233.579 28.9832 233.579" stroke="#092C48" stroke-width="0.75" stroke-linecap="round" stroke-linejoin="round"/>
<path d="M31.6904 147.609L35.6448 144.571" stroke="#092C48" stroke-width="0.75" stroke-linecap="round" stroke-linejoin="round"/>
<path d="M31.8739 144.109L30.2158 141.167" stroke="#092C48" stroke-width="0.75" stroke-linecap="round" stroke-linejoin="round"/>
<path d="M24.9775 167.696C24.9775 167.696 28.2863 165.209 31.6905 162.729" stroke="#092C48" stroke-width="0.75" stroke-linecap="round" stroke-linejoin="round"/>
<path d="M26.4522 162.025C24.8479 158.999 22.9457 156.141 20.7737 153.493" stroke="#092C48" stroke-width="0.75" stroke-linecap="round" stroke-linejoin="round"/>
<path d="M26.6429 190.007C28.5344 186.523 30.9217 183.333 33.73 180.535" stroke="#092C48" stroke-width="0.75" stroke-linecap="round" stroke-linejoin="round"/>
<path d="M25.9826 193.69C24.9802 191.325 23.7826 189.047 22.4023 186.881C20.4655 184.027 20.2014 183.661 20.2014 183.661" stroke="#092C48" stroke-width="0.75" stroke-linecap="round" stroke-linejoin="round"/>
<path d="M22.8206 211.488C23.6603 209.406 24.656 207.39 25.7992 205.457C26.9477 203.67 28.2408 201.979 29.6656 200.403" stroke="#092C48" stroke-width="0.75" stroke-linecap="round" stroke-linejoin="round"/>
<path d="M26.4668 225.061C26.2748 223.073 26.6167 221.069 27.4572 219.258C28.8365 216.587 30.3919 213.095 31.0448 211.716" stroke="#092C48" stroke-width="0.75" stroke-linecap="round" stroke-linejoin="round"/>
<path d="M7.91999 176.419C7.91999 176.419 7.6412 174.776 9.54137 172.076C11.4415 169.376 12.6961 167.806 12.6961 167.806C12.6961 167.806 14.5009 171.387 12.7621 174.057C11.4703 175.948 10.0224 177.727 8.43355 179.376L7.91999 176.419Z" fill="#6B48FF"/>
<path d="M13.0409 186.111C13.0409 186.111 12.7548 184.468 14.6623 181.768C16.5698 179.068 17.817 177.49 17.817 177.49C17.817 177.49 19.6218 181.078 17.8831 183.749C16.5912 185.639 15.1433 187.419 13.5545 189.068L13.0409 186.111Z" fill="#6B48FF"/>
<path d="M8.55094 179.193C8.55094 179.193 8.09607 177.593 5.2128 175.986C2.32954 174.38 0.517404 173.507 0.517404 173.507C0.517404 173.507 0.444039 177.512 3.1659 179.171C5.14962 180.32 7.22572 181.301 9.37263 182.105L8.55094 179.193Z" fill="#6B48FF"/>
<path d="M14.6843 190.623C14.6843 190.623 14.0607 189.075 11.016 187.776C7.97135 186.478 6.10052 185.803 6.10052 185.803C6.10052 185.803 6.45268 189.801 9.33595 191.159C11.4291 192.088 13.596 192.841 15.8141 193.411L14.6843 190.623Z" fill="#6B48FF"/>
<path d="M16.2177 203.968C16.2177 203.968 15.9315 202.325 13.2317 200.425C10.5318 198.524 8.82973 197.49 8.82973 197.49C8.82973 197.49 8.3015 201.444 10.862 203.374C12.7167 204.72 14.6798 205.91 16.7312 206.932L16.2177 203.968Z" fill="#6B48FF"/>
<path d="M16.8119 207.189C16.8119 207.189 16.2983 205.604 17.795 202.662C19.2916 199.72 20.3114 197.989 20.3114 197.989C20.3114 197.989 22.6078 201.276 21.2652 204.166C20.2578 206.218 19.0798 208.181 17.7436 210.035L16.8119 207.189Z" fill="#6B48FF"/>
<path d="M21.4193 220.453C21.4193 220.453 21.61 218.795 24.1998 216.741C26.7896 214.687 28.4257 213.535 28.4257 213.535C28.4257 213.535 29.1594 217.475 26.731 219.551C24.9576 221.007 23.0655 222.313 21.0745 223.454L21.4193 220.453Z" fill="#6B48FF"/>
<path d="M20.7736 216.36C20.7736 216.36 20.4875 214.716 17.7877 212.816C15.0878 210.916 13.3857 209.881 13.3857 209.881C13.3857 209.881 12.8868 213.865 15.4253 215.795C17.2792 217.142 19.2424 218.332 21.2945 219.353L20.7736 216.36Z" fill="#6B48FF"/>
<path d="M20.7003 225.296C20.7003 225.296 20.8397 223.638 18.7121 221.106C16.5845 218.575 15.1979 217.13 15.1979 217.13C15.1979 217.13 13.7306 220.85 15.6748 223.366C17.127 225.137 18.7246 226.784 20.4509 228.289L20.7003 225.296Z" fill="#6B48FF"/>
<path d="M7.64124 176.038C8.05625 177.729 8.56074 179.397 9.15257 181.034C10.8767 185.575 13.6792 188.209 15.3226 192.303C16.966 196.397 15.3226 202.31 16.944 207.644C18.5654 212.977 21.2359 215.641 21.2579 219.382C21.2799 223.124 19.7906 233.534 19.7906 233.534" stroke="#092C48" stroke-width="0.75" stroke-linecap="round" stroke-linejoin="round"/>
<path d="M8.7637 180.286L5.9538 178.811" stroke="#092C48" stroke-width="0.75" stroke-linecap="round" stroke-linejoin="round"/>
<path d="M8.27216 178.114L8.99114 176.089" stroke="#092C48" stroke-width="0.75" stroke-linecap="round" stroke-linejoin="round"/>
<path d="M15.1539 192.127C15.1539 192.127 12.8062 190.931 10.3998 189.743" stroke="#092C48" stroke-width="0.75" stroke-linecap="round" stroke-linejoin="round"/>
<path d="M13.5325 188.554C14.284 186.56 15.1993 184.631 16.269 182.787" stroke="#092C48" stroke-width="0.75" stroke-linecap="round" stroke-linejoin="round"/>
<path d="M16.5405 206.323C14.9729 204.357 13.1295 202.627 11.0674 201.188" stroke="#092C48" stroke-width="0.75" stroke-linecap="round" stroke-linejoin="round"/>
<path d="M17.3401 208.561C17.7144 206.969 18.2199 205.411 18.8515 203.902C19.7539 201.907 19.8859 201.642 19.8859 201.642" stroke="#092C48" stroke-width="0.75" stroke-linecap="round" stroke-linejoin="round"/>
<path d="M21.1332 222.222C22.0457 221.09 23.0572 220.041 24.1558 219.089C24.8536 218.572 25.5086 218.001 26.1147 217.379" stroke="#092C48" stroke-width="0.75" stroke-linecap="round" stroke-linejoin="round"/>
<path d="M21.2578 219.382C20.5069 218.167 19.6632 217.012 18.7341 215.927C17.8331 214.928 16.8516 214.006 15.7994 213.168" stroke="#092C48" stroke-width="0.75" stroke-linecap="round" stroke-linejoin="round"/>
<path d="M20.4508 228.289C20.352 227.02 19.9191 225.8 19.1963 224.753C18.0444 223.234 16.6798 221.209 16.1296 220.417" stroke="#092C48" stroke-width="0.75" stroke-linecap="round" stroke-linejoin="round"/>
<path d="M14.0533 233.608H35.1019V244.488C35.102 244.73 35.0538 244.97 34.9601 245.194C34.8665 245.418 34.7293 245.62 34.5566 245.79C34.3838 245.96 34.1789 246.094 33.9539 246.184C33.7289 246.274 33.4881 246.319 33.2458 246.315H15.8801C15.3957 246.315 14.931 246.122 14.5884 245.78C14.2458 245.437 14.0533 244.973 14.0533 244.488V233.608Z" fill="#092C48" stroke="#092C48" stroke-linecap="round" stroke-linejoin="round"/>
<path d="M214.562 97.2653C211.993 100.462 210.25 104.241 209.485 108.27C208.135 115.115 204.811 127.976 205.229 132.437C205.648 136.897 206.697 139.384 210.725 140.111C214.752 140.837 217.049 137.308 217.885 134.3C218.415 132.321 218.829 130.312 219.125 128.284L219.954 111.938C219.954 111.938 218.487 102.115 217.79 100.046C217.093 97.9769 214.562 97.2653 214.562 97.2653Z" fill="#6B48FF" stroke="#092C48" stroke-linecap="round" stroke-linejoin="round"/>
<path d="M268.515 93.9931C268.515 93.9931 269.982 93.6703 271.376 98.7619C272.77 103.853 274.45 111.161 277.201 120.17C279.952 129.179 280.488 132.151 280.275 134.161C280.062 136.171 278.478 138.401 272.939 138.401C267.399 138.401 264.868 136.281 263.401 131.512C261.934 126.744 262.146 112.012 262.044 110.104C261.941 108.197 266.813 93.0393 268.515 93.9931Z" fill="#6B48FF" stroke="#092C48" stroke-linecap="round" stroke-linejoin="round"/>
<path d="M230.673 252.243C230.673 252.243 227.07 256.058 224.95 258.501C222.83 260.944 222.089 262.419 225.581 263.901C229.073 265.383 234.488 263.167 236.08 260.724C237.672 258.281 241.061 255.53 241.061 255.53C241.061 255.53 242.859 253.519 240.526 250.658C238.193 247.797 231.729 251.076 230.673 252.243Z" fill="white" stroke="#092C48" stroke-linecap="round" stroke-linejoin="round"/>
<path d="M252.293 255.427C252.293 255.427 255.896 255.955 257.803 257.628C259.711 259.301 266.394 263.035 270.84 261.23C275.286 259.425 272.432 256.461 269.997 254.341C268.629 253.128 267.136 252.063 265.543 251.164C265.543 251.164 258.441 250.636 255.272 252.221C252.103 253.806 252.293 255.427 252.293 255.427Z" fill="white" stroke="#092C48" stroke-linecap="round" stroke-linejoin="round"/>
<path d="M226.535 206.132C226.535 206.132 228.237 218.854 227.386 222.669C226.535 226.484 224.099 228.714 225.919 232.427C227.265 235.297 228.251 238.323 228.853 241.436C229.066 242.705 227.899 243.021 228.853 244.371C229.548 245.241 230.119 246.204 230.548 247.232C230.548 247.555 229.279 249.352 229.279 249.778C229.279 250.203 229.917 252.852 229.917 252.852C229.917 252.852 233.306 252.118 235.742 253.064C237.507 253.824 239.178 254.784 240.724 255.926C240.724 255.926 242.925 255.075 243.695 253.805C244.11 253.14 244.362 252.386 244.429 251.604C244.531 251.179 245.595 248.949 245.492 247.254C245.39 245.559 244.216 241.957 244.216 239.837C244.216 237.716 245.808 235.383 245.808 231.994C245.808 228.604 244.216 206.873 244.216 206.873L245.683 206.338C245.683 206.338 248.016 219.272 248.016 225.318C248.016 231.363 246.219 238.883 247.385 240.365C248.552 241.847 249.924 243.123 249.924 243.439C249.924 243.754 248.544 246.087 248.867 247.254C249.371 248.786 249.794 250.344 250.137 251.92C250.137 252.558 251.303 254.994 252.257 255.419C253.211 255.845 253.724 254.884 259.359 253.725C264.993 252.565 268.162 252.874 267.627 251.179C267.091 249.484 266.57 247.254 265.932 246.828C265.294 246.403 266.145 246.095 265.932 244.503C265.719 242.911 264.553 241.216 263.496 238.67C262.44 236.124 263.915 233.373 264.34 230.717C264.766 228.061 264.127 224.114 263.071 219.8C262.014 215.486 262.961 204.856 262.961 204.856L263.496 200.725C263.496 200.725 247.275 202.193 237.312 202.097L226.608 201.995C226.608 201.995 225.904 202.743 226.535 206.132Z" fill="#092C48" stroke="#092C48" stroke-linecap="round" stroke-linejoin="round"/>
<path d="M267.664 161.827C267.664 161.827 269.131 181.122 271.053 191.173C272.159 196.846 272.86 202.59 273.151 208.363H265.441C265.118 208.363 265.969 172.641 266.174 169.479C266.454 166.891 266.952 164.331 267.664 161.827Z" fill="#6B48FF" stroke="#092C48" stroke-linecap="round" stroke-linejoin="round"/>
<path d="M235.735 83.3258C235.735 83.3258 226.726 89.3638 222.067 91.4841C217.408 93.6044 214.855 96.3629 214.54 97.3533C214.224 98.3438 219.624 113.567 219.624 113.567C219.624 113.567 219.308 163.918 219.308 172.399C219.308 180.88 216.66 206.419 216.975 206.419C217.291 206.419 225.779 211.936 237.43 212.251C249.08 212.567 252.836 210.872 256.505 210.872C260.173 210.872 267.51 210.872 267.634 209.815C267.759 208.759 267.847 185.326 267.95 174.409C268.052 163.492 268.163 155.752 267.95 153.955C267.737 152.157 264.773 113.354 264.773 113.354C264.773 113.354 266.974 106.891 268.273 101.697C269.571 96.5023 269.542 95.864 267.95 93.5383C266.358 91.2126 254.414 84.8738 252.294 84.0595C249.688 83.1475 246.975 82.5779 244.223 82.3647C242.228 82.2254 235.735 83.3258 235.735 83.3258Z" fill="#6B48FF" stroke="#092C48" stroke-linecap="round" stroke-linejoin="round"/>
<path d="M215.831 126.428C215.831 126.428 217.21 129.605 218.905 130.984C220.6 132.363 224.525 133.002 225.368 135.122C226.212 137.242 225.368 138.827 224.415 141.373C223.461 143.918 223.996 148.159 220.497 148.709C216.997 149.259 215.941 147.976 213.072 145.951C210.204 143.926 208.414 143.618 206.719 140.544C205.024 137.47 204.518 133.207 205.985 130.903" fill="#6B48FF"/>
<path d="M215.831 126.428C215.831 126.428 217.21 129.605 218.905 130.984C220.6 132.363 224.525 133.002 225.368 135.122C226.212 137.242 225.368 138.827 224.415 141.373C223.461 143.918 223.996 148.159 220.497 148.709C216.997 149.259 215.941 147.976 213.072 145.951C210.204 143.926 208.414 143.618 206.719 140.544C205.024 137.47 204.518 133.207 205.985 130.903" stroke="#092C48" stroke-linecap="round" stroke-linejoin="round"/>
<path d="M235.339 79.1512L235.001 88.0578C235.001 88.0578 234.158 89.327 239.242 89.6425C242.51 89.8139 245.786 89.5673 248.992 88.9089L248.148 79.2686C248.148 79.2686 242.844 81.4696 239.77 80.4351C238.328 79.8928 236.847 79.4635 235.339 79.1512Z" fill="white" stroke="#092C48" stroke-linecap="round" stroke-linejoin="round"/>
<path d="M233.321 76.9283C233.321 76.9283 232.588 87.1995 232.052 90.2809C231.516 93.3622 231.626 95.2624 232.786 96.0034C233.945 96.7444 240.731 99.4002 244.231 99.1875C247.73 98.9747 253.034 95.7906 253.453 94.8369C253.871 93.8831 250.283 78.9239 250.283 78.9239L249.748 79.5622C249.748 79.5622 250.701 87.4049 250.386 87.6324C250.071 87.8598 237.774 86.9941 235.544 86.8987C233.314 86.8034 233.959 86.686 233.959 86.686L233.849 77.6767L233.321 76.9283Z" fill="white" stroke="#092C48" stroke-linecap="round" stroke-linejoin="round"/>
<path d="M232.984 89.151C232.984 89.151 244.568 90.8604 251.516 89.5178" stroke="#092C48" stroke-width="0.5" stroke-miterlimit="10"/>
<path d="M232.499 91.8362C232.499 91.8362 240.57 95.2477 251.516 92.1957" stroke="#092C48" stroke-width="0.5" stroke-miterlimit="10"/>
<path d="M233.35 95.0055C233.35 95.0055 241.032 99.1507 251.516 94.7561" stroke="#092C48" stroke-width="0.5" stroke-miterlimit="10"/>
<path d="M252.088 66.1142C252.352 62.8568 252.572 59.5113 251.765 57.8459C250.496 55.1974 246.674 52.1234 241.164 52.3361C235.654 52.5489 230.988 54.6692 231.098 61.4481C231.098 61.4481 231.333 63.4657 231.604 65.9381C231.1 67.0178 230.924 68.222 231.098 69.401C231.269 70.5322 231.666 71.6175 232.265 72.5924C232.316 73.2233 232.353 73.7662 232.367 74.1698C232.47 77.031 234.378 80.4205 236.08 81.587C237.782 82.7535 240.951 84.5583 242.969 84.5583C244.986 84.5583 248.581 82.6508 250.305 79.8923C251.64 77.6913 251.773 76.224 251.773 73.6342H251.875C252.179 72.274 252.358 70.889 252.411 69.4964C252.454 68.3596 252.346 67.2222 252.088 66.1142Z" fill="white" stroke="#092C48" stroke-linecap="round" stroke-linejoin="round"/>
<path d="M232.067 66.7524C232.067 66.7524 232.382 69.4009 232.91 69.2909C233.439 69.1808 234.077 65.3732 234.077 65.3732L232.067 66.7524Z" fill="#092C48" stroke="#092C48" stroke-linecap="round" stroke-linejoin="round"/>
<path d="M250.07 66.4517C250.07 66.4517 250.07 69.423 250.804 69.8485C251.538 70.274 252.073 67.3027 252.073 67.3027C251.472 66.8825 250.79 66.5926 250.07 66.4517Z" fill="#092C48" stroke="#092C48" stroke-linecap="round" stroke-linejoin="round"/>
<path d="M251.765 57.8459C250.496 55.1974 246.674 52.1234 241.164 52.3361C235.654 52.5489 230.988 54.6692 231.098 61.4482C231.098 61.4482 231.333 63.4657 231.604 65.9381C231.27 66.655 231.078 67.4299 231.039 68.2198C233.101 66.5691 236.96 64.2067 241.802 64.6322C245.57 65.0616 249.192 66.3383 252.396 68.3665C252.363 67.6079 252.259 66.854 252.088 66.1142C252.352 62.8568 252.609 59.5333 251.765 57.8459Z" fill="#6B48FF" stroke="#092C48" stroke-linecap="round" stroke-linejoin="round"/>
<path d="M240.423 68.6526L239.785 72.4677C239.785 72.4677 238.618 72.5704 239.051 73.3114C239.484 74.0524 241.699 74.9034 242.763 74.5879C243.827 74.2725 244.884 73.2087 244.774 72.7831C244.741 72.6559 244.675 72.5397 244.582 72.4467C244.489 72.3538 244.373 72.2876 244.245 72.2549L242.866 68.3298" stroke="#092C48" stroke-linecap="round" stroke-linejoin="round"/>
<path d="M239.256 76.5028C241.292 76.942 243.404 76.8689 245.404 76.29" stroke="#092C48" stroke-linecap="round" stroke-linejoin="round"/>
<path d="M238.09 68.4986C238.09 69.0562 237.804 69.5038 237.452 69.5038C237.099 69.5038 236.821 69.0562 236.821 68.4986C236.821 67.9411 237.107 67.4935 237.452 67.4935C237.796 67.4935 238.09 67.919 238.09 68.4986Z" fill="#092C48"/>
<path d="M246.145 68.4472C246.145 69.0048 245.859 69.4524 245.514 69.4524C245.17 69.4524 244.876 69.0048 244.876 68.4472C244.876 67.8897 245.162 67.4421 245.514 67.4421C245.867 67.4421 246.145 67.919 246.145 68.4472Z" fill="#092C48"/>
<path d="M235.654 66.9653C235.654 66.9653 236.388 65.1605 238.728 65.7988" stroke="#092C48" stroke-linecap="round" stroke-linejoin="round"/>
<path d="M243.497 65.9014C243.497 65.9014 245.698 64.3093 247.312 67.0679" stroke="#092C48" stroke-linecap="round" stroke-linejoin="round"/>
<path d="M223.461 139.678C223.461 139.678 229.932 141.145 231.414 140.844C233.356 140.482 235.135 139.517 236.498 138.086C238.413 136.178 239.997 134.586 239.997 136.178C240.004 136.807 239.885 137.43 239.649 138.012C239.412 138.594 239.062 139.123 238.618 139.568C237.884 140.419 236.498 141.373 236.182 142.752C235.867 144.131 236.292 145.188 237.987 145.826C239.682 146.464 244.979 147.411 244.979 148.761C244.979 150.11 244.553 153.324 242.646 154.38C240.738 155.437 236.08 154.696 236.08 154.696C236.08 154.696 239.895 156.816 239.154 157.352C238.413 157.887 236.182 157.139 235.126 156.185C234.069 155.231 233.659 155.121 230.563 152.898C227.467 150.675 224.84 148.02 223.358 147.176C222.555 146.8 221.813 146.305 221.157 145.709C220.306 144.975 219.991 143.508 220.622 141.791C220.837 141.282 221.155 140.824 221.557 140.445C221.958 140.066 222.434 139.775 222.955 139.59L223.461 139.678Z" fill="white" stroke="#092C48" stroke-linecap="round" stroke-linejoin="round"/>
<path d="M273.812 127.595C273.812 127.595 266.182 129.062 265.441 129.605C264.7 130.148 265.441 132.363 265.441 132.363C265.441 132.363 258.97 135.437 256.534 137.132C254.098 138.827 256.321 142.224 256.431 142.642C256.431 142.642 258.339 148.9 261.516 151.02C264.692 153.14 267.979 152.392 271.163 149.003C274.347 145.613 276.357 140.932 277.839 139.355C279.321 137.778 280.913 136.281 280.385 132.752C279.857 129.223 277.098 128.827 277.098 128.827" fill="#6B48FF"/>
<path d="M273.812 127.595C273.812 127.595 266.182 129.062 265.441 129.605C264.7 130.148 265.441 132.363 265.441 132.363C265.441 132.363 258.97 135.437 256.534 137.132C254.098 138.827 256.321 142.224 256.431 142.642C256.431 142.642 258.339 148.9 261.516 151.02C264.692 153.14 267.979 152.392 271.163 149.003C274.347 145.613 276.357 140.932 277.839 139.355C279.321 137.778 280.913 136.281 280.385 132.752C279.857 129.223 277.098 128.827 277.098 128.827" stroke="#092C48" stroke-linecap="round" stroke-linejoin="round"/>
<path d="M258.229 141.585C258.229 141.585 253.357 142.855 251.978 142.965C250.599 143.075 250.386 143.28 249.542 142.642C248.699 142.004 244.766 139.707 242.939 137.558C241.113 135.408 239.755 135.012 239.968 136.178C240.181 137.345 239.755 138.189 241.032 139.04C242.308 139.891 243.57 142.224 243.57 143.177C243.57 144.131 243.468 144.447 240.819 145.378C238.171 146.31 232.125 147.499 232.749 148.24C233.372 148.981 234.656 149.193 236.036 149.091C237.415 148.988 243.137 148.137 243.556 148.452C243.694 148.594 243.797 148.765 243.857 148.954C243.917 149.142 243.933 149.341 243.902 149.537C243.871 149.732 243.796 149.917 243.681 150.078C243.566 150.239 243.415 150.371 243.24 150.463C242.286 151.101 238.897 151.101 236.879 151.314C234.862 151.526 234.759 152.047 235.61 152.48C236.977 152.99 238.43 153.227 239.887 153.177C241.582 153.177 243.556 153.008 242.712 153.537C241.868 154.065 240.694 154.175 238.574 154.49C236.454 154.806 235.713 153.86 236.036 154.703C236.358 155.547 238.897 155.554 242.074 155.437C244.965 155.289 247.773 154.416 250.239 152.898C252.359 151.622 260.092 149.714 260.628 149.296C261.163 148.878 262 146.428 261.471 143.464C260.943 140.5 258.229 141.585 258.229 141.585Z" fill="white" stroke="#092C48" stroke-linecap="round" stroke-linejoin="round"/>
<path d="M266.607 129.179C268.673 127.47 270.91 125.98 273.283 124.733" stroke="#092C48" stroke-linecap="round" stroke-linejoin="round"/>
<path d="M237.349 149.149C237.349 149.149 243.38 148.46 243.989 148.372C244.597 148.284 245.713 148.973 245.192 149.751C244.671 150.529 244.414 150.353 242.257 150.785C240.116 151.111 237.952 151.256 235.786 151.218" fill="white"/>
<path d="M237.349 149.149C237.349 149.149 243.38 148.46 243.989 148.372C244.597 148.284 245.713 148.973 245.192 149.751C244.671 150.529 244.414 150.353 242.257 150.785C240.116 151.111 237.952 151.256 235.786 151.218" stroke="#092C48" stroke-linecap="round" stroke-linejoin="round"/>
<path d="M238.039 153.287C238.039 153.287 244.759 152.854 244.59 153.375C244.421 153.896 243.988 154.578 241.575 154.755C239.161 154.931 236.439 155.099 234.158 153.977" fill="white"/>
<path d="M238.039 153.287C238.039 153.287 244.759 152.854 244.59 153.375C244.421 153.896 243.988 154.578 241.575 154.755C239.161 154.931 236.439 155.099 234.158 153.977" stroke="#092C48" stroke-linecap="round" stroke-linejoin="round"/>
<path d="M170.821 247.019C170.821 247.019 171.965 248.156 167.402 250.944C162.839 253.732 159.031 255.001 159.031 256.652C159.031 258.303 164.101 259.946 169.302 258.677C174.504 257.408 176.639 257.034 179.574 256.527C182.508 256.021 183.381 253.483 183.381 249.924C183.381 246.366 175.648 245.522 174.761 245.361C173.873 245.2 171.459 245.625 170.821 247.019Z" fill="white" stroke="#092C48" stroke-linecap="round" stroke-linejoin="round"/>
<path d="M182.229 249.932C180.309 252.809 177.958 255.375 175.26 257.54C171.327 260.474 170.821 261.846 172.853 262.609C174.885 263.372 180.711 263.622 184.643 262.103C188.575 260.584 190.476 258.303 191.613 257.283C192.75 256.263 193.388 256.901 193.388 252.844C193.388 248.787 189.074 247.393 185.531 247.65C181.987 247.907 182.229 249.932 182.229 249.932Z" fill="white" stroke="#092C48" stroke-linecap="round" stroke-linejoin="round"/>
<path d="M166.771 167.278C166.771 167.278 167.916 190.352 168.297 197.072C168.679 203.792 171.467 229.015 171.966 234.973C172.464 240.93 172.472 242.705 172.472 242.705C172.472 242.705 170.19 244.356 170.19 244.738C170.19 245.119 169.933 248.663 169.933 248.663C171.617 249.59 173.405 250.314 175.26 250.82C177.297 251.279 179.395 251.408 181.474 251.201C181.474 251.201 185.656 252.595 189.206 253.607C192.757 254.62 194.151 254.114 194.151 254.114C194.151 254.114 195.164 249.044 195.413 247.393C195.663 245.743 199.977 228.252 199.977 220.248C199.977 212.244 198.964 208.583 197.445 203.895C195.927 199.207 199.47 182.465 200.74 176.383C201.467 172.99 202.018 169.562 202.39 166.112C202.39 166.112 191.488 171.717 166.771 167.278Z" fill="#092C48" stroke="#092C48" stroke-linecap="round" stroke-linejoin="round"/>
<path d="M180.967 175.033C180.967 175.033 180.329 191.907 180.329 198.356C180.329 204.805 181.98 212.684 182.736 220.292C183.491 227.9 182.992 240.321 182.105 242.478C181.217 244.635 180.586 245.412 180.711 247.041C180.835 248.67 180.967 250.966 180.967 250.966" stroke="white" stroke-linecap="round" stroke-linejoin="round"/>
<path d="M178.935 76.8843C178.935 76.8843 178.202 74.6026 177.028 75.4904C175.854 76.3781 176.654 78.0288 177.666 79.6795C178.678 81.3302 179.816 81.7044 179.948 80.8167C180.08 79.929 178.935 76.8843 178.935 76.8843Z" fill="white" stroke="#092C48" stroke-linecap="round" stroke-linejoin="round"/>
<path d="M178.935 77.9041L177.666 74.2358C177.666 74.2358 172.347 72.0789 173.998 66.7525C175.648 61.4262 188.326 56.6134 191.745 56.6134C195.164 56.6134 201.759 61.1767 202.904 66.5031C204.048 71.8294 200.241 76.6422 200.241 76.6422C200.241 76.6422 198.59 81.3303 197.306 81.0808C196.022 80.8314 196.792 77.1484 195.149 74.2358C193.506 71.3232 192.486 69.8339 190.71 70.5675C188.935 71.3012 181.584 73.5022 180.953 74.4926C180.322 75.483 179.192 78.535 178.935 77.9041Z" fill="#092C48" stroke="#092C48" stroke-linecap="round" stroke-linejoin="round"/>
<path d="M204.672 130.133L205.303 133.427L197.445 145.599L199.221 148.386C202.948 145.901 206.354 142.964 209.36 139.641C214.429 134.066 214.936 133.303 214.936 131.021C214.936 128.739 213.168 124.807 213.168 124.807C213.168 124.807 209.617 130.133 204.672 130.133Z" fill="white" stroke="#092C48" stroke-linecap="round" stroke-linejoin="round"/>
<path d="M161.694 122.782C161.694 122.782 159.156 128.864 159.669 130.764C160.183 132.664 168.921 143.823 168.921 143.823L170.439 139.641C170.439 139.641 167.145 132.796 167.145 130.515C167.145 128.233 168.29 123.794 168.29 123.794L161.694 122.782Z" stroke="#092C48" stroke-linecap="round" stroke-linejoin="round"/>
<path d="M184.137 92.6066C184.137 92.6066 173.235 96.7884 171.202 97.4267C169.17 98.065 167.776 98.4391 167.652 99.0701C167.527 99.701 161.445 115.299 160.315 117.456C159.185 119.612 157.652 122.019 157.652 122.019C159.129 122.942 160.652 123.79 162.215 124.557C163.81 125.254 165.465 125.804 167.16 126.201L167.894 134.953L160.41 167.909C160.41 167.909 175.37 172.091 185.355 171.717C191.712 171.5 197.998 170.302 203.99 168.166C205.897 167.528 208.81 166.39 208.81 166.39L199.272 130.515L200.006 125.188L200.512 130.39C200.512 130.39 205.582 131.527 208.494 130.764C211.407 130.001 215.097 127.096 215.097 127.096L205.714 97.8155L188.223 92.9954L184.137 92.6066Z" fill="#6B48FF" stroke="#092C48" stroke-linecap="round" stroke-linejoin="round"/>
<path d="M196.455 95.2257L188.319 92.9881L184.137 92.6066L180.373 94.0739C180.3 96.0694 180.204 99.4663 180.204 103.538C180.204 110.141 180.938 115.966 182.868 114.822C184.797 113.677 193.872 101.388 195.413 97.9476C195.83 97.0683 196.178 96.1583 196.455 95.2257Z" fill="#6B48FF" stroke="#092C48" stroke-linecap="round" stroke-linejoin="round"/>
<path d="M200.109 125.188C199.852 124.939 198.715 114.029 198.715 114.029" stroke="#092C48" stroke-linecap="round" stroke-linejoin="round"/>
<path d="M167.145 126.201C167.145 126.201 166.258 121.894 166.514 120.243C166.771 118.593 168.539 108.835 168.539 108.835" stroke="#092C48" stroke-linecap="round" stroke-linejoin="round"/>
<path d="M171.459 144.461C171.459 144.461 165.627 146.362 165.627 146.743C165.627 147.125 165.495 148.893 165.495 148.893L171.459 146.105V144.461Z" stroke="#092C48" stroke-linecap="round" stroke-linejoin="round"/>
<path d="M186.925 145.349L186.668 146.993L199.345 150.287L199.976 149.025L186.925 145.349Z" stroke="#092C48" stroke-linecap="round" stroke-linejoin="round"/>
<path d="M191.107 120.141C190.933 120.141 190.767 120.072 190.645 119.949C190.522 119.827 190.454 119.661 190.454 119.488C190.454 117.287 191.547 111.975 192.611 106.839C193.454 102.753 194.254 98.8867 194.254 97.6761C194.287 97.009 194.176 96.3426 193.931 95.7214C193.686 95.1002 193.31 94.5385 192.831 94.0739C191.312 92.6652 188.612 92.093 184.812 92.3718C176.881 92.9587 176.301 110.713 176.294 110.882C176.29 111.053 176.22 111.215 176.098 111.334C175.976 111.453 175.812 111.52 175.641 111.52C175.555 111.517 175.471 111.498 175.393 111.462C175.315 111.427 175.244 111.376 175.186 111.314C175.127 111.251 175.081 111.177 175.051 111.097C175.021 111.017 175.007 110.931 175.01 110.845C175.01 110.068 175.634 91.7702 184.738 91.0365C188.92 90.7357 191.95 91.418 193.74 93.0908C194.35 93.6781 194.83 94.3874 195.147 95.1724C195.464 95.9575 195.612 96.8006 195.582 97.6468C195.582 98.9894 194.812 102.738 193.916 107.074C192.911 111.909 191.782 117.389 191.782 119.458C191.786 119.548 191.771 119.638 191.739 119.723C191.706 119.807 191.657 119.883 191.593 119.947C191.53 120.011 191.454 120.062 191.37 120.095C191.286 120.128 191.197 120.144 191.107 120.141Z" fill="#092C48" stroke="#092C48" stroke-linecap="round" stroke-linejoin="round"/>
<path d="M182.736 88.6815C182.736 88.6815 182.736 92.3497 182.611 93.0834C182.486 93.817 182.611 97.0158 182.611 101.33C182.611 105.644 183.344 108.549 184.386 107.536C185.428 106.524 192.119 97.522 192.5 95.7466C192.724 94.7486 192.852 93.7315 192.882 92.7092L193.388 87.6323C193.388 87.6323 185.531 89.914 182.229 88.9016" fill="white"/>
<path d="M182.736 88.6815C182.736 88.6815 182.736 92.3497 182.611 93.0834C182.486 93.817 182.611 97.0158 182.611 101.33C182.611 105.644 183.344 108.549 184.386 107.536C185.428 106.524 192.119 97.522 192.5 95.7466C192.724 94.7486 192.852 93.7315 192.882 92.7092L193.388 87.6323C193.388 87.6323 185.531 89.914 182.229 88.9016" stroke="#092C48" stroke-linecap="round" stroke-linejoin="round"/>
<path d="M195.795 81.0734C196.455 85.4772 196.625 89.9407 196.301 94.382C195.795 102.115 194.877 105.739 192.633 106.854C190.388 107.969 193.285 109.231 196.704 109.356C200.123 109.481 205.2 108.974 206.088 98.8352C206.976 88.6961 199.624 82.1006 198.986 80.8313C198.823 80.5366 198.578 80.2949 198.282 80.1349C197.985 79.975 197.649 79.9035 197.313 79.929C196.977 79.9545 196.655 80.0759 196.386 80.2787C196.117 80.4816 195.912 80.7574 195.795 81.0734Z" fill="#092C48" stroke="#092C48" stroke-linecap="round" stroke-linejoin="round"/>
<path d="M171.078 119.759H171.026C170.937 119.754 170.851 119.73 170.771 119.69C170.692 119.649 170.622 119.593 170.565 119.524C170.508 119.455 170.467 119.375 170.443 119.289C170.419 119.204 170.413 119.114 170.425 119.026C170.425 118.666 171.158 110.178 175.641 110.178C180.124 110.178 180.226 118.343 180.226 118.695C180.226 118.869 180.158 119.035 180.035 119.157C179.913 119.28 179.747 119.348 179.574 119.348C179.4 119.348 179.234 119.28 179.112 119.157C178.989 119.035 178.921 118.869 178.921 118.695C178.921 118.622 178.825 111.491 175.648 111.491C172.919 111.491 171.899 117.001 171.738 119.128C171.73 119.298 171.658 119.459 171.535 119.576C171.412 119.694 171.248 119.759 171.078 119.759Z" fill="#092C48"/>
<path d="M171.078 118.6C171.078 118.6 171.078 124.939 171.327 126.201C171.577 127.463 174.753 130.133 178.554 131.784" stroke="#092C48" stroke-width="2" stroke-linecap="round" stroke-linejoin="round"/>
<path d="M179.317 117.808C179.317 117.808 179.566 124.146 178.304 126.934C177.042 129.722 173.235 130.867 171.584 131.498" stroke="#092C48" stroke-width="2" stroke-linecap="round" stroke-linejoin="round"/>
<path d="M180.329 132.033C180.306 131.747 180.176 131.479 179.965 131.284C179.753 131.089 179.476 130.98 179.188 130.98C178.901 130.98 178.623 131.089 178.412 131.284C178.201 131.479 178.071 131.747 178.047 132.033C178.035 132.191 178.055 132.349 178.107 132.499C178.158 132.648 178.24 132.785 178.347 132.901C178.454 133.017 178.585 133.11 178.729 133.173C178.874 133.237 179.03 133.269 179.188 133.269C179.346 133.269 179.503 133.237 179.647 133.173C179.792 133.11 179.922 133.017 180.029 132.901C180.136 132.785 180.218 132.648 180.27 132.499C180.322 132.349 180.342 132.191 180.329 132.033Z" fill="white" stroke="#092C48" stroke-linecap="round" stroke-linejoin="round"/>
<path d="M172.472 131.784C172.473 131.557 172.407 131.335 172.282 131.146C172.157 130.957 171.979 130.809 171.77 130.721C171.561 130.633 171.331 130.61 171.108 130.653C170.886 130.696 170.681 130.805 170.521 130.965C170.36 131.124 170.25 131.328 170.205 131.55C170.16 131.773 170.183 132.003 170.269 132.213C170.355 132.422 170.502 132.601 170.691 132.728C170.879 132.854 171.1 132.921 171.327 132.921C171.629 132.921 171.919 132.801 172.134 132.588C172.348 132.375 172.47 132.086 172.472 131.784Z" fill="white" stroke="#092C48" stroke-linecap="round" stroke-linejoin="round"/>
<path d="M194.907 121.894C194.908 121.116 194.679 120.354 194.247 119.707C193.816 119.059 193.202 118.554 192.483 118.255C191.764 117.957 190.973 117.878 190.209 118.03C189.446 118.181 188.744 118.556 188.194 119.106C187.643 119.657 187.269 120.358 187.117 121.121C186.966 121.885 187.044 122.676 187.343 123.395C187.641 124.114 188.147 124.728 188.794 125.159C189.442 125.591 190.203 125.821 190.982 125.819C192.022 125.817 193.019 125.403 193.755 124.667C194.491 123.932 194.905 122.934 194.907 121.894Z" fill="white" stroke="#092C48" stroke-linecap="round" stroke-linejoin="round"/>
<path d="M193.131 121.894C193.131 121.467 193.005 121.05 192.767 120.695C192.53 120.34 192.193 120.064 191.798 119.901C191.404 119.738 190.97 119.695 190.551 119.779C190.132 119.863 189.748 120.069 189.447 120.372C189.145 120.674 188.941 121.059 188.858 121.478C188.776 121.897 188.819 122.331 188.984 122.725C189.148 123.119 189.426 123.455 189.782 123.691C190.137 123.927 190.555 124.053 190.982 124.051C191.553 124.049 192.099 123.821 192.502 123.417C192.905 123.012 193.131 122.465 193.131 121.894Z" fill="white" stroke="#092C48" stroke-linecap="round" stroke-linejoin="round"/>
<path d="M193.131 68.0144C193.131 68.0144 182.105 72.321 180.711 73.0546C180.111 73.4172 179.474 73.7148 178.81 73.9423C178.81 73.9423 179.441 83.5752 179.698 86.1137C179.955 88.6521 184.005 91.0585 187.556 90.9338C191.107 90.8091 194.019 88.9016 194.657 87.7644C195.296 86.6273 197.064 83.2011 197.064 83.2011C197.064 83.2011 201.246 82.4674 201.466 78.7625C201.686 75.0575 200.453 75.8278 199.059 76.6055C197.665 77.3832 196.902 77.8747 196.902 77.8747C197.174 76.5299 196.947 75.1324 196.264 73.9423C195.164 72.0715 193.388 69.7899 193.131 68.0144Z" fill="white" stroke="#092C48" stroke-linecap="round" stroke-linejoin="round"/>
<path d="M184.137 79.8043C184.137 79.8043 185.149 81.323 186.037 81.1983" stroke="#092C48" stroke-linecap="round" stroke-linejoin="round"/>
<path d="M183.755 82.0859C183.755 82.0859 185.905 84.1182 189.625 82.4674" stroke="#092C48" stroke-linecap="round" stroke-linejoin="round"/>
<path d="M189.206 76.7597C189.206 76.7597 191.803 75.6225 193.263 77.6474" stroke="#092C48" stroke-width="1.5" stroke-linecap="round" stroke-linejoin="round"/>
<path d="M184.137 76.5101C184.137 76.5101 182.105 75.2408 180.586 76.2533" stroke="#092C48" stroke-width="1.5" stroke-linecap="round" stroke-linejoin="round"/>
<path d="M185.626 76.0332C185.628 76.742 185.419 77.4352 185.026 78.0251C184.633 78.615 184.074 79.075 183.419 79.3469C182.765 79.6188 182.044 79.6903 181.349 79.5524C180.654 79.4145 180.015 79.0733 179.514 78.5722C179.013 78.071 178.672 77.4324 178.534 76.7372C178.396 76.0421 178.468 75.3216 178.74 74.6671C179.011 74.0126 179.471 73.4535 180.061 73.0607C180.651 72.6678 181.344 72.4589 182.053 72.4603C183 72.4623 183.908 72.8393 184.577 73.509C185.247 74.1786 185.624 75.0862 185.626 76.0332Z" stroke="#092C48" stroke-linecap="round" stroke-linejoin="round"/>
<path d="M194.54 77.0384C194.542 77.7468 194.333 78.4397 193.94 79.0294C193.548 79.6192 192.989 80.0792 192.335 80.3513C191.681 80.6234 190.961 80.6954 190.266 80.558C189.571 80.4207 188.932 80.0803 188.431 79.5799C187.929 79.0795 187.588 78.4416 187.449 77.7469C187.31 77.0522 187.381 76.3319 187.651 75.6773C187.922 75.0227 188.381 74.4631 188.97 74.0694C189.559 73.6756 190.251 73.4655 190.96 73.4655C191.908 73.4674 192.816 73.8442 193.487 74.5136C194.158 75.183 194.536 76.0907 194.54 77.0384V77.0384Z" stroke="#092C48" stroke-linecap="round" stroke-linejoin="round"/>
<path d="M185.626 76.0332C185.882 75.9465 186.157 75.9301 186.421 75.9856C186.686 76.041 186.931 76.1665 187.13 76.3487" stroke="#092C48" stroke-linecap="round" stroke-linejoin="round"/>
<path d="M194.665 77.6032L198.179 77.1044" stroke="#092C48" stroke-linecap="round" stroke-linejoin="round"/>
<path d="M45.6152 247.944C44.6434 250.008 43.4477 251.959 42.0497 253.761C39.9294 256.366 39.3938 258.222 41.6975 259.836C44.0012 261.45 48.1977 261.201 50.3106 258.596C52.4236 255.992 55.8277 248.809 55.8277 248.809C55.8277 248.809 48.4031 246.579 45.6152 247.944Z" fill="white" stroke="#092C48" stroke-linecap="round" stroke-linejoin="round"/>
<path d="M71.4546 249.55C71.4546 249.55 75.1229 254.385 77.3239 256.887C79.5248 259.389 83.6847 260.599 85.9077 260.474C88.1306 260.35 91.322 259.609 89.1651 255.647C87.0081 251.685 82.5035 247.841 82.5035 247.841C82.5035 247.841 77.7934 247.841 74.558 247.467C71.3226 247.092 71.2932 248.809 71.4546 249.55Z" fill="white" stroke="#092C48" stroke-linecap="round" stroke-linejoin="round"/>
<path d="M47.6401 158.489C47.6401 158.489 46.1728 175.363 46.6717 187.234C47.1706 199.104 44.9843 222.794 44.2506 228.59C43.517 234.386 44.9183 243.953 44.9843 246.058C45.0503 248.164 45.1237 249.286 45.1237 249.286C45.1237 249.286 46.2095 248.553 50.2079 249.286C52.013 249.672 53.8453 249.917 55.6883 250.02C57.3379 247.229 58.7021 244.28 59.7601 241.216C60.956 237.254 60.281 233.146 60.1856 231.055C60.0903 228.964 59.7455 226.719 59.9802 226.345C60.215 225.971 65.1158 190.542 65.3799 182.736C65.6801 177.444 66.466 172.191 67.7276 167.043C67.7276 167.043 70.068 177.945 70.2514 182.157C70.4348 186.368 69.8332 220.688 70.134 227.643C70.4348 234.598 69.8993 236.447 69.1069 238.179C68.3146 239.91 68.6007 240.776 69.1583 242.14C69.7158 243.505 71.4693 249.572 71.4693 249.572C71.4693 249.572 80.4125 250.071 81.6231 249.448C82.8336 248.824 83.3031 248.215 83.2811 247.841C83.2591 247.467 87.5877 238.546 87.1768 234.833C86.766 231.121 86.2965 231.737 85.8783 225.046C85.4601 218.355 88.1966 161.952 88.1893 159.017C88.182 156.083 87.6904 161.739 69.4517 158.284C51.213 154.828 48.161 156.134 47.6401 158.489Z" fill="#6B48FF" stroke="#092C48" stroke-linecap="round" stroke-linejoin="round"/>
<path d="M71.9828 244.73C71.9828 244.73 77.7127 239.771 82.4888 238.531L71.9828 244.73Z" fill="white"/>
<path d="M71.9828 244.73C71.9828 244.73 77.7127 239.771 82.4888 238.531" stroke="#092C48" stroke-linecap="round" stroke-linejoin="round"/>
<path d="M48.5865 242.368C48.5865 242.368 55.747 238.898 57.8159 238.032L48.5865 242.368Z" fill="white"/>
<path d="M48.5865 242.368C48.5865 242.368 55.747 238.898 57.8159 238.032" stroke="#092C48" stroke-linecap="round" stroke-linejoin="round"/>
<path d="M60.6038 66.8112C60.6038 66.8112 58.6817 62.4753 57.2584 63.9646C55.8351 65.454 56.9135 67.4275 58.8724 69.7825C60.8313 72.1376 62.3793 70.6482 61.9684 69.6578C61.5576 68.6674 60.6038 66.8112 60.6038 66.8112Z" fill="white" stroke="#092C48" stroke-linecap="round" stroke-linejoin="round"/>
<path d="M79.2093 64.4562C79.2093 64.4562 81.1315 60.245 82.7015 62.2552C84.2716 64.2655 80.8968 69.1956 80.0677 70.0613C79.2387 70.9271 78.7031 64.3608 78.7031 64.3608L79.2093 64.4562Z" fill="white" stroke="#092C48" stroke-linecap="round" stroke-linejoin="round"/>
<path d="M37.479 118.725C37.479 118.725 36.9434 126.406 36.2905 128.387C34.9575 133.056 34.3343 137.898 34.4417 142.752C34.6984 148.57 36.9801 161.211 37.0241 165.048C37.0681 168.885 35.8723 169.758 37.1562 170.748C38.4401 171.739 41.1693 174.717 42.1597 174.717C43.1502 174.717 44.6615 175.209 44.6248 174.468C44.5881 173.727 44.1039 173.844 43.6857 172.854C43.1519 171.41 42.7156 169.932 42.3798 168.43C42.6811 167.336 43.0461 166.261 43.473 165.209C43.473 165.209 44.3534 168.305 44.5221 169.303C44.6908 170.301 46.0701 170.66 45.9894 168.804C45.9087 166.948 45.872 166.2 45.784 164.219C45.6959 162.238 44.1333 160.506 43.473 159.509C42.8127 158.511 42.2918 157.902 42.2698 157.528C42.2478 157.154 44.4047 144.029 44.4707 139.443C44.5368 134.858 44.6028 131.138 44.9329 130.272C45.2631 129.407 46.9065 121.601 46.9065 121.601L37.479 118.725Z" fill="white" stroke="#092C48" stroke-linecap="round" stroke-linejoin="round"/>
<path d="M98.7539 119.092C98.7539 119.092 99.2822 126.817 99.9425 128.857C101.259 133.586 101.88 138.482 101.784 143.39C101.527 149.193 99.2308 161.629 99.1868 165.466C99.1428 169.303 100.346 170.271 99.0621 171.152C97.7782 172.032 95.0416 174.761 94.0512 174.681C93.0608 174.6 91.5568 174.952 91.5861 174.211C91.6155 173.47 92.107 173.639 92.5252 172.685C93.0672 171.271 93.5061 169.819 93.8384 168.342C93.5347 167.214 93.1673 166.105 92.7379 165.018C92.7379 165.018 91.8576 168.041 91.6888 169.017C91.5201 169.993 90.1481 170.242 90.2215 168.393C90.2949 166.544 90.3316 165.803 90.4196 163.83C90.5076 161.856 92.0703 160.257 92.7379 159.325C93.4056 158.394 93.9191 157.814 93.9411 157.447C93.9632 157.08 91.8062 143.757 91.7402 139.164C91.6741 134.572 91.6155 130.852 91.278 129.957C90.9405 129.062 89.3044 121.109 89.3044 121.109L98.7539 119.092Z" fill="white" stroke="#092C48" stroke-linecap="round" stroke-linejoin="round"/>
<path d="M64.5729 81.0588C64.5729 81.0588 57.5298 84.4042 53.2746 86.2604C49.0194 88.1165 43.6711 90.3468 43.7371 91.2199C43.8031 92.0929 39.2031 109.429 37.7505 113.024C36.2978 116.619 34.9406 119.466 34.9406 119.466C34.9406 119.466 40.1422 122.943 43.517 123.677C45.692 124.137 47.8997 124.427 50.1199 124.543L46.1068 160.228C46.1068 160.228 54.177 163.448 66.8179 163.573C74.6614 163.631 82.5012 163.217 90.2949 162.333C90.2949 162.333 91.4834 132.987 91.3587 130.118C91.2726 128.546 91.3291 126.97 91.5274 125.408C93.4529 125.828 95.4541 125.745 97.338 125.166C98.995 124.55 100.619 123.847 102.202 123.061C102.202 123.061 96.0468 98.5271 95.0343 95.1816C94.0219 91.8362 94.4914 91.3446 93.611 90.9704C92.7306 90.5963 83.0024 86.3851 79.8256 84.5289C76.6489 82.6728 75.4237 82.6655 72.6431 81.7997C69.8626 80.934 66.0035 79.8189 64.5729 81.0588Z" fill="#6B48FF" stroke="#092C48" stroke-linecap="round" stroke-linejoin="round"/>
<path d="M91.5421 125.408L89.9721 103.406" stroke="#092C48" stroke-linecap="round" stroke-linejoin="round"/>
<path d="M50.4134 136.934L64.1547 136.56C64.1547 136.56 63.5458 153.786 63.1276 155.635C62.7095 157.484 59.9216 158.731 56.3193 158.606C52.7171 158.481 50.5381 156.75 50.1273 155.884" stroke="#092C48" stroke-linecap="round" stroke-linejoin="round"/>
<path d="M49.643 139.164L64.1327 139.04" stroke="#092C48" stroke-linecap="round" stroke-linejoin="round"/>
<path d="M87.7931 158.614C86.4432 158.988 83.2224 158.988 82.5181 157.007C81.8138 155.026 82.276 137.308 82.276 137.308L89.3485 137.55" stroke="#092C48" stroke-linecap="round" stroke-linejoin="round"/>
<path d="M82.2173 138.79L88.945 139.781" stroke="#092C48" stroke-linecap="round" stroke-linejoin="round"/>
<path d="M50.1199 124.543C50.1199 124.543 50.6188 107.573 50.4207 103.113" stroke="#092C48" stroke-linecap="round" stroke-linejoin="round"/>
<path d="M62.4747 72.7538C62.4747 72.7538 63.5458 83.025 63.5898 84.1548C63.6338 85.2846 64.8884 88.366 66.0769 89.98C67.2654 91.5941 70.5889 96.7957 71.9095 95.7979C73.2301 94.8001 76.9497 89.2317 77.3092 86.1357C77.6687 83.0396 77.8448 75.7324 77.8448 75.7324C77.8448 75.7324 73.0246 75.9819 69.371 74.742C65.7174 73.5021 62.4747 72.7538 62.4747 72.7538Z" fill="white" stroke="#092C48" stroke-linecap="round" stroke-linejoin="round"/>
<path d="M57.3391 57.3911L60.0756 66.0702C60.0756 66.0702 61.1027 72.5117 62.9515 75.1089C64.8003 77.706 71.2785 81.433 74.2205 80.6846C77.1625 79.9363 80.6327 77.2144 80.5006 74.2431C80.3685 71.2718 79.7669 62.6 79.8476 59.2545C79.9283 55.9091 79.114 49.0934 77.0891 47.2373C75.0642 45.3811 68.2852 44.2586 63.4211 46.2468C58.5569 48.235 55.2555 51.94 57.3391 57.3911Z" fill="#092C48" stroke="#092C48" stroke-linecap="round" stroke-linejoin="round"/>
<path d="M60.2297 66.8112C60.2297 66.8112 59.9876 66.9359 60.6259 64.4561C61.2641 61.9764 63.1863 60.7365 63.3771 59.5039C63.5678 58.2714 60.956 57.8899 61.2421 56.0337C61.5283 54.1776 64.0814 52.813 69.5031 52.1894C74.9248 51.5658 78.5344 54.7939 78.3583 56.4006C78.1822 58.0073 77.698 58.2641 78.4904 59.3792C79.2827 60.4944 79.6202 62.6 79.6789 63.8398C79.7376 65.0797 80.4126 69.533 79.2387 70.8976C78.0649 72.2622 77.1845 72.0128 76.018 70.8976C74.8514 69.7825 74.4186 68.3005 71.8214 68.3005C69.2243 68.3005 68.3953 69.2909 67.9404 70.2813C67.4855 71.2718 67.0453 72.4823 65.5634 72.4823C64.0814 72.4823 63.0249 71.1177 61.9684 69.6284C61.3247 68.7305 60.7437 67.7892 60.2297 66.8112Z" fill="white" stroke="#092C48" stroke-linecap="round" stroke-linejoin="round"/>
<path d="M71.3959 60.7366C71.3959 60.7366 73.7949 67.4275 73.6922 67.9264C73.5895 68.4253 72.4157 69.9073 71.0437 69.7825C69.6718 69.6578 68.9895 68.0511 68.9895 68.0511" stroke="#092C48" stroke-linecap="round" stroke-linejoin="round"/>
<path d="M72.0709 59.8487C72.0053 59.6248 71.9912 59.3889 72.0296 59.1588C72.068 58.9286 72.158 58.7101 72.2927 58.5196C72.4275 58.3291 72.6036 58.1715 72.8078 58.0587C73.0121 57.9458 73.2392 57.8806 73.4722 57.8679C74.2388 57.8307 75.0047 57.9552 75.7201 58.2333C76.4355 58.5113 77.0844 58.9368 77.6247 59.4819" stroke="#092C48" stroke-width="2" stroke-linecap="round" stroke-linejoin="round"/>
<path d="M68.4613 59.1152C68.1072 58.8519 67.6992 58.6706 67.2665 58.5844C66.8339 58.4981 66.3874 58.509 65.9595 58.6163C64.4922 58.9905 62.7241 61.2208 62.7461 61.5949" stroke="#092C48" stroke-width="2" stroke-linecap="round" stroke-linejoin="round"/>
<path d="M67.9844 62.7248C67.9844 63.341 67.7276 63.8399 67.3461 63.8399C66.9646 63.8399 66.6125 63.341 66.6125 62.7248C66.6125 62.1085 66.8693 61.6096 67.2434 61.6096C67.6176 61.6096 67.9551 62.1085 67.9844 62.7248Z" fill="#092C48"/>
<path d="M75.1523 62.3505C75.1523 62.9668 74.8955 63.4657 74.5213 63.4657C74.1472 63.4657 73.7877 62.9668 73.7877 62.3505C73.7877 61.7342 74.0444 61.2354 74.4186 61.2354C74.7928 61.2354 75.1229 61.7342 75.1523 62.3505Z" fill="#092C48"/>
<path d="M68.7841 72.5117C68.7841 72.5117 71.1832 73.6269 74.8294 72.0128" stroke="white" stroke-width="2" stroke-linecap="round" stroke-linejoin="round"/>
<path d="M59.9583 83.3258C59.9583 83.3258 63.6265 95.9594 67.5663 104.264C71.506 112.569 74.6314 118.387 74.6314 118.387C74.6314 118.387 80.5666 98.4391 80.5373 91.9756C80.508 85.5121 80.4713 84.7931 80.4713 84.7931" stroke="#092C48" stroke-linecap="round" stroke-linejoin="round"/>
<path d="M79.0259 130.984H71.4619L70.9117 118.35H78.4683L79.0259 130.984Z" fill="white" stroke="#092C48" stroke-linecap="round" stroke-linejoin="round"/>
<path d="M134.593 253.395C134.593 253.395 138.555 256.615 141.401 257.481C144.248 258.347 145.737 258.846 145.121 260.21C144.505 261.575 142.516 262.066 136.699 262.191C130.881 262.316 129.758 261.076 127.528 260.452C125.298 259.829 122.202 260.452 121.211 259.22C120.221 257.987 120.587 256.116 120.587 254.136C120.587 252.155 129.142 251.289 131.372 252.03C132.492 252.368 133.571 252.825 134.593 253.395Z" fill="white" stroke="#092C48" stroke-linecap="round" stroke-linejoin="round"/>
<path d="M123.317 255.874C123.317 255.874 127.036 259.836 130.132 261.568C133.228 263.299 134.96 264.546 134.219 265.412C133.478 266.278 131.123 267.393 124.923 266.777C118.724 266.16 117.491 264.788 114.52 262.683C111.549 260.577 110.184 260.827 109.194 259.711C108.203 258.596 108.203 256.116 108.203 256.116L123.317 255.874Z" fill="white" stroke="#092C48" stroke-linecap="round" stroke-linejoin="round"/>
<path d="M141.9 164.189C141.9 164.189 139.699 193.675 138.804 199.001C137.909 204.328 137.065 207.306 137.19 211.019C137.315 214.731 138.43 225.391 136.2 231.715C133.969 238.039 133.999 245.713 134.219 247.943C134.439 250.174 135.209 253.145 135.085 253.644C134.96 254.143 131.372 256.116 128.768 256.615C127.131 256.916 125.472 257.08 123.808 257.107C121.288 257.997 118.669 258.581 116.01 258.846C112.29 259.095 107.206 257.98 107.206 257.98C107.206 257.98 107.206 248.809 106.707 242.859C106.208 236.909 104.506 227.379 106.582 220.189C108.658 212.999 108.196 209.184 108.049 206.807C107.903 204.43 108.049 193.8 107.925 193.426C107.8 193.051 107.059 162.084 107.059 162.084C107.059 162.084 120.558 164.065 129.604 163.199C138.65 162.333 141.005 162.333 141.005 162.333C141.005 162.333 143.015 160.103 141.9 164.189Z" fill="#092C48" stroke="#092C48" stroke-linecap="round" stroke-linejoin="round"/>
<path d="M124.432 255.375C124.425 253.37 124.179 251.373 123.698 249.425C122.965 246.953 122.825 238.157 123.199 234.562C123.573 230.967 125.4 221.928 125.4 216.844C125.4 211.76 125.899 203.961 125.899 203.961" stroke="white" stroke-linecap="round" stroke-linejoin="round"/>
<path d="M150.073 201.232L135.958 201.107C135.341 201.107 135.341 191.694 135.341 191.694L150.073 201.232Z" fill="white" stroke="#092C48" stroke-linecap="round" stroke-linejoin="round"/>
<path d="M120.221 165.928C120.221 165.928 134.344 166.794 142.274 165.429L139.545 98.7766C139.545 98.7766 137.689 95.6805 132.73 93.9418C127.77 92.203 121.827 94.6754 119.722 97.0378C117.616 99.4002 119.106 165.679 119.106 165.679L120.221 165.928Z" fill="#6B48FF" stroke="#092C48" stroke-linecap="round" stroke-linejoin="round"/>
<path d="M120.837 93.9418C120.837 93.9418 106.839 101.007 104.733 102.247C102.628 103.487 102.532 107.94 102.532 110.053C102.532 112.166 103.148 205.942 103.148 205.942C108.447 206.288 113.766 205.745 118.885 204.335C123.934 203.014 128.685 200.743 132.884 197.644L130.529 147.22L127.887 102.988C127.887 102.988 126.288 90.721 120.837 93.9418Z" fill="white" stroke="#092C48" stroke-linecap="round" stroke-linejoin="round"/>
<path d="M125.048 89.3564C125.048 89.3564 121.827 89.7306 120.463 91.5574C119.663 92.6352 119.076 93.8552 118.731 95.1523L117.491 106.304L121.703 105.313L119.597 110.266C119.597 110.266 121.703 116.465 124.058 121.667C126.413 126.868 129.883 137.521 129.883 137.521L128.269 104.198C128.269 104.198 128.269 94.5361 127.535 92.4598C126.802 90.3836 126.039 89.3564 125.048 89.3564Z" fill="white" stroke="#092C48" stroke-linecap="round" stroke-linejoin="round"/>
<path d="M133.104 96.1721L135.583 197.145L150.073 201.232L147.968 124.3C147.968 124.3 148.342 104.492 147.102 101.748C145.862 99.004 134.718 93.4502 133.603 93.597C132.487 93.7437 133.104 96.1721 133.104 96.1721Z" fill="white" stroke="#092C48" stroke-linecap="round" stroke-linejoin="round"/>
<path d="M133.104 91.0952C134.006 91.3151 134.849 91.7281 135.577 92.3057C136.304 92.8833 136.897 93.6117 137.315 94.4407C138.555 97.1625 141.775 105.592 141.775 105.592L137.689 106.084L142.025 109.18L134.344 138.049L133.478 106.803L132.744 93.9198C132.744 93.9198 131.864 91.8362 133.104 91.0952Z" fill="white" stroke="#092C48" stroke-linecap="round" stroke-linejoin="round"/>
<path d="M124.058 85.1453C124.058 85.1453 124.557 88.7402 123.808 90.721C123.06 92.7019 126.163 98.9013 127.403 102.738C128.643 106.575 129.883 109.679 130.624 109.305C131.365 108.93 133.969 94.4407 133.845 92.5772C133.72 90.7137 134.96 85.1453 134.96 85.1453C134.96 85.1453 128.144 87.1261 124.058 85.1453Z" fill="white" stroke="#092C48" stroke-linecap="round" stroke-linejoin="round"/>
<path d="M115.356 81.367C119.258 81.367 122.422 78.0626 122.422 73.9864C122.422 69.9102 119.258 66.6058 115.356 66.6058C111.455 66.6058 108.291 69.9102 108.291 73.9864C108.291 78.0626 111.455 81.367 115.356 81.367Z" fill="#092C48" stroke="#092C48" stroke-linecap="round" stroke-linejoin="round"/>
<path d="M118.981 77.4566C118.981 77.4566 117.741 74.2358 116.252 75.4757C114.762 76.7156 116.252 79.4374 117.367 81.0515C118.482 82.6655 120.587 81.9172 120.345 80.3178C120.145 79.2622 119.675 78.2765 118.981 77.4566Z" fill="white" stroke="#092C48" stroke-linecap="round" stroke-linejoin="round"/>
<path d="M138.159 75.4537C138.159 75.4537 138.782 72.3577 139.626 74.4633C139.999 75.2881 140.171 76.1898 140.128 77.0942C140.085 77.9985 139.827 78.8796 139.376 79.6649C138.643 80.9048 138.76 80.7801 138.511 79.6649C138.316 78.2687 138.198 76.8629 138.159 75.4537Z" fill="white" stroke="#092C48" stroke-linecap="round" stroke-linejoin="round"/>
<path d="M117.242 71.4919C117.242 71.4919 119.597 82.8856 121.086 85.6148C122.576 88.344 127.528 92.9514 131.989 91.0659C136.449 89.1804 138.929 85.7395 138.929 81.5284C138.929 77.3172 139.545 71.9908 138.804 67.3981C138.43 65.3069 137.354 63.4059 135.753 62.0092C134.152 60.6125 132.123 59.8038 130 59.7168C126.031 59.592 119.839 61.8224 118.599 65.7914C117.957 67.6412 117.502 69.551 117.242 71.4919Z" fill="white" stroke="#092C48" stroke-linecap="round" stroke-linejoin="round"/>
<path d="M117.367 75.7031C117.367 75.7031 124.307 72.9739 128.768 69.6284C133.228 66.283 134.593 63.8106 134.593 63.8106C134.593 63.8106 136.699 69.5037 137.564 71.3672C138.43 73.2307 139.171 75.329 139.171 75.329C139.171 75.329 140.536 72.9739 140.536 67.9924C140.536 63.0109 139.171 59.0711 133.933 56.4667C128.694 53.8622 120.184 55.4762 116.325 59.1959C112.466 62.9155 113.229 68.9828 114.219 71.3379C114.995 72.9721 116.061 74.4513 117.367 75.7031Z" fill="#092C48" stroke="#092C48" stroke-linecap="round" stroke-linejoin="round"/>
<path d="M132.729 71.1178C132.729 71.1178 131.996 71.2425 131.996 73.4728C131.996 75.7032 132.729 79.4155 132.612 79.9143C132.495 80.4132 131.145 81.8952 130.264 81.0295" stroke="#092C48" stroke-linecap="round" stroke-linejoin="round"/>
<path d="M127.154 83.2598C127.154 83.2598 130.374 84.6244 134.49 82.1447" stroke="#092C48" stroke-linecap="round" stroke-linejoin="round"/>
<path d="M133.228 70.8536C133.228 70.8536 135.84 69.8559 137.564 71.3525" stroke="#092C48" stroke-linecap="round" stroke-linejoin="round"/>
<path d="M128.892 71.3672C127.759 71.0304 126.561 70.9671 125.398 71.1826C124.235 71.3982 123.139 71.8863 122.202 72.6071" stroke="#092C48" stroke-linecap="round" stroke-linejoin="round"/>
<path d="M127.154 74.9548C127.154 75.6885 126.853 76.3194 126.479 76.3194C126.105 76.3194 125.796 75.7105 125.796 74.9548C125.796 74.1991 126.097 73.5975 126.479 73.5975C126.86 73.5975 127.154 74.2065 127.154 74.9548Z" fill="#092C48"/>
<path d="M135.224 74.4632C135.224 75.1969 134.916 75.8278 134.542 75.8278C134.167 75.8278 133.859 75.2189 133.859 74.4632C133.859 73.7076 134.167 73.0986 134.542 73.0986C134.916 73.0986 135.224 73.7076 135.224 74.4632Z" fill="#092C48"/>
<path d="M143.14 124.667L140.939 121.072C140.315 120.082 137.469 120.456 136.104 120.456C135.395 120.53 134.713 120.767 134.111 121.149C133.509 121.531 133.003 122.047 132.634 122.657C132.143 123.648 129.912 125.262 130.778 126.252C131.644 127.242 133.999 126.619 134.373 126.868C134.747 127.118 137.843 129.223 138.958 129.598C139.551 129.815 140.185 129.898 140.814 129.84L143.14 124.667Z" stroke="#092C48" stroke-linecap="round" stroke-linejoin="round"/>
<path d="M146.486 101.007C147.732 101.582 148.847 102.406 149.763 103.428C150.679 104.45 151.376 105.648 151.812 106.95C153.177 111.285 157.755 140.155 156.764 142.899C155.774 145.643 153.301 147.726 148.965 146.244C144.629 144.762 137.961 137.69 137.961 137.69L143.162 124.682L147.249 126.788L146.383 115.144" fill="white"/>
<path d="M146.486 101.007C147.732 101.582 148.847 102.406 149.763 103.428C150.679 104.45 151.376 105.648 151.812 106.95C153.177 111.285 157.755 140.155 156.764 142.899C155.774 145.643 153.301 147.726 148.965 146.244C144.629 144.762 137.961 137.69 137.961 137.69L143.162 124.682L147.249 126.788L146.383 115.144" stroke="#092C48" stroke-linecap="round" stroke-linejoin="round"/>
<path d="M147.227 126.773C147.227 126.773 153.793 130.617 154.416 131.982" stroke="#092C48" stroke-linecap="round" stroke-linejoin="round"/>
<path d="M138.922 109.429H115.012V142.884H138.922V109.429Z" fill="#092C48" stroke="#092C48" stroke-linecap="round" stroke-linejoin="round"/>
<path d="M125.796 132.723C125.796 132.723 130.375 130.243 131.739 128.878C133.104 127.514 133.353 127.411 134.094 127.411C135.918 127.411 137.739 127.286 139.545 127.037C140.279 126.788 139.919 128.504 139.545 128.893C139.171 129.282 136.823 129.766 136.823 129.766C136.823 129.766 140.785 129.392 140.91 130.632C140.999 130.987 140.987 131.361 140.877 131.71C140.767 132.06 140.563 132.372 140.286 132.613L139.919 132.987C139.919 132.987 140.286 135.584 139.919 136.824C139.553 138.064 138.804 138.438 137.19 138.68C135.036 138.818 132.873 138.695 130.749 138.313C129.509 138.064 125.298 138.93 125.298 138.93L125.796 132.723Z" fill="white" stroke="#092C48" stroke-linecap="round" stroke-linejoin="round"/>
<path d="M109.319 100.016C109.319 100.016 101.982 101.623 100.764 102.364C99.5462 103.105 95.4378 132.598 94.572 137.58C93.7063 142.561 102.253 143.53 104.843 144.52C107.433 145.51 126.42 146.97 126.42 146.97L126.669 131.608L113.537 128.262L113.412 107.074" fill="white"/>
<path d="M109.319 100.016C109.319 100.016 101.982 101.623 100.764 102.364C99.5462 103.105 95.4378 132.598 94.572 137.58C93.7063 142.561 102.253 143.53 104.843 144.52C107.433 145.51 126.42 146.97 126.42 146.97L126.669 131.608L113.537 128.262L113.412 107.074" stroke="#092C48" stroke-linecap="round" stroke-linejoin="round"/>
<path d="M113.53 128.262C113.53 128.262 108.944 126.157 105.973 127.272C103.002 128.387 100.522 134.087 100.522 134.087" stroke="#092C48" stroke-linecap="round" stroke-linejoin="round"/>
<path d="M108.445 126.773C108.445 126.773 104.11 126.524 102.004 127.397C100.709 127.944 99.5623 128.792 98.6585 129.869" stroke="#092C48" stroke-linecap="round" stroke-linejoin="round"/>
<path d="M131.989 108.314H123.566V111.043H131.989V108.314Z" fill="white" stroke="#092C48" stroke-linecap="round" stroke-linejoin="round"/>
</svg>
