<svg width="50" height="50" viewBox="0 0 50 50" fill="none" xmlns="http://www.w3.org/2000/svg">
<g clip-path="url(#clip0_154_4934)">
<path d="M0.478142 31.6659C2.18205 48.5478 29.0345 47.9884 41.5723 44.973C49.626 43.0361 50.1266 39.1652 49.9811 30.9104C49.8873 25.5895 50.3173 11.5037 46.8557 7.0703C41.5385 0.260435 36.7748 4.53143 30.1901 6.75438C21.744 9.60565 18.4528 4.51493 10.417 4.66649C-1.36434 4.88895 -0.401253 22.9528 0.478142 31.6659Z" fill="url(#paint0_linear_154_4934)"/>
<g opacity="0.1">
<path opacity="0.1" d="M36.5613 23.2596C37.6389 22.0584 38.2949 20.4713 38.2949 18.7305C38.2949 14.9825 35.2565 11.944 31.5084 11.944C30.0135 11.944 28.6322 12.4285 27.5109 13.2475V11.5754C27.5109 10.4972 26.6368 9.62224 25.5577 9.62224H8.40149C7.32336 9.62224 6.44836 10.4972 6.44836 11.5754V28.7316C6.44836 29.8107 7.32336 30.6847 8.40149 30.6847H19.985C19.6473 31.7951 19.465 32.9731 19.465 34.1939C19.465 40.8452 24.857 46.2372 31.5082 46.2372C38.1595 46.2372 43.5515 40.8452 43.5515 34.1939C43.5517 29.3472 40.6883 25.17 36.5613 23.2596Z" fill="#2626BC"/>
<path opacity="0.1" d="M16.6688 33.2126H14.8541C14.5844 33.2126 14.3658 33.4313 14.3658 33.7009C14.3658 33.9706 14.5844 34.1892 14.8541 34.1892H16.6688C16.9385 34.1892 17.1571 33.9706 17.1571 33.7009C17.1571 33.4313 16.9384 33.2126 16.6688 33.2126Z" fill="#2626BC"/>
<path opacity="0.1" d="M16.6688 35.0077H10.9479C10.6781 35.0077 10.4596 35.2264 10.4596 35.496C10.4596 35.7656 10.6781 35.9843 10.9479 35.9843H16.6688C16.9385 35.9843 17.1571 35.7656 17.1571 35.496C17.1571 35.2264 16.9384 35.0077 16.6688 35.0077Z" fill="#2626BC"/>
<path opacity="0.1" d="M16.6688 36.8028H10.9479C10.6781 36.8028 10.4596 37.0215 10.4596 37.2911C10.4596 37.5607 10.6781 37.7794 10.9479 37.7794H16.6688C16.9385 37.7794 17.1571 37.5607 17.1571 37.2911C17.1571 37.0215 16.9384 36.8028 16.6688 36.8028Z" fill="#2626BC"/>
</g>
<path d="M31.5083 43.7965C38.1596 43.7965 43.5516 38.4046 43.5516 31.7533C43.5516 25.102 38.1596 19.71 31.5083 19.71C24.857 19.71 19.4651 25.102 19.4651 31.7533C19.4651 38.4046 24.857 43.7965 31.5083 43.7965Z" fill="#FF9D33"/>
<path d="M27.5109 20.3877V28.6534C27.5109 29.7325 26.6369 30.6065 25.5578 30.6065H19.5197C19.967 25.8594 23.1691 21.9151 27.5109 20.3877Z" fill="#FF8B00"/>
<path d="M37.7052 21.4239C36.6447 23.7911 34.2687 25.4395 31.5079 25.4395C28.7472 25.4395 26.3712 23.7901 25.3116 21.4229C27.1222 20.335 29.2413 19.709 31.5079 19.709C33.7745 19.709 35.8947 20.335 37.7052 21.4239Z" fill="#FF8B00"/>
<path d="M37.6125 26.625V36.8799C37.6125 37.419 37.175 37.8565 36.6359 37.8565H26.381C25.842 37.8565 25.4045 37.419 25.4045 36.8799V26.625C25.4045 26.086 25.842 25.6485 26.381 25.6485H36.6359C37.175 25.6485 37.6125 26.086 37.6125 26.625Z" fill="white"/>
<path d="M27.5109 25.6485V28.6534C27.5109 29.7325 26.6369 30.6065 25.5578 30.6065H25.4045V26.625C25.4045 26.086 25.842 25.6485 26.381 25.6485H27.5109Z" fill="#EBEBFF"/>
<path d="M27.2557 28.5069C26.9859 28.5069 26.7674 28.2882 26.7674 28.0186V28.0074C26.7674 27.7378 26.9859 27.5191 27.2557 27.5191C27.5254 27.5191 27.744 27.7378 27.744 28.0074V28.0186C27.744 28.2882 27.5253 28.5069 27.2557 28.5069Z" fill="#B3B3FF"/>
<path d="M27.2557 30.3766C26.9859 30.3766 26.7674 30.158 26.7674 29.8883V29.8771C26.7674 29.6075 26.9859 29.3888 27.2557 29.3888C27.5254 29.3888 27.744 29.6075 27.744 29.8771V29.8883C27.744 30.158 27.5253 30.3766 27.2557 30.3766Z" fill="#B3B3FF"/>
<path d="M27.2557 32.2464C26.9859 32.2464 26.7674 32.0277 26.7674 31.7581V31.7469C26.7674 31.4772 26.9859 31.2586 27.2557 31.2586C27.5254 31.2586 27.744 31.4772 27.744 31.7469V31.7581C27.744 32.0277 27.5253 32.2464 27.2557 32.2464Z" fill="#B3B3FF"/>
<path d="M29.382 27.572C29.1122 27.572 28.8937 27.3534 28.8937 27.0838V27.0725C28.8937 26.8029 29.1122 26.5842 29.382 26.5842C29.6517 26.5842 29.8702 26.8029 29.8702 27.0725V27.0838C29.8702 27.3534 29.6517 27.572 29.382 27.572Z" fill="#B3B3FF"/>
<path d="M29.382 29.4418C29.1122 29.4418 28.8937 29.2231 28.8937 28.9535V28.9422C28.8937 28.6726 29.1122 28.454 29.382 28.454C29.6517 28.454 29.8702 28.6726 29.8702 28.9422V28.9535C29.8702 29.2231 29.6517 29.4418 29.382 29.4418Z" fill="#B3B3FF"/>
<path d="M29.382 31.3115C29.1122 31.3115 28.8937 31.0929 28.8937 30.8232V30.812C28.8937 30.5424 29.1122 30.3237 29.382 30.3237C29.6517 30.3237 29.8702 30.5424 29.8702 30.812V30.8232C29.8702 31.0929 29.6517 31.3115 29.382 31.3115Z" fill="#B3B3FF"/>
<path d="M31.5083 28.5069C31.2386 28.5069 31.02 28.2882 31.02 28.0186V28.0074C31.02 27.7378 31.2386 27.5191 31.5083 27.5191C31.778 27.5191 31.9966 27.7378 31.9966 28.0074V28.0186C31.9966 28.2882 31.778 28.5069 31.5083 28.5069Z" fill="#B3B3FF"/>
<path d="M31.5083 30.3766C31.2386 30.3766 31.02 30.158 31.02 29.8883V29.8771C31.02 29.6075 31.2386 29.3888 31.5083 29.3888C31.778 29.3888 31.9966 29.6075 31.9966 29.8771V29.8883C31.9966 30.158 31.778 30.3766 31.5083 30.3766Z" fill="#B3B3FF"/>
<path d="M31.5083 32.2464C31.2386 32.2464 31.02 32.0277 31.02 31.7581V31.7469C31.02 31.4772 31.2386 31.2586 31.5083 31.2586C31.778 31.2586 31.9966 31.4772 31.9966 31.7469V31.7581C31.9966 32.0277 31.778 32.2464 31.5083 32.2464Z" fill="#B3B3FF"/>
<path d="M33.6347 27.572C33.365 27.572 33.1464 27.3534 33.1464 27.0838V27.0725C33.1464 26.8029 33.365 26.5842 33.6347 26.5842C33.9044 26.5842 34.123 26.8029 34.123 27.0725V27.0838C34.123 27.3534 33.9044 27.572 33.6347 27.572Z" fill="#B3B3FF"/>
<path d="M33.6347 29.4418C33.365 29.4418 33.1464 29.2231 33.1464 28.9535V28.9422C33.1464 28.6726 33.365 28.454 33.6347 28.454C33.9044 28.454 34.123 28.6726 34.123 28.9422V28.9535C34.123 29.2231 33.9044 29.4418 33.6347 29.4418Z" fill="#B3B3FF"/>
<path d="M33.6347 31.3115C33.365 31.3115 33.1464 31.0929 33.1464 30.8232V30.812C33.1464 30.5424 33.365 30.3237 33.6347 30.3237C33.9044 30.3237 34.123 30.5424 34.123 30.812V30.8232C34.123 31.0929 33.9044 31.3115 33.6347 31.3115Z" fill="#B3B3FF"/>
<path d="M35.761 28.5069C35.4913 28.5069 35.2728 28.2882 35.2728 28.0186V28.0074C35.2728 27.7378 35.4913 27.5191 35.761 27.5191C36.0308 27.5191 36.2493 27.7378 36.2493 28.0074V28.0186C36.2493 28.2882 36.0308 28.5069 35.761 28.5069Z" fill="#B3B3FF"/>
<path d="M35.761 30.3766C35.4913 30.3766 35.2728 30.158 35.2728 29.8883V29.8771C35.2728 29.6075 35.4913 29.3888 35.761 29.3888C36.0308 29.3888 36.2493 29.6075 36.2493 29.8771V29.8883C36.2493 30.158 36.0308 30.3766 35.761 30.3766Z" fill="#B3B3FF"/>
<path d="M35.761 32.2464C35.4913 32.2464 35.2728 32.0277 35.2728 31.7581V31.7469C35.2728 31.4772 35.4913 31.2586 35.761 31.2586C36.0308 31.2586 36.2493 31.4772 36.2493 31.7469V31.7581C36.2493 32.0277 36.0308 32.2464 35.761 32.2464Z" fill="#B3B3FF"/>
<path d="M27.2557 34.1161C26.9859 34.1161 26.7674 33.8974 26.7674 33.6278V33.6166C26.7674 33.347 26.9859 33.1283 27.2557 33.1283C27.5254 33.1283 27.744 33.347 27.744 33.6166V33.6278C27.744 33.8974 27.5253 34.1161 27.2557 34.1161Z" fill="#B3B3FF"/>
<path d="M27.2557 35.9858C26.9859 35.9858 26.7674 35.7672 26.7674 35.4976V35.4863C26.7674 35.2167 26.9859 34.998 27.2557 34.998C27.5254 34.998 27.744 35.2167 27.744 35.4863V35.4976C27.744 35.7672 27.5253 35.9858 27.2557 35.9858Z" fill="#B3B3FF"/>
<path d="M29.382 33.1812C29.1122 33.1812 28.8937 32.9626 28.8937 32.693V32.6817C28.8937 32.4121 29.1122 32.1935 29.382 32.1935C29.6517 32.1935 29.8702 32.4121 29.8702 32.6817V32.693C29.8702 32.9626 29.6517 33.1812 29.382 33.1812Z" fill="#B3B3FF"/>
<path d="M29.382 35.051C29.1122 35.051 28.8937 34.8323 28.8937 34.5627V34.5515C28.8937 34.2818 29.1122 34.0632 29.382 34.0632C29.6517 34.0632 29.8702 34.2818 29.8702 34.5515V34.5627C29.8702 34.8323 29.6517 35.051 29.382 35.051Z" fill="#B3B3FF"/>
<path d="M29.382 36.9207C29.1122 36.9207 28.8937 36.702 28.8937 36.4324V36.4212C28.8937 36.1516 29.1122 35.9329 29.382 35.9329C29.6517 35.9329 29.8702 36.1516 29.8702 36.4212V36.4324C29.8702 36.702 29.6517 36.9207 29.382 36.9207Z" fill="#B3B3FF"/>
<path d="M31.5083 34.1161C31.2386 34.1161 31.02 33.8974 31.02 33.6278V33.6166C31.02 33.347 31.2386 33.1283 31.5083 33.1283C31.778 33.1283 31.9966 33.347 31.9966 33.6166V33.6278C31.9966 33.8974 31.778 34.1161 31.5083 34.1161Z" fill="#B3B3FF"/>
<path d="M31.5083 35.9858C31.2386 35.9858 31.02 35.7672 31.02 35.4976V35.4863C31.02 35.2167 31.2386 34.998 31.5083 34.998C31.778 34.998 31.9966 35.2167 31.9966 35.4863V35.4976C31.9966 35.7672 31.778 35.9858 31.5083 35.9858Z" fill="#B3B3FF"/>
<path d="M33.6347 33.1812C33.365 33.1812 33.1464 32.9626 33.1464 32.693V32.6817C33.1464 32.4121 33.365 32.1935 33.6347 32.1935C33.9044 32.1935 34.123 32.4121 34.123 32.6817V32.693C34.123 32.9626 33.9044 33.1812 33.6347 33.1812Z" fill="#B3B3FF"/>
<path d="M33.6347 35.051C33.365 35.051 33.1464 34.8323 33.1464 34.5627V34.5515C33.1464 34.2818 33.365 34.0632 33.6347 34.0632C33.9044 34.0632 34.123 34.2818 34.123 34.5515V34.5627C34.123 34.8323 33.9044 35.051 33.6347 35.051Z" fill="#B3B3FF"/>
<path d="M33.6347 36.9207C33.365 36.9207 33.1464 36.702 33.1464 36.4324V36.4212C33.1464 36.1516 33.365 35.9329 33.6347 35.9329C33.9044 35.9329 34.123 36.1516 34.123 36.4212V36.4324C34.123 36.702 33.9044 36.9207 33.6347 36.9207Z" fill="#B3B3FF"/>
<path d="M35.761 34.1161C35.4913 34.1161 35.2728 33.8974 35.2728 33.6278V33.6166C35.2728 33.347 35.4913 33.1283 35.761 33.1283C36.0308 33.1283 36.2493 33.347 36.2493 33.6166V33.6278C36.2493 33.8974 36.0308 34.1161 35.761 34.1161Z" fill="#B3B3FF"/>
<path d="M35.761 35.9858C35.4913 35.9858 35.2728 35.7672 35.2728 35.4976V35.4863C35.2728 35.2167 35.4913 34.998 35.761 34.998C36.0308 34.998 36.2493 35.2167 36.2493 35.4863V35.4976C36.2493 35.7672 36.0308 35.9858 35.761 35.9858Z" fill="#B3B3FF"/>
<path d="M42.1058 31.7524C42.9232 31.7524 43.5583 32.4689 43.4557 33.2798C42.7051 39.21 37.6422 43.7957 31.5083 43.7957C25.3744 43.7957 20.3115 39.21 19.561 33.2798C19.4583 32.4689 20.0935 31.7524 20.9109 31.7524H42.1058Z" fill="#FFE8DC"/>
<path d="M42.9059 35.652C43.1647 34.8956 43.3503 34.1051 43.4544 33.2893C43.5583 32.4747 42.9269 31.7524 42.1057 31.7524H20.9112C20.09 31.7524 19.4585 32.4747 19.5624 33.2893C19.6664 34.1051 19.8522 34.8956 20.111 35.652H42.9059Z" fill="#FFD6BB"/>
<path d="M43.3093 34.1672C43.3688 33.875 43.4177 33.5788 43.4557 33.2792C43.5583 32.4685 42.9228 31.7524 42.1057 31.7524H20.9111C20.094 31.7524 19.4584 32.4685 19.5611 33.2792C19.599 33.5788 19.6479 33.8749 19.7075 34.1672H43.3093Z" fill="#FFF3EE"/>
<path d="M27.5109 9.13387V26.2901C27.5109 27.3692 26.6368 28.2432 25.5577 28.2432H8.40149C7.32336 28.2432 6.44836 27.3692 6.44836 26.2901V9.13387C6.44836 8.05574 7.32336 7.18074 8.40149 7.18074H25.5577C26.6368 7.18074 27.5109 8.05574 27.5109 9.13387Z" fill="#FFAB66"/>
<path d="M27.5109 13.1681V24.1378C25.8204 22.9034 24.7218 20.9063 24.7218 18.6524C24.7218 16.3985 25.8204 14.4015 27.5109 13.1681Z" fill="#FF9D33"/>
<path d="M22.1074 23.8163H11.8523C11.3129 23.8163 10.8757 23.3791 10.8757 22.8397V12.5846C10.8757 12.0453 11.3129 11.6081 11.8523 11.6081H22.1074C22.6467 11.6081 23.0839 12.0453 23.0839 12.5846V22.8397C23.0839 23.3791 22.6467 23.8163 22.1074 23.8163Z" fill="#FF9D33"/>
<path d="M12.7271 14.4667C12.4573 14.4667 12.2388 14.248 12.2388 13.9784V13.9672C12.2388 13.6975 12.4573 13.4789 12.7271 13.4789C12.9968 13.4789 13.2153 13.6975 13.2153 13.9672V13.9784C13.2153 14.248 12.9968 14.4667 12.7271 14.4667Z" fill="#FF7300"/>
<path d="M12.7271 16.3364C12.4573 16.3364 12.2388 16.1178 12.2388 15.8481V15.8369C12.2388 15.5673 12.4573 15.3486 12.7271 15.3486C12.9968 15.3486 13.2153 15.5673 13.2153 15.8369V15.8481C13.2153 16.1178 12.9968 16.3364 12.7271 16.3364Z" fill="#FF7300"/>
<path d="M12.7271 18.2061C12.4573 18.2061 12.2388 17.9874 12.2388 17.7178V17.7066C12.2388 17.437 12.4573 17.2183 12.7271 17.2183C12.9968 17.2183 13.2153 17.437 13.2153 17.7066V17.7178C13.2153 17.9874 12.9968 18.2061 12.7271 18.2061Z" fill="#FF7300"/>
<path d="M14.8535 13.5318C14.5837 13.5318 14.3652 13.3132 14.3652 13.0435V13.0323C14.3652 12.7627 14.5837 12.544 14.8535 12.544C15.1232 12.544 15.3417 12.7627 15.3417 13.0323V13.0435C15.3417 13.3132 15.1232 13.5318 14.8535 13.5318Z" fill="#FF7300"/>
<path d="M14.8535 15.4015C14.5837 15.4015 14.3652 15.1829 14.3652 14.9133V14.902C14.3652 14.6324 14.5837 14.4137 14.8535 14.4137C15.1232 14.4137 15.3417 14.6324 15.3417 14.902V14.9133C15.3417 15.1829 15.1232 15.4015 14.8535 15.4015Z" fill="#FF7300"/>
<path d="M14.8535 17.2712C14.5837 17.2712 14.3652 17.0526 14.3652 16.783V16.7717C14.3652 16.5021 14.5837 16.2834 14.8535 16.2834C15.1232 16.2834 15.3417 16.5021 15.3417 16.7717V16.783C15.3417 17.0526 15.1232 17.2712 14.8535 17.2712Z" fill="#FF7300"/>
<path d="M16.9797 14.4667C16.71 14.4667 16.4915 14.248 16.4915 13.9784V13.9672C16.4915 13.6975 16.71 13.4789 16.9797 13.4789C17.2495 13.4789 17.468 13.6975 17.468 13.9672V13.9784C17.468 14.248 17.2495 14.4667 16.9797 14.4667Z" fill="#FF7300"/>
<path d="M16.9797 16.3364C16.71 16.3364 16.4915 16.1178 16.4915 15.8481V15.8369C16.4915 15.5673 16.71 15.3486 16.9797 15.3486C17.2495 15.3486 17.468 15.5673 17.468 15.8369V15.8481C17.468 16.1178 17.2495 16.3364 16.9797 16.3364Z" fill="#FF7300"/>
<path d="M16.9797 18.2061C16.71 18.2061 16.4915 17.9874 16.4915 17.7178V17.7066C16.4915 17.437 16.71 17.2183 16.9797 17.2183C17.2495 17.2183 17.468 17.437 17.468 17.7066V17.7178C17.468 17.9874 17.2495 18.2061 16.9797 18.2061Z" fill="#FF7300"/>
<path d="M19.1061 13.5318C18.8364 13.5318 18.6179 13.3132 18.6179 13.0435V13.0323C18.6179 12.7627 18.8364 12.544 19.1061 12.544C19.3759 12.544 19.5944 12.7627 19.5944 13.0323V13.0435C19.5944 13.3132 19.3759 13.5318 19.1061 13.5318Z" fill="#FF7300"/>
<path d="M19.1061 15.4015C18.8364 15.4015 18.6179 15.1829 18.6179 14.9133V14.902C18.6179 14.6324 18.8364 14.4137 19.1061 14.4137C19.3759 14.4137 19.5944 14.6324 19.5944 14.902V14.9133C19.5944 15.1829 19.3759 15.4015 19.1061 15.4015Z" fill="#FF7300"/>
<path d="M19.1061 17.2712C18.8364 17.2712 18.6179 17.0526 18.6179 16.783V16.7717C18.6179 16.5021 18.8364 16.2834 19.1061 16.2834C19.3759 16.2834 19.5944 16.5021 19.5944 16.7717V16.783C19.5944 17.0526 19.3759 17.2712 19.1061 17.2712Z" fill="#FF7300"/>
<path d="M21.2325 14.4667C20.9628 14.4667 20.7443 14.248 20.7443 13.9784V13.9672C20.7443 13.6975 20.9628 13.4789 21.2325 13.4789C21.5023 13.4789 21.7208 13.6975 21.7208 13.9672V13.9784C21.7208 14.248 21.5023 14.4667 21.2325 14.4667Z" fill="#FF7300"/>
<path d="M21.2325 16.3364C20.9628 16.3364 20.7443 16.1178 20.7443 15.8481V15.8369C20.7443 15.5673 20.9628 15.3486 21.2325 15.3486C21.5023 15.3486 21.7208 15.5673 21.7208 15.8369V15.8481C21.7208 16.1178 21.5023 16.3364 21.2325 16.3364Z" fill="#FF7300"/>
<path d="M21.2325 18.2061C20.9628 18.2061 20.7443 17.9874 20.7443 17.7178V17.7066C20.7443 17.437 20.9628 17.2183 21.2325 17.2183C21.5023 17.2183 21.7208 17.437 21.7208 17.7066V17.7178C21.7208 17.9874 21.5023 18.2061 21.2325 18.2061Z" fill="#FF7300"/>
<path d="M12.7271 20.0758C12.4573 20.0758 12.2388 19.8572 12.2388 19.5876V19.5763C12.2388 19.3067 12.4573 19.088 12.7271 19.088C12.9968 19.088 13.2153 19.3067 13.2153 19.5763V19.5876C13.2153 19.8572 12.9968 20.0758 12.7271 20.0758Z" fill="#FF7300"/>
<path d="M12.7271 21.9456C12.4573 21.9456 12.2388 21.7269 12.2388 21.4573V21.4461C12.2388 21.1764 12.4573 20.9578 12.7271 20.9578C12.9968 20.9578 13.2153 21.1764 13.2153 21.4461V21.4573C13.2153 21.7269 12.9968 21.9456 12.7271 21.9456Z" fill="#FF7300"/>
<path d="M14.8535 19.141C14.5837 19.141 14.3652 18.9223 14.3652 18.6527V18.6415C14.3652 18.3718 14.5837 18.1532 14.8535 18.1532C15.1232 18.1532 15.3417 18.3718 15.3417 18.6415V18.6527C15.3417 18.9223 15.1232 19.141 14.8535 19.141Z" fill="#FF7300"/>
<path d="M14.8535 21.0107C14.5837 21.0107 14.3652 20.7921 14.3652 20.5224V20.5112C14.3652 20.2416 14.5837 20.0229 14.8535 20.0229C15.1232 20.0229 15.3417 20.2416 15.3417 20.5112V20.5224C15.3417 20.7921 15.1232 21.0107 14.8535 21.0107Z" fill="#FF7300"/>
<path d="M14.8535 22.8804C14.5837 22.8804 14.3652 22.6618 14.3652 22.3922V22.3809C14.3652 22.1113 14.5837 21.8926 14.8535 21.8926C15.1232 21.8926 15.3417 22.1113 15.3417 22.3809V22.3922C15.3417 22.6618 15.1232 22.8804 14.8535 22.8804Z" fill="#FF7300"/>
<path d="M16.9797 20.0758C16.71 20.0758 16.4915 19.8572 16.4915 19.5876V19.5763C16.4915 19.3067 16.71 19.088 16.9797 19.088C17.2495 19.088 17.468 19.3067 17.468 19.5763V19.5876C17.468 19.8572 17.2495 20.0758 16.9797 20.0758Z" fill="#FF7300"/>
<path d="M16.9797 21.9456C16.71 21.9456 16.4915 21.7269 16.4915 21.4573V21.4461C16.4915 21.1764 16.71 20.9578 16.9797 20.9578C17.2495 20.9578 17.468 21.1764 17.468 21.4461V21.4573C17.468 21.7269 17.2495 21.9456 16.9797 21.9456Z" fill="#FF7300"/>
<path d="M19.1061 19.141C18.8364 19.141 18.6179 18.9223 18.6179 18.6527V18.6415C18.6179 18.3718 18.8364 18.1532 19.1061 18.1532C19.3759 18.1532 19.5944 18.3718 19.5944 18.6415V18.6527C19.5944 18.9223 19.3759 19.141 19.1061 19.141Z" fill="#FF7300"/>
<path d="M19.1061 21.0107C18.8364 21.0107 18.6179 20.7921 18.6179 20.5224V20.5112C18.6179 20.2416 18.8364 20.0229 19.1061 20.0229C19.3759 20.0229 19.5944 20.2416 19.5944 20.5112V20.5224C19.5944 20.7921 19.3759 21.0107 19.1061 21.0107Z" fill="#FF7300"/>
<path d="M19.1061 22.8804C18.8364 22.8804 18.6179 22.6618 18.6179 22.3922V22.3809C18.6179 22.1113 18.8364 21.8926 19.1061 21.8926C19.3759 21.8926 19.5944 22.1113 19.5944 22.3809V22.3922C19.5944 22.6618 19.3759 22.8804 19.1061 22.8804Z" fill="#FF7300"/>
<path d="M21.2325 20.0758C20.9628 20.0758 20.7443 19.8572 20.7443 19.5876V19.5763C20.7443 19.3067 20.9628 19.088 21.2325 19.088C21.5023 19.088 21.7208 19.3067 21.7208 19.5763V19.5876C21.7208 19.8572 21.5023 20.0758 21.2325 20.0758Z" fill="#FF7300"/>
<path d="M21.2325 21.9456C20.9628 21.9456 20.7443 21.7269 20.7443 21.4573V21.4461C20.7443 21.1764 20.9628 20.9578 21.2325 20.9578C21.5023 20.9578 21.7208 21.1764 21.7208 21.4461V21.4573C21.7208 21.7269 21.5023 21.9456 21.2325 21.9456Z" fill="#FF7300"/>
<path d="M31.5084 23.0756C35.2565 23.0756 38.295 20.0371 38.295 16.289C38.295 12.5409 35.2565 9.50252 31.5084 9.50252C27.7604 9.50252 24.7219 12.5409 24.7219 16.289C24.7219 20.0371 27.7604 23.0756 31.5084 23.0756Z" fill="#FF4D4D"/>
<path d="M34.6664 14.8593H32.9384V13.1312C32.9384 12.5919 32.5012 12.1547 31.9618 12.1547H31.0554C30.516 12.1547 30.0788 12.5919 30.0788 13.1312V14.8593H28.3508C27.8114 14.8593 27.3742 15.2965 27.3742 15.8358V16.7423C27.3742 17.2816 27.8114 17.7188 28.3508 17.7188H30.0788V19.4469C30.0788 19.9862 30.516 20.4234 31.0554 20.4234H31.9618C32.5012 20.4234 32.9384 19.9862 32.9384 19.4469V17.7188H34.6664C35.2057 17.7188 35.643 17.2816 35.643 16.7423V15.8358C35.643 15.2965 35.2057 14.8593 34.6664 14.8593Z" fill="white"/>
<path d="M16.4916 38.097C16.2219 38.097 16.0033 37.8783 16.0033 37.6087V37.5941C16.0033 37.3244 16.2219 37.1058 16.4916 37.1058C16.7613 37.1058 16.9799 37.3244 16.9799 37.5941V37.6087C16.9799 37.8784 16.7613 38.097 16.4916 38.097Z" fill="#FF4D4D"/>
<path d="M16.4916 40.8103C16.2219 40.8103 16.0033 40.5916 16.0033 40.322V40.3073C16.0033 40.0377 16.2219 39.8191 16.4916 39.8191C16.7613 39.8191 16.9799 40.0377 16.9799 40.3073V40.322C16.9799 40.5917 16.7613 40.8103 16.4916 40.8103Z" fill="#FF4D4D"/>
<path d="M15.3225 38.7718C15.2394 38.7718 15.1553 38.7506 15.0784 38.706L15.0657 38.6987C14.8323 38.5635 14.7526 38.2649 14.8878 38.0314C15.0228 37.7981 15.3218 37.7185 15.555 37.8535L15.5677 37.8608C15.801 37.9959 15.8807 38.2946 15.7456 38.5281C15.6552 38.6844 15.4911 38.7718 15.3225 38.7718Z" fill="#FF4D4D"/>
<path d="M17.6723 40.1285C17.5892 40.1285 17.5051 40.1073 17.4282 40.0626L17.4155 40.0553C17.1821 39.9202 17.1024 39.6215 17.2376 39.388C17.3727 39.1547 17.6716 39.075 17.9048 39.2101L17.9175 39.2174C18.1509 39.3526 18.2305 39.6512 18.0954 39.8847C18.0049 40.0411 17.8408 40.1285 17.6723 40.1285Z" fill="#FF4D4D"/>
<path d="M15.3108 40.1284C15.1421 40.1284 14.9783 40.041 14.8878 39.8847C14.7526 39.6513 14.8324 39.3526 15.0657 39.2174L15.0784 39.2101C15.3118 39.0749 15.6105 39.1547 15.7456 39.388C15.8807 39.6214 15.8009 39.9201 15.5676 40.0553L15.5549 40.0626C15.478 40.1072 15.3938 40.1284 15.3108 40.1284Z" fill="#FF4D4D"/>
<path d="M17.6606 38.7718C17.4919 38.7718 17.3281 38.6844 17.2375 38.528C17.1024 38.2946 17.1822 37.9959 17.4155 37.8607L17.4282 37.8534C17.6616 37.7182 17.9603 37.798 18.0954 38.0313C18.2305 38.2647 18.1507 38.5635 17.9174 38.6986L17.9047 38.7059C17.8278 38.7506 17.7435 38.7718 17.6606 38.7718Z" fill="#FF4D4D"/>
<path d="M36.2493 5.05847C35.9796 5.05847 35.761 4.83982 35.761 4.57019V4.55554C35.761 4.28591 35.9796 4.06726 36.2493 4.06726C36.5191 4.06726 36.7376 4.28591 36.7376 4.55554V4.57019C36.7376 4.83982 36.5191 5.05847 36.2493 5.05847Z" fill="#6C6CFF"/>
<path d="M36.2493 7.77176C35.9796 7.77176 35.761 7.55311 35.761 7.28348V7.26883C35.761 6.9992 35.9796 6.78055 36.2493 6.78055C36.5191 6.78055 36.7376 6.9992 36.7376 7.26883V7.28348C36.7376 7.55311 36.5191 7.77176 36.2493 7.77176Z" fill="#6C6CFF"/>
<path d="M35.0804 5.73317C34.9973 5.73317 34.9132 5.71197 34.8363 5.66735L34.8236 5.66002C34.5902 5.52487 34.5105 5.22623 34.6456 4.99274C34.7808 4.75934 35.0797 4.67975 35.3128 4.81481L35.3255 4.82213C35.5589 4.95729 35.6386 5.25592 35.5035 5.48942C35.4129 5.64576 35.2489 5.73317 35.0804 5.73317Z" fill="#6C6CFF"/>
<path d="M37.4301 7.0899C37.347 7.0899 37.263 7.06871 37.186 7.02408L37.1733 7.01676C36.9399 6.8816 36.8602 6.58297 36.9954 6.34947C37.1305 6.11607 37.4295 6.03648 37.6626 6.17154L37.6753 6.17887C37.9087 6.31402 37.9883 6.61266 37.8532 6.84615C37.7627 7.0025 37.5987 7.0899 37.4301 7.0899Z" fill="#6C6CFF"/>
<path d="M35.0687 7.08992C34.9 7.08992 34.7362 7.00252 34.6456 6.84617C34.5105 6.61278 34.5903 6.31405 34.8236 6.17889L34.8362 6.17156C35.0697 6.03641 35.3684 6.11619 35.5034 6.34949C35.6386 6.58289 35.5588 6.88162 35.3255 7.01678L35.3128 7.0241C35.2358 7.06864 35.1516 7.08992 35.0687 7.08992Z" fill="#6C6CFF"/>
<path d="M37.4184 5.73319C37.2497 5.73319 37.0859 5.64579 36.9954 5.48944C36.8602 5.25604 36.94 4.95731 37.1733 4.82215L37.186 4.81483C37.4194 4.67967 37.7181 4.75946 37.8532 4.99276C37.9883 5.22616 37.9085 5.52489 37.6752 5.66004L37.6625 5.66737C37.5856 5.712 37.5014 5.73319 37.4184 5.73319Z" fill="#6C6CFF"/>
<path d="M43.5287 32.6348C43.2615 32.6045 43.0189 32.7972 42.9886 33.0652C42.3286 38.9043 37.3931 43.3075 31.5083 43.3075C25.1369 43.3075 19.9534 38.1239 19.9534 31.7525C19.9534 30.7075 20.0943 29.6951 20.3555 28.7316H25.5578C26.904 28.7316 27.9993 27.6364 27.9993 26.2902V22.6589C29.0406 23.2349 30.2367 23.5638 31.5085 23.5638C33.5225 23.5638 35.3475 22.7409 36.6661 21.4139C40.0365 23.0983 42.4946 26.3849 42.9771 30.3373C43.0098 30.6048 43.2524 30.7959 43.5208 30.7628C43.7885 30.7301 43.979 30.4866 43.9463 30.2189C43.4336 26.0194 40.8652 22.5124 37.3245 20.6536C38.2398 19.4369 38.7831 17.9253 38.7831 16.289C38.7831 12.2777 35.5197 9.01422 31.5084 9.01422C30.2366 9.01422 29.0405 9.34322 27.9992 9.9191V9.13414C27.9992 7.78795 26.9039 6.69273 25.5578 6.69273H16.2199C15.9501 6.69273 15.7316 6.91139 15.7316 7.18102C15.7316 7.45064 15.9501 7.6693 16.2199 7.6693H25.5578C26.3655 7.6693 27.0226 8.32643 27.0226 9.13414V10.5682C25.3263 11.9012 24.2335 13.9693 24.2335 16.289C24.2335 18.6088 25.3263 20.6768 27.0226 22.0098V26.2902C27.0226 27.0979 26.3655 27.755 25.5578 27.755H8.40179C7.59408 27.755 6.93695 27.0979 6.93695 26.2902V9.13414C6.93695 8.32643 7.59408 7.6693 8.40179 7.6693H13.3781C13.6478 7.6693 13.8663 7.45064 13.8663 7.18102C13.8663 6.91139 13.6478 6.69273 13.3781 6.69273H8.40179C7.0556 6.69273 5.96039 7.78795 5.96039 9.13414V26.2902C5.96039 27.6364 7.0556 28.7316 8.40179 28.7316H19.3461C19.1056 29.6996 18.9768 30.7112 18.9768 31.7525C18.9768 38.6625 24.5984 44.284 31.5083 44.284C37.8905 44.284 43.243 39.5082 43.959 33.1749C43.9893 32.9069 43.7967 32.6651 43.5287 32.6348ZM25.2102 16.289C25.2102 12.8162 28.0356 9.99078 31.5084 9.99078C34.9813 9.99078 37.8066 12.8162 37.8066 16.289C37.8066 19.7619 34.9812 22.5873 31.5084 22.5873C28.0356 22.5873 25.2102 19.7619 25.2102 16.289Z" fill="#0000CC"/>
<path d="M16.6688 30.7713H14.8541C14.5844 30.7713 14.3658 30.9899 14.3658 31.2595C14.3658 31.5292 14.5844 31.7478 14.8541 31.7478H16.6688C16.9385 31.7478 17.1571 31.5292 17.1571 31.2595C17.1571 30.9899 16.9384 30.7713 16.6688 30.7713Z" fill="#0000CC"/>
<path d="M16.6688 32.5663H10.9479C10.6781 32.5663 10.4596 32.785 10.4596 33.0546C10.4596 33.3242 10.6781 33.5429 10.9479 33.5429H16.6688C16.9385 33.5429 17.1571 33.3242 17.1571 33.0546C17.1571 32.785 16.9384 32.5663 16.6688 32.5663Z" fill="#0000CC"/>
<path d="M16.6688 34.3614H10.9479C10.6781 34.3614 10.4596 34.58 10.4596 34.8497C10.4596 35.1193 10.6781 35.338 10.9479 35.338H16.6688C16.9385 35.338 17.1571 35.1193 17.1571 34.8497C17.1571 34.58 16.9384 34.3614 16.6688 34.3614Z" fill="#0000CC"/>
<path d="M11.6203 42.8322C11.3506 42.8322 11.1321 42.6136 11.1321 42.3439C11.1321 42.0029 10.8546 41.7255 10.5136 41.7255C10.2439 41.7255 10.0253 41.5068 10.0253 41.2372C10.0253 40.9676 10.2439 40.7489 10.5136 40.7489C10.8546 40.7489 11.1321 40.4715 11.1321 40.1304C11.1321 39.8608 11.3506 39.6422 11.6203 39.6422C11.8901 39.6422 12.1086 39.8608 12.1086 40.1304C12.1086 40.4715 12.3861 40.7489 12.7271 40.7489C12.9968 40.7489 13.2154 40.9676 13.2154 41.2372C13.2154 41.5068 12.9968 41.7255 12.7271 41.7255C12.3861 41.7255 12.1086 42.0029 12.1086 42.3439C12.1086 42.6136 11.8901 42.8322 11.6203 42.8322Z" fill="#FF9D33"/>
<path d="M41.9032 20.6831C41.6335 20.6831 41.415 20.4644 41.415 20.1948C41.415 19.8538 41.1375 19.5763 40.7965 19.5763C40.5268 19.5763 40.3082 19.3577 40.3082 19.088C40.3082 18.8184 40.5268 18.5998 40.7965 18.5998C41.1375 18.5998 41.415 18.3223 41.415 17.9813C41.415 17.7117 41.6335 17.493 41.9032 17.493C42.173 17.493 42.3915 17.7117 42.3915 17.9813C42.3915 18.3223 42.669 18.5998 43.01 18.5998C43.2797 18.5998 43.4983 18.8184 43.4983 19.088C43.4983 19.3577 43.2797 19.5763 43.01 19.5763C42.669 19.5763 42.3915 19.8538 42.3915 20.1948C42.3915 20.4644 42.173 20.6831 41.9032 20.6831Z" fill="#6C6CFF"/>
<path d="M31.0201 7.88318C30.7504 7.88318 30.5318 7.66453 30.5318 7.3949C30.5318 7.05389 30.2544 6.77645 29.9134 6.77645C29.6437 6.77645 29.4251 6.55779 29.4251 6.28817C29.4251 6.01854 29.6437 5.79988 29.9134 5.79988C30.2544 5.79988 30.5318 5.52244 30.5318 5.18143C30.5318 4.9118 30.7504 4.69315 31.0201 4.69315C31.2899 4.69315 31.5084 4.9118 31.5084 5.18143C31.5084 5.52244 31.7859 5.79988 32.1269 5.79988C32.3966 5.79988 32.6151 6.01854 32.6151 6.28817C32.6151 6.55779 32.3966 6.77645 32.1269 6.77645C31.7859 6.77645 31.5084 7.05389 31.5084 7.3949C31.5084 7.66453 31.2898 7.88318 31.0201 7.88318Z" fill="#FF4D4D"/>
</g>
<defs>
<linearGradient id="paint0_linear_154_4934" x1="1.6796e-05" y1="25" x2="50" y2="25" gradientUnits="userSpaceOnUse">
<stop stop-color="#FFD9D9" stop-opacity="0"/>
<stop offset="0.9981" stop-color="#FFB3B3"/>
</linearGradient>
<clipPath id="clip0_154_4934">
<rect width="50" height="50" fill="white"/>
</clipPath>
</defs>
</svg>
