<svg width="50" height="50" viewBox="0 0 50 50" fill="none" xmlns="http://www.w3.org/2000/svg">
<g clip-path="url(#clip0_154_5030)">
<path d="M44.1209 4.29325C28.4416 -5.26427 4.03203 3.45233 1.1918 10.343C-2.60781 19.5611 3.7873 21.1367 4.97529 28.69C5.92851 34.7507 -0.02295 40.5548 3.37432 45.9051C7.07383 51.7315 19.3377 50.2684 23.9991 47.5112C32.5319 42.4641 28.2285 36.5725 32.269 29.2203C36.1174 22.2177 43.621 25.0577 47.9879 19.4557C52.1383 14.1313 49.3853 7.50233 44.1209 4.29325Z" fill="url(#paint0_linear_154_5030)"/>
<g opacity="0.1">
<path opacity="0.1" d="M42.9042 15.4951H32.1937C31.6543 15.4951 31.2171 15.9323 31.2171 16.4717V21.1L30.1384 20.7176C29.901 20.6334 29.6383 20.661 29.4237 20.7927L28.0934 21.6085C28.0875 21.6121 28.0821 21.6163 28.0762 21.6199C28.173 21.2107 28.2211 20.7827 28.2112 20.3416C28.1489 17.5843 25.8346 15.4085 23.0766 15.4085H23.0762C22.1757 15.4085 21.3629 14.8688 21.0134 14.0389L20.9302 13.8412H19.045C18.6897 10.3188 15.641 7.5915 11.9898 7.75058C8.44546 7.90497 5.59214 10.82 5.50864 14.3667C5.4186 18.1896 8.49068 21.3169 12.2932 21.3169C12.4356 21.3169 12.5766 21.311 12.7168 21.3024C13.1215 23.8841 13.8863 26.9641 15.2931 30.2622C17.7536 36.0306 16.8998 40.0632 15.7365 42.4434C15.4834 42.9611 15.3051 43.5102 15.2102 44.0744C15.139 44.498 15.4663 44.8843 15.8958 44.8843H27.8392C33.66 44.1689 38.6768 41.0625 38.6974 35.0941C38.7072 32.2825 38.1089 29.6871 36.9298 27.5994H42.9043C43.4437 27.5994 43.8809 27.1622 43.8809 26.6228V16.4717C43.8808 15.9323 43.4436 15.4951 42.9042 15.4951Z" fill="#2626BC"/>
<path opacity="0.1" d="M11.2046 23.2946H9.38989C9.12026 23.2946 8.90161 23.5132 8.90161 23.7829C8.90161 24.0527 9.12026 24.2712 9.38989 24.2712H11.2046C11.4743 24.2712 11.6929 24.0527 11.6929 23.7829C11.6929 23.5132 11.4743 23.2946 11.2046 23.2946Z" fill="#2626BC"/>
<path opacity="0.1" d="M11.2046 25.0897H5.48364C5.21401 25.0897 4.99536 25.3083 4.99536 25.578C4.99536 25.8477 5.21401 26.0663 5.48364 26.0663H11.2046C11.4743 26.0663 11.6929 25.8477 11.6929 25.578C11.6929 25.3083 11.4743 25.0897 11.2046 25.0897Z" fill="#2626BC"/>
<path opacity="0.1" d="M11.2046 26.8848H5.48364C5.21401 26.8848 4.99536 27.1034 4.99536 27.3731C4.99536 27.6428 5.21401 27.8614 5.48364 27.8614H11.2046C11.4743 27.8614 11.6929 27.6428 11.6929 27.3731C11.6929 27.1034 11.4743 26.8848 11.2046 26.8848Z" fill="#2626BC"/>
</g>
<path d="M42.9043 25.1582H32.1937C31.6544 25.1582 31.2172 24.721 31.2172 24.1816V14.0302C31.2172 13.4909 31.6544 13.0537 32.1937 13.0537H42.9043C43.4436 13.0537 43.8808 13.4909 43.8808 14.0302V24.1816C43.8808 24.721 43.4436 25.1582 42.9043 25.1582Z" fill="white"/>
<path d="M43.8808 16.0086V14.0302C43.8808 13.4909 43.4436 13.0537 42.9043 13.0537H32.1937C31.6544 13.0537 31.2172 13.4909 31.2172 14.0302V16.0086H43.8808Z" fill="#FF9D33"/>
<path d="M34.1424 18.093H33.5867C33.317 18.093 33.0984 17.8744 33.0984 17.6047C33.0984 17.335 33.317 17.1164 33.5867 17.1164H34.1424C34.4121 17.1164 34.6307 17.335 34.6307 17.6047C34.6307 17.8744 34.4121 18.093 34.1424 18.093Z" fill="#6C6CFF"/>
<path d="M36.5987 18.093H36.0429C35.7733 18.093 35.5546 17.8744 35.5546 17.6047C35.5546 17.335 35.7733 17.1164 36.0429 17.1164H36.5987C36.8683 17.1164 37.0869 17.335 37.0869 17.6047C37.0869 17.8744 36.8683 18.093 36.5987 18.093Z" fill="#6C6CFF"/>
<path d="M39.055 18.093H38.4993C38.2296 18.093 38.011 17.8744 38.011 17.6047C38.011 17.335 38.2296 17.1164 38.4993 17.1164H39.055C39.3247 17.1164 39.5433 17.335 39.5433 17.6047C39.5433 17.8744 39.3247 18.093 39.055 18.093Z" fill="#6C6CFF"/>
<path d="M41.5114 18.093H40.9556C40.686 18.093 40.4673 17.8744 40.4673 17.6047C40.4673 17.335 40.686 17.1164 40.9556 17.1164H41.5114C41.781 17.1164 41.9997 17.335 41.9997 17.6047C41.9997 17.8744 41.781 18.093 41.5114 18.093Z" fill="#FF6C6C"/>
<path d="M34.1424 19.8245H33.5867C33.317 19.8245 33.0984 19.6059 33.0984 19.3362C33.0984 19.0665 33.317 18.8479 33.5867 18.8479H34.1424C34.4121 18.8479 34.6307 19.0665 34.6307 19.3362C34.6307 19.6059 34.4121 19.8245 34.1424 19.8245Z" fill="#6C6CFF"/>
<path d="M36.5987 19.8245H36.0429C35.7733 19.8245 35.5546 19.6059 35.5546 19.3362C35.5546 19.0665 35.7733 18.8479 36.0429 18.8479H36.5987C36.8683 18.8479 37.0869 19.0665 37.0869 19.3362C37.0869 19.6059 36.8683 19.8245 36.5987 19.8245Z" fill="#6C6CFF"/>
<path d="M39.055 19.8245H38.4993C38.2296 19.8245 38.011 19.6059 38.011 19.3362C38.011 19.0665 38.2296 18.8479 38.4993 18.8479H39.055C39.3247 18.8479 39.5433 19.0665 39.5433 19.3362C39.5433 19.6059 39.3247 19.8245 39.055 19.8245Z" fill="#6C6CFF"/>
<path d="M41.5114 19.8245H40.9556C40.686 19.8245 40.4673 19.6059 40.4673 19.3362C40.4673 19.0665 40.686 18.8479 40.9556 18.8479H41.5114C41.781 18.8479 41.9997 19.0665 41.9997 19.3362C41.9997 19.6059 41.781 19.8245 41.5114 19.8245Z" fill="#FF6C6C"/>
<path d="M34.1424 21.5559H33.5867C33.317 21.5559 33.0984 21.3373 33.0984 21.0676C33.0984 20.7979 33.317 20.5793 33.5867 20.5793H34.1424C34.4121 20.5793 34.6307 20.7979 34.6307 21.0676C34.6307 21.3373 34.4121 21.5559 34.1424 21.5559Z" fill="#6C6CFF"/>
<path d="M36.5987 21.5559H36.0429C35.7733 21.5559 35.5546 21.3373 35.5546 21.0676C35.5546 20.7979 35.7733 20.5793 36.0429 20.5793H36.5987C36.8683 20.5793 37.0869 20.7979 37.0869 21.0676C37.0869 21.3373 36.8683 21.5559 36.5987 21.5559Z" fill="#6C6CFF"/>
<path d="M39.055 21.5559H38.4993C38.2296 21.5559 38.011 21.3373 38.011 21.0676C38.011 20.7979 38.2296 20.5793 38.4993 20.5793H39.055C39.3247 20.5793 39.5433 20.7979 39.5433 21.0676C39.5433 21.3373 39.3247 21.5559 39.055 21.5559Z" fill="#6C6CFF"/>
<path d="M41.5114 21.5559H40.9556C40.686 21.5559 40.4673 21.3373 40.4673 21.0676C40.4673 20.7979 40.686 20.5793 40.9556 20.5793H41.5114C41.781 20.5793 41.9997 20.7979 41.9997 21.0676C41.9997 21.3373 41.781 21.5559 41.5114 21.5559Z" fill="#FF6C6C"/>
<path d="M34.1424 23.2873H33.5867C33.317 23.2873 33.0984 23.0688 33.0984 22.7991C33.0984 22.5293 33.317 22.3108 33.5867 22.3108H34.1424C34.4121 22.3108 34.6307 22.5293 34.6307 22.7991C34.6307 23.0688 34.4121 23.2873 34.1424 23.2873Z" fill="#6C6CFF"/>
<path d="M36.5987 23.2873H36.0429C35.7733 23.2873 35.5546 23.0688 35.5546 22.7991C35.5546 22.5293 35.7733 22.3108 36.0429 22.3108H36.5987C36.8683 22.3108 37.0869 22.5293 37.0869 22.7991C37.0869 23.0688 36.8683 23.2873 36.5987 23.2873Z" fill="#6C6CFF"/>
<path d="M39.055 23.2873H38.4993C38.2296 23.2873 38.011 23.0688 38.011 22.7991C38.011 22.5293 38.2296 22.3108 38.4993 22.3108H39.055C39.3247 22.3108 39.5433 22.5293 39.5433 22.7991C39.5433 23.0688 39.3247 23.2873 39.055 23.2873Z" fill="#FF6C6C"/>
<path d="M41.5114 23.2873H40.9556C40.686 23.2873 40.4673 23.0688 40.4673 22.7991C40.4673 22.5293 40.686 22.3108 40.9556 22.3108H41.5114C41.781 22.3108 41.9997 22.5293 41.9997 22.7991C41.9997 23.0688 41.781 23.2873 41.5114 23.2873Z" fill="#FF6C6C"/>
<path d="M28.2123 20.1707H28.2075C27.9848 20.1707 27.833 19.9493 27.9092 19.7401C28.1066 19.198 28.2138 18.6128 28.2123 18.0021C28.2055 15.2049 25.8738 12.9673 23.0765 12.9673H23.0762C22.1757 12.9673 21.3629 12.4276 21.0134 11.5976L20.9302 11.4H12.3981C12.3981 11.4 11.4437 18.7964 15.2931 27.821C17.7536 33.5893 16.8997 37.622 15.7365 40.0021C15.3636 40.765 15.153 41.5956 15.1326 42.443H27.8391C33.6599 41.7277 38.6767 38.6213 38.6973 32.6529C38.7211 25.7633 35.0964 20.1707 28.2123 20.1707Z" fill="#FFD6BB"/>
<path d="M15.7655 39.9409C15.7557 39.9611 15.7462 39.9822 15.7365 40.0021C15.3636 40.765 15.153 41.5956 15.1326 42.4431H27.8391C30.4851 42.1179 32.9647 41.2985 34.8846 39.9409H15.7655Z" fill="#8383FF"/>
<path d="M17.7682 39.9409H19.3447V42.4431H17.7682V39.9409Z" fill="#9494FF"/>
<path d="M21.5493 39.9409H23.1258V42.4431H21.5493V39.9409Z" fill="#9494FF"/>
<path d="M25.3306 39.9409H26.907V42.4431H25.3306V39.9409Z" fill="#9494FF"/>
<path d="M30.6883 39.9405V41.877C30.1746 42.0225 29.6483 42.1446 29.1121 42.2462V39.9405H30.6883Z" fill="#9494FF"/>
<path d="M34.8846 39.9405C34.2733 40.3731 33.6053 40.7511 32.8934 41.0753V39.9405H34.8846Z" fill="#9494FF"/>
<path d="M34.8495 22.5508V22.7149C33.9413 22.668 32.5468 22.9786 31.9081 24.5225C31.2977 25.9962 30.0624 28.5655 29.203 30.3214C28.9218 30.8946 28.4911 31.3624 27.9706 31.6876C27.4491 32.0118 26.8397 32.1934 26.2011 32.1934C24.8612 32.1934 23.6512 31.3926 23.1259 30.1602C24.1024 28.5518 29.0175 22.3233 30.5409 20.4034C32.2352 20.7579 33.6737 21.504 34.8495 22.5508Z" fill="#FFC599"/>
<path d="M32.7272 19.1938L30.1384 18.2762C29.901 18.192 29.6383 18.2196 29.4237 18.3513L28.0934 19.1671C27.5353 19.5094 27.0954 20.0142 26.8327 20.6138L25.3914 23.9034L22.7517 17.0981H16.6475L21.5577 28.6719C22.0815 29.9067 23.2928 30.7087 24.6341 30.7087C25.9103 30.7087 27.0748 29.9825 27.6357 28.8362C28.4949 27.0804 29.7308 24.511 30.3406 23.0373C30.9796 21.4931 32.3738 21.1829 33.2827 21.2297V19.98C33.2826 19.6268 33.0601 19.3119 32.7272 19.1938Z" fill="#FFD6BB"/>
<path d="M36.1382 32.9339C37.065 32.0071 37.065 30.5047 36.1382 29.5779C35.2115 28.6512 33.709 28.6512 32.7823 29.5779L32.4051 29.9551L32.028 29.5779C31.1012 28.6512 29.5988 28.6512 28.672 29.5779C27.7452 30.5047 27.7452 32.0071 28.672 32.9339L32.1723 36.4342C32.3009 36.5628 32.5093 36.5628 32.6379 36.4342L36.1382 32.9339Z" fill="#FF4D4D"/>
<path d="M12.2931 18.8757C16.0412 18.8757 19.0796 15.8372 19.0796 12.0892C19.0796 8.34106 16.0412 5.30263 12.2931 5.30263C8.54502 5.30263 5.50659 8.34106 5.50659 12.0892C5.50659 15.8372 8.54502 18.8757 12.2931 18.8757Z" fill="#FF4D4D"/>
<path d="M15.451 10.6594H13.7229V8.93135C13.7229 8.392 13.2857 7.95479 12.7464 7.95479H11.8399C11.3006 7.95479 10.8634 8.392 10.8634 8.93135V10.6594H9.13525C8.5959 10.6594 8.15869 11.0966 8.15869 11.6359V12.5424C8.15869 13.0817 8.5959 13.5189 9.13525 13.5189H10.8633V15.247C10.8633 15.7863 11.3005 16.2235 11.8398 16.2235H12.7463C13.2856 16.2235 13.7229 15.7863 13.7229 15.247V13.5189H15.4509C15.9902 13.5189 16.4274 13.0817 16.4274 12.5424V11.6359C16.4275 11.0966 15.9903 10.6594 15.451 10.6594Z" fill="white"/>
<path d="M13.6708 35.9378C13.4011 35.9378 13.1825 35.7193 13.1825 35.4496C13.1825 35.1086 12.905 34.831 12.564 34.831C12.2944 34.831 12.0757 34.6125 12.0757 34.3427C12.0757 34.073 12.2944 33.8545 12.564 33.8545C12.905 33.8545 13.1825 33.577 13.1825 33.236C13.1825 32.9663 13.4011 32.7477 13.6708 32.7477C13.9404 32.7477 14.159 32.9663 14.159 33.236C14.159 33.577 14.4365 33.8545 14.7775 33.8545C15.0471 33.8545 15.2658 34.073 15.2658 34.3427C15.2658 34.6125 15.0471 34.831 14.7775 34.831C14.4365 34.831 14.159 35.1086 14.159 35.4496C14.159 35.7193 13.9404 35.9378 13.6708 35.9378Z" fill="#FF4D4D"/>
<path d="M33.0984 9.33915C32.8287 9.33915 32.6101 9.1206 32.6101 8.85087C32.6101 8.50985 32.3327 8.23241 31.9916 8.23241C31.722 8.23241 31.5034 8.01386 31.5034 7.74413C31.5034 7.4744 31.722 7.25585 31.9916 7.25585C32.3327 7.25585 32.6101 6.97841 32.6101 6.63739C32.6101 6.36766 32.8287 6.14911 33.0984 6.14911C33.368 6.14911 33.5867 6.36766 33.5867 6.63739C33.5867 6.97841 33.8641 7.25585 34.2051 7.25585C34.4747 7.25585 34.6934 7.4744 34.6934 7.74413C34.6934 8.01386 34.4747 8.23241 34.2051 8.23241C33.8641 8.23241 33.5867 8.50985 33.5867 8.85087C33.5867 9.1206 33.368 9.33915 33.0984 9.33915Z" fill="#6C6CFF"/>
<path d="M42.8767 31.9593C42.6071 31.9593 42.3884 31.7407 42.3884 31.471C42.3884 31.13 42.111 30.8525 41.77 30.8525C41.5003 30.8525 41.2817 30.634 41.2817 30.3643C41.2817 30.0945 41.5003 29.876 41.77 29.876C42.111 29.876 42.3884 29.5985 42.3884 29.2575C42.3884 28.9878 42.6071 28.7692 42.8767 28.7692C43.1463 28.7692 43.365 28.9878 43.365 29.2575C43.365 29.5985 43.6424 29.876 43.9834 29.876C44.2531 29.876 44.4717 30.0945 44.4717 30.3643C44.4717 30.634 44.2531 30.8525 43.9834 30.8525C43.6424 30.8525 43.365 31.13 43.365 31.471C43.365 31.7406 43.1463 31.9593 42.8767 31.9593Z" fill="#6C6CFF"/>
<path d="M11.8836 29.0725C11.614 29.0725 11.3953 28.854 11.3953 28.5843V28.5696C11.3953 28.2999 11.614 28.0813 11.8836 28.0813C12.1532 28.0813 12.3719 28.2999 12.3719 28.5696V28.5843C12.3719 28.854 12.1533 29.0725 11.8836 29.0725Z" fill="#FF9D33"/>
<path d="M11.8836 31.7858C11.614 31.7858 11.3953 31.5673 11.3953 31.2975V31.2829C11.3953 31.0132 11.614 30.7946 11.8836 30.7946C12.1532 30.7946 12.3719 31.0132 12.3719 31.2829V31.2975C12.3719 31.5673 12.1533 31.7858 11.8836 31.7858Z" fill="#FF9D33"/>
<path d="M10.7147 29.7472C10.6317 29.7472 10.5476 29.726 10.4705 29.6814L10.4579 29.6741C10.2245 29.5389 10.1448 29.2403 10.2799 29.0069C10.415 28.7735 10.7136 28.6937 10.9472 28.829L10.9599 28.8363C11.1933 28.9715 11.273 29.2701 11.1378 29.5035C11.0472 29.6599 10.8832 29.7472 10.7147 29.7472Z" fill="#FF9D33"/>
<path d="M13.0645 31.1039C12.9817 31.1039 12.8979 31.0828 12.8211 31.0384L12.8084 31.0311C12.5748 30.8964 12.4946 30.5977 12.6294 30.3642C12.7641 30.1305 13.0626 30.0504 13.2963 30.1852L13.309 30.1925C13.5426 30.3273 13.6227 30.6259 13.488 30.8594C13.3975 31.0162 13.2334 31.1039 13.0645 31.1039Z" fill="#FF9D33"/>
<path d="M10.703 31.1039C10.5344 31.1039 10.3705 31.0165 10.2799 30.8602C10.1448 30.6268 10.2245 30.3281 10.4579 30.193L10.4705 30.1856C10.7041 30.0504 11.0028 30.1303 11.1378 30.3636C11.273 30.597 11.1933 30.8956 10.9599 31.0308L10.9472 31.0381C10.8701 31.0827 10.786 31.1039 10.703 31.1039Z" fill="#FF9D33"/>
<path d="M13.0526 29.7472C12.8838 29.7472 12.7196 29.6596 12.6292 29.5028C12.4944 29.2692 12.5746 28.9707 12.8082 28.8359L12.8209 28.8286C13.0545 28.6937 13.353 28.774 13.4878 29.0076C13.6226 29.2412 13.5424 29.5397 13.3088 29.6745L13.2961 29.6818C13.2193 29.7261 13.1353 29.7472 13.0526 29.7472Z" fill="#FF9D33"/>
<path d="M28.6326 8.41269C28.3629 8.41269 28.1443 8.19413 28.1443 7.92441V7.90976C28.1443 7.64003 28.3629 7.42148 28.6326 7.42148C28.9022 7.42148 29.1208 7.64003 29.1208 7.90976V7.92441C29.1208 8.19404 28.9022 8.41269 28.6326 8.41269Z" fill="#FF4D4D"/>
<path d="M28.6326 11.126C28.3629 11.126 28.1443 10.9074 28.1443 10.6377V10.623C28.1443 10.3533 28.3629 10.1348 28.6326 10.1348C28.9022 10.1348 29.1208 10.3533 29.1208 10.623V10.6377C29.1208 10.9073 28.9022 11.126 28.6326 11.126Z" fill="#FF4D4D"/>
<path d="M27.4637 9.08749C27.3806 9.08749 27.2966 9.0663 27.2195 9.02167L27.2068 9.01435C26.9734 8.87919 26.8937 8.58056 27.0289 8.34716C27.1639 8.11377 27.4625 8.03398 27.6962 8.16923L27.7089 8.17656C27.9423 8.31171 28.022 8.61035 27.8868 8.84374C27.7962 9.00009 27.6322 9.08749 27.4637 9.08749Z" fill="#FF4D4D"/>
<path d="M29.8134 10.444C29.7304 10.444 29.6463 10.4229 29.5692 10.3782L29.5565 10.3709C29.3231 10.2357 29.2435 9.93711 29.3786 9.70372C29.5137 9.47032 29.8122 9.39053 30.0459 9.52579L30.0586 9.53311C30.292 9.66827 30.3717 9.9669 30.2365 10.2003C30.1459 10.3567 29.9819 10.444 29.8134 10.444Z" fill="#FF4D4D"/>
<path d="M27.4518 10.4441C27.2833 10.4441 27.1193 10.3567 27.0288 10.2003C26.8936 9.96691 26.9733 9.66828 27.2067 9.53312L27.2194 9.5258C27.4529 9.39054 27.7516 9.47042 27.8867 9.70373C28.0218 9.93712 27.9421 10.2358 27.7087 10.3709L27.696 10.3782C27.619 10.4229 27.5349 10.4441 27.4518 10.4441Z" fill="#FF4D4D"/>
<path d="M29.8016 9.08751C29.633 9.08751 29.4691 9.0001 29.3786 8.84376C29.2434 8.61036 29.3231 8.31172 29.5565 8.17657L29.5692 8.16924C29.8027 8.03399 30.1013 8.11387 30.2365 8.34717C30.3716 8.58047 30.2919 8.87921 30.0585 9.01436L30.0458 9.02169C29.9687 9.06632 29.8846 9.08751 29.8016 9.08751Z" fill="#FF4D4D"/>
<path d="M42.9042 12.5654H32.1938C31.3861 12.5654 30.729 13.2226 30.729 14.0303V17.9675L30.3016 17.816C29.9232 17.682 29.5103 17.7256 29.1684 17.9352L28.6954 18.2253C28.6982 18.1506 28.7009 18.0759 28.7007 18.0011C28.6933 14.9561 26.1704 12.479 23.0763 12.479C22.3705 12.479 21.7375 12.0587 21.4635 11.4083L21.3803 11.2106C21.2757 10.962 20.9894 10.8456 20.7409 10.95C20.4923 11.0546 20.3756 11.3409 20.4802 11.5894L20.5635 11.7872C20.9903 12.8007 21.9766 13.4556 23.0766 13.4556C25.6332 13.4556 27.718 15.4958 27.7242 18.0033C27.7249 18.2994 27.6957 18.5947 27.64 18.8831C27.0894 19.271 26.6577 19.7968 26.3854 20.4181L25.4188 22.6242L23.207 16.9218C23.1094 16.6704 22.8265 16.5456 22.5751 16.6432C22.3237 16.7406 22.199 17.0235 22.2964 17.275L24.9361 24.0803C25.0076 24.2645 25.1832 24.3875 25.3808 24.3918C25.5804 24.3991 25.7592 24.2807 25.8385 24.0996L27.2798 20.81C27.5037 20.2992 27.8733 19.8751 28.3487 19.5835L29.679 18.7676C29.7684 18.7127 29.8765 18.7014 29.9753 18.7365L32.5639 19.6541C32.7017 19.7029 32.7943 19.834 32.7943 19.9801V20.752C31.96 20.8226 30.572 21.2009 29.8893 22.8507C29.2929 24.292 28.096 26.7845 27.197 28.6218C26.7217 29.593 25.7158 30.2206 24.634 30.2206C23.4864 30.2206 22.4552 29.538 22.0071 28.4813L18.342 19.8424C18.2368 19.5942 17.9501 19.4782 17.7018 19.5837C17.4536 19.689 17.3376 19.9756 17.443 20.2239L17.801 21.0678H17.2488C16.9792 21.0678 16.7605 21.2863 16.7605 21.556C16.7605 21.8258 16.9792 22.0443 17.2488 22.0443H18.2154L21.1082 28.8629C21.7098 30.281 23.0938 31.1972 24.6341 31.1972C26.0859 31.1972 27.4363 30.3547 28.0743 29.0509C28.9794 27.2012 30.1857 24.6888 30.7917 23.2241C31.2608 22.0908 32.1791 21.7918 32.8144 21.7287C34.5332 22.6345 35.8821 24.0721 36.8231 26.0044C37.7383 27.8837 38.2176 30.182 38.209 32.6512C38.1999 35.3066 37.1657 37.4894 35.1354 39.139C33.3179 40.6154 30.7743 41.5905 27.7795 41.9584C27.5119 41.9913 27.3216 42.235 27.3544 42.5025C27.3849 42.75 27.5954 42.9314 27.8385 42.9314C27.8584 42.9314 27.8785 42.9302 27.8987 42.9277C31.0757 42.5373 33.7911 41.4894 35.7511 39.897C37.9878 38.0799 39.1754 35.5755 39.1856 32.6547C39.1946 30.0371 38.6813 27.5897 37.701 25.5768C36.7739 23.6732 35.4224 22.1559 33.7708 21.1504V19.9801C33.7708 19.4213 33.4169 18.9204 32.8902 18.7336L31.7054 18.3136V14.0303C31.7054 13.761 31.9245 13.542 32.1937 13.542H42.9041C43.1734 13.542 43.3924 13.761 43.3924 14.0303V24.1816C43.3924 24.4509 43.1734 24.6699 42.9041 24.6699H39.9288C39.6591 24.6699 39.4405 24.8885 39.4405 25.1582C39.4405 25.4279 39.6591 25.6465 39.9288 25.6465H42.9041C43.7119 25.6465 44.369 24.9893 44.369 24.1816V14.0303C44.3691 13.2225 43.712 12.5654 42.9042 12.5654Z" fill="#0000CC"/>
<path d="M13.2835 19.2952C16.2919 18.879 18.7939 16.5968 19.4183 13.563C19.4727 13.2989 19.3026 13.0406 19.0385 12.9863C18.7744 12.9313 18.5162 13.1019 18.4618 13.3662C17.8628 16.2758 15.2686 18.3875 12.2931 18.3875C8.82026 18.3875 5.99487 15.5621 5.99487 12.0892C5.99487 8.61639 8.82026 5.7911 12.2931 5.7911C15.2256 5.7911 17.8117 7.86727 18.442 10.7278C18.5 10.9911 18.7601 11.1576 19.024 11.0996C19.2874 11.0415 19.4538 10.781 19.3958 10.5177C19.0448 8.92479 18.151 7.47782 16.8793 6.44305C15.5887 5.39276 13.96 4.81444 12.2931 4.81444C8.28179 4.81444 5.01831 8.07791 5.01831 12.0891C5.01831 16.1005 8.28169 19.364 12.2931 19.364C12.2969 19.364 12.3007 19.3637 12.3045 19.3637C12.803 22.3193 13.6562 25.2281 14.8439 28.0125C17.2353 33.6189 16.4106 37.5104 15.2977 39.7877C14.8861 40.63 14.6664 41.5193 14.6444 42.4311C14.6379 42.7008 14.8512 42.9246 15.1208 42.931C15.1248 42.9311 15.1288 42.9311 15.1328 42.9311C15.397 42.9311 15.6143 42.7202 15.6207 42.4546C15.6391 41.6844 15.8257 40.9313 16.175 40.2164C17.3775 37.7561 18.2784 33.5753 15.7421 27.6292C14.5972 24.9452 13.7713 22.1428 13.2835 19.2952Z" fill="#0000CC"/>
<path d="M11.2046 20.8533H9.38989C9.12026 20.8533 8.90161 21.0718 8.90161 21.3416C8.90161 21.6113 9.12026 21.8298 9.38989 21.8298H11.2046C11.4743 21.8298 11.6929 21.6113 11.6929 21.3416C11.6929 21.0718 11.4743 20.8533 11.2046 20.8533Z" fill="#0000CC"/>
<path d="M11.2046 22.6483H5.48364C5.21401 22.6483 4.99536 22.8669 4.99536 23.1366C4.99536 23.4064 5.21401 23.6249 5.48364 23.6249H11.2046C11.4743 23.6249 11.6929 23.4064 11.6929 23.1366C11.6929 22.8669 11.4743 22.6483 11.2046 22.6483Z" fill="#0000CC"/>
<path d="M11.2046 24.4434H5.48364C5.21401 24.4434 4.99536 24.662 4.99536 24.9317C4.99536 25.2014 5.21401 25.42 5.48364 25.42H11.2046C11.4743 25.42 11.6929 25.2014 11.6929 24.9317C11.6929 24.662 11.4743 24.4434 11.2046 24.4434Z" fill="#0000CC"/>
</g>
<defs>
<linearGradient id="paint0_linear_154_5030" x1="-1.2469e-06" y1="25" x2="50" y2="25" gradientUnits="userSpaceOnUse">
<stop stop-color="#FFD9D9" stop-opacity="0"/>
<stop offset="0.9981" stop-color="#FFB3B3"/>
</linearGradient>
<clipPath id="clip0_154_5030">
<rect width="50" height="50" fill="white"/>
</clipPath>
</defs>
</svg>
