<svg width="50" height="50" viewBox="0 0 50 50" fill="none" xmlns="http://www.w3.org/2000/svg">
<g clip-path="url(#clip0_154_6181)">
<path d="M1.98607 13.0383C-0.354456 16.8858 -0.601136 23.5474 1.11332 27.7118C2.61498 31.3593 5.60218 34.7829 9.52347 35.2119C10.9655 35.3696 12.4393 35.1119 13.8664 35.3718C18.7744 36.2656 20.6 42.3142 24.4143 45.5294C27.0688 47.767 30.752 48.5588 34.1969 48.1278C37.6418 47.6967 40.867 46.1392 43.7063 44.1411C45.9482 42.5632 48.0457 40.6233 49.152 38.115C51.4707 32.8573 48.7428 26.5426 44.5048 22.6619C43.1849 21.4533 41.7137 20.3871 40.6108 18.9777C39.5079 17.5682 38.8061 15.6871 39.3316 13.9763C39.7508 12.6114 40.8793 11.5533 41.3069 10.1909C41.8887 8.33695 41.0105 6.25716 39.5684 4.95492C38.1263 3.65267 36.218 2.99798 34.3276 2.54867C26.4074 0.665854 9.05189 1.42327 1.98607 13.0383Z" fill="url(#paint0_linear_154_6181)"/>
<g opacity="0.1">
<g opacity="0.1">
<path opacity="0.1" d="M24.2609 12.1666H26.0757C26.3453 12.1666 26.564 11.948 26.564 11.6783C26.564 11.4086 26.3453 11.19 26.0757 11.19H24.2609C23.9913 11.19 23.7726 11.4086 23.7726 11.6783C23.7726 11.948 23.9912 12.1666 24.2609 12.1666Z" fill="#2626BC"/>
<path opacity="0.1" d="M24.2609 13.9617H29.9819C30.2516 13.9617 30.4702 13.7431 30.4702 13.4734C30.4702 13.2037 30.2516 12.9851 29.9819 12.9851H24.2609C23.9913 12.9851 23.7726 13.2037 23.7726 13.4734C23.7726 13.7431 23.9912 13.9617 24.2609 13.9617Z" fill="#2626BC"/>
<path opacity="0.1" d="M24.2609 15.7569H29.9819C30.2516 15.7569 30.4702 15.5383 30.4702 15.2686C30.4702 14.9989 30.2516 14.7803 29.9819 14.7803H24.2609C23.9913 14.7803 23.7726 14.9989 23.7726 15.2686C23.7726 15.5383 23.9912 15.7569 24.2609 15.7569Z" fill="#2626BC"/>
</g>
<path opacity="0.1" d="M44.3634 28.5955H39.572C41.4754 27.5137 42.7602 25.4692 42.7602 23.1234C42.7602 19.6485 39.9434 16.8317 36.4686 16.8317C32.9938 16.8317 30.177 19.6485 30.177 23.1234C30.177 25.4692 31.4618 27.5137 33.3652 28.5955H33.2833C32.744 28.5955 32.3068 29.0327 32.3068 29.5721V35.8055C32.3068 36.3448 32.744 36.782 33.2833 36.782H35.506V41.7376C35.506 43.2376 34.2638 44.4524 32.755 44.4075C31.3019 44.3636 30.1652 43.1341 30.1652 41.681V35.889C30.1652 33.1761 27.9318 30.9749 25.2072 31.0267C22.5451 31.0765 20.4376 33.3069 20.4376 35.971V42.0853C20.4376 43.3528 19.4171 44.387 18.1544 44.4085C16.8556 44.43 15.7921 43.3323 15.7921 42.0325V32.3372C15.7921 31.1692 16.4777 30.0999 17.5392 29.6126L19.7667 28.5892C21.3615 27.8567 22.3908 26.2503 22.3908 24.4964V17.6644C22.3908 17.3949 22.1721 17.1763 21.9028 17.1761V9.80382C21.9028 8.74532 21.2341 7.79161 20.239 7.43058L19.1104 7.0214C18.9465 6.46574 18.4326 6.0587 17.8245 6.0587H17.4578C17.4465 5.79913 17.2341 5.59171 16.9717 5.59171C16.7021 5.59171 16.4834 5.81027 16.4834 6.07999V6.54698V8.25265V8.71964C16.4834 8.98937 16.7021 9.20792 16.9717 9.20792C17.2341 9.20792 17.4465 9.0005 17.4578 8.74093H17.8245C18.3387 8.74093 18.7856 8.44982 19.0106 8.02394L19.906 8.34864C20.5162 8.57003 20.9262 9.1548 20.9262 9.80382V17.1761H20.9259C20.6564 17.1761 20.4376 17.3948 20.4376 17.6644V24.4964C20.4376 25.4896 19.8546 26.3997 18.9523 26.8138L16.7238 27.8382C15.9531 28.192 15.3026 28.7317 14.8154 29.3892C14.3282 28.7316 13.6777 28.1916 12.9072 27.8377L10.6789 26.8143C9.77328 26.3983 9.19291 25.493 9.19291 24.4964V17.664C9.19291 17.3943 8.97426 17.1757 8.70463 17.1757V9.80372C8.70463 9.1547 9.11459 8.56984 9.72474 8.34855L10.6046 8.0295C10.8306 8.45226 11.276 8.74083 11.7879 8.74083H12.1546C12.166 9.0004 12.3784 9.20782 12.6408 9.20782C12.9104 9.20782 13.129 8.98927 13.129 8.71954V8.25255V6.54689V6.07989C13.129 5.81017 12.9104 5.59161 12.6408 5.59161C12.3784 5.59161 12.166 5.79904 12.1546 6.05861H11.7879C11.1773 6.05861 10.6617 6.46935 10.5002 7.02872L9.39174 7.43058C8.39662 7.79152 7.72797 8.74532 7.72797 9.80382V17.1758C7.45834 17.1758 7.23969 17.3944 7.23969 17.6641V24.4965C7.23969 26.2562 8.26449 27.8547 9.86361 28.5892L12.0918 29.6126C13.1531 30.1001 13.8388 31.1696 13.8388 32.3374V33.8584C13.8388 33.8594 13.839 33.8604 13.839 33.8613V42.0853C13.839 44.4183 15.7169 46.3206 18.0411 46.3607C20.4327 46.4017 22.3908 44.4026 22.3908 42.0101V35.889C22.3908 34.2552 23.7443 32.931 25.3898 32.9798C26.9728 33.0267 28.212 34.3675 28.212 35.9505V41.7376C28.212 44.3167 30.3351 46.4095 32.9249 46.3607C35.4562 46.3128 37.4591 44.1927 37.4591 41.6605V36.782H44.3633C44.9027 36.782 45.3399 36.3448 45.3399 35.8055V29.5721C45.34 29.0328 44.9028 28.5955 44.3634 28.5955Z" fill="#2626BC"/>
</g>
<path d="M44.3634 34.3406H33.2834C32.744 34.3406 32.3068 33.9034 32.3068 33.3641V27.1307C32.3068 26.5913 32.744 26.1541 33.2834 26.1541H44.3634C44.9027 26.1541 45.3399 26.5913 45.3399 27.1307V33.3641C45.3399 33.9034 44.9027 34.3406 44.3634 34.3406Z" fill="#FF4D4D"/>
<path d="M41.3184 26.1543C40.1641 27.5498 38.4209 28.4385 36.4688 28.4385C34.8877 28.4385 33.4424 27.8555 32.3369 26.8916C32.4434 26.4678 32.8262 26.1543 33.2832 26.1543H41.3184Z" fill="#FF2C2C"/>
<path d="M42.4906 28.788H40.6759C40.4062 28.788 40.1876 28.5693 40.1876 28.2997C40.1876 28.0301 40.4062 27.8114 40.6759 27.8114H42.4906C42.7604 27.8114 42.9789 28.0301 42.9789 28.2997C42.9789 28.5693 42.7604 28.788 42.4906 28.788Z" fill="white"/>
<path d="M42.4906 30.5831H36.7697C36.4999 30.5831 36.2814 30.3644 36.2814 30.0948C36.2814 29.8252 36.4999 29.6065 36.7697 29.6065H42.4906C42.7604 29.6065 42.9789 29.8252 42.9789 30.0948C42.9789 30.3644 42.7604 30.5831 42.4906 30.5831Z" fill="white"/>
<path d="M42.4906 32.3781H36.7697C36.4999 32.3781 36.2814 32.1595 36.2814 31.8899C36.2814 31.6202 36.4999 31.4016 36.7697 31.4016H42.4906C42.7604 31.4016 42.9789 31.6202 42.9789 31.8899C42.9789 32.1595 42.7604 32.3781 42.4906 32.3781Z" fill="white"/>
<path d="M12.6409 5.81116H11.7881C11.3171 5.81116 10.9352 5.42933 10.9352 4.95833C10.9352 4.48733 11.3171 4.1055 11.7881 4.1055H12.6409V5.81116Z" fill="#B3B3FF"/>
<path d="M16.9717 5.81116H17.8245C18.2955 5.81116 18.6773 5.42933 18.6773 4.95833C18.6773 4.48733 18.2955 4.1055 17.8245 4.1055H16.9717V5.81116Z" fill="#B3B3FF"/>
<path d="M9.19299 15.2227V22.0551C9.19299 23.0517 9.77336 23.9569 10.679 24.3729L12.9073 25.3964C14.6597 26.2014 15.7921 27.9676 15.7921 29.896V31.3836C15.7921 31.9037 15.3996 32.3579 14.8805 32.3915C14.3117 32.4283 13.839 31.9778 13.839 31.4171V29.8961C13.839 28.7283 13.1533 27.6588 12.092 27.1713L9.86379 26.1479C8.26477 25.4134 7.23987 23.8148 7.23987 22.0553V15.2227C7.23987 14.953 7.45852 14.7344 7.72815 14.7344H8.70471C8.97434 14.7344 9.19299 14.9529 9.19299 15.2227Z" fill="#FF8B00"/>
<path d="M37.4592 22.8821V39.2191C37.4592 41.7513 35.4563 43.8714 32.925 43.9192C30.3352 43.9681 28.2122 41.8753 28.2122 39.2962V33.5091C28.2122 31.9261 26.9729 30.5853 25.3899 30.5384C23.7444 30.4896 22.3909 31.8138 22.3909 33.4476V39.5687C22.3909 41.9612 20.4329 43.9603 18.0413 43.9192C15.717 43.8792 13.8391 41.9769 13.8391 39.6439V29.8958C13.8391 27.9671 14.9709 26.2015 16.7239 25.3968L18.9524 24.3724C19.8547 23.9583 20.4377 23.0482 20.4377 22.055V15.223C20.4377 14.9534 20.6565 14.7347 20.926 14.7347H21.9026C22.1721 14.7347 22.3909 14.9534 22.3909 15.223V22.055C22.3909 23.8089 21.3616 25.4153 19.7668 26.1478L17.5393 27.1712C16.4778 27.6585 15.7922 28.7278 15.7922 29.8958V39.5911C15.7922 40.8909 16.8557 41.9886 18.1545 41.9671C19.4172 41.9456 20.4377 40.9114 20.4377 39.6439V33.5296C20.4377 30.8655 22.5452 28.6351 25.2073 28.5853C27.9319 28.5335 30.1653 30.7347 30.1653 33.4476V39.2396C30.1653 40.6927 31.302 41.9222 32.7551 41.9661C34.2639 42.011 35.5061 40.7962 35.5061 39.2962V22.9153C35.5061 22.3948 35.8987 21.9407 36.4172 21.9075C36.9866 21.8704 37.4592 22.3206 37.4592 22.8821Z" fill="#FF9D33"/>
<path d="M37.4592 22.8821V28.3753C37.135 28.4173 36.8049 28.4388 36.469 28.4388C36.1428 28.4388 35.8215 28.4183 35.5061 28.3792V22.9153C35.5061 22.3948 35.8987 21.9407 36.4172 21.9075C36.9866 21.8704 37.4592 22.3206 37.4592 22.8821Z" fill="#FF8B00"/>
<path d="M36.4686 26.9736C39.9434 26.9736 42.7602 24.1567 42.7602 20.682C42.7602 17.2072 39.9434 14.3904 36.4686 14.3904C32.9938 14.3904 30.177 17.2072 30.177 20.682C30.177 24.1567 32.9938 26.9736 36.4686 26.9736Z" fill="#EBEBFF"/>
<path d="M36.4686 23.7326C38.1534 23.7326 39.5193 22.3668 39.5193 20.6819C39.5193 18.9971 38.1534 17.6313 36.4686 17.6313C34.7837 17.6313 33.4179 18.9971 33.4179 20.6819C33.4179 22.3668 34.7837 23.7326 36.4686 23.7326Z" fill="#D9D9FF"/>
<path d="M36.4686 22.996C37.7466 22.996 38.7827 21.9599 38.7827 20.6819C38.7827 19.4039 37.7466 18.3679 36.4686 18.3679C35.1906 18.3679 34.1545 19.4039 34.1545 20.6819C34.1545 21.9599 35.1906 22.996 36.4686 22.996Z" fill="#B3B3FF"/>
<path d="M44.3634 25.6658H41.059C42.404 24.4261 43.2484 22.651 43.2484 20.6819C43.2484 16.9436 40.207 13.9021 36.4686 13.9021C32.7301 13.9021 29.6887 16.9436 29.6887 20.6819C29.6887 22.8562 30.7186 24.7932 32.3149 26.0347C32.0112 26.3032 31.8186 26.6944 31.8186 27.1307V33.3641C31.8186 34.1718 32.4757 34.8289 33.2834 34.8289H35.0175V39.2967C35.0175 39.8906 34.7819 40.4464 34.3542 40.8616C33.9268 41.2766 33.3623 41.4945 32.7692 41.4776C31.6026 41.4431 30.6536 40.4392 30.6536 39.2399V33.4476C30.6536 32.0009 30.0834 30.6446 29.0482 29.6288C28.0132 28.6134 26.647 28.0679 25.1985 28.0967C22.3044 28.1517 19.9498 30.5887 19.9498 33.5292V39.6441C19.9498 40.6388 19.1409 41.4615 18.1467 41.4784C17.6694 41.4877 17.208 41.2996 16.8547 40.9522C16.4898 40.5934 16.2805 40.0973 16.2805 39.5911V29.8959C16.2805 28.9183 16.8545 28.0229 17.7429 27.6149L19.9713 26.5914C21.738 25.7797 22.8795 23.9991 22.8795 22.0551V15.2226C22.8795 14.6841 22.4414 14.246 21.9029 14.246V7.36241C21.9029 6.30392 21.2343 5.35021 20.2392 4.98917L19.1106 4.57999C18.9467 4.02433 18.4327 3.6173 17.8247 3.6173H17.458C17.4467 3.35773 17.2343 3.15031 16.9719 3.15031C16.7023 3.15031 16.4836 3.36886 16.4836 3.63859V4.10558V5.81124V6.27823C16.4836 6.54796 16.7023 6.76652 16.9719 6.76652C17.2343 6.76652 17.4467 6.55909 17.458 6.29952H17.8247C18.3389 6.29952 18.7858 6.00841 19.0108 5.58253L19.9062 5.90724C20.5164 6.12863 20.9264 6.71339 20.9264 7.36241V14.246C20.3879 14.246 19.9498 14.6841 19.9498 15.2226V16.9756C19.9498 17.2453 20.1685 17.4639 20.4381 17.4639C20.7077 17.4639 20.9264 17.2453 20.9264 16.9756V15.2226H21.9029V22.0551C21.9029 23.6189 20.9847 25.0512 19.5636 25.7039L17.3352 26.7274C16.1012 27.2943 15.3039 28.538 15.3039 29.8959V39.5911C15.3039 40.3574 15.6195 41.1072 16.17 41.6484C16.7115 42.1809 17.4213 42.4678 18.1633 42.4547C19.6869 42.4289 20.9265 41.168 20.9265 39.644V33.5291C20.9265 31.1169 22.8512 29.1179 25.2171 29.073C26.4005 29.0473 27.518 29.4954 28.3643 30.3258C29.2109 31.1566 29.6772 32.2651 29.6772 33.4476V39.2399C29.6772 40.9619 31.0513 42.4036 32.7403 42.4538C32.7727 42.4548 32.8048 42.4553 32.8369 42.4553C33.662 42.4553 34.4393 42.1402 35.0345 41.5623C35.6533 40.9616 35.9942 40.1569 35.9942 39.2967V27.4434C36.1511 27.4543 36.309 27.4618 36.4687 27.4618C36.6377 27.4618 36.8047 27.4535 36.9707 27.4413V39.2192C36.9707 41.4992 35.1517 43.3887 32.9157 43.4312C31.7972 43.4499 30.7411 43.0318 29.9413 42.2471C29.1411 41.4619 28.7005 40.4142 28.7005 39.2968V33.5096C28.7005 31.6562 27.2218 30.1043 25.4042 30.0503C24.4784 30.0226 23.6012 30.3635 22.9356 31.0095C22.2696 31.656 21.9028 32.5219 21.9028 33.4477V39.5682C21.9028 40.6026 21.4767 41.6148 20.7336 42.3452C20.0037 43.0628 19.0517 43.4492 18.049 43.4314C15.9968 43.3962 14.3272 41.6973 14.3272 39.6441V31.417V29.896C14.3272 28.1576 15.3479 26.5655 16.9274 25.8401L19.1558 24.8167C20.2313 24.3226 20.9261 23.2387 20.9261 22.0552V19.8176C20.9261 19.5479 20.7074 19.3293 20.4378 19.3293C20.1682 19.3293 19.9495 19.5479 19.9495 19.8176V22.0552C19.9495 22.8584 19.4779 23.5941 18.7481 23.9292L16.5196 24.9526C15.8647 25.2535 15.2889 25.6768 14.8138 26.1875C14.3314 25.6703 13.7515 25.2469 13.1109 24.9526L10.8826 23.9292C10.1527 23.594 9.68107 22.8583 9.68107 22.0552V15.2227C9.68107 14.6842 9.24298 14.2461 8.7045 14.2461V7.36241C8.7045 6.71339 9.11446 6.12853 9.72462 5.90724L10.6045 5.5882C10.8305 6.01095 11.2759 6.29952 11.7878 6.29952H12.1545C12.1658 6.55909 12.3782 6.76652 12.6406 6.76652C12.9103 6.76652 13.1289 6.54796 13.1289 6.27823V5.81124V4.10548V3.63849C13.1289 3.36876 12.9103 3.15021 12.6406 3.15021C12.3782 3.15021 12.1658 3.35763 12.1545 3.6172H11.7878C11.1772 3.6172 10.6615 4.02794 10.5001 4.58732L9.39161 4.98917C8.3965 5.35011 7.72784 6.30392 7.72784 7.36241V14.2461C7.18937 14.2461 6.75128 14.6842 6.75128 15.2227V22.0551C6.75128 23.9992 7.89288 25.7799 9.65968 26.5914L11.8879 27.6149C12.7764 28.023 13.3504 28.9184 13.3504 29.8959V31.4169V39.644C13.3504 42.2264 15.4506 44.3634 18.0321 44.4075C19.2944 44.4292 20.4998 43.9441 21.418 43.0415C22.3466 42.1286 22.8791 40.8626 22.8791 39.5681V33.4476C22.8791 32.7881 23.1406 32.1711 23.6154 31.7102C24.0899 31.2495 24.7152 31.0068 25.3749 31.0264C26.67 31.0649 27.7236 32.1787 27.7236 33.5095V39.2967C27.7236 40.6784 28.2683 41.9737 29.257 42.9441C30.2218 43.8906 31.4887 44.4084 32.8342 44.4084C32.8673 44.4084 32.9006 44.4081 32.9339 44.4074C35.6982 44.355 37.947 42.0275 37.947 39.2192V27.2975C38.5668 27.159 39.1555 26.9372 39.6989 26.6415C39.7021 26.6415 39.7051 26.6425 39.7082 26.6425H44.3632C44.6324 26.6425 44.8515 26.8615 44.8515 27.1308V33.3642C44.8515 33.6334 44.6324 33.8525 44.3632 33.8525H40.3008C40.0312 33.8525 39.8125 34.071 39.8125 34.3407C39.8125 34.6105 40.0312 34.829 40.3008 34.829H44.3632C45.1709 34.829 45.828 34.1719 45.828 33.3642V27.1308C45.8282 26.323 45.1711 25.6658 44.3634 25.6658ZM17.8245 5.32286H17.46V4.59376H17.8245C18.0255 4.59376 18.1891 4.75734 18.1891 4.95831C18.1891 5.15929 18.0256 5.32286 17.8245 5.32286ZM11.788 4.59376H12.1526V5.32286H11.788C11.587 5.32286 11.4234 5.15929 11.4234 4.95841C11.4235 4.75734 11.587 4.59376 11.788 4.59376ZM12.2958 26.7274L10.0676 25.7039C8.6465 25.0511 7.72814 23.6189 7.72814 22.0551V15.2227H8.7047V22.0551C8.7047 23.2386 9.39962 24.3226 10.4752 24.8166L12.7034 25.84C13.2768 26.1033 13.7922 26.4917 14.2077 26.9704C14.0137 27.2744 13.8501 27.5978 13.7192 27.9353C13.3686 27.4204 12.8823 26.9969 12.2958 26.7274ZM35.0175 33.8524H33.2834C33.0142 33.8524 32.7951 33.6333 32.7951 33.3641V27.1307C32.7951 26.8739 32.995 26.6651 33.247 26.6461C33.796 26.9439 34.3909 27.1666 35.0175 27.3038V33.8524ZM30.6653 20.6819C30.6653 17.4819 33.2687 14.8786 36.4687 14.8786C39.6687 14.8786 42.272 17.4819 42.272 20.6819C42.272 23.8819 39.6687 26.4853 36.4687 26.4853C33.2687 26.4853 30.6653 23.8819 30.6653 20.6819Z" fill="#0000CC"/>
<path d="M24.2609 9.72519H26.0757C26.3453 9.72519 26.564 9.50663 26.564 9.23691C26.564 8.96718 26.3453 8.74863 26.0757 8.74863H24.2609C23.9913 8.74863 23.7726 8.96718 23.7726 9.23691C23.7726 9.50663 23.9912 9.72519 24.2609 9.72519Z" fill="#0000CC"/>
<path d="M24.2609 11.5203H29.9819C30.2516 11.5203 30.4702 11.3018 30.4702 11.032C30.4702 10.7623 30.2516 10.5438 29.9819 10.5438H24.2609C23.9913 10.5438 23.7726 10.7623 23.7726 11.032C23.7726 11.3018 23.9912 11.5203 24.2609 11.5203Z" fill="#0000CC"/>
<path d="M24.2609 13.3155H29.9819C30.2516 13.3155 30.4702 13.0969 30.4702 12.8272C30.4702 12.5575 30.2516 12.3389 29.9819 12.3389H24.2609C23.9913 12.3389 23.7726 12.5575 23.7726 12.8272C23.7726 13.0969 23.9912 13.3155 24.2609 13.3155Z" fill="#0000CC"/>
<path d="M37.4592 11.8316C37.1895 11.8316 36.9709 11.6131 36.9709 11.3434C36.9709 11.0023 36.6934 10.7249 36.3524 10.7249C36.0828 10.7249 35.8641 10.5063 35.8641 10.2366C35.8641 9.96689 36.0828 9.74834 36.3524 9.74834C36.6934 9.74834 36.9709 9.4709 36.9709 9.12988C36.9709 8.86016 37.1895 8.6416 37.4592 8.6416C37.7288 8.6416 37.9474 8.86016 37.9474 9.12988C37.9474 9.4709 38.2249 9.74834 38.5659 9.74834C38.8355 9.74834 39.0542 9.96689 39.0542 10.2366C39.0542 10.5063 38.8355 10.7249 38.5659 10.7249C38.2249 10.7249 37.9474 11.0023 37.9474 11.3434C37.9474 11.6131 37.7288 11.8316 37.4592 11.8316Z" fill="#6C6CFF"/>
<path d="M9.14104 37.0425C8.87141 37.0425 8.65276 36.8239 8.65276 36.5542C8.65276 36.2132 8.37532 35.9357 8.0343 35.9357C7.76467 35.9357 7.54602 35.7172 7.54602 35.4474C7.54602 35.1777 7.76467 34.9592 8.0343 34.9592C8.37532 34.9592 8.65276 34.6817 8.65276 34.3407C8.65276 34.071 8.87141 33.8524 9.14104 33.8524C9.41067 33.8524 9.62932 34.071 9.62932 34.3407C9.62932 34.6817 9.90676 34.9592 10.2478 34.9592C10.5174 34.9592 10.7361 35.1777 10.7361 35.4474C10.7361 35.7172 10.5174 35.9357 10.2478 35.9357C9.90676 35.9357 9.62932 36.2132 9.62932 36.5542C9.62932 36.8239 9.41067 37.0425 9.14104 37.0425Z" fill="#FF9D33"/>
<path d="M41.1642 9.58888C40.8945 9.58888 40.6759 9.37032 40.6759 9.1006C40.6759 8.75958 40.3984 8.48214 40.0574 8.48214C39.7878 8.48214 39.5692 8.26359 39.5692 7.99386C39.5692 7.72413 39.7878 7.50558 40.0574 7.50558C40.3984 7.50558 40.6759 7.22804 40.6759 6.88702C40.6759 6.6173 40.8945 6.39874 41.1642 6.39874C41.4338 6.39874 41.6525 6.6173 41.6525 6.88702C41.6525 7.22804 41.9299 7.50558 42.2709 7.50558C42.5405 7.50558 42.7592 7.72413 42.7592 7.99386C42.7592 8.26359 42.5405 8.48214 42.2709 8.48214C41.9299 8.48214 41.6525 8.75958 41.6525 9.1006C41.6525 9.37032 41.4339 9.58888 41.1642 9.58888Z" fill="#FF4D4D"/>
<path d="M43.8151 12.6123C43.5455 12.6123 43.3268 12.3938 43.3268 12.1241V12.1095C43.3268 11.8398 43.5455 11.6212 43.8151 11.6212C44.0848 11.6212 44.3034 11.8398 44.3034 12.1095V12.1241C44.3034 12.3938 44.0848 12.6123 43.8151 12.6123Z" fill="#FF4D4D"/>
<path d="M43.8151 15.3257C43.5455 15.3257 43.3268 15.1072 43.3268 14.8375V14.8229C43.3268 14.5532 43.5455 14.3346 43.8151 14.3346C44.0848 14.3346 44.3034 14.5532 44.3034 14.8229V14.8375C44.3034 15.1071 44.0848 15.3257 43.8151 15.3257Z" fill="#FF4D4D"/>
<path d="M42.6461 13.2872C42.5631 13.2872 42.479 13.266 42.4019 13.2214L42.3892 13.2141C42.1559 13.0789 42.0762 12.7803 42.2113 12.5469C42.3465 12.3135 42.645 12.2337 42.8786 12.369L42.8913 12.3763C43.1247 12.5114 43.2044 12.8101 43.0692 13.0435C42.9786 13.1998 42.8146 13.2872 42.6461 13.2872Z" fill="#FF4D4D"/>
<path d="M44.9959 14.6438C44.9129 14.6438 44.8288 14.6226 44.7517 14.5779L44.739 14.5706C44.5056 14.4355 44.426 14.1368 44.5611 13.9034C44.6962 13.67 44.9948 13.5902 45.2284 13.7255L45.2411 13.7328C45.4745 13.868 45.5542 14.1666 45.419 14.4C45.3284 14.5564 45.1644 14.6438 44.9959 14.6438Z" fill="#FF4D4D"/>
<path d="M42.6344 14.6438C42.4658 14.6438 42.3018 14.5564 42.2113 14.4C42.0762 14.1666 42.1559 13.868 42.3892 13.7329L42.4019 13.7255C42.6354 13.5903 42.9341 13.6702 43.0692 13.9035C43.2044 14.1369 43.1247 14.4355 42.8913 14.5706L42.8786 14.578C42.8015 14.6226 42.7174 14.6438 42.6344 14.6438Z" fill="#FF4D4D"/>
<path d="M44.9842 13.2872C44.8156 13.2872 44.6516 13.1998 44.5611 13.0435C44.426 12.8101 44.5056 12.5114 44.739 12.3763L44.7517 12.369C44.9853 12.2337 45.284 12.3136 45.419 12.5469C45.5542 12.7803 45.4745 13.0789 45.2411 13.2141L45.2284 13.2214C45.1513 13.266 45.0672 13.2872 44.9842 13.2872Z" fill="#FF4D4D"/>
<path d="M15.792 11.9304C15.5224 11.9304 15.3037 11.7118 15.3037 11.4421V11.4274C15.3037 11.1577 15.5224 10.9391 15.792 10.9391C16.0616 10.9391 16.2803 11.1577 16.2803 11.4274V11.4421C16.2803 11.7118 16.0617 11.9304 15.792 11.9304Z" fill="#FF4D4D"/>
<path d="M15.792 14.6436C15.5224 14.6436 15.3037 14.4251 15.3037 14.1554V14.1407C15.3037 13.871 15.5224 13.6524 15.792 13.6524C16.0616 13.6524 16.2803 13.871 16.2803 14.1407V14.1554C16.2803 14.4251 16.0617 14.6436 15.792 14.6436Z" fill="#FF4D4D"/>
<path d="M14.6231 12.6052C14.5403 12.6052 14.4565 12.5841 14.3796 12.5397L14.3669 12.5324C14.1333 12.3977 14.0531 12.099 14.1879 11.8655C14.3227 11.6318 14.6211 11.5518 14.8548 11.6865L14.8675 11.6938C15.1011 11.8286 15.1813 12.1272 15.0465 12.3607C14.9561 12.5176 14.7919 12.6052 14.6231 12.6052Z" fill="#FF4D4D"/>
<path d="M16.9728 13.9618C16.8898 13.9618 16.8057 13.9406 16.7287 13.896L16.716 13.8887C16.4826 13.7535 16.4029 13.4549 16.538 13.2215C16.6731 12.988 16.9716 12.9082 17.2053 13.0436L17.218 13.0509C17.4514 13.186 17.5311 13.4847 17.396 13.7181C17.3054 13.8744 17.1414 13.9618 16.9728 13.9618Z" fill="#FF4D4D"/>
<path d="M14.6112 13.9618C14.4424 13.9618 14.2782 13.8742 14.1878 13.7174C14.053 13.4838 14.1332 13.1852 14.3668 13.0505L14.3795 13.0432C14.6131 12.9081 14.9117 12.9885 15.0464 13.2222C15.1811 13.4558 15.101 13.7543 14.8674 13.8891L14.8547 13.8964C14.7779 13.9407 14.6939 13.9618 14.6112 13.9618Z" fill="#FF4D4D"/>
<path d="M16.961 12.6052C16.7925 12.6052 16.6285 12.5178 16.538 12.3614C16.4028 12.128 16.4825 11.8294 16.7159 11.6943L16.7286 11.6869C16.9621 11.5516 17.2608 11.6315 17.3959 11.8649C17.5311 12.0983 17.4514 12.3969 17.218 12.532L17.2053 12.5394C17.1282 12.584 17.044 12.6052 16.961 12.6052Z" fill="#FF4D4D"/>
</g>
<defs>
<linearGradient id="paint0_linear_154_6181" x1="3.63316e-05" y1="25" x2="50" y2="25" gradientUnits="userSpaceOnUse">
<stop stop-color="#FFD9D9" stop-opacity="0"/>
<stop offset="0.9981" stop-color="#FFB3B3"/>
</linearGradient>
<clipPath id="clip0_154_6181">
<rect width="50" height="50" fill="white"/>
</clipPath>
</defs>
</svg>
