<svg width="50" height="50" viewBox="0 0 50 50" fill="none" xmlns="http://www.w3.org/2000/svg">
<g clip-path="url(#clip0_154_6057)">
<path d="M40.8516 0.244126C35.4154 -0.685659 23.4396 1.43387 21.3199 10.4997C19.9106 16.5272 19.952 21.4445 16.3954 21.5368C14.2792 21.5917 13.1757 17.2097 10.2539 16.8492C6.44072 16.3788 3.79443 19.5538 2.14287 22.4291C-1.49043 28.7545 -0.354298 39.5109 4.42353 44.7564C15.9946 57.4601 29.7357 44.1752 35.6108 33.7888C39.3789 27.1273 47.8801 21.7427 49.6506 14.2333C51.1327 7.94657 47.8437 1.44002 40.8516 0.244126Z" fill="url(#paint0_linear_154_6057)"/>
<g opacity="0.1">
<path opacity="0.1" d="M41.8399 10.6015C39.7957 8.55722 36.4577 8.63642 34.5128 10.7754L26.8391 19.2146C26.8538 19.0327 26.8634 18.8493 26.8634 18.6636C26.8634 14.9155 23.825 11.877 20.0768 11.877C16.3287 11.877 13.2903 14.9155 13.2903 18.6636C13.2903 22.4116 16.3288 25.4501 20.0768 25.4501C20.5623 25.4501 21.0354 25.3981 21.492 25.3013C21.3607 25.5061 21.2361 25.7155 21.1203 25.93C19.8841 28.2197 16.4802 34.0532 11.3823 39.1511L7.07214 43.4612C6.54529 43.9881 6.54529 44.8423 7.07214 45.3691C7.599 45.896 8.4532 45.896 8.98005 45.3691L13.2902 41.059C18.3881 35.9611 24.2216 32.5573 26.5113 31.321C27.2061 30.9459 27.8529 30.4885 28.4371 29.9573L41.6659 17.9287C43.8049 15.9838 43.8842 12.6458 41.8399 10.6015Z" fill="#2626BC"/>
<path opacity="0.1" d="M13.3839 27.0555H15.1987C15.4684 27.0555 15.6869 26.8369 15.6869 26.5672C15.6869 26.2975 15.4684 26.0789 15.1987 26.0789H13.3839C13.1142 26.0789 12.8956 26.2975 12.8956 26.5672C12.8956 26.8369 13.1142 27.0555 13.3839 27.0555Z" fill="#2626BC"/>
<path opacity="0.1" d="M9.47766 28.8506H15.1987C15.4684 28.8506 15.6869 28.632 15.6869 28.3623C15.6869 28.0925 15.4684 27.874 15.1987 27.874H9.47766C9.20793 27.874 8.98938 28.0925 8.98938 28.3623C8.98938 28.632 9.20793 28.8506 9.47766 28.8506Z" fill="#2626BC"/>
<path opacity="0.1" d="M9.47766 30.6457H15.1987C15.4684 30.6457 15.6869 30.4271 15.6869 30.1574C15.6869 29.8877 15.4684 29.6691 15.1987 29.6691H9.47766C9.20793 29.6691 8.98938 29.8877 8.98938 30.1574C8.98938 30.4271 9.20793 30.6457 9.47766 30.6457Z" fill="#2626BC"/>
</g>
<path d="M41.8399 8.16005C39.7957 6.11582 36.4577 6.19501 34.5128 8.33398L22.4839 21.5629C21.9526 22.1471 21.4953 22.7938 21.1202 23.4887C19.8839 25.7784 16.4801 31.6119 11.3822 36.7098L13.2902 38.6178C18.3881 33.5199 24.2216 30.1161 26.5113 28.8798C27.2061 28.5047 27.8529 28.0473 28.4371 27.5161L41.6659 15.4873C43.8049 13.5424 43.8842 10.2044 41.8399 8.16005Z" fill="#D9D9FF"/>
<path d="M26.8632 17.9853C26.8632 21.623 24.0019 24.5918 20.4072 24.7636C20.6943 24.2666 20.9326 23.8359 21.1201 23.4883C21.4951 22.7939 21.9531 22.1474 22.4843 21.5625L26.7685 16.8515C26.831 17.2197 26.8632 17.5986 26.8632 17.9853Z" fill="#B3B3FF"/>
<path d="M29.765 26.3082C29.4447 25.9879 29.0025 25.8219 28.5504 25.8489C27.4045 25.9174 26.2364 25.5144 25.361 24.639C24.4856 23.7636 24.0825 22.5955 24.1511 21.4496C24.1781 20.9975 24.012 20.5553 23.6918 20.2351L22.4843 21.5628C21.9528 22.1472 21.4953 22.7942 21.12 23.4893C19.8835 25.7793 16.4798 31.6124 11.3822 36.7099L13.2902 38.6179C18.3877 33.5204 24.2208 30.1166 26.5108 28.8801C27.2058 28.5048 27.8529 28.0473 28.4373 27.5158L29.765 26.3082Z" fill="#8383FF"/>
<path d="M24.4218 23.1983C23.3242 24.1153 21.9316 24.6905 20.4072 24.7637C20.6943 24.2666 20.9326 23.836 21.1201 23.4883C21.4951 22.794 21.9531 22.1475 22.4843 21.5625L23.6913 20.2354C24.0117 20.5557 24.1777 20.9971 24.1513 21.4492C24.1161 22.041 24.206 22.6387 24.4218 23.1983Z" fill="#6C6CFF"/>
<path d="M22.948 30.9797C20.1935 32.7315 16.5883 35.3204 13.2902 38.6184L11.3815 36.7097C14.6795 33.4117 17.2683 29.8064 19.0202 27.0518C19.8267 27.491 20.5836 28.0518 21.2658 28.734C21.9481 29.4163 22.5089 30.1731 22.948 30.9797Z" fill="#6C6CFF"/>
<path d="M8.98006 42.928L13.2902 38.6178L11.3823 36.7099L7.07214 41.02C6.54529 41.5469 6.54529 42.4011 7.07214 42.928C7.5989 43.4548 8.4532 43.4548 8.98006 42.928Z" fill="white"/>
<path d="M29.3453 22.0766L27.8014 20.5327C27.6106 20.342 27.6106 20.0329 27.8014 19.8422L31.8931 15.7505C32.0838 15.5597 32.3929 15.5597 32.5836 15.7505L34.1275 17.2944C34.3183 17.4851 34.3183 17.7942 34.1275 17.9849L30.0358 22.0766C29.8451 22.2673 29.5359 22.2673 29.3453 22.0766Z" fill="#FFAB66"/>
<path d="M36.8361 15.3974C38.137 15.3974 39.1917 14.3427 39.1917 13.0418C39.1917 11.7408 38.137 10.6862 36.8361 10.6862C35.5352 10.6862 34.4805 11.7408 34.4805 13.0418C34.4805 14.3427 35.5352 15.3974 36.8361 15.3974Z" fill="#B3B3FF"/>
<path d="M35.6612 14.2167C35.4705 14.026 35.4705 13.7169 35.6612 13.5261L36.1797 13.0077C36.3704 12.817 36.6795 12.817 36.8702 13.0077C37.0609 13.1984 37.0609 13.5075 36.8702 13.6982L36.3518 14.2167C36.1611 14.4073 35.852 14.4073 35.6612 14.2167Z" fill="#8383FF"/>
<path d="M31.3907 18.9862L30.8917 18.4872C30.701 18.2965 30.701 17.9874 30.8917 17.7967C31.0824 17.6059 31.3915 17.6059 31.5822 17.7967L32.0812 18.2957C32.272 18.4864 32.272 18.7955 32.0812 18.9862C31.8905 19.1769 31.5813 19.1769 31.3907 18.9862Z" fill="#FFD6BB"/>
<path d="M32.3434 18.0335L31.8443 17.5345C31.6536 17.3437 31.6536 17.0347 31.8443 16.8439C32.0351 16.6532 32.3441 16.6532 32.5349 16.8439L33.0339 17.343C33.2246 17.5337 33.2246 17.8428 33.0339 18.0335C32.8433 18.2242 32.5341 18.2242 32.3434 18.0335Z" fill="#FFD6BB"/>
<path d="M20.0768 23.0088C23.8249 23.0088 26.8633 19.9703 26.8633 16.2223C26.8633 12.4742 23.8249 9.43573 20.0768 9.43573C16.3287 9.43573 13.2902 12.4742 13.2902 16.2223C13.2902 19.9703 16.3287 23.0088 20.0768 23.0088Z" fill="#FFAB66"/>
<path d="M17.7949 17.0088H17.2888C17.6008 16.6855 17.8981 16.3221 18.0303 16.0023C18.2146 15.5566 18.1716 15.0616 17.9153 14.6785C17.6764 14.3211 17.2884 14.116 16.8511 14.116C16.1273 14.116 15.5384 14.7049 15.5384 15.4287C15.5384 15.6984 15.7569 15.917 16.0267 15.917C16.2964 15.917 16.515 15.6984 16.515 15.4287C16.515 15.2434 16.6657 15.0926 16.8511 15.0926C16.9615 15.0926 17.0465 15.1359 17.1036 15.2213C17.1771 15.3312 17.1863 15.4874 17.1277 15.6291C16.9753 15.9979 16.2134 16.7208 15.721 17.1162C15.5595 17.246 15.4974 17.4637 15.5661 17.6591C15.6349 17.8545 15.8194 17.9854 16.0267 17.9854H17.7949C18.0647 17.9854 18.2832 17.7668 18.2832 17.4971C18.2832 17.2274 18.0647 17.0088 17.7949 17.0088Z" fill="white"/>
<path d="M20.6046 14.1247C20.3349 14.1247 20.1163 14.3433 20.1163 14.613V15.388H19.5672V14.613C19.5672 14.3433 19.3486 14.1247 19.0789 14.1247C18.8092 14.1247 18.5906 14.3433 18.5906 14.613V15.8763C18.5906 16.146 18.8092 16.3646 19.0789 16.3646H20.1163V17.4886C20.1163 17.7583 20.3349 17.9769 20.6046 17.9769C20.8743 17.9769 21.0929 17.7583 21.0929 17.4886V14.6131C21.0929 14.3433 20.8743 14.1247 20.6046 14.1247Z" fill="white"/>
<path d="M22.6017 14.3686C22.4666 14.1353 22.1679 14.0553 21.9345 14.1906L21.9218 14.198C21.6884 14.3331 21.6087 14.6317 21.7439 14.8651C21.8344 15.0216 21.9982 15.1089 22.1669 15.1089C22.2499 15.1089 22.3341 15.0877 22.411 15.0431L22.4237 15.0357C22.6571 14.9006 22.7368 14.6019 22.6017 14.3686Z" fill="white"/>
<path d="M23.6395 17.9853C23.2596 17.9854 22.8837 17.8386 22.6018 17.5566C22.0298 16.9847 22.0298 16.0537 22.6018 15.4817C23.0696 15.0139 23.7971 14.9181 24.3704 15.2482C24.6041 15.3828 24.6845 15.6813 24.5499 15.915C24.4154 16.1487 24.1167 16.2292 23.8831 16.0945C23.6912 15.984 23.4484 16.0162 23.2923 16.1722C23.101 16.3635 23.101 16.6748 23.2923 16.8661C23.4485 17.0222 23.6915 17.0542 23.8832 16.9438C24.1172 16.8091 24.4154 16.8897 24.5499 17.1234C24.6845 17.3572 24.6041 17.6557 24.3703 17.7901C24.1424 17.9215 23.89 17.9853 23.6395 17.9853Z" fill="white"/>
<path d="M42.1852 7.81484C41.1012 6.73066 39.6603 6.15478 38.1276 6.19013C36.5949 6.22656 35.1828 6.87129 34.1515 8.00556L28.8862 13.7961C28.7048 13.9957 28.7194 14.3045 28.919 14.4858C29.1185 14.6672 29.4273 14.6528 29.6087 14.453L34.874 8.6624C35.724 7.72773 36.8877 7.19638 38.1508 7.1664C39.4102 7.13838 40.6014 7.61201 41.4948 8.50527C42.388 9.39863 42.8636 10.5862 42.8336 11.8492C42.8035 13.1123 42.2723 14.276 41.3376 15.126L29.7409 25.6706C29.3801 25.4465 28.9546 25.3359 28.5213 25.3614C27.4734 25.4235 26.4477 25.0349 25.7064 24.2936C25.0613 23.6484 24.6831 22.7875 24.6372 21.8843C26.291 20.5496 27.3516 18.5079 27.3516 16.2223C27.3516 12.8014 24.9249 9.80771 21.5815 9.1042C21.3178 9.04853 21.0586 9.21758 21.0031 9.48144C20.9476 9.74531 21.1165 10.0043 21.3804 10.0598C24.2744 10.6687 26.375 13.2604 26.375 16.2223C26.375 19.6951 23.5496 22.5204 20.0769 22.5204C16.6039 22.5204 13.7786 19.695 13.7786 16.2223C13.7786 13.2764 15.8661 10.6877 18.7421 10.0671C19.0057 10.0102 19.1733 9.75039 19.1164 9.48681C19.0596 9.22324 18.8 9.05605 18.5362 9.1125C15.2137 9.82949 12.8021 12.8196 12.8021 16.2224C12.8021 20.2336 16.0656 23.4971 20.0769 23.4971C20.2429 23.4971 20.4071 23.4895 20.5702 23.4784C19.2591 25.8755 15.9333 31.4683 11.0371 36.3645L6.72678 40.6747C6.01057 41.3911 6.01057 42.5567 6.72688 43.2732C7.08508 43.6313 7.55559 43.8104 8.0262 43.8104C8.49661 43.8104 8.96721 43.6313 9.32541 43.2732V43.2731L13.6356 38.9629C18.6898 33.9089 24.486 30.5282 26.7434 29.3093C27.4739 28.9148 28.1544 28.433 28.7656 27.8772L41.9946 15.8484C43.1288 14.8171 43.7736 13.405 43.81 11.8724C43.8461 10.3398 43.2692 8.89883 42.1852 7.81484ZM8.63489 42.5827C8.29924 42.9183 7.75305 42.9185 7.41741 42.5827C7.08176 42.247 7.08176 41.7009 7.41731 41.3651L11.3823 37.4003L12.5997 38.6177L8.63489 42.5827ZM28.1086 27.1548C27.5558 27.6573 26.9404 28.0932 26.2793 28.4501C24.0356 29.6615 18.3528 32.974 13.2921 37.9289L12.0711 36.7079C17.026 31.6473 20.3385 25.9644 21.55 23.7205C21.6285 23.5751 21.7128 23.4311 21.7995 23.2891C22.4856 23.1218 23.1333 22.8569 23.7281 22.5102C23.8929 23.4392 24.3375 24.3058 25.0158 24.9841C25.9543 25.9227 27.253 26.4156 28.5795 26.3362C28.7094 26.3281 28.8377 26.3446 28.9596 26.381L28.1086 27.1548Z" fill="#0000CC"/>
<path d="M15.1987 24.6141C15.4684 24.6141 15.6869 24.3955 15.6869 24.1258C15.6869 23.8561 15.4684 23.6375 15.1987 23.6375H13.3839C13.1142 23.6375 12.8956 23.8561 12.8956 24.1258C12.8956 24.3955 13.1142 24.6141 13.3839 24.6141H15.1987Z" fill="#0000CC"/>
<path d="M9.47766 26.4092H15.1987C15.4684 26.4092 15.6869 26.1906 15.6869 25.9209C15.6869 25.6512 15.4684 25.4326 15.1987 25.4326H9.47766C9.20793 25.4326 8.98938 25.6512 8.98938 25.9209C8.98938 26.1906 9.20793 26.4092 9.47766 26.4092Z" fill="#0000CC"/>
<path d="M9.47766 28.2043H15.1987C15.4684 28.2043 15.6869 27.9857 15.6869 27.716C15.6869 27.4463 15.4684 27.2277 15.1987 27.2277H9.47766C9.20793 27.2277 8.98938 27.4463 8.98938 27.716C8.98938 27.9857 9.20793 28.2043 9.47766 28.2043Z" fill="#0000CC"/>
<path d="M23.394 37.7453C23.1242 37.7453 22.9057 37.5267 22.9057 37.257C22.9057 36.916 22.6282 36.6386 22.2872 36.6386C22.0175 36.6386 21.799 36.42 21.799 36.1503C21.799 35.8806 22.0175 35.662 22.2872 35.662C22.6282 35.662 22.9057 35.3846 22.9057 35.0435C22.9057 34.7738 23.1242 34.5553 23.394 34.5553C23.6637 34.5553 23.8823 34.7738 23.8823 35.0435C23.8823 35.3846 24.1598 35.662 24.5008 35.662C24.7705 35.662 24.9891 35.8806 24.9891 36.1503C24.9891 36.42 24.7705 36.6386 24.5008 36.6386C24.1598 36.6386 23.8823 36.916 23.8823 37.257C23.8823 37.5267 23.6636 37.7453 23.394 37.7453Z" fill="#FF4D4D"/>
<path d="M27.97 9.61255C27.7003 9.61255 27.4817 9.394 27.4817 9.12427C27.4817 8.78326 27.2043 8.50582 26.8633 8.50582C26.5936 8.50582 26.375 8.28726 26.375 8.01754C26.375 7.74781 26.5936 7.52925 26.8633 7.52925C27.2043 7.52925 27.4817 7.25181 27.4817 6.9108C27.4817 6.64107 27.7003 6.42252 27.97 6.42252C28.2397 6.42252 28.4583 6.64107 28.4583 6.9108C28.4583 7.25181 28.7358 7.52925 29.0769 7.52925C29.3466 7.52925 29.5651 7.74781 29.5651 8.01754C29.5651 8.28726 29.3466 8.50582 29.0769 8.50582C28.7358 8.50582 28.4583 8.78326 28.4583 9.12427C28.4583 9.3939 28.2397 9.61255 27.97 9.61255Z" fill="#6C6CFF"/>
<path d="M24.0548 7.05262C23.7851 7.05262 23.5665 6.83407 23.5665 6.56434C23.5665 6.22333 23.2891 5.94588 22.9481 5.94588C22.6783 5.94588 22.4598 5.72733 22.4598 5.4576C22.4598 5.18788 22.6783 4.96932 22.9481 4.96932C23.2891 4.96932 23.5665 4.69178 23.5665 4.35077C23.5665 4.08104 23.7851 3.86249 24.0548 3.86249C24.3245 3.86249 24.5431 4.08104 24.5431 4.35077C24.5431 4.69178 24.8205 4.96932 25.1615 4.96932C25.4313 4.96932 25.6498 5.18788 25.6498 5.4576C25.6498 5.72733 25.4313 5.94588 25.1615 5.94588C24.8205 5.94588 24.5431 6.22333 24.5431 6.56434C24.5431 6.83397 24.3245 7.05262 24.0548 7.05262Z" fill="#FF9D33"/>
<path d="M20.5736 39.2422C20.3039 39.2422 20.0853 39.0236 20.0853 38.7539V38.7393C20.0853 38.4695 20.3039 38.251 20.5736 38.251C20.8433 38.251 21.0619 38.4695 21.0619 38.7393V38.7539C21.0619 39.0236 20.8433 39.2422 20.5736 39.2422Z" fill="#FF9D33"/>
<path d="M20.5736 41.9555C20.3039 41.9555 20.0853 41.7369 20.0853 41.4672V41.4525C20.0853 41.1828 20.3039 40.9643 20.5736 40.9643C20.8433 40.9643 21.0619 41.1828 21.0619 41.4525V41.4672C21.0619 41.7369 20.8433 41.9555 20.5736 41.9555Z" fill="#FF9D33"/>
<path d="M19.4046 39.917C19.3215 39.917 19.2374 39.8958 19.1604 39.8512L19.1477 39.8438C18.9143 39.7087 18.8346 39.4101 18.9698 39.1767C19.105 38.9432 19.4039 38.8636 19.637 38.9987L19.6497 39.0061C19.8831 39.1412 19.9628 39.4398 19.8276 39.6732C19.7371 39.8296 19.5731 39.917 19.4046 39.917Z" fill="#FF9D33"/>
<path d="M21.7545 41.2737C21.6719 41.2737 21.5883 41.2527 21.5117 41.2086L21.4989 41.2013C21.265 41.0669 21.1844 40.7685 21.3188 40.5347C21.4532 40.3009 21.7515 40.2202 21.9854 40.3546L21.9982 40.3619C22.2321 40.4963 22.3127 40.7948 22.1783 41.0285C22.088 41.1857 21.9235 41.2737 21.7545 41.2737Z" fill="#FF9D33"/>
<path d="M19.3928 41.2737C19.2242 41.2737 19.0603 41.1863 18.9698 41.0299C18.8346 40.7965 18.9144 40.4979 19.1477 40.3627L19.1604 40.3554C19.3937 40.22 19.6925 40.3 19.8276 40.5333C19.9628 40.7667 19.883 41.0654 19.6497 41.2005L19.637 41.2079C19.56 41.2525 19.4758 41.2737 19.3928 41.2737Z" fill="#FF9D33"/>
<path d="M21.7426 39.917C21.5735 39.917 21.4091 39.8291 21.3188 39.6719C21.1844 39.438 21.265 39.1397 21.4989 39.0053L21.5117 38.998C21.7456 38.8636 22.044 38.9442 22.1783 39.1781C22.3127 39.4119 22.2321 39.7103 21.9982 39.8447L21.9854 39.852C21.9088 39.896 21.8251 39.917 21.7426 39.917Z" fill="#FF9D33"/>
<path d="M40.3602 22.1477C40.0904 22.1477 39.8719 21.9292 39.8719 21.6595V21.6448C39.8719 21.3751 40.0904 21.1565 40.3602 21.1565C40.6299 21.1565 40.8484 21.3751 40.8484 21.6448V21.6595C40.8484 21.9292 40.6299 22.1477 40.3602 22.1477Z" fill="#FF4D4D"/>
<path d="M40.3602 24.861C40.0904 24.861 39.8719 24.6425 39.8719 24.3727V24.3581C39.8719 24.0884 40.0904 23.8698 40.3602 23.8698C40.6299 23.8698 40.8484 24.0884 40.8484 24.3581V24.3727C40.8484 24.6425 40.6299 24.861 40.3602 24.861Z" fill="#FF4D4D"/>
<path d="M39.1911 22.8224C39.108 22.8224 39.0239 22.8013 38.947 22.7566L38.9343 22.7493C38.7009 22.6141 38.6212 22.3155 38.7564 22.0821C38.8915 21.8486 39.1904 21.769 39.4235 21.9042L39.4362 21.9115C39.6696 22.0467 39.7493 22.3453 39.6142 22.5787C39.5237 22.7351 39.3597 22.8224 39.1911 22.8224Z" fill="#FF4D4D"/>
<path d="M41.5409 24.1792C41.4578 24.1792 41.3737 24.158 41.2968 24.1134L41.2841 24.1061C41.0507 23.9709 40.971 23.6723 41.1062 23.4389C41.2413 23.2054 41.5401 23.1258 41.7733 23.2609L41.786 23.2683C42.0194 23.4034 42.0991 23.702 41.964 23.9354C41.8734 24.0918 41.7094 24.1792 41.5409 24.1792Z" fill="#FF4D4D"/>
<path d="M39.1794 24.1792C39.0107 24.1792 38.8469 24.0918 38.7563 23.9355C38.6212 23.7021 38.701 23.4034 38.9343 23.2683L38.947 23.2609C39.1804 23.1256 39.4791 23.2056 39.6142 23.4389C39.7493 23.6723 39.6695 23.9709 39.4362 24.1061L39.4235 24.1134C39.3466 24.158 39.2624 24.1792 39.1794 24.1792Z" fill="#FF4D4D"/>
<path d="M41.5292 22.8225C41.3605 22.8225 41.1967 22.735 41.1061 22.5787C40.971 22.3453 41.0508 22.0467 41.2841 21.9115L41.2968 21.9042C41.5302 21.7688 41.8289 21.8488 41.9639 22.0821C42.0991 22.3155 42.0193 22.6142 41.786 22.7493L41.7733 22.7566C41.6964 22.8013 41.6121 22.8225 41.5292 22.8225Z" fill="#FF4D4D"/>
</g>
<defs>
<linearGradient id="paint0_linear_154_6057" x1="0.854784" y1="39.1759" x2="51.1916" y2="10.1139" gradientUnits="userSpaceOnUse">
<stop stop-color="#FFF3EE" stop-opacity="0"/>
<stop offset="0.2938" stop-color="#FFEADE" stop-opacity="0.373"/>
<stop offset="0.7874" stop-color="#FFD6BB"/>
</linearGradient>
<clipPath id="clip0_154_6057">
<rect width="50" height="50" fill="white"/>
</clipPath>
</defs>
</svg>
