<svg width="50" height="50" viewBox="0 0 50 50" fill="none" xmlns="http://www.w3.org/2000/svg">
<g clip-path="url(#clip0_154_2819)">
<path d="M1.56973 29.5781C3.39854 35.8284 8.67002 48.5785 17.5777 47.4341C26.5119 46.2861 23.0229 34.7656 31.2016 33.1866C34.8019 32.4915 37.2423 38.7226 40.8506 38.5288C45.4979 38.2791 47.8633 33.6789 49.1619 29.8116C51.9155 21.6116 47.7919 7.70692 38.1406 5.29881C29.7184 3.19735 28.7332 13.4878 21.41 10.4988C17.2939 8.81883 17.7051 3.80194 12.692 2.78963C-2.47392 -0.272865 -0.863767 21.2613 1.56973 29.5781Z" fill="url(#paint0_linear_154_2819)"/>
<g opacity="0.1">
<path opacity="0.1" d="M11.796 28.1284H9.98126C9.71163 28.1284 9.49298 28.3469 9.49298 28.6167C9.49298 28.8864 9.71163 29.1049 9.98126 29.1049H11.796C12.0656 29.1049 12.2843 28.8864 12.2843 28.6167C12.2843 28.3469 12.0656 28.1284 11.796 28.1284Z" fill="#2626BC"/>
<path opacity="0.1" d="M11.796 29.9234H6.07501C5.80538 29.9234 5.58673 30.142 5.58673 30.4117C5.58673 30.6814 5.80538 30.9 6.07501 30.9H11.796C12.0656 30.9 12.2843 30.6814 12.2843 30.4117C12.2843 30.142 12.0656 29.9234 11.796 29.9234Z" fill="#2626BC"/>
<path opacity="0.1" d="M11.796 31.7185H6.07501C5.80538 31.7185 5.58673 31.937 5.58673 32.2068C5.58673 32.4765 5.80538 32.695 6.07501 32.695H11.796C12.0656 32.695 12.2843 32.4765 12.2843 32.2068C12.2843 31.937 12.0656 31.7185 11.796 31.7185Z" fill="#2626BC"/>
<path opacity="0.1" d="M44.3552 31.0148H37.6445L39.3684 19.5335C39.8801 16.1257 37.2409 13.0606 33.7948 13.0606C32.3725 13.0606 31.0809 13.5855 30.094 14.4466C28.9817 15.4172 27.5611 15.9611 26.0848 15.9611H25.8074C25.5292 15.9611 25.2531 15.9416 24.9805 15.9038C24.326 11.4426 20.4835 8.01761 15.8407 8.01761C10.7383 8.01761 6.60199 12.1539 6.60199 17.2563C6.60199 21.559 9.5434 25.1747 13.5252 26.2023L16.0562 43.058C16.2738 44.5073 17.5188 45.5793 18.9843 45.5793C20.5336 45.5793 21.8209 44.385 21.9369 42.8401L22.2198 39.0729C22.3661 37.1231 23.9909 35.6158 25.9462 35.6158C27.9015 35.6158 29.5263 37.1231 29.6727 39.0729L29.9555 42.8401C30.0715 44.385 31.3588 45.5793 32.9081 45.5793C34.3737 45.5793 35.6186 44.5073 35.8363 43.058L36.4154 39.2013H44.3553C44.8947 39.2013 45.3319 38.7641 45.3319 38.2247V31.9913C45.3318 31.452 44.8945 31.0148 44.3552 31.0148Z" fill="#2626BC"/>
</g>
<path d="M33.7947 10.6192C32.3724 10.6192 31.0808 11.1441 30.0939 12.0052C28.9816 12.9758 27.561 13.5196 26.0848 13.5196H25.8073C24.331 13.5196 22.9104 12.9757 21.7981 12.0052C20.8112 11.1441 19.5196 10.6192 18.0974 10.6192C14.6513 10.6192 12.012 13.6843 12.5237 17.0922L16.056 40.6166C16.2736 42.0658 17.5186 43.1379 18.9842 43.1379C20.5335 43.1379 21.8208 41.9436 21.9368 40.3986L22.2196 36.6315C22.366 34.6817 23.9907 33.1743 25.9461 33.1743C27.9014 33.1743 29.5262 34.6817 29.6725 36.6315L29.9554 40.3986C30.0714 41.9436 31.3587 43.1379 32.908 43.1379C34.3734 43.1379 35.6184 42.0658 35.8361 40.6166L39.3684 17.0922C39.8801 13.6843 37.2408 10.6192 33.7947 10.6192Z" fill="white"/>
<path d="M37.3467 30.5527L36.1182 38.7393H33.2754C32.7354 38.7393 32.2988 38.3027 32.2988 37.7627V31.5293C32.2988 30.9902 32.7354 30.5527 33.2754 30.5527H37.3467Z" fill="#EBEBFF"/>
<path d="M25.0789 16.9957C25.0789 22.0983 20.9432 26.235 15.8406 26.235C15.1629 26.235 14.5018 26.1618 13.8651 26.0231L12.5242 17.0924C12.4813 16.8063 12.4608 16.5231 12.4608 16.2438C12.4608 13.192 14.9402 10.6188 18.0975 10.6188C19.5193 10.6188 20.8113 11.1442 21.7986 12.0055C22.5311 12.6442 23.3963 13.0983 24.3231 13.3336C24.8094 14.4567 25.0789 15.695 25.0789 16.9957Z" fill="#EBEBFF"/>
<path d="M15.8407 24.0535C20.9431 24.0535 25.0794 19.9173 25.0794 14.8149C25.0794 9.7125 20.9431 5.5762 15.8407 5.5762C10.7383 5.5762 6.60205 9.7125 6.60205 14.8149C6.60205 19.9173 10.7383 24.0535 15.8407 24.0535Z" fill="#FF6C6C"/>
<path d="M15.8407 22.1604C19.8975 22.1604 23.1862 18.8717 23.1862 14.8149C23.1862 10.7581 19.8975 7.46938 15.8407 7.46938C11.7839 7.46938 8.49518 10.7581 8.49518 14.8149C8.49518 18.8717 11.7839 22.1604 15.8407 22.1604Z" fill="#D9D9FF"/>
<path d="M23.1863 14.8151C23.1863 18.8717 19.8973 22.1608 15.8406 22.1608C11.784 22.1608 8.49493 18.8717 8.49493 14.8151C8.49493 14.7262 8.49689 14.6364 8.49982 14.5485C8.49982 14.5475 8.49982 14.5475 8.49982 14.5475C9.55743 11.6461 12.3387 9.51918 15.6795 9.51918C17.6063 9.51918 19.3563 10.2301 20.6932 11.3971C21.3572 11.9772 22.1033 12.444 22.9022 12.7848C23.0867 13.4293 23.1863 14.111 23.1863 14.8151Z" fill="white"/>
<path d="M19.1307 15.3991C19.0535 15.445 18.9676 15.4664 18.8836 15.4664C18.7166 15.4664 18.5535 15.3805 18.4627 15.2252L17.6746 13.8834C17.617 13.7848 17.5203 13.7164 17.408 13.694L16.7127 13.5573L15.8279 15.2946C15.7879 15.3727 15.7752 15.4625 15.7928 15.5485L16.3192 18.1823C16.3719 18.4469 16.201 18.7038 15.9363 18.7565C15.9041 18.7633 15.8719 18.7663 15.8397 18.7663C15.6121 18.7663 15.408 18.6061 15.3621 18.3737L14.8348 15.7399C14.7752 15.4401 14.8182 15.1247 14.9578 14.8512L15.783 13.2301C15.5096 13.0211 15.3172 12.7125 15.2596 12.36L14.8035 9.56899C15.0906 9.53578 15.3826 9.51918 15.6795 9.51918C15.7147 9.51918 15.7498 9.51918 15.785 9.52016L16.2235 12.2028C16.2498 12.3659 16.3768 12.4967 16.5389 12.528L17.5965 12.736C17.9822 12.8121 18.3172 13.0495 18.5164 13.3883L19.3045 14.7311C19.4412 14.9635 19.3631 15.2633 19.1307 15.3991Z" fill="#6C6CFF"/>
<path d="M44.3552 36.7599H33.2751C32.7357 36.7599 32.2985 36.3227 32.2985 35.7834V29.55C32.2985 29.0106 32.7357 28.5734 33.2751 28.5734H44.3551C44.8944 28.5734 45.3316 29.0106 45.3316 29.55V35.7834C45.3317 36.3227 44.8945 36.7599 44.3552 36.7599Z" fill="#FF9D33"/>
<path d="M11.796 25.687H9.98126C9.71163 25.687 9.49298 25.9055 9.49298 26.1752C9.49298 26.445 9.71163 26.6635 9.98126 26.6635H11.796C12.0656 26.6635 12.2843 26.445 12.2843 26.1752C12.2843 25.9055 12.0656 25.687 11.796 25.687Z" fill="#0000CC"/>
<path d="M11.796 27.482H6.07501C5.80538 27.482 5.58673 27.7006 5.58673 27.9703C5.58673 28.24 5.80538 28.4586 6.07501 28.4586H11.796C12.0656 28.4586 12.2843 28.24 12.2843 27.9703C12.2843 27.7006 12.0656 27.482 11.796 27.482Z" fill="#0000CC"/>
<path d="M11.796 29.2771H6.07501C5.80538 29.2771 5.58673 29.4956 5.58673 29.7654C5.58673 30.0351 5.80538 30.2536 6.07501 30.2536H11.796C12.0656 30.2536 12.2843 30.0351 12.2843 29.7654C12.2843 29.4956 12.0656 29.2771 11.796 29.2771Z" fill="#0000CC"/>
<path d="M44.3552 28.0852H42.3817C42.112 28.0852 41.8935 28.3037 41.8935 28.5735C41.8935 28.8432 42.112 29.0617 42.3817 29.0617H44.3552C44.6244 29.0617 44.8435 29.2808 44.8435 29.55V35.7833C44.8435 36.0526 44.6244 36.2716 44.3552 36.2716H33.2751C33.0059 36.2716 32.7868 36.0526 32.7868 35.7833V29.55C32.7868 29.2808 33.0059 29.0617 33.2751 29.0617H39.5398C39.8096 29.0617 40.0281 28.8432 40.0281 28.5735C40.0281 28.3037 39.8096 28.0852 39.5398 28.0852H38.2114L39.8512 17.1647C40.1162 15.3997 39.6004 13.6117 38.4357 12.2592C37.2712 10.9067 35.5796 10.131 33.7948 10.131C32.3145 10.131 30.8862 10.6659 29.7729 11.6373C28.7426 12.5364 27.4328 13.0315 26.0848 13.0315H25.8073C25.672 13.0315 25.5358 13.0247 25.3999 13.0147C24.5531 8.50843 20.5892 5.08792 15.8407 5.08792C10.4772 5.08792 6.11377 9.45149 6.11377 14.8149C6.11377 20.1783 10.4773 24.5418 15.8407 24.5418C21.2041 24.5418 25.5676 20.1783 25.5676 14.8149C25.5676 14.5409 25.5556 14.2698 25.5333 14.0014C25.6248 14.0053 25.7163 14.0079 25.8073 14.0079H26.0848C27.6689 14.0079 29.2067 13.4274 30.4149 12.3731C31.3503 11.557 32.5506 11.1075 33.7947 11.1075C35.2949 11.1075 36.7168 11.7595 37.6956 12.8963C38.6745 14.0332 39.1082 15.536 38.8854 17.0197L37.2239 28.0852H33.275C32.4673 28.0852 31.8102 28.7423 31.8102 29.55V35.7833C31.8102 36.591 32.4673 37.2482 33.275 37.2482H35.848L35.3531 40.5442C35.1699 41.7641 34.1415 42.6496 32.9078 42.6496C31.6215 42.6496 30.5384 41.6449 30.4422 40.3621L30.1594 36.595C29.9947 34.4032 28.144 32.6862 25.946 32.6862C23.7479 32.6862 21.8973 34.4032 21.7326 36.595L21.4498 40.3621C21.3535 41.6449 20.2704 42.6496 18.9841 42.6496C17.7504 42.6496 16.7221 41.7642 16.5389 40.5442L14.5659 27.4047C14.5258 27.138 14.2772 26.9539 14.0104 26.9944C13.7438 27.0344 13.5601 27.283 13.6001 27.5497L15.573 40.6892C15.8286 42.391 17.2631 43.6262 18.984 43.6262C20.7783 43.6262 22.2892 42.2245 22.4235 40.4352L22.7063 36.6681C22.8329 34.9828 24.2559 33.6627 25.9459 33.6627C27.6359 33.6627 29.0589 34.9829 29.1854 36.6681L29.4682 40.4352C29.6025 42.2245 31.1134 43.6262 32.9077 43.6262C34.6286 43.6262 36.0632 42.391 36.3187 40.6892L36.8354 37.2483H44.355C45.1627 37.2483 45.8198 36.5911 45.8198 35.7834V29.5501C45.82 28.7422 45.163 28.0852 44.3552 28.0852ZM15.8407 23.5653C11.0157 23.5653 7.09033 19.6399 7.09033 14.8149C7.09033 9.98987 11.0157 6.06448 15.8407 6.06448C20.6657 6.06448 24.5911 9.98987 24.5911 14.8149C24.5911 19.6398 20.6657 23.5653 15.8407 23.5653Z" fill="#0000CC"/>
<path d="M42.4824 31.2071H40.6677C40.3979 31.2071 40.1794 30.9885 40.1794 30.7188C40.1794 30.4492 40.3979 30.2306 40.6677 30.2306H42.4824C42.7521 30.2306 42.9707 30.4492 42.9707 30.7188C42.9707 30.9885 42.752 31.2071 42.4824 31.2071Z" fill="white"/>
<path d="M42.4824 33.0023H36.7614C36.4917 33.0023 36.2731 32.7836 36.2731 32.514C36.2731 32.2443 36.4917 32.0257 36.7614 32.0257H42.4824C42.7521 32.0257 42.9707 32.2443 42.9707 32.514C42.9707 32.7836 42.752 33.0023 42.4824 33.0023Z" fill="white"/>
<path d="M42.4824 34.7973H36.7614C36.4917 34.7973 36.2731 34.5787 36.2731 34.3091C36.2731 34.0394 36.4917 33.8208 36.7614 33.8208H42.4824C42.7521 33.8208 42.9707 34.0394 42.9707 34.3091C42.9707 34.5787 42.752 34.7973 42.4824 34.7973Z" fill="white"/>
<path d="M11.088 37.0905C10.8184 37.0905 10.5997 36.8719 10.5997 36.6022C10.5997 36.2612 10.3223 35.9837 9.98126 35.9837C9.71163 35.9837 9.49298 35.7652 9.49298 35.4954C9.49298 35.2257 9.71163 35.0072 9.98126 35.0072C10.3223 35.0072 10.5997 34.7297 10.5997 34.3887C10.5997 34.119 10.8184 33.9004 11.088 33.9004C11.3576 33.9004 11.5763 34.119 11.5763 34.3887C11.5763 34.7297 11.8537 35.0072 12.1947 35.0072C12.4644 35.0072 12.683 35.2257 12.683 35.4954C12.683 35.7652 12.4644 35.9837 12.1947 35.9837C11.8537 35.9837 11.5763 36.2612 11.5763 36.6022C11.5763 36.8718 11.3576 37.0905 11.088 37.0905Z" fill="#FF9D33"/>
<path d="M25.9668 8.1594C25.6971 8.1594 25.4786 7.94085 25.4786 7.67112C25.4786 7.3301 25.2011 7.05266 24.8601 7.05266C24.5905 7.05266 24.3718 6.83411 24.3718 6.56438C24.3718 6.29465 24.5905 6.0761 24.8601 6.0761C25.2011 6.0761 25.4786 5.79866 25.4786 5.45764C25.4786 5.18792 25.6971 4.96936 25.9668 4.96936C26.2366 4.96936 26.4551 5.18792 26.4551 5.45764C26.4551 5.79866 26.7327 6.0761 27.0737 6.0761C27.3434 6.0761 27.562 6.29465 27.562 6.56438C27.562 6.83411 27.3434 7.05266 27.0737 7.05266C26.7327 7.05266 26.4551 7.3301 26.4551 7.67112C26.4551 7.94075 26.2366 8.1594 25.9668 8.1594Z" fill="#FF9D33"/>
<path d="M30.2153 9.00049C29.9455 9.00049 29.727 8.78194 29.727 8.51221C29.727 8.1712 29.4495 7.89376 29.1085 7.89376C28.8388 7.89376 28.6202 7.6752 28.6202 7.40547C28.6202 7.13575 28.8388 6.91719 29.1085 6.91719C29.4495 6.91719 29.727 6.63975 29.727 6.29874C29.727 6.02901 29.9455 5.81046 30.2153 5.81046C30.485 5.81046 30.7035 6.02901 30.7035 6.29874C30.7035 6.63975 30.981 6.91719 31.322 6.91719C31.5917 6.91719 31.8103 7.13575 31.8103 7.40547C31.8103 7.6752 31.5917 7.89376 31.322 7.89376C30.981 7.89376 30.7035 8.1712 30.7035 8.51221C30.7035 8.78194 30.485 9.00049 30.2153 9.00049Z" fill="#6C6CFF"/>
<path d="M8.18561 37.8783C7.91598 37.8783 7.69733 37.6597 7.69733 37.39V37.3754C7.69733 37.1056 7.91598 36.8871 8.18561 36.8871C8.45524 36.8871 8.67389 37.1056 8.67389 37.3754V37.39C8.67389 37.6597 8.45533 37.8783 8.18561 37.8783Z" fill="#6C6CFF"/>
<path d="M8.18561 40.5916C7.91598 40.5916 7.69733 40.373 7.69733 40.1033V40.0887C7.69733 39.8189 7.91598 39.6004 8.18561 39.6004C8.45524 39.6004 8.67389 39.8189 8.67389 40.0887V40.1033C8.67389 40.373 8.45533 40.5916 8.18561 40.5916Z" fill="#6C6CFF"/>
<path d="M7.01668 38.553C6.93387 38.553 6.85008 38.5319 6.77322 38.4876L6.76053 38.4802C6.52693 38.3455 6.44676 38.0468 6.58152 37.8133C6.71629 37.5796 7.01472 37.4995 7.24842 37.6343L7.26111 37.6417C7.4947 37.7764 7.57488 38.0751 7.44012 38.3086C7.34969 38.4654 7.18553 38.553 7.01668 38.553Z" fill="#6C6CFF"/>
<path d="M9.36642 39.9097C9.28341 39.9097 9.19933 39.8885 9.12228 39.8439L9.10959 39.8366C8.87619 39.7014 8.7965 39.4028 8.93166 39.1694C9.06672 38.936 9.36535 38.8562 9.59894 38.9915L9.61164 38.9988C9.84503 39.1339 9.92472 39.4326 9.78957 39.666C9.69894 39.8223 9.53498 39.9097 9.36642 39.9097Z" fill="#6C6CFF"/>
<path d="M7.00484 39.9097C6.83599 39.9097 6.67183 39.8221 6.5814 39.6653C6.44663 39.4317 6.52681 39.1331 6.7604 38.9984L6.7731 38.9911C7.00669 38.8561 7.30533 38.9364 7.43999 39.1701C7.57476 39.4036 7.49458 39.7022 7.26099 39.8369L7.24829 39.8443C7.17154 39.8886 7.08755 39.9097 7.00484 39.9097Z" fill="#6C6CFF"/>
<path d="M9.35464 38.5529C9.18609 38.5529 9.02212 38.4655 8.9316 38.3092C8.79644 38.0758 8.87613 37.7772 9.10953 37.642L9.12222 37.6347C9.35581 37.4994 9.65435 37.5792 9.78951 37.8126C9.92466 38.046 9.84497 38.3446 9.61158 38.4798L9.59888 38.4871C9.52173 38.5317 9.43765 38.5529 9.35464 38.5529Z" fill="#6C6CFF"/>
<path d="M42.7563 22.5723C42.4866 22.5723 42.268 22.3537 42.268 22.084V22.0694C42.268 21.7996 42.4866 21.5811 42.7563 21.5811C43.026 21.5811 43.2446 21.7996 43.2446 22.0694V22.084C43.2446 22.3536 43.026 22.5723 42.7563 22.5723Z" fill="#FF4D4D"/>
<path d="M42.7563 25.2856C42.4866 25.2856 42.268 25.067 42.268 24.7973V24.7827C42.268 24.5129 42.4866 24.2944 42.7563 24.2944C43.026 24.2944 43.2446 24.5129 43.2446 24.7827V24.7973C43.2446 25.067 43.026 25.2856 42.7563 25.2856Z" fill="#FF4D4D"/>
<path d="M41.5873 23.2471C41.5042 23.2471 41.4201 23.2259 41.3432 23.1812L41.3305 23.1739C41.0971 23.0388 41.0174 22.7401 41.1525 22.5067C41.2877 22.2732 41.5867 22.1936 41.8197 22.3288L41.8324 22.3361C42.0658 22.4713 42.1455 22.7699 42.0104 23.0033C41.9198 23.1597 41.7558 23.2471 41.5873 23.2471Z" fill="#FF4D4D"/>
<path d="M43.937 24.6036C43.8539 24.6036 43.7698 24.5824 43.6928 24.5377L43.6801 24.5304C43.4467 24.3953 43.3671 24.0966 43.5022 23.8632C43.6374 23.6296 43.9363 23.55 44.1694 23.6853L44.1821 23.6926C44.4155 23.8278 44.4952 24.1264 44.36 24.3598C44.2695 24.5163 44.1055 24.6036 43.937 24.6036Z" fill="#FF4D4D"/>
<path d="M41.5755 24.6036C41.4069 24.6036 41.243 24.5162 41.1525 24.3599C41.0173 24.1265 41.0971 23.8278 41.3304 23.6927L41.3431 23.6854C41.5766 23.55 41.8752 23.63 42.0103 23.8633C42.1454 24.0967 42.0656 24.3953 41.8323 24.5305L41.8196 24.5378C41.7427 24.5825 41.6585 24.6036 41.5755 24.6036Z" fill="#FF4D4D"/>
<path d="M43.9253 23.2471C43.7566 23.2471 43.5928 23.1597 43.5023 23.0033C43.3671 22.7699 43.4469 22.4713 43.6802 22.3361L43.6929 22.3288C43.9263 22.1935 44.225 22.2734 44.3601 22.5067C44.4952 22.7401 44.4154 23.0388 44.1821 23.1739L44.1694 23.1813C44.0925 23.2259 44.0083 23.2471 43.9253 23.2471Z" fill="#FF4D4D"/>
</g>
<defs>
<linearGradient id="paint0_linear_154_2819" x1="6.69649" y1="42.0467" x2="38.5747" y2="4.05565" gradientUnits="userSpaceOnUse">
<stop stop-color="#FFF3EE" stop-opacity="0"/>
<stop offset="0.2938" stop-color="#FFEADE" stop-opacity="0.373"/>
<stop offset="0.7874" stop-color="#FFD6BB"/>
</linearGradient>
<clipPath id="clip0_154_2819">
<rect width="50" height="50" fill="white"/>
</clipPath>
</defs>
</svg>
