<svg width="1598" height="575" viewBox="0 0 1598 575" fill="none" xmlns="http://www.w3.org/2000/svg">
<path d="M651.283 0.150269C683.239 0.150269 709.915 11.2653 731.589 33.7732C752.985 56.281 763.822 83.7907 763.822 116.858C763.822 149.925 752.985 177.435 731.589 199.942C710.192 222.45 683.516 233.565 651.283 233.565H558.473V0.150269H651.283ZM651.283 189.661C671.568 189.661 687.962 182.992 700.745 169.376C713.527 156.038 719.64 138.532 719.64 116.858C719.64 95.1835 713.249 77.6774 700.745 64.3394C688.24 51.0014 671.568 44.0545 651.283 44.0545H604.6V189.661H651.283Z" fill="white"/>
<path d="M936.382 212.739C919.154 229.689 898.313 238.303 873.583 238.303C848.852 238.303 828.011 229.689 811.061 212.739C794.11 195.789 785.496 174.948 785.496 150.217C785.496 125.486 794.11 104.646 811.061 87.6951C828.011 70.7447 848.852 62.1306 873.583 62.1306C898.313 62.1306 919.154 70.7447 936.382 87.6951C953.61 104.646 961.947 125.486 961.947 150.217C961.947 174.948 953.333 195.789 936.382 212.739ZM841.627 183.284C850.241 191.898 860.8 196.344 873.86 196.344C886.921 196.344 897.48 191.898 906.094 183.284C914.708 174.67 919.154 163.555 919.154 150.217C919.154 136.879 914.708 125.764 906.094 117.15C897.48 108.536 886.643 104.09 873.86 104.09C861.078 104.09 850.241 108.536 841.627 117.15C833.013 125.764 828.845 136.879 828.845 150.217C828.845 163.555 833.013 174.67 841.627 183.284V183.284Z" fill="white"/>
<path d="M1102.55 66.8506H1145.62V233.576H1102.55V214.958C1091.99 230.519 1075.6 238.299 1052.81 238.299C1034.47 238.299 1019.47 232.186 1007.52 219.96C995.57 207.733 989.734 190.783 989.734 169.386V66.8506H1032.8V163.829C1032.8 174.944 1035.86 183.558 1041.7 189.393C1047.81 195.229 1055.59 198.285 1065.59 198.285C1076.71 198.285 1085.6 194.951 1092.27 188.004C1098.94 181.057 1102.27 170.776 1102.27 156.882V66.8506H1102.55Z" fill="white"/>
<path d="M1280.39 108.234H1242.6V177.703C1242.6 183.538 1243.99 187.706 1247.05 190.485C1249.83 193.264 1254.27 194.653 1259.83 194.931C1265.39 195.209 1272.33 195.209 1280.39 194.931V233.834C1250.94 237.168 1230.1 234.389 1217.87 225.497C1205.64 216.605 1199.81 200.767 1199.81 177.703V108.234H1170.91V66.8307H1199.81V33.2078L1242.88 20.1477V66.8307H1280.67V108.234H1280.39Z" fill="white"/>
<path d="M1447.68 212.739C1430.45 229.689 1409.61 238.303 1384.88 238.303C1360.14 238.303 1339.3 229.689 1322.35 212.739C1305.4 195.789 1296.79 174.948 1296.79 150.217C1296.79 125.486 1305.4 104.646 1322.35 87.6951C1339.3 70.7447 1360.14 62.1306 1384.88 62.1306C1409.61 62.1306 1430.45 70.7447 1447.68 87.6951C1464.9 104.646 1473.24 125.486 1473.24 150.217C1473.24 174.948 1464.63 195.789 1447.68 212.739ZM1352.92 183.284C1361.53 191.898 1372.09 196.344 1385.15 196.344C1398.21 196.344 1408.77 191.898 1417.39 183.284C1426 174.67 1430.45 163.555 1430.45 150.217C1430.45 136.879 1426 125.764 1417.39 117.15C1408.77 108.536 1397.94 104.09 1385.15 104.09C1372.37 104.09 1361.53 108.536 1352.92 117.15C1344.31 125.764 1340.14 136.879 1340.14 150.217C1340.14 163.555 1344.31 174.67 1352.92 183.284Z" fill="white"/>
<path d="M1546.6 95.4677C1550.49 84.9085 1557.16 76.8501 1566.33 71.5705C1575.5 66.2908 1585.78 63.5121 1597.17 63.5121V111.584C1584.11 109.917 1572.44 112.696 1561.88 119.643C1551.32 126.59 1546.32 137.983 1546.32 154.099V233.85H1503.25V66.8466H1546.32V95.4677H1546.6Z" fill="white"/>
<path d="M868.307 253.846H917.49V502.822H880.255L773.551 350.546V502.822H724.367V253.846H761.602L868.307 405.565V253.846V253.846Z" fill="white"/>
<path d="M1000.3 432.523C1006.41 454.753 1023.08 465.868 1050.31 465.868C1067.82 465.868 1081.16 460.032 1090.05 448.084L1127.01 469.48C1109.5 494.767 1083.66 507.549 1049.48 507.549C1020.02 507.549 996.405 498.657 978.621 480.873C960.837 463.089 951.945 440.581 951.945 413.627C951.945 386.673 960.837 364.443 978.343 346.659C995.85 328.875 1018.36 319.705 1045.87 319.705C1071.99 319.705 1093.38 328.597 1110.33 346.659C1127.28 364.721 1135.62 386.951 1135.62 413.627C1135.62 419.462 1135.06 425.854 1133.95 432.523H1000.02H1000.3ZM999.462 396.955H1090.05C1087.55 384.728 1081.99 375.836 1073.93 370.001C1065.87 364.165 1056.43 361.109 1046.14 361.109C1033.92 361.109 1023.64 364.165 1015.58 370.556C1007.52 376.948 1002.24 385.562 999.462 396.955V396.955Z" fill="white"/>
<path d="M1264.56 368.871H1224.27V442.786C1224.27 448.899 1225.93 453.345 1228.99 456.402C1232.05 459.181 1236.49 460.848 1242.61 461.126C1248.44 461.404 1255.94 461.404 1264.56 461.126V502.807C1233.16 506.419 1210.93 503.363 1197.87 493.915C1185.09 484.467 1178.42 467.517 1178.42 443.064V369.149H1147.57V324.967H1178.42V289.121L1224.27 275.227V324.967H1264.56V369.149V368.871Z" fill="white"/>
<path d="M555.416 438.897C555.416 426.392 559.584 416.111 567.92 407.774C576.257 399.438 587.927 395.548 602.655 395.548H672.957V425.003H606.267C598.765 425.003 592.651 426.948 588.761 431.116C584.871 435.284 582.648 440.842 582.648 447.511C582.648 455.013 585.149 461.127 589.873 465.85C594.596 470.574 601.821 472.797 611.269 472.797H673.235V502.252H558.751V472.797H571.533C560.974 465.573 555.416 454.18 555.416 438.619V438.897Z" fill="white"/>
<path d="M558.749 283.569V254.115H673.234V283.569H659.618C670.733 292.461 676.29 304.966 676.29 320.805C676.29 336.644 670.455 349.148 658.784 359.985C647.113 370.822 632.664 376.38 615.713 376.38C598.763 376.38 584.314 370.822 572.643 359.985C560.972 349.148 555.137 336.088 555.137 320.805C555.137 304.688 560.694 292.461 571.809 283.569H558.193H558.749ZM639.333 338.033C645.446 332.198 648.503 324.417 648.503 315.247C648.503 306.077 645.446 298.575 639.333 292.461C633.22 286.348 625.439 283.291 615.991 283.291C606.544 283.291 598.763 286.348 592.65 292.461C586.537 298.575 583.48 306.077 583.48 315.247C583.48 324.417 586.537 331.92 592.65 338.033C598.763 344.146 606.544 346.925 615.991 346.925C625.439 346.925 633.22 343.868 639.333 338.033Z" fill="white"/>
<path d="M184.717 151.141C166.118 140.44 151.039 149.207 151.039 170.707V329.366C151.039 350.887 166.118 359.642 184.717 348.951L322.971 269.421C341.577 258.716 341.577 241.372 322.971 230.67L184.717 151.141Z" fill="white"/>
<path d="M26.3438 140.488C26.3438 84.0792 72.1932 38.2298 128.602 38.2298H150.832V18.2228H125.545C59.9667 18.2228 6.89258 71.5748 6.89258 137.153V244.691H26.3438V140.766V140.488Z" fill="#004D99"/>
<path d="M361.184 39.3436C417.871 39.3436 463.72 85.1929 463.72 141.879V245.805H482.06V138.267C482.06 72.6886 428.708 19.3365 363.129 19.3365H338.398V39.3436H361.184V39.3436Z" fill="#004D99"/>
<path d="M150.829 15.1554C150.829 6.86823 144.111 0.150146 135.824 0.150146C127.536 0.150146 120.818 6.86823 120.818 15.1554V42.665C120.818 50.9522 127.536 57.6703 135.824 57.6703C144.111 57.6703 150.829 50.9522 150.829 42.665V15.1554Z" fill="#0073E2"/>
<path d="M367.018 15.1554C367.018 6.86823 360.3 0.150146 352.013 0.150146C343.726 0.150146 337.008 6.86823 337.008 15.1554V42.665C337.008 50.9522 343.726 57.6703 352.013 57.6703C360.3 57.6703 367.018 50.9522 367.018 42.665V15.1554Z" fill="#0073E2"/>
<path d="M123.043 467.26C73.0259 467.26 32.4562 426.69 32.4562 376.673L32.6651 250.045C32.6651 247.267 30.2332 244.404 27.1765 244.404H3.55716C1.61203 244.404 0.222656 246.072 0.222656 248.017V373.06C0.222656 443.363 57.4649 500.605 128.045 500.605H254.756L246.698 495.603L202.794 467.538H123.043V467.26Z" fill="white"/>
<path d="M481.224 244.404H462.329C458.994 244.404 456.17 247.31 456.17 250.922L455.937 376.673C455.937 426.69 415.368 467.26 365.35 467.26H320.89C311.998 467.26 304.773 474.485 304.773 483.377V500.605H361.46C432.04 500.605 488.612 442.847 488.612 372.266V252.237C488.612 247.791 485.67 244.404 481.502 244.404H481.224Z" fill="white"/>
<path d="M304.771 500.597V534.775L254.754 500.597H198.623L297.824 566.175C314.497 577.568 335.893 583.125 335.893 548.947V499.062L304.771 498.624V500.597Z" fill="#004D99"/>
<path d="M32.6651 243.531C32.6651 234.538 25.4026 227.247 16.4439 227.247C7.48514 227.247 0.222656 234.538 0.222656 243.531V267.957C0.222656 276.95 7.48514 284.241 16.4439 284.241C25.4026 284.241 32.6651 276.95 32.6651 267.957V243.531Z" fill="white"/>
<path d="M472.804 227.247H471.986C463.253 227.247 456.174 234.538 456.174 243.531V267.957C456.174 276.95 463.253 284.241 471.986 284.241H472.804C481.537 284.241 488.616 276.95 488.616 267.957V243.531C488.616 234.538 481.537 227.247 472.804 227.247Z" fill="white"/>
</svg>
