<svg width="1112" height="401" viewBox="0 0 1112 401" fill="none" xmlns="http://www.w3.org/2000/svg">
<path d="M128.98 105.634C116.038 98.188 105.546 104.288 105.546 119.248V229.646C105.546 244.621 116.038 250.713 128.98 243.274L225.18 187.936C238.126 180.487 238.126 168.419 225.18 160.972L128.98 105.634Z" fill="white"/>
<path d="M453.579 1C475.815 1 494.377 8.73406 509.458 24.3955C524.346 40.057 531.887 59.1988 531.887 82.2076C531.887 105.216 524.346 124.358 509.458 140.02C494.57 155.681 476.008 163.415 453.579 163.415H389V1H453.579ZM453.579 132.866C467.694 132.866 479.102 128.225 487.996 118.751C496.89 109.47 501.144 97.289 501.144 82.2076C501.144 67.1262 496.697 54.945 487.996 45.6642C479.295 36.3833 467.694 31.5495 453.579 31.5495H421.096V132.866H453.579Z" fill="white"/>
<path d="M652.011 148.493C640.023 160.287 625.522 166.281 608.314 166.281C591.106 166.281 576.604 160.287 564.81 148.493C553.015 136.698 547.021 122.197 547.021 104.988C547.021 87.7802 553.015 73.2788 564.81 61.4844C576.604 49.6899 591.106 43.696 608.314 43.696C625.522 43.696 640.023 49.6899 652.011 61.4844C663.999 73.2788 669.8 87.7802 669.8 104.988C669.8 122.197 663.806 136.698 652.011 148.493ZM586.078 127.997C592.072 133.991 599.42 137.085 608.507 137.085C617.595 137.085 624.942 133.991 630.936 127.997C636.93 122.003 640.023 114.269 640.023 104.988C640.023 95.7076 636.93 87.9735 630.936 81.9796C624.942 75.9857 617.401 72.8921 608.507 72.8921C599.613 72.8921 592.072 75.9857 586.078 81.9796C580.085 87.9735 577.184 95.7076 577.184 104.988C577.184 114.269 580.085 122.003 586.078 127.997V127.997Z" fill="white"/>
<path d="M767.631 46.9816H797.6V162.992H767.631V150.038C760.283 160.866 748.875 166.279 733.021 166.279C720.259 166.279 709.818 162.026 701.504 153.518C693.19 145.011 689.13 133.216 689.13 118.328V46.9816H719.099V114.461C719.099 122.195 721.226 128.189 725.287 132.25C729.54 136.31 734.954 138.437 741.915 138.437C749.649 138.437 755.836 136.117 760.477 131.283C765.117 126.449 767.437 119.295 767.437 109.627V46.9816H767.631Z" fill="white"/>
<path d="M891.38 75.7762H865.084V124.114C865.084 128.174 866.051 131.075 868.177 133.008C870.111 134.942 873.205 135.908 877.072 136.102C880.939 136.295 885.772 136.295 891.38 136.102V163.171C870.884 165.491 856.383 163.558 847.876 157.37C839.368 151.183 835.308 140.162 835.308 124.114V75.7762H815.199V46.9668H835.308V23.5713L865.277 14.4838V46.9668H891.573V75.7762H891.38Z" fill="white"/>
<path d="M1007.77 148.493C995.786 160.287 981.285 166.281 964.077 166.281C946.868 166.281 932.367 160.287 920.573 148.493C908.778 136.698 902.784 122.197 902.784 104.988C902.784 87.7802 908.778 73.2788 920.573 61.4844C932.367 49.6899 946.868 43.696 964.077 43.696C981.285 43.696 995.786 49.6899 1007.77 61.4844C1019.76 73.2788 1025.56 87.7802 1025.56 104.988C1025.56 122.197 1019.57 136.698 1007.77 148.493ZM941.841 127.997C947.835 133.991 955.182 137.085 964.27 137.085C973.357 137.085 980.705 133.991 986.699 127.997C992.693 122.003 995.786 114.269 995.786 104.988C995.786 95.7076 992.693 87.9735 986.699 81.9796C980.705 75.9857 973.164 72.8921 964.27 72.8921C955.376 72.8921 947.835 75.9857 941.841 81.9796C935.847 87.9735 932.947 95.7076 932.947 104.988C932.947 114.269 935.847 122.003 941.841 127.997Z" fill="white"/>
<path d="M1076.61 66.8939C1079.31 59.5465 1083.95 53.9393 1090.34 50.2656C1096.72 46.592 1103.87 44.6584 1111.8 44.6584V78.1082C1102.71 76.9481 1094.59 78.8816 1087.24 83.7154C1079.89 88.5492 1076.41 96.4766 1076.41 107.691V163.183H1046.44V46.9787H1076.41V66.8939H1076.61Z" fill="white"/>
<path d="M604.626 177.097H638.849V350.34H612.94L538.693 244.383V350.34H504.47V177.097H530.379L604.626 282.667V177.097V177.097Z" fill="white"/>
<path d="M696.467 301.425C700.721 316.893 712.322 324.627 731.271 324.627C743.452 324.627 752.733 320.566 758.92 312.252L784.636 327.14C772.454 344.735 754.473 353.629 730.691 353.629C710.195 353.629 693.76 347.442 681.386 335.068C669.011 322.693 662.824 307.032 662.824 288.277C662.824 269.522 669.011 254.053 681.193 241.679C693.374 229.304 709.035 222.924 728.177 222.924C746.352 222.924 761.24 229.111 773.035 241.679C784.829 254.247 790.63 269.715 790.63 288.277C790.63 292.337 790.243 296.784 789.469 301.425H696.274H696.467ZM695.887 276.676H758.92C757.18 268.168 753.313 261.981 747.705 257.92C742.098 253.86 735.524 251.733 728.37 251.733C719.863 251.733 712.709 253.86 707.102 258.307C701.495 262.754 697.821 268.748 695.887 276.676V276.676Z" fill="white"/>
<path d="M880.342 257.134H852.306V308.565C852.306 312.819 853.466 315.913 855.593 318.04C857.72 319.973 860.814 321.133 865.068 321.327C869.128 321.52 874.348 321.52 880.342 321.327V350.329C858.494 352.843 843.025 350.716 833.938 344.142C825.044 337.568 820.403 325.774 820.403 308.759V257.327H798.941V226.584H820.403V201.642L852.306 191.974V226.584H880.342V257.327V257.134Z" fill="white"/>
<path d="M386.912 305.862C386.912 297.161 389.812 290.007 395.613 284.207C401.413 278.406 409.534 275.699 419.782 275.699H468.7V296.195H422.295C417.075 296.195 412.821 297.548 410.114 300.448C407.407 303.349 405.861 307.216 405.861 311.856C405.861 317.077 407.601 321.33 410.888 324.617C414.175 327.904 419.202 329.451 425.776 329.451H468.893V349.946H389.232V329.451H398.126C390.779 324.424 386.912 316.496 386.912 305.669V305.862Z" fill="white"/>
<path d="M389.234 197.782V177.286H468.895V197.782H459.421C467.155 203.969 471.022 212.67 471.022 223.691C471.022 234.712 466.962 243.413 458.841 250.953C450.72 258.494 440.666 262.361 428.871 262.361C417.077 262.361 407.023 258.494 398.902 250.953C390.781 243.413 386.721 234.325 386.721 223.691C386.721 212.476 390.588 203.969 398.322 197.782H388.848H389.234ZM445.306 235.679C449.56 231.618 451.687 226.204 451.687 219.824C451.687 213.443 449.56 208.223 445.306 203.969C441.052 199.715 435.639 197.588 429.065 197.588C422.491 197.588 417.077 199.715 412.823 203.969C408.569 208.223 406.443 213.443 406.443 219.824C406.443 226.204 408.569 231.425 412.823 235.679C417.077 239.932 422.491 241.866 429.065 241.866C435.639 241.866 441.052 239.739 445.306 235.679Z" fill="white"/>
<path fill-rule="evenodd" clip-rule="evenodd" d="M94.9547 0.56958C100.721 0.56958 105.396 5.24416 105.396 11.0106V13.1449H105.399V27.0662H105.396V30.1523C105.396 35.9187 100.721 40.5933 94.9547 40.5933C89.1883 40.5933 84.5137 35.9187 84.5137 30.1523V27.2701C47.7869 30.0447 18.7778 60.7916 18.7778 98.2195V98.4129V160.943C21.4532 163.015 23.1767 166.265 23.1767 169.92V174.437L23.1767 174.452L23.1767 174.473V186.916C23.1767 187.154 23.1694 187.39 23.155 187.624L23.0313 262.562C23.0313 297.365 51.2606 325.595 86.0638 325.595V325.788H141.556L172.105 345.316L177.701 348.79H177.706L212.51 372.572V348.79V347.417L212.519 347.417V336.809C212.519 330.622 217.546 325.595 223.733 325.595H254.669C289.472 325.595 317.702 297.365 317.702 262.562L317.863 175.062C317.863 175.017 317.864 174.972 317.865 174.927V169.92C317.865 165.833 319.966 162.252 323.117 160.258V99.1876C323.117 61.1064 293.379 30.0539 255.829 27.9542V30.1523C255.829 35.9187 251.155 40.5933 245.388 40.5933C239.622 40.5933 234.947 35.9187 234.947 30.1523V11.0106C234.947 5.24416 239.622 0.56958 245.388 0.56958C251.155 0.56958 255.829 5.24416 255.829 11.0106V13.9633C300.213 15.3962 335.878 51.9485 335.878 96.6741V160.732C338.641 162.791 340.439 166.139 340.439 169.92V186.916C340.439 186.987 340.439 187.057 340.437 187.128V259.496C340.437 308.607 301.073 348.797 251.962 348.797H234.165V382.433C234.165 406.215 219.277 402.348 207.676 394.421L138.66 348.797H89.5442C40.4329 348.797 0.602539 308.966 0.602539 260.049V186.916V173.04V169.92C0.602539 166.156 2.43023 162.822 5.24316 160.761V95.8993C5.24316 51.3704 40.411 14.943 84.5137 13.2095V11.0106C84.5137 5.24416 89.1883 0.56958 94.9547 0.56958Z" fill="white"/>
</svg>
