<svg width="1598" height="576" viewBox="0 0 1598 576" fill="none" xmlns="http://www.w3.org/2000/svg">
<path d="M651.931 0.650146C683.887 0.650146 710.563 11.7652 732.237 34.273C753.634 56.7809 764.471 84.2905 764.471 117.358C764.471 150.425 753.634 177.934 732.237 200.442C710.841 222.95 684.165 234.065 651.931 234.065H559.121V0.650146H651.931ZM651.931 190.161C672.216 190.161 688.611 183.492 701.393 169.876C714.175 156.538 720.289 139.032 720.289 117.358C720.289 95.6834 713.897 78.1773 701.393 64.8393C688.889 51.5013 672.216 44.5544 651.931 44.5544H605.248V190.161H651.931Z" fill="white"/>
<path d="M937.031 213.239C919.802 230.189 898.962 238.803 874.231 238.803C849.5 238.803 828.659 230.189 811.709 213.239C794.759 196.289 786.145 175.448 786.145 150.717C786.145 125.986 794.759 105.146 811.709 88.1951C828.659 71.2447 849.5 62.6306 874.231 62.6306C898.962 62.6306 919.802 71.2447 937.031 88.1951C954.259 105.146 962.595 125.986 962.595 150.717C962.595 175.448 953.981 196.289 937.031 213.239ZM842.275 183.784C850.889 192.398 861.449 196.844 874.509 196.844C887.569 196.844 898.128 192.398 906.742 183.784C915.356 175.17 919.802 164.055 919.802 150.717C919.802 137.379 915.356 126.264 906.742 117.65C898.128 109.036 887.291 104.59 874.509 104.59C861.727 104.59 850.889 109.036 842.275 117.65C833.661 126.264 829.493 137.379 829.493 150.717C829.493 164.055 833.661 175.17 842.275 183.784V183.784Z" fill="white"/>
<path d="M1103.2 67.3506H1146.27V234.076H1103.2V215.458C1092.64 231.019 1076.25 238.799 1053.46 238.799C1035.12 238.799 1020.12 232.686 1008.17 220.46C996.218 208.233 990.383 191.283 990.383 169.886V67.3506H1033.45V164.329C1033.45 175.444 1036.51 184.058 1042.35 189.893C1048.46 195.729 1056.24 198.785 1066.24 198.785C1077.36 198.785 1086.25 195.451 1092.92 188.504C1099.59 181.557 1102.92 171.276 1102.92 157.382V67.3506H1103.2Z" fill="white"/>
<path d="M1281.04 108.734H1243.25V178.203C1243.25 184.038 1244.64 188.206 1247.7 190.985C1250.48 193.764 1254.92 195.153 1260.48 195.431C1266.04 195.709 1272.98 195.709 1281.04 195.431V234.334C1251.59 237.668 1230.75 234.889 1218.52 225.997C1206.29 217.105 1200.46 201.267 1200.46 178.203V108.734H1171.56V67.3307H1200.46V33.7078L1243.53 20.6477V67.3307H1281.32V108.734H1281.04Z" fill="white"/>
<path d="M1448.32 213.239C1431.1 230.189 1410.25 238.803 1385.52 238.803C1360.79 238.803 1339.95 230.189 1323 213.239C1306.05 196.289 1297.44 175.448 1297.44 150.717C1297.44 125.986 1306.05 105.146 1323 88.1951C1339.95 71.2447 1360.79 62.6306 1385.52 62.6306C1410.25 62.6306 1431.1 71.2447 1448.32 88.1951C1465.55 105.146 1473.89 125.986 1473.89 150.717C1473.89 175.448 1465.27 196.289 1448.32 213.239ZM1353.57 183.784C1362.18 192.398 1372.74 196.844 1385.8 196.844C1398.86 196.844 1409.42 192.398 1418.04 183.784C1426.65 175.17 1431.1 164.055 1431.1 150.717C1431.1 137.379 1426.65 126.264 1418.04 117.65C1409.42 109.036 1398.58 104.59 1385.8 104.59C1373.02 104.59 1362.18 109.036 1353.57 117.65C1344.95 126.264 1340.79 137.379 1340.79 150.717C1340.79 164.055 1344.95 175.17 1353.57 183.784Z" fill="white"/>
<path d="M1547.25 95.9676C1551.14 85.4083 1557.81 77.35 1566.98 72.0703C1576.15 66.7907 1586.43 64.012 1597.82 64.012V112.084C1584.76 110.417 1573.09 113.196 1562.53 120.143C1551.97 127.09 1546.97 138.482 1546.97 154.599V234.349H1503.9V67.3465H1546.97V95.9676H1547.25Z" fill="white"/>
<path d="M868.955 254.346H918.139V503.322H880.904L774.2 351.046V503.322H725.016V254.346H762.251L868.955 406.066V254.346V254.346Z" fill="white"/>
<path d="M1000.94 433.023C1007.06 455.253 1023.73 466.368 1050.96 466.368C1068.47 466.368 1081.81 460.532 1090.7 448.584L1127.66 469.98C1110.15 495.267 1084.31 508.049 1050.13 508.049C1020.67 508.049 997.054 499.157 979.27 481.373C961.486 463.589 952.594 441.081 952.594 414.127C952.594 387.173 961.486 364.943 978.992 347.159C996.498 329.375 1019.01 320.205 1046.52 320.205C1072.64 320.205 1094.03 329.097 1110.98 347.159C1127.93 365.221 1136.27 387.451 1136.27 414.127C1136.27 419.962 1135.71 426.354 1134.6 433.023H1000.67H1000.94ZM1000.11 397.455H1090.7C1088.2 385.228 1082.64 376.336 1074.58 370.501C1066.52 364.665 1057.07 361.609 1046.79 361.609C1034.57 361.609 1024.29 364.665 1016.23 371.056C1008.17 377.448 1002.89 386.062 1000.11 397.455V397.455Z" fill="white"/>
<path d="M1265.21 369.371H1224.91V443.286C1224.91 449.399 1226.58 453.845 1229.64 456.902C1232.69 459.68 1237.14 461.348 1243.25 461.626C1249.09 461.903 1256.59 461.903 1265.21 461.626V503.307C1233.81 506.919 1211.58 503.863 1198.52 494.415C1185.73 484.967 1179.06 468.017 1179.06 443.564V369.649H1148.22V325.467H1179.06V289.621L1224.91 275.727V325.467H1265.21V369.649V369.371Z" fill="white"/>
<path d="M556.064 439.396C556.064 426.892 560.233 416.611 568.569 408.274C576.905 399.938 588.576 396.048 603.303 396.048H673.606V425.503H606.916C599.413 425.503 593.3 427.448 589.409 431.616C585.519 435.784 583.296 441.342 583.296 448.011C583.296 455.513 585.797 461.626 590.521 466.35C595.245 471.074 602.47 473.297 611.917 473.297H673.883V502.752H559.399V473.297H572.181C561.622 466.072 556.064 454.68 556.064 439.118V439.396Z" fill="white"/>
<path d="M559.398 284.069V254.615H673.882V284.069H660.266C671.381 292.961 676.939 305.466 676.939 321.305C676.939 337.144 671.103 349.648 659.433 360.485C647.762 371.322 633.312 376.88 616.362 376.88C599.412 376.88 584.962 371.322 573.291 360.485C561.621 349.648 555.785 336.588 555.785 321.305C555.785 305.188 561.343 292.961 572.458 284.069H558.842H559.398ZM639.981 338.533C646.095 332.698 649.151 324.917 649.151 315.747C649.151 306.577 646.095 299.075 639.981 292.962C633.868 286.848 626.088 283.792 616.64 283.792C607.192 283.792 599.412 286.848 593.298 292.962C587.185 299.075 584.128 306.577 584.128 315.747C584.128 324.917 587.185 332.42 593.298 338.533C599.412 344.646 607.192 347.425 616.64 347.425C626.088 347.425 633.868 344.368 639.981 338.533Z" fill="white"/>
<path d="M185.366 151.641C166.766 140.94 151.688 149.707 151.688 171.207V329.866C151.688 351.387 166.766 360.142 185.366 349.451L323.62 269.921C342.225 259.216 342.225 241.872 323.62 231.17L185.366 151.641Z" fill="white"/>
<path d="M26.9923 140.988C26.9923 84.5793 72.8417 38.7299 129.25 38.7299H151.48V18.7229H126.194C60.6152 18.7229 7.54102 72.0749 7.54102 137.653V245.191H26.9923V141.266V140.988Z" fill="#004D99"/>
<path d="M361.833 39.8434C418.519 39.8434 464.369 85.6928 464.369 142.379V246.305H482.708V138.767C482.708 73.1884 429.356 19.8364 363.778 19.8364H339.047V39.8434H361.833V39.8434Z" fill="#004D99"/>
<path d="M151.477 15.6554C151.477 7.36823 144.759 0.650146 136.472 0.650146C128.185 0.650146 121.467 7.36823 121.467 15.6554V43.165C121.467 51.4522 128.185 58.1703 136.472 58.1703C144.759 58.1703 151.477 51.4522 151.477 43.165V15.6554Z" fill="#0073E2"/>
<path d="M367.667 15.6554C367.667 7.36823 360.949 0.650146 352.662 0.650146C344.374 0.650146 337.656 7.36823 337.656 15.6554V43.165C337.656 51.4522 344.374 58.1703 352.662 58.1703C360.949 58.1703 367.667 51.4522 367.667 43.165V15.6554Z" fill="#0073E2"/>
<path d="M123.692 467.76C73.6744 467.76 33.1046 427.19 33.1046 377.173L33.3136 250.545C33.3136 247.767 30.8816 244.904 27.825 244.904H4.20559C2.26047 244.904 0.871094 246.572 0.871094 248.517V373.56C0.871094 443.863 58.1133 501.105 128.694 501.105H255.405L247.346 496.103L203.442 468.038H123.692V467.76Z" fill="white"/>
<path d="M481.873 244.904H462.977C459.643 244.904 456.818 247.81 456.818 251.422L456.586 377.173C456.586 427.19 416.016 467.76 365.999 467.76H321.539C312.647 467.76 305.422 474.985 305.422 483.877V501.105H362.108C432.689 501.105 489.261 443.347 489.261 372.766V252.737C489.261 248.291 486.319 244.904 482.15 244.904H481.873Z" fill="white"/>
<path d="M305.42 501.096V535.275L255.402 501.096H199.271L298.473 566.675C315.145 578.068 336.542 583.625 336.542 549.447V499.562L305.42 499.124V501.096Z" fill="#004D99"/>
<path d="M33.3135 244.031C33.3135 235.038 26.051 227.748 17.0923 227.748C8.13358 227.748 0.871094 235.038 0.871094 244.031V268.457C0.871094 277.45 8.13358 284.741 17.0923 284.741C26.051 284.741 33.3135 277.45 33.3135 268.457V244.031Z" fill="white"/>
<path d="M473.452 227.748H472.635C463.902 227.748 456.822 235.038 456.822 244.031V268.457C456.822 277.45 463.902 284.741 472.635 284.741H473.452C482.185 284.741 489.265 277.45 489.265 268.457V244.031C489.265 235.038 482.185 227.748 473.452 227.748Z" fill="white"/>
</svg>
