<svg width="1112" height="401" viewBox="0 0 1112 401" fill="none" xmlns="http://www.w3.org/2000/svg">
<path d="M453.629 0.0695801C475.865 0.0695801 494.426 7.80364 509.508 23.4651C524.396 39.1266 531.936 58.2683 531.936 81.2772C531.936 104.286 524.396 123.428 509.508 139.089C494.62 154.751 476.058 162.485 453.629 162.485H389.05V0.0695801H453.629ZM453.629 131.935C467.744 131.935 479.152 127.295 488.046 117.821C496.94 108.54 501.194 96.3586 501.194 81.2772C501.194 66.1958 496.747 54.0146 488.046 44.7337C479.345 35.4529 467.744 30.6191 453.629 30.6191H421.146V131.935H453.629Z" fill="#002549"/>
<path d="M652.011 147.993C640.023 159.787 625.522 165.781 608.314 165.781C591.106 165.781 576.604 159.787 564.81 147.993C553.015 136.198 547.021 121.697 547.021 104.488C547.021 87.2802 553.015 72.7788 564.81 60.9844C576.604 49.1899 591.106 43.196 608.314 43.196C625.522 43.196 640.023 49.1899 652.011 60.9844C663.999 72.7788 669.8 87.2802 669.8 104.488C669.8 121.697 663.806 136.198 652.011 147.993ZM586.078 127.497C592.072 133.491 599.42 136.585 608.507 136.585C617.595 136.585 624.942 133.491 630.936 127.497C636.93 121.503 640.023 113.769 640.023 104.488C640.023 95.2076 636.93 87.4735 630.936 81.4796C624.942 75.4857 617.401 72.3921 608.507 72.3921C599.613 72.3921 592.072 75.4857 586.078 81.4796C580.085 87.4735 577.184 95.2076 577.184 104.488C577.184 113.769 580.085 121.503 586.078 127.497V127.497Z" fill="#002549"/>
<path d="M767.631 46.4814H797.6V162.492H767.631V149.538C760.283 160.365 748.875 165.779 733.021 165.779C720.259 165.779 709.818 161.526 701.504 153.018C693.19 144.511 689.13 132.716 689.13 117.828V46.4814H719.099V113.961C719.099 121.695 721.226 127.689 725.287 131.749C729.54 135.81 734.954 137.937 741.915 137.937C749.649 137.937 755.836 135.616 760.477 130.783C765.117 125.949 767.437 118.795 767.437 109.127V46.4814H767.631Z" fill="#002549"/>
<path d="M891.38 75.276H865.084V123.614C865.084 127.674 866.051 130.575 868.177 132.508C870.111 134.442 873.205 135.408 877.072 135.602C880.939 135.795 885.772 135.795 891.38 135.602V162.671C870.884 164.991 856.383 163.058 847.876 156.87C839.368 150.683 835.308 139.662 835.308 123.614V75.276H815.199V46.4667H835.308V23.0712L865.277 13.9836V46.4667H891.573V75.276H891.38Z" fill="#002549"/>
<path d="M1007.77 147.993C995.786 159.787 981.285 165.781 964.077 165.781C946.868 165.781 932.367 159.787 920.573 147.993C908.778 136.198 902.784 121.697 902.784 104.488C902.784 87.2802 908.778 72.7788 920.573 60.9844C932.367 49.1899 946.868 43.196 964.077 43.196C981.285 43.196 995.786 49.1899 1007.77 60.9844C1019.76 72.7788 1025.56 87.2802 1025.56 104.488C1025.56 121.697 1019.57 136.198 1007.77 147.993ZM941.841 127.497C947.835 133.491 955.182 136.585 964.27 136.585C973.357 136.585 980.705 133.491 986.699 127.497C992.693 121.503 995.786 113.769 995.786 104.488C995.786 95.2076 992.693 87.4735 986.699 81.4796C980.705 75.4857 973.164 72.3921 964.27 72.3921C955.376 72.3921 947.835 75.4857 941.841 81.4796C935.847 87.4735 932.947 95.2076 932.947 104.488C932.947 113.769 935.847 121.503 941.841 127.497Z" fill="#002549"/>
<path d="M1076.61 66.3936C1079.31 59.0463 1083.95 53.4391 1090.34 49.7654C1096.72 46.0917 1103.87 44.1582 1111.8 44.1582V77.608C1102.71 76.4479 1094.59 78.3814 1087.24 83.2152C1079.89 88.049 1076.41 95.9764 1076.41 107.191V162.683H1046.44V46.4784H1076.41V66.3936H1076.61Z" fill="#002549"/>
<path d="M604.626 176.597H638.849V349.84H612.94L538.693 243.883V349.84H504.47V176.597H530.379L604.626 282.167V176.597V176.597Z" fill="#002549"/>
<path d="M696.467 300.925C700.721 316.393 712.322 324.127 731.271 324.127C743.452 324.127 752.733 320.066 758.92 311.752L784.636 326.64C772.454 344.235 754.473 353.129 730.691 353.129C710.195 353.129 693.76 346.942 681.386 334.568C669.011 322.193 662.824 306.532 662.824 287.777C662.824 269.022 669.011 253.553 681.193 241.179C693.374 228.804 709.035 222.424 728.177 222.424C746.352 222.424 761.24 228.611 773.035 241.179C784.829 253.747 790.63 269.215 790.63 287.777C790.63 291.837 790.243 296.284 789.469 300.925H696.274H696.467ZM695.887 276.176H758.92C757.18 267.668 753.313 261.481 747.705 257.42C742.098 253.36 735.524 251.233 728.37 251.233C719.863 251.233 712.709 253.36 707.102 257.807C701.495 262.254 697.821 268.248 695.887 276.176V276.176Z" fill="#002549"/>
<path d="M880.342 256.634H852.306V308.065C852.306 312.319 853.466 315.413 855.593 317.539C857.72 319.473 860.814 320.633 865.068 320.826C869.128 321.02 874.348 321.02 880.342 320.826V349.829C858.494 352.343 843.025 350.216 833.938 343.642C825.044 337.068 820.403 325.274 820.403 308.259V256.827H798.941V226.084H820.403V201.142L852.306 191.474V226.084H880.342V256.827V256.634Z" fill="#002549"/>
<path d="M386.912 305.362C386.912 296.661 389.812 289.507 395.613 283.707C401.413 277.906 409.534 275.199 419.782 275.199H468.7V295.694H422.295C417.075 295.694 412.821 297.048 410.114 299.948C407.407 302.848 405.861 306.716 405.861 311.356C405.861 316.576 407.601 320.83 410.888 324.117C414.175 327.404 419.202 328.951 425.776 328.951H468.893V349.446H389.232V328.951H398.126C390.779 323.924 386.912 315.996 386.912 305.169V305.362Z" fill="#002549"/>
<path d="M389.234 197.282V176.786H468.895V197.282H459.421C467.155 203.469 471.022 212.17 471.022 223.191C471.022 234.212 466.962 242.913 458.841 250.453C450.72 257.994 440.666 261.861 428.871 261.861C417.077 261.861 407.023 257.994 398.902 250.453C390.781 242.913 386.721 233.825 386.721 223.191C386.721 211.976 390.588 203.469 398.322 197.282H388.848H389.234ZM445.306 235.178C449.56 231.118 451.687 225.704 451.687 219.324C451.687 212.943 449.56 207.723 445.306 203.469C441.052 199.215 435.639 197.088 429.065 197.088C422.491 197.088 417.077 199.215 412.823 203.469C408.569 207.723 406.443 212.943 406.443 219.324C406.443 225.704 408.569 230.925 412.823 235.178C417.077 239.432 422.491 241.366 429.065 241.366C435.639 241.366 441.052 239.239 445.306 235.178Z" fill="#002549"/>
<path fill-rule="evenodd" clip-rule="evenodd" d="M94.9547 0.0695801C100.721 0.0695801 105.396 4.74416 105.396 10.5106V12.645H105.399V26.5663H105.396V29.6523C105.396 35.4187 100.721 40.0933 94.9547 40.0933C89.1883 40.0933 84.5137 35.4187 84.5137 29.6523V26.7702C47.7869 29.5448 18.7778 60.2918 18.7778 97.7196V97.913V160.443C21.4532 162.515 23.1767 165.765 23.1767 169.42V173.937L23.1767 173.952L23.1767 173.973V186.416C23.1767 186.654 23.1694 186.89 23.155 187.124L23.0313 262.062C23.0313 296.865 51.2606 325.095 86.0638 325.095V325.288H141.556L172.105 344.816L177.701 348.29H177.706L212.51 372.072V348.29V346.917L212.519 346.917V336.309C212.519 330.122 217.546 325.095 223.733 325.095H254.669C289.472 325.095 317.702 296.865 317.702 262.062L317.863 174.562C317.863 174.517 317.864 174.472 317.865 174.427V169.42C317.865 165.333 319.966 161.752 323.117 159.758V98.6876C323.117 60.6064 293.379 29.5539 255.829 27.4542V29.6523C255.829 35.4187 251.155 40.0933 245.388 40.0933C239.622 40.0933 234.947 35.4187 234.947 29.6523V10.5106C234.947 4.74416 239.622 0.0695801 245.388 0.0695801C251.155 0.0695801 255.829 4.74416 255.829 10.5106V13.4633C300.213 14.8962 335.878 51.4485 335.878 96.1741V160.232C338.641 162.291 340.439 165.639 340.439 169.42V186.416C340.439 186.487 340.439 186.557 340.437 186.628V258.996C340.437 308.107 301.073 348.297 251.962 348.297H234.165V381.933C234.165 405.715 219.277 401.848 207.676 393.921L138.66 348.297H89.5442C40.4329 348.297 0.602539 308.466 0.602539 259.549V186.416V172.54V169.42C0.602539 165.656 2.43023 162.322 5.24316 160.261V95.3994C5.24316 50.8705 40.411 14.4432 84.5137 12.7096V10.5106C84.5137 4.74416 89.1883 0.0695801 94.9547 0.0695801ZM105.546 118.748C105.546 103.788 116.038 97.6878 128.98 105.134L225.18 160.472C238.126 167.919 238.126 179.987 225.18 187.436L128.98 242.774C116.038 250.213 105.546 244.121 105.546 229.146V118.748Z" fill="#002549"/>
</svg>
