<svg width="1597" height="575" viewBox="0 0 1597 575" fill="none" xmlns="http://www.w3.org/2000/svg">
<path d="M651.072 0.207275C683.028 0.207275 709.704 11.3223 731.378 33.8302C752.774 56.338 763.611 83.8477 763.611 116.915C763.611 149.982 752.774 177.492 731.378 199.999C709.982 222.507 683.306 233.622 651.072 233.622H558.262V0.207275H651.072ZM651.072 189.718C671.357 189.718 687.751 183.049 700.534 169.433C713.316 156.095 719.429 138.589 719.429 116.915C719.429 95.2406 713.038 77.7344 700.534 64.3964C688.029 51.0584 671.357 44.1115 651.072 44.1115H604.389V189.718H651.072Z" fill="#002549"/>
<path d="M936.171 212.796C918.943 229.746 898.102 238.36 873.372 238.36C848.641 238.36 827.8 229.746 810.85 212.796C793.899 195.845 785.285 175.005 785.285 150.274C785.285 125.543 793.899 104.702 810.85 87.752C827.8 70.8016 848.641 62.1875 873.372 62.1875C898.102 62.1875 918.943 70.8016 936.171 87.752C953.4 104.702 961.736 125.543 961.736 150.274C961.736 175.005 953.122 195.845 936.171 212.796ZM841.416 183.341C850.03 191.955 860.589 196.401 873.649 196.401C886.71 196.401 897.269 191.955 905.883 183.341C914.497 174.727 918.943 163.612 918.943 150.274C918.943 136.936 914.497 125.821 905.883 117.207C897.269 108.593 886.432 104.147 873.649 104.147C860.867 104.147 850.03 108.593 841.416 117.207C832.802 125.821 828.634 136.936 828.634 150.274C828.634 163.612 832.802 174.727 841.416 183.341V183.341Z" fill="#002549"/>
<path d="M1102.34 66.9075H1145.41V233.633H1102.34V215.015C1091.78 230.576 1075.39 238.356 1052.6 238.356C1034.26 238.356 1019.26 232.243 1007.31 220.017C995.358 207.79 989.522 190.84 989.522 169.443V66.9075H1032.59V163.886C1032.59 175.001 1035.65 183.615 1041.49 189.45C1047.6 195.286 1055.38 198.342 1065.38 198.342C1076.5 198.342 1085.39 195.008 1092.06 188.061C1098.73 181.114 1102.06 170.833 1102.06 156.939V66.9075H1102.34Z" fill="#002549"/>
<path d="M1280.18 108.291H1242.39V177.76C1242.39 183.595 1243.78 187.763 1246.84 190.542C1249.62 193.321 1254.06 194.71 1259.62 194.988C1265.18 195.266 1272.12 195.266 1280.18 194.988V233.891C1250.73 237.225 1229.89 234.446 1217.66 225.554C1205.43 216.662 1199.6 200.823 1199.6 177.76V108.291H1170.7V66.8876H1199.6V33.2647L1242.67 20.2046V66.8876H1280.46V108.291H1280.18Z" fill="#002549"/>
<path d="M1447.46 212.796C1430.24 229.746 1409.39 238.36 1384.66 238.36C1359.93 238.36 1339.09 229.746 1322.14 212.796C1305.19 195.845 1296.58 175.005 1296.58 150.274C1296.58 125.543 1305.19 104.702 1322.14 87.752C1339.09 70.8016 1359.93 62.1875 1384.66 62.1875C1409.39 62.1875 1430.24 70.8016 1447.46 87.752C1464.69 104.702 1473.03 125.543 1473.03 150.274C1473.03 175.005 1464.41 195.845 1447.46 212.796ZM1352.71 183.341C1361.32 191.955 1371.88 196.401 1384.94 196.401C1398 196.401 1408.56 191.955 1417.17 183.341C1425.79 174.727 1430.24 163.612 1430.24 150.274C1430.24 136.936 1425.79 125.821 1417.17 117.207C1408.56 108.593 1397.72 104.147 1384.94 104.147C1372.16 104.147 1361.32 108.593 1352.71 117.207C1344.09 125.821 1339.93 136.936 1339.93 150.274C1339.93 163.612 1344.09 174.727 1352.71 183.341Z" fill="#002549"/>
<path d="M1546.39 95.5247C1550.28 84.9655 1556.95 76.9071 1566.12 71.6275C1575.29 66.3478 1585.57 63.5691 1596.96 63.5691V111.641C1583.9 109.974 1572.23 112.753 1561.67 119.7C1551.11 126.647 1546.11 138.04 1546.11 154.156V233.907H1503.04V66.9036H1546.11V95.5247H1546.39Z" fill="#002549"/>
<path d="M868.095 253.903H917.278V502.879H880.043L773.339 350.603V502.879H724.155V253.903H761.391L868.095 405.623V253.903V253.903Z" fill="#002549"/>
<path d="M1000.08 432.58C1006.2 454.81 1022.87 465.925 1050.1 465.925C1067.61 465.925 1080.94 460.089 1089.84 448.141L1126.79 469.537C1109.29 494.823 1083.45 507.606 1049.27 507.606C1019.81 507.606 996.192 498.714 978.408 480.93C960.624 463.146 951.732 440.638 951.732 413.684C951.732 386.73 960.624 364.5 978.131 346.716C995.637 328.932 1018.14 319.762 1045.65 319.762C1071.77 319.762 1093.17 328.654 1110.12 346.716C1127.07 364.778 1135.41 387.008 1135.41 413.684C1135.41 419.519 1134.85 425.91 1133.74 432.58H999.805H1000.08ZM999.249 397.011H1089.84C1087.34 384.785 1081.78 375.893 1073.72 370.058C1065.66 364.222 1056.21 361.166 1045.93 361.166C1033.71 361.166 1023.42 364.222 1015.37 370.613C1007.31 377.004 1002.03 385.619 999.249 397.011V397.011Z" fill="#002549"/>
<path d="M1264.35 368.928H1224.05V442.843C1224.05 448.956 1225.72 453.402 1228.78 456.459C1231.83 459.238 1236.28 460.905 1242.39 461.183C1248.23 461.461 1255.73 461.461 1264.35 461.183V502.864C1232.95 506.476 1210.72 503.42 1197.66 493.972C1184.87 484.524 1178.2 467.574 1178.2 443.121V369.206H1147.36V325.024H1178.2V289.178L1224.05 275.284V325.024H1264.35V369.206V368.928Z" fill="#002549"/>
<path d="M555.205 438.954C555.205 426.449 559.373 416.168 567.709 407.831C576.046 399.495 587.716 395.605 602.444 395.605H672.746V425.06H606.056C598.554 425.06 592.44 427.005 588.55 431.173C584.66 435.341 582.437 440.899 582.437 447.568C582.437 455.07 584.938 461.184 589.662 465.907C594.385 470.631 601.61 472.854 611.058 472.854H673.024V502.309H558.54V472.854H571.322C560.763 465.63 555.205 454.237 555.205 438.676V438.954Z" fill="#002549"/>
<path d="M558.538 283.627V254.172H673.023V283.627H659.407C670.522 292.519 676.079 305.023 676.079 320.862C676.079 336.701 670.244 349.205 658.573 360.042C646.902 370.879 632.453 376.437 615.503 376.437C598.552 376.437 584.103 370.879 572.432 360.042C560.761 349.205 554.926 336.145 554.926 320.862C554.926 304.745 560.483 292.519 571.598 283.627H557.982H558.538ZM639.122 338.09C645.235 332.255 648.292 324.474 648.292 315.304C648.292 306.135 645.235 298.632 639.122 292.519C633.009 286.405 625.228 283.349 615.78 283.349C606.333 283.349 598.552 286.405 592.439 292.519C586.326 298.632 583.269 306.135 583.269 315.304C583.269 324.474 586.326 331.977 592.439 338.09C598.552 344.203 606.333 346.982 615.78 346.982C625.228 346.982 633.009 343.926 639.122 338.09Z" fill="#002549"/>
<path d="M184.506 151.199C165.907 140.497 150.828 149.264 150.828 170.764V329.423C150.828 350.944 165.907 359.699 184.506 349.008L322.76 269.478C341.366 258.773 341.366 241.43 322.76 230.727L184.506 151.199Z" fill="#002549"/>
<path d="M26.1319 140.545C26.1319 84.1364 71.9813 38.287 128.39 38.287H150.62V18.28H125.333C59.7548 18.28 6.68066 71.632 6.68066 137.211V244.748H26.1319V140.823V140.545Z" fill="#004D99"/>
<path d="M360.973 39.4008C417.66 39.4008 463.509 85.2502 463.509 141.937V245.862H481.849V138.324C481.849 72.7458 428.497 19.3938 362.918 19.3938H338.188V39.4008H360.973V39.4008Z" fill="#004D99"/>
<path d="M150.617 15.2128C150.617 6.9256 143.899 0.20752 135.612 0.20752C127.325 0.20752 120.606 6.9256 120.606 15.2128V42.7224C120.606 51.0096 127.325 57.7277 135.612 57.7277C143.899 57.7277 150.617 51.0096 150.617 42.7224V15.2128Z" fill="#0073E2"/>
<path d="M366.806 15.2128C366.806 6.9256 360.088 0.20752 351.801 0.20752C343.514 0.20752 336.796 6.9256 336.796 15.2128V42.7224C336.796 51.0096 343.514 57.7277 351.801 57.7277C360.088 57.7277 366.806 51.0096 366.806 42.7224V15.2128Z" fill="#0073E2"/>
<path d="M305 500.5V535L254.544 500.654H198.413L297.615 566.232C314.287 577.625 335.683 583.183 335.683 549.004V499.119L305 499.119V500.5Z" fill="#004D99"/>
<path fill-rule="evenodd" clip-rule="evenodd" d="M16.2329 227.305C25.1917 227.305 32.4541 234.595 32.4541 243.589V250.081C32.4542 250.088 32.4542 250.096 32.4542 250.103L32.4541 250.133V268.014C32.4541 268.356 32.4436 268.696 32.423 269.032L32.2452 376.73C32.2452 426.748 72.815 467.317 122.832 467.317V467.595H202.583L246.487 495.661L254.545 500.663H127.834C57.254 500.663 0.0117188 443.42 0.0117188 373.118V268.014V248.074V243.589C0.0117188 234.595 7.2742 227.305 16.2329 227.305Z" fill="#002549"/>
<path fill-rule="evenodd" clip-rule="evenodd" d="M471.084 227H471.916C480.799 227 488 236.082 488 247.286V253.796V277.714V373.263C488 443.512 431.686 501 361.428 501H305V483.852C305 475.002 312.192 467.811 321.043 467.811H365.3C415.09 467.811 455.474 427.432 455.474 377.649L455.104 280.038C455.035 279.276 455 278.5 455 277.714V252.5V247.286C455 236.082 462.201 227 471.084 227Z" fill="#002549"/>
</svg>
