<svg width="96" height="33" viewBox="0 0 96 33" fill="none" xmlns="http://www.w3.org/2000/svg">
<path d="M7.30591 0.00236074C7.29791 0.384304 7.28992 0.766243 7.27993 1.14819C4.3024 1.22066 1.84045 3.70622 1.68458 6.5894C1.64062 8.39335 1.70257 10.1993 1.65461 12.0032C1.26893 11.8857 0.921212 11.9053 0.52754 11.964C0.521545 10.2404 0.52754 8.5148 0.521545 6.79115C0.513552 4.98329 1.2969 3.16758 2.59782 1.89052C3.83479 0.729023 5.57535 -0.048565 7.30591 0.00236074Z" fill="#034F9B"/>
<path d="M20.8986 0C22.8907 0.0314272 24.8219 0.938884 26.0898 2.47685C27.1555 3.72804 27.6913 5.35833 27.658 6.9945C27.6324 8.66407 27.6933 10.3356 27.6207 12.0032C27.2949 11.9364 26.9592 11.9246 26.6119 11.9679C26.6099 10.3081 26.6217 8.64836 26.6119 6.98665C26.5765 4.82407 25.3734 2.78719 23.4245 1.81492C22.6139 1.34351 21.7229 1.3494 20.875 1.0037C20.8848 0.669788 20.8907 0.333914 20.8986 0Z" fill="#034F9B"/>
<path d="M9.51606 7.34171C10.0235 7.24622 10.3997 7.34935 10.8339 7.60718C13.3402 9.01282 15.8272 10.449 18.3315 11.8585C18.7657 12.1239 19.2442 12.4123 19.3078 12.9643C19.329 13.541 18.947 13.8867 18.484 14.1598C16.2362 15.4394 13.9884 16.7209 11.7407 18.0005C11.3027 18.2469 10.8609 18.541 10.3882 18.7129C10.0331 18.816 9.52185 18.8561 9.25945 18.5429C8.92952 18.1991 8.86971 17.7847 8.87164 17.3283C8.87357 14.4597 8.8755 11.5987 8.87164 8.73016C8.86006 8.18395 9.03178 7.64537 9.51606 7.34171Z" fill="#0081F8"/>
<path d="M0.392567 12.0484C0.781589 11.9912 1.1252 11.9722 1.50632 12.0865C2.14613 12.868 1.85387 13.7048 1.91311 14.6388C1.95261 16.6079 1.8361 18.5788 1.90719 20.5459C1.9684 22.9705 4.13073 25.113 6.63469 25.2655C8.19868 25.3398 9.77451 25.256 11.3405 25.2979C11.7394 25.296 12.1047 25.5705 12.4325 25.7687C13.1454 26.2453 13.8938 26.6608 14.6126 27.124C13.5838 27.1392 12.5549 27.1297 11.5261 27.1354C10.0115 27.1202 8.49686 27.1564 6.98224 27.1221C4.49606 27.0077 2.14415 25.62 0.965238 23.4985C0.321476 22.4025 0.00947354 21.2359 0.00157461 19.976C0.00947354 17.6867 0.00551998 15.4013 0.00354525 13.1101C-0.0280504 12.687 0.1556 12.382 0.392567 12.0484Z" fill="#0081F8"/>
<path d="M26.7886 12.0276C27.1351 11.9857 27.47 11.9971 27.795 12.062C28.028 12.3326 28.2003 12.5347 28.1709 12.9121C28.1748 15.2623 28.165 17.6202 28.1729 19.9723C28.3452 23.0793 25.978 26.11 22.8941 26.8686C21.7565 27.1965 20.6757 27.126 19.5067 27.1298C18.9193 27.126 18.3339 27.1298 17.7465 27.1374C17.7445 26.781 17.7387 26.4226 17.7583 26.0681C17.7211 25.622 18.2066 25.3113 18.6217 25.2999C19.4715 25.2504 20.3291 25.3152 21.1808 25.2866C22.5436 25.2732 23.9416 24.7395 24.8893 23.7731C25.7606 22.8277 26.3284 21.6402 26.3421 20.3555C26.3402 18.2587 26.3441 16.1601 26.3382 14.0634C26.3656 13.2819 26.1698 12.6414 26.7886 12.0276Z" fill="#0081F8"/>
<path d="M11.4805 27.1507C12.5116 27.1442 13.5427 27.155 14.5738 27.1377C15.5733 27.7991 16.4777 28.627 17.5049 29.2322C17.5148 28.5405 17.5168 27.8488 17.5108 27.1572C18.1046 27.1485 18.6963 27.1442 19.2901 27.1485C19.2643 28.3978 19.387 29.6883 19.2149 30.9246C19.1436 31.4153 18.8863 31.7871 18.4094 31.8346C17.8453 31.8303 17.307 31.4218 16.8478 31.0997C15.9078 30.3929 14.9321 29.7444 13.988 29.042C13.139 28.4086 12.2484 27.9115 11.4805 27.1507Z" fill="#034F9B"/>
<path d="M74.1859 1.61426C74.1945 2.56837 74.1902 3.52248 74.1945 4.47659C74.981 4.47449 75.7675 4.47659 76.554 4.48501C76.567 5.31907 76.5734 6.15312 76.5239 6.98507C75.7266 6.98507 74.9315 6.98508 74.1364 6.98929C74.1364 8.35411 74.1256 9.72104 74.1299 11.088C74.1083 11.5429 74.2829 12.1116 74.7763 12.2506C75.3301 12.3306 75.9098 12.2969 76.4678 12.2885C76.4937 13.1015 76.4937 13.9124 76.4743 14.7254C75.2849 14.7864 73.8562 14.9191 72.781 14.3168C71.8458 13.8513 71.4924 12.6339 71.4579 11.684C71.4385 10.117 71.4644 8.54998 71.4515 6.98507C70.8568 6.98507 70.262 6.98718 69.6673 6.98718C69.6652 6.15102 69.6651 5.31486 69.6716 4.47659C70.2642 4.47659 70.8589 4.47448 71.4515 4.47237C71.4493 3.78786 71.4536 3.10124 71.4709 2.41672C72.3716 2.1387 73.2787 1.87543 74.1859 1.61426Z" fill="#0081F8"/>
<path fill-rule="evenodd" clip-rule="evenodd" d="M34.0869 0.36269C33.3372 0.36458 32.5875 0.36647 31.8382 0.363421C31.8382 1.73585 31.8371 3.10828 31.8361 4.48071C31.8335 7.91174 31.8309 11.3428 31.8446 14.7738C32.6155 14.7683 33.3873 14.7724 34.1594 14.7765C35.4699 14.7835 36.781 14.7905 38.0897 14.7505C41.079 14.6107 43.7296 12.3106 44.3689 9.42391C44.8717 7.2128 44.5116 4.78142 43.0691 2.98119C41.8248 1.45628 40.0904 0.437552 38.0854 0.380368C36.7531 0.355968 35.4198 0.35933 34.0869 0.36269ZM35.8839 2.87466C35.5065 2.87955 35.1318 2.8844 34.764 2.87801C34.764 3.79457 34.7634 4.71114 34.7629 5.6277C34.7615 7.76675 34.7602 9.9058 34.7661 12.0449C35.2301 12.0182 35.7186 12.0325 36.2129 12.047C37.5191 12.0854 38.8664 12.1249 39.9127 11.4121C41.4418 10.5116 41.9883 8.71499 41.8464 6.99391C41.7976 5.24908 40.5989 3.54528 38.9384 3.05941C37.9566 2.84783 36.9103 2.86138 35.8839 2.87466Z" fill="#0081F8"/>
<path d="M95.5399 4.15316C95.7326 4.0845 95.8766 4.12956 95.9698 4.28833C96.0375 5.21089 95.9698 6.14419 95.9888 7.0689C95.2541 7.10323 94.5829 7.11181 93.9519 7.54949C93.2362 8.00219 92.8656 8.73166 92.855 9.58128C92.8275 11.3106 92.8614 13.042 92.8423 14.7691C92.025 14.7584 91.2013 14.812 90.3882 14.7541C90.2019 14.6511 90.1236 14.5009 90.1553 14.3078C90.1574 10.9866 90.1553 7.6632 90.1595 4.34411C91.0552 4.33124 91.9509 4.33339 92.8466 4.33768C92.8487 4.92769 92.8466 5.51771 92.8339 6.10772C93.3505 4.91697 94.278 4.30334 95.5399 4.15316Z" fill="#0081F8"/>
<path d="M58.6148 4.33929C59.4654 4.35635 60.3138 4.35635 61.1644 4.33288C61.2471 6.28254 61.1623 8.23861 61.2026 10.1904C61.2471 10.9349 61.3892 11.707 62.0213 12.1785C62.8082 12.6648 64.2167 12.5837 64.8933 11.9054C65.4278 11.2676 65.5806 10.3589 65.5742 9.5462C65.5657 7.81838 65.5721 6.08843 65.5678 4.36061C66.3717 4.39261 67.4259 4.24116 68.1789 4.4246C68.2213 7.85251 68.1938 11.2996 68.1895 14.7296C67.3262 14.7275 66.4651 14.7275 65.6018 14.7254C65.5827 14.3649 65.5636 14.0023 65.5445 13.6418C64.1021 15.3867 61.1198 15.4506 59.6117 13.7698C58.7315 12.8952 58.5702 11.5855 58.5893 10.3994C58.6127 8.37939 58.5639 6.35934 58.6148 4.33929Z" fill="#0081F8"/>
<path fill-rule="evenodd" clip-rule="evenodd" d="M54.5277 5.08261C53.2967 4.22782 51.7558 3.95633 50.2838 4.21722C48.5794 4.53114 47.1741 5.63198 46.3778 7.13157C45.5019 9.00024 45.6805 11.2974 46.9955 12.9242C48.687 15.1683 52.2013 15.6392 54.5083 14.0675C55.6059 13.2975 56.4688 12.1543 56.7572 10.8435C57.3039 8.71814 56.4021 6.2895 54.5277 5.08261ZM52.8884 7.02896C52.2269 6.59153 51.4689 6.57847 50.7108 6.68946C49.4115 6.95279 48.5052 8.24331 48.5568 9.56866C48.5138 10.9158 49.4716 12.2107 50.8053 12.4239C52.169 12.7047 53.552 11.9669 54.0116 10.6198C54.484 9.34233 54.0395 7.77324 52.8884 7.02896Z" fill="#0081F8"/>
<path fill-rule="evenodd" clip-rule="evenodd" d="M87.9439 6.34891C86.7203 4.54841 84.5164 3.698 82.3888 4.0967C80.3352 4.44662 78.6014 6.09866 78.1547 8.13669C77.7207 9.9075 78.2055 11.9985 79.5413 13.2795C81.4509 15.2475 84.798 15.4044 86.8981 13.6548C89.0618 11.9519 89.4936 8.59477 87.9439 6.34891ZM84.2975 6.6362C83.796 6.4729 83.2152 6.48814 82.6966 6.56216C82.0622 6.67974 81.5328 7.03029 81.1406 7.5463C80.0475 8.89623 80.3969 11.2129 81.985 12.0141C83.2731 12.7587 85.0755 12.2623 85.7806 10.9298C86.2114 10.22 86.2029 9.36433 86.0721 8.56962C85.8407 7.75531 85.0862 6.9236 84.2975 6.6362Z" fill="#0081F8"/>
<path d="M33.1228 25.5263C33.758 25.0004 34.4888 24.9596 35.2706 24.9553C36.6429 24.9617 38.0153 24.9489 39.3898 24.9703C39.3877 25.5713 39.3898 26.1745 39.3919 26.7755C37.941 26.812 36.4815 26.739 35.0327 26.8055C34.3571 26.857 33.8026 27.443 33.8217 28.1342C33.758 28.9863 34.423 29.7547 35.2748 29.7611C36.6514 29.8169 38.0366 29.774 39.4132 29.7783C39.4344 30.4008 39.4302 31.0211 39.4025 31.6436C37.0423 31.6199 34.6821 31.6436 32.324 31.6307C32.3219 31.0125 32.3219 30.3965 32.324 29.7783C32.596 29.7869 32.8658 29.7955 33.1377 29.8062C31.7717 28.8639 31.7717 26.4814 33.1228 25.5263Z" fill="#0081F8"/>
<path d="M41.2734 16.5905C42.0169 16.5505 42.7838 16.54 43.5273 16.599C43.8184 16.8454 44.0202 17.2182 44.2432 17.5257C46.1891 20.2998 48.169 23.0486 50.1149 25.8226C50.1361 22.7411 50.1191 19.6574 50.1234 16.5758C51.1367 16.5695 52.1478 16.5695 53.159 16.5758C53.1441 21.6542 53.1909 26.7389 53.1356 31.8152C52.3794 31.8089 51.6231 31.8089 50.869 31.8068C48.6873 28.681 46.4568 25.5888 44.2793 22.463C44.2666 25.5762 44.2751 28.6894 44.2751 31.8026C43.2682 31.8131 42.2634 31.8089 41.2564 31.8089C41.2628 26.7473 41.2288 21.6479 41.2734 16.5905Z" fill="#0081F8"/>
<path d="M72.1444 17.8115C72.1465 18.8317 72.1336 19.8499 72.1594 20.868C73.0008 20.8554 73.8422 20.8554 74.6836 20.8575C74.6879 21.7494 74.6901 22.6413 74.6772 23.5332C73.8336 23.5353 72.9901 23.5353 72.1465 23.5542C72.1444 24.9194 72.1422 26.2826 72.1401 27.6478C72.1314 28.1148 72.2584 28.546 72.3875 28.9877C73.1472 29.2612 73.9025 29.2128 74.6922 29.2002C74.6858 30.0521 74.6858 30.9041 74.6836 31.7581C73.4054 31.7791 71.7914 32.0253 70.6767 31.2995C69.7041 30.761 69.3964 29.644 69.3339 28.6259C69.2866 26.9494 69.3382 25.2707 69.3124 23.5921C68.669 23.5837 68.0234 23.5795 67.38 23.5795C67.3757 22.6728 67.3714 21.7662 67.4015 20.8596C68.0406 20.8575 68.6798 20.8533 69.3167 20.847C69.3167 20.1128 69.3167 19.3808 69.3232 18.6487C70.27 18.3837 71.2169 18.1355 72.1444 17.8115Z" fill="#0081F8"/>
<path fill-rule="evenodd" clip-rule="evenodd" d="M32.0542 17.9878C32.2945 17.9857 32.5369 17.9857 32.7771 17.9857C31.7205 19.0753 31.527 20.7278 32.3221 22.0184C33.5467 24.0326 36.8676 24.2886 38.4112 22.5262C39.1191 21.7708 39.5082 20.7637 39.3041 19.7291C39.2268 19.0803 38.8799 18.6134 38.5077 18.1127C38.4806 18.0762 38.4533 18.0395 38.426 18.0026L39.1638 17.9772C39.1617 17.3806 39.1617 16.7839 39.1638 16.1894C37.5475 16.1764 35.9311 16.1782 34.3148 16.1799C33.5606 16.1808 32.8063 16.1816 32.0521 16.1809C32.0521 16.7839 32.0521 17.3848 32.0542 17.9878ZM34.0671 18.6122C33.4767 19.1465 33.4135 20.1126 33.6096 20.8371C34.1767 22.0298 35.6019 22.3675 36.6834 21.6857C37.5499 21.1535 37.67 19.8796 37.2379 19.0354C36.6012 17.9133 34.9799 17.7487 34.0671 18.6122Z" fill="#0081F8"/>
<path fill-rule="evenodd" clip-rule="evenodd" d="M65.5178 22.7981C64.7256 21.7677 63.7263 20.902 62.408 20.6656C61.1658 20.4333 59.7841 20.4734 58.6074 20.978C57.3039 21.546 56.237 22.6039 55.7046 23.9278C54.9715 25.7478 55.1278 27.9248 56.2095 29.5738C57.082 30.9399 58.6517 31.831 60.2531 31.9851C61.6094 32.0738 62.989 32.0675 64.2059 31.3812C64.9348 30.9357 65.653 30.4944 65.9657 29.6583C65.6469 29.5127 65.3493 29.3323 65.0534 29.153C64.62 28.8903 64.1902 28.6299 63.7031 28.4843C63.1939 28.9763 62.6763 29.388 61.9454 29.4577C61.0749 29.5253 60.2383 29.5274 59.463 29.0776C58.8876 28.7928 58.6148 28.3195 58.3189 27.8061C58.2704 27.7219 58.2212 27.6367 58.1701 27.551C59.8947 27.4674 61.6286 27.4797 63.3616 27.492C64.3862 27.4993 65.4106 27.5066 66.4326 27.494C66.7009 25.8914 66.4939 24.1368 65.5178 22.7981ZM63.734 25.0894C63.538 24.5801 63.3573 24.1104 62.9264 23.742C61.8692 22.7825 60.1651 22.8293 59.0867 23.7197C58.6969 24.0573 58.5058 24.5189 58.311 24.9894C58.2682 25.0931 58.2251 25.1971 58.1797 25.3004C59.7214 25.3497 61.266 25.3376 62.8087 25.3255C63.1469 25.3228 63.485 25.3202 63.8229 25.3182C63.7923 25.2412 63.763 25.1649 63.734 25.0894Z" fill="#0081F8"/>
</svg>
