<svg width="446" height="446" viewBox="0 0 446 446" fill="none" xmlns="http://www.w3.org/2000/svg">
<rect x="0.648438" y="0.294434" width="445.044" height="445.044" rx="127.156" fill="white"/>
<path d="M189.194 156.751C178.732 150.731 170.25 155.662 170.25 167.756V257.001C170.25 269.107 178.732 274.031 189.194 268.018L266.961 223.282C277.427 217.261 277.427 207.505 266.961 201.485L189.194 156.751Z" fill="#363636"/>
<path d="M100.11 150.758C100.11 119.028 125.9 93.2378 157.63 93.2378H170.134V81.9839H155.911C119.023 81.9839 89.1689 111.994 89.1689 148.882V209.371H100.11V150.914V150.758Z" fill="#888888"/>
<path d="M288.456 93.8637C320.342 93.8637 346.132 119.654 346.132 151.54V209.997H356.448V149.508C356.448 112.62 326.437 82.6099 289.55 82.6099H275.639V93.8637H288.456V93.8637Z" fill="#888888"/>
<path d="M170.135 80.26C170.135 75.5985 166.356 71.8196 161.694 71.8196C157.033 71.8196 153.254 75.5985 153.254 80.26V95.734C153.254 100.396 157.033 104.174 161.694 104.174C166.356 104.174 170.135 100.396 170.135 95.734V80.26Z" fill="#525252"/>
<path d="M291.738 80.26C291.738 75.5985 287.959 71.8196 283.298 71.8196C278.636 71.8196 274.857 75.5985 274.857 80.26V95.734C274.857 100.396 278.636 104.174 283.298 104.174C287.959 104.174 291.738 100.396 291.738 95.734V80.26Z" fill="#525252"/>
<path d="M154.504 334.567C126.37 334.567 103.549 311.747 103.549 283.612L103.667 212.385C103.667 210.822 102.299 209.212 100.579 209.212H87.2936C86.1995 209.212 85.418 210.15 85.418 211.244V281.581C85.418 321.125 117.617 353.324 157.318 353.324H228.592L224.059 350.51L199.363 334.724H154.504V334.567Z" fill="#363636"/>
<path d="M355.975 209.212H345.347C343.471 209.212 341.883 210.846 341.883 212.878L341.752 283.612C341.752 311.747 318.932 334.567 290.797 334.567H265.788C260.787 334.567 256.723 338.631 256.723 343.633V353.324H288.609C328.31 353.324 360.131 320.835 360.131 281.134V213.618C360.131 211.117 358.476 209.212 356.132 209.212H355.975Z" fill="#363636"/>
<path d="M256.729 353.317V372.543L228.594 353.317H197.021L252.821 390.205C262.199 396.613 274.235 399.739 274.235 380.514V352.454L256.729 352.208V353.317Z" fill="#888888"/>
<path d="M103.667 208.719C103.667 203.661 99.5816 199.56 94.5423 199.56C89.5031 199.56 85.418 203.661 85.418 208.719V222.459C85.418 227.518 89.5031 231.618 94.5423 231.618C99.5816 231.618 103.667 227.518 103.667 222.459V208.719Z" fill="#363636"/>
<path d="M351.246 199.56H350.786C345.874 199.56 341.892 203.661 341.892 208.719V222.459C341.892 227.518 345.874 231.618 350.786 231.618H351.246C356.158 231.618 360.14 227.518 360.14 222.459V208.719C360.14 203.661 356.158 199.56 351.246 199.56Z" fill="#363636"/>
</svg>
