<svg width="446" height="446" viewBox="0 0 446 446" fill="none" xmlns="http://www.w3.org/2000/svg">
<rect x="0.648438" y="0.427002" width="445.044" height="445.044" rx="127.156" fill="white"/>
<path d="M189.194 156.883C178.732 150.864 170.25 155.795 170.25 167.888V257.133C170.25 269.239 178.732 274.164 189.194 268.15L266.961 223.415C277.427 217.393 277.427 207.638 266.961 201.618L189.194 156.883Z" fill="#002549"/>
<path d="M256.729 353.45V372.675L228.594 353.45H197.021L252.821 390.337C262.199 396.746 274.235 399.872 274.235 380.647V352.587L256.729 352.34V353.45Z" fill="#004D99"/>
<path d="M100.11 150.89C100.11 119.16 125.9 93.3703 157.63 93.3703H170.134V82.1165H155.911C119.023 82.1165 89.1689 112.127 89.1689 149.014V209.504H100.11V151.046V150.89Z" fill="#004D99"/>
<path d="M288.456 93.9963C320.342 93.9963 346.132 119.786 346.132 151.672V210.13H356.448V149.64C356.448 112.753 326.437 82.7424 289.55 82.7424H275.639V93.9963H288.456V93.9963Z" fill="#004D99"/>
<path d="M170.135 80.3925C170.135 75.731 166.356 71.9521 161.694 71.9521C157.033 71.9521 153.254 75.731 153.254 80.3925V95.8666C153.254 100.528 157.033 104.307 161.694 104.307C166.356 104.307 170.135 100.528 170.135 95.8666V80.3925Z" fill="#0073E2"/>
<path d="M291.738 80.3925C291.738 75.731 287.959 71.9521 283.298 71.9521C278.636 71.9521 274.857 75.731 274.857 80.3925V95.8666C274.857 100.528 278.636 104.307 283.298 104.307C287.959 104.307 291.738 100.528 291.738 95.8666V80.3925Z" fill="#0073E2"/>
<path d="M154.504 334.7C126.37 334.7 103.549 311.88 103.549 283.745L103.667 212.517C103.667 210.954 102.299 209.344 100.579 209.344H87.2936C86.1995 209.344 85.418 210.282 85.418 211.376V281.713C85.418 321.258 117.617 353.456 157.318 353.456H228.592L224.059 350.643L199.363 334.856H154.504V334.7Z" fill="#002549"/>
<path d="M355.975 209.344H345.347C343.471 209.344 341.883 210.979 341.883 213.011L341.752 283.745C341.752 311.88 318.932 334.7 290.797 334.7H265.788C260.787 334.7 256.723 338.764 256.723 343.765V353.456H288.609C328.31 353.456 360.131 320.967 360.131 281.266V213.75C360.131 211.25 358.476 209.344 356.132 209.344H355.975Z" fill="#002549"/>
<path d="M103.667 208.852C103.667 203.793 99.5816 199.692 94.5423 199.692C89.5031 199.692 85.418 203.793 85.418 208.852V222.591C85.418 227.65 89.5031 231.751 94.5423 231.751C99.5816 231.751 103.667 227.65 103.667 222.591V208.852Z" fill="#002549"/>
<path d="M351.246 199.692H350.786C345.874 199.692 341.892 203.793 341.892 208.852V222.591C341.892 227.65 345.874 231.751 350.786 231.751H351.246C356.158 231.751 360.14 227.65 360.14 222.591V208.852C360.14 203.793 356.158 199.692 351.246 199.692Z" fill="#002549"/>
</svg>
