<svg width="446" height="446" viewBox="0 0 446 446" fill="none" xmlns="http://www.w3.org/2000/svg">
<rect x="0.648438" y="0.0297852" width="445.044" height="445.044" rx="127.156" fill="#23A6F0"/>
<path fill-rule="evenodd" clip-rule="evenodd" d="M170.135 79.9951C170.135 75.3336 166.356 71.5547 161.694 71.5547C157.033 71.5547 153.254 75.3336 153.254 79.9951V81.7711C117.6 83.1708 89.1689 112.619 89.1689 148.617V201.051C86.8953 202.717 85.418 205.412 85.418 208.455V210.979V222.194V281.316C85.418 320.86 117.617 353.059 157.318 353.059H197.031L252.821 389.94C262.199 396.348 274.235 399.475 274.235 380.249V353.059H288.609C328.31 353.059 360.131 320.57 360.131 280.869V213.353C360.131 210.966 358.624 209.122 356.448 208.959V149.243C356.448 113.088 327.617 83.5392 291.738 82.3803V79.9951C291.738 75.3336 287.959 71.5547 283.298 71.5547C278.636 71.5547 274.857 75.3336 274.857 79.9951V95.4691C274.857 100.131 278.636 103.91 283.298 103.91C287.959 103.91 291.738 100.131 291.738 95.4691V93.6904C322.093 95.3884 346.132 120.491 346.132 151.275V208.947H345.347C343.471 208.947 341.883 210.581 341.883 212.613L341.752 283.348C341.752 311.482 318.932 334.303 290.797 334.303H265.788C260.787 334.303 256.723 338.366 256.723 343.368V353.059H256.729V372.278L228.594 353.052H228.581L224.059 350.246L199.363 334.459H154.504V334.303C126.37 334.303 103.549 311.482 103.549 283.348L103.649 222.767C103.661 222.577 103.667 222.386 103.667 222.194V212.137L103.667 212.12L103.667 212.108V208.455C103.667 205.5 102.273 202.872 100.11 201.197V150.649V150.493C100.11 120.235 123.563 95.3788 153.254 93.1374V95.4691C153.254 100.131 157.033 103.91 161.694 103.91C166.356 103.91 170.135 100.131 170.135 95.4691V79.9951ZM189.194 156.486C178.732 150.466 170.25 155.397 170.25 167.491V256.736C170.25 268.842 178.732 273.766 189.194 267.753L266.961 223.018C277.427 216.996 277.427 207.24 266.961 201.22L189.194 156.486Z" fill="#002549"/>
<path d="M351.246 199.295H350.786C345.874 199.295 341.892 203.396 341.892 208.455V222.194C341.892 227.253 345.874 231.354 350.786 231.354H351.246C356.158 231.354 360.14 227.253 360.14 222.194V208.455C360.14 203.396 356.158 199.295 351.246 199.295Z" fill="#002549"/>
</svg>
