<svg width="446" height="446" viewBox="0 0 446 446" fill="none" xmlns="http://www.w3.org/2000/svg">
<rect x="0.648438" y="0.559448" width="445.044" height="445.044" rx="127.156" fill="#BACE00"/>
<path d="M189.982 147.648C179.52 141.628 171.038 146.56 171.038 158.653V247.898C171.038 260.004 179.52 264.929 189.982 258.915L267.749 214.18C278.215 208.158 278.215 198.402 267.749 192.382L189.982 147.648Z" fill="white"/>
<path d="M100.898 141.656C100.898 109.926 126.688 84.1363 158.418 84.1363H170.922V72.8824H156.699C119.811 72.8824 89.957 102.893 89.957 139.78V200.27H100.898V141.812V141.656Z" fill="white"/>
<path d="M289.244 84.7624C321.13 84.7624 346.92 110.553 346.92 142.438V200.896H357.236V140.407C357.236 103.519 327.225 73.5085 290.338 73.5085H276.427V84.7624H289.244V84.7624Z" fill="white"/>
<path d="M170.923 71.1573C170.923 66.4958 167.144 62.7169 162.482 62.7169C157.821 62.7169 154.042 66.4958 154.042 71.1573V86.6314C154.042 91.2929 157.821 95.0718 162.482 95.0718C167.144 95.0718 170.923 91.2929 170.923 86.6314V71.1573Z" fill="white"/>
<path d="M292.526 71.1573C292.526 66.4958 288.747 62.7169 284.086 62.7169C279.424 62.7169 275.646 66.4958 275.646 71.1573V86.6314C275.646 91.2929 279.424 95.0718 284.086 95.0718C288.747 95.0718 292.526 91.2929 292.526 86.6314V71.1573Z" fill="white"/>
<path d="M155.292 325.463C127.158 325.463 104.337 302.643 104.337 274.508L104.455 203.281C104.455 201.718 103.087 200.108 101.368 200.108H88.0817C86.9876 200.108 86.2061 201.046 86.2061 202.14V272.477C86.2061 312.021 118.405 344.22 158.106 344.22H229.38L224.847 341.406L200.151 325.62H155.292V325.463Z" fill="white"/>
<path d="M356.764 200.108H346.135C344.259 200.108 342.671 201.742 342.671 203.774L342.54 274.508C342.54 302.643 319.72 325.463 291.585 325.463H266.576C261.575 325.463 257.511 329.527 257.511 334.529V344.22H289.397C329.098 344.22 360.919 311.731 360.919 272.03V204.514C360.919 202.013 359.264 200.108 356.92 200.108H356.764Z" fill="white"/>
<path d="M257.517 344.215V363.44L229.382 344.215H197.809L253.609 381.102C262.987 387.511 275.023 390.637 275.023 371.411V343.351L257.517 343.105V344.215Z" fill="white"/>
<path d="M104.455 199.618C104.455 194.559 100.37 190.458 95.3304 190.458C90.2912 190.458 86.2061 194.559 86.2061 199.618V213.357C86.2061 218.416 90.2912 222.517 95.3304 222.517C100.37 222.517 104.455 218.416 104.455 213.357V199.618Z" fill="white"/>
<path d="M352.034 190.458H351.574C346.662 190.458 342.68 194.559 342.68 199.618V213.357C342.68 218.416 346.662 222.517 351.574 222.517H352.034C356.946 222.517 360.928 218.416 360.928 213.357V199.618C360.928 194.559 356.946 190.458 352.034 190.458Z" fill="white"/>
</svg>
