<svg width="446" height="446" viewBox="0 0 446 446" fill="none" xmlns="http://www.w3.org/2000/svg">
<rect x="0.648438" y="0.161865" width="445.044" height="445.044" rx="127.156" fill="#002549"/>
<path fill-rule="evenodd" clip-rule="evenodd" d="M170.135 80.1272C170.135 75.4657 166.356 71.6868 161.694 71.6868C157.033 71.6868 153.254 75.4657 153.254 80.1272V81.9032C117.601 83.3034 89.1699 112.751 89.1699 148.749V201.182C86.8957 202.848 85.418 205.544 85.418 208.587V211.111V222.326V281.448C85.418 320.993 117.617 353.191 157.318 353.191H197.032L252.822 390.072C262.2 396.481 274.235 399.607 274.235 380.381V353.191H288.61C328.311 353.191 360.132 320.702 360.132 281.001V222.744C360.136 222.66 360.138 222.575 360.14 222.49C360.141 222.436 360.141 222.381 360.141 222.326V208.587C360.141 205.528 358.686 202.819 356.449 201.156V149.375C356.449 113.22 327.618 83.6715 291.739 82.5126V80.1272C291.739 75.4657 287.96 71.6868 283.299 71.6868C278.637 71.6868 274.858 75.4657 274.858 80.1272V95.6012C274.858 100.263 278.637 104.042 283.299 104.042C287.96 104.042 291.739 100.263 291.739 95.6012V93.8227C322.094 95.5207 346.133 120.623 346.133 151.407V200.78C343.589 202.392 341.893 205.285 341.893 208.587V212.48C341.887 212.568 341.883 212.656 341.883 212.745L341.753 283.48C341.753 311.614 318.932 334.435 290.798 334.435H265.789C260.788 334.435 256.724 338.499 256.724 343.5V353.191H256.729V372.41L228.595 353.184H228.581L224.059 350.378L199.363 334.591H154.504V334.435C126.37 334.435 103.549 311.614 103.549 283.48L103.649 222.899C103.661 222.709 103.667 222.518 103.667 222.326V212.27L103.667 212.252L103.667 212.24V208.587C103.667 205.633 102.274 203.005 100.111 201.33V150.781V150.625C100.111 120.368 123.563 95.5114 153.254 93.2696V95.6012C153.254 100.263 157.033 104.042 161.694 104.042C166.356 104.042 170.135 100.263 170.135 95.6012V93.1049H170.135V81.8511H170.135V80.1272ZM170.251 167.623C170.251 155.529 178.733 150.598 189.195 156.618L266.962 201.352C277.428 207.372 277.428 217.128 266.962 223.15L189.195 267.885C178.733 273.899 170.251 268.974 170.251 256.868V167.623Z" fill="white"/>
</svg>
